<?xml version="1.0" encoding="utf-8"?>
<!-- Generator: Adobe Illustrator 16.0.0, SVG Export Plug-In . SVG Version: 6.00 Build 0)  -->
<!DOCTYPE svg PUBLIC "-//W3C//DTD SVG 1.1//EN" "http://www.w3.org/Graphics/SVG/1.1/DTD/svg11.dtd">
<svg version="1.1" id="Layer_1" xmlns="http://www.w3.org/2000/svg" xmlns:xlink="http://www.w3.org/1999/xlink" x="0px" y="0px"
	 width="144px" height="36px" viewBox="0 0 144 36" enable-background="new 0 0 144 36" xml:space="preserve">
<path d="M59,22.285V18h-1v4.295c0,0.682,0.018,1.823-0.518,2.362C57.254,24.888,56.934,25,56.5,25c-0.418,0-0.73-0.111-0.959-0.341
	C54.982,24.095,55,22.911,55,22.204V22v-2.278c0-0.838,0.021-2.241-0.814-3.084c-0.42-0.424-0.986-0.639-1.686-0.639
	c-0.704,0-1.273,0.215-1.693,0.639C49.979,17.473,50,18.875,50,19.714V24h1v-4.296c0-0.682-0.018-1.823,0.518-2.362
	c0.229-0.23,0.549-0.343,0.982-0.343c0.429,0,0.748,0.112,0.977,0.343C54.018,17.889,54,19.03,54,19.713V22v0.195
	c0,0.862-0.021,2.307,0.83,3.168C55.25,25.786,55.812,26,56.5,26c0.704,0,1.273-0.215,1.693-0.639
	C59.021,24.526,59,23.124,59,22.285z"/>
<polygon fill="#60D9EF" points="60.666,13.538 60.357,12.587 59,13.027 59,12 58,12 58,13.021 56.666,12.587 56.357,13.538 
	57.703,13.975 56.872,15.119 57.681,15.707 58.512,14.562 59.344,15.707 60.152,15.119 59.32,13.975 "/>
<g>
	<path d="M61.988,18.093c-0.827,0-1.5-0.673-1.5-1.5c0-0.826,0.673-1.499,1.5-1.499s1.5,0.673,1.5,1.499
		C63.488,17.42,62.815,18.093,61.988,18.093z M61.988,16.094c-0.275,0-0.5,0.224-0.5,0.499s0.225,0.5,0.5,0.5s0.5-0.225,0.5-0.5
		S62.264,16.094,61.988,16.094z"/>
</g>
<g>
	<path d="M68.745,15.466c-0.746,0.14-1.432,0.175-2.098,0.175h-0.39v-2.042h0.655v1.497c0.561-0.011,1.136-0.056,1.747-0.16
		L68.745,15.466z M69.977,17.453v0.515h-3.148v-1.281H69.2v-0.255h-2.377v-0.516h3.038v1.256h-2.373v0.281H69.977z M69.2,14.58
		h-1.116v-0.525H69.2v-0.646h0.661v2.333H69.2V14.58z"/>
	<path d="M72.038,14.8c0,0.696,0.235,1.401,0.886,1.747l-0.35,0.49c-0.411-0.215-0.676-0.58-0.842-1.016
		c-0.154,0.48-0.425,0.886-0.84,1.121l-0.371-0.496c0.656-0.38,0.891-1.136,0.891-1.847v-0.075h-0.735v-0.535h0.735v-0.626h0.626
		v0.626h0.73v0.535h-0.73V14.8z M74.596,13.408v4.61H73.97v-2.303h-0.375v2.097h-0.615v-4.329h0.615v1.692h0.375v-1.768H74.596z"/>
	<path d="M77.619,16.012v0.395h1.256v1.562h-3.184v-1.562h1.267v-0.395h-1.752v-0.526h4.164v0.526H77.619z M75.622,14.369
		c0-0.555,0.65-0.886,1.666-0.886c1.017,0,1.672,0.331,1.672,0.886c0,0.551-0.655,0.881-1.672,0.881
		C76.272,15.25,75.622,14.92,75.622,14.369z M76.303,14.369c0,0.256,0.36,0.386,0.985,0.386c0.631,0,0.991-0.13,0.991-0.386
		c0-0.26-0.36-0.385-0.991-0.385C76.663,13.984,76.303,14.109,76.303,14.369z M78.225,16.922h-1.887v0.531h1.887V16.922z"/>
</g>
<g>
	<g>
		<path d="M68.883,22.253v2.337h-0.624v-2.337c0-0.339-0.059-0.589-0.179-0.748c-0.119-0.158-0.305-0.239-0.559-0.239
			c-0.29,0-0.513,0.104-0.669,0.309c-0.156,0.206-0.233,0.5-0.233,0.885v2.131H66v-3.771h0.619c0,0,0.26,0.188,0.448,0.076
			c0.188-0.11,0.412-0.167,0.67-0.167c0.383,0,0.67,0.127,0.859,0.38C68.787,21.358,68.883,21.741,68.883,22.253z"/>
		<path d="M68.958,24.665h-0.774v-2.412c0-0.322-0.055-0.559-0.163-0.703c-0.106-0.141-0.27-0.209-0.499-0.209
			c-0.267,0-0.466,0.091-0.609,0.279c-0.145,0.19-0.218,0.473-0.218,0.839v2.206h-0.77v-3.922h0.719l0.02,0.015
			c0.001,0.001,0.138,0.097,0.268,0.097c0.038,0,0.07-0.008,0.099-0.024c0.2-0.118,0.438-0.178,0.708-0.178
			c0.406,0,0.716,0.138,0.919,0.41c0.2,0.263,0.302,0.664,0.302,1.19V24.665z M68.334,24.515h0.474v-2.262
			c0-0.493-0.091-0.863-0.271-1.101c-0.175-0.232-0.443-0.35-0.8-0.35c-0.243,0-0.455,0.053-0.632,0.156
			c-0.052,0.03-0.11,0.046-0.175,0.046c-0.145,0-0.282-0.078-0.334-0.111h-0.521v3.621h0.469v-2.056c0-0.405,0.081-0.709,0.249-0.93
			c0.172-0.225,0.417-0.339,0.729-0.339c0.276,0,0.484,0.091,0.618,0.27c0.131,0.173,0.194,0.432,0.194,0.793V24.515z"/>
	</g>
	<g>
		<path d="M70.153,23.163v-2.338h0.619v2.338c0,0.339,0.06,0.588,0.18,0.747c0.119,0.158,0.306,0.239,0.558,0.239
			c0.292,0,0.516-0.103,0.669-0.308c0.156-0.206,0.233-0.501,0.233-0.884v-2.133h0.624v3.765h-0.624c0,0-0.26-0.183-0.45-0.07
			c-0.189,0.113-0.41,0.168-0.663,0.168c-0.387,0-0.674-0.125-0.863-0.379C70.248,24.057,70.153,23.674,70.153,23.163z"/>
		<path d="M71.299,24.763c-0.41,0-0.721-0.138-0.924-0.409c-0.196-0.265-0.297-0.665-0.297-1.19V20.75h0.77v2.413
			c0,0.321,0.055,0.558,0.164,0.702c0.104,0.139,0.272,0.209,0.498,0.209c0.271,0,0.47-0.091,0.608-0.277
			c0.146-0.191,0.219-0.474,0.219-0.839V20.75h0.774v3.915h-0.723l-0.02-0.014c-0.001-0.001-0.136-0.094-0.266-0.094
			c-0.04,0-0.073,0.009-0.104,0.026C71.802,24.702,71.566,24.763,71.299,24.763z M70.229,20.9v2.263c0,0.492,0.09,0.862,0.268,1.101
			c0.175,0.234,0.438,0.349,0.803,0.349c0.243,0,0.447-0.052,0.625-0.157c0.053-0.031,0.113-0.047,0.18-0.047
			c0.144,0,0.28,0.075,0.331,0.106h0.526V20.9h-0.474v2.058c0,0.399-0.084,0.712-0.249,0.929c-0.167,0.224-0.412,0.338-0.729,0.338
			c-0.275,0-0.483-0.091-0.617-0.27c-0.132-0.174-0.195-0.433-0.195-0.792V20.9H70.229z"/>
	</g>
	<g>
		<path d="M83.308,19.351v0.514h-0.704c-0.223,0-0.377,0.047-0.464,0.138c-0.086,0.09-0.129,0.252-0.129,0.483v0.333h1.297v0.482
			h-1.297v3.289h-0.619v-3.289h-1.007v-0.482h1.007v-0.263c0-0.413,0.094-0.718,0.283-0.911c0.19-0.197,0.487-0.294,0.889-0.294
			H83.308z"/>
		<path d="M82.086,24.665h-0.77v-3.289H80.31v-0.633h1.007v-0.188c0-0.433,0.103-0.757,0.305-0.964
			c0.203-0.21,0.52-0.316,0.942-0.316h0.819v0.664h-0.779c-0.199,0-0.337,0.038-0.41,0.114c-0.07,0.074-0.107,0.224-0.107,0.432
			v0.258h1.297v0.633h-1.297V24.665z M81.467,24.515h0.469v-3.289h1.297v-0.332h-1.297v-0.408c0-0.255,0.049-0.43,0.15-0.535
			c0.102-0.106,0.276-0.161,0.518-0.161h0.629v-0.363h-0.669c-0.38,0-0.661,0.091-0.835,0.271c-0.174,0.178-0.262,0.467-0.262,0.859
			v0.338H80.46v0.332h1.007V24.515z"/>
	</g>
	<g>
		<path d="M84.538,23.163v-2.338h0.62v2.338c0,0.339,0.059,0.588,0.18,0.747c0.119,0.158,0.306,0.239,0.557,0.239
			c0.292,0,0.517-0.103,0.67-0.308c0.155-0.206,0.232-0.501,0.232-0.884v-2.133h0.624v3.765h-0.624c0,0-0.26-0.183-0.449-0.07
			c-0.189,0.113-0.412,0.168-0.665,0.168c-0.386,0-0.673-0.125-0.861-0.379C84.633,24.057,84.538,23.674,84.538,23.163z"/>
		<path d="M85.683,24.763c-0.41,0-0.72-0.138-0.922-0.409c-0.197-0.265-0.298-0.665-0.298-1.19V20.75h0.771v2.413
			c0,0.322,0.055,0.559,0.164,0.702c0.104,0.139,0.272,0.209,0.497,0.209c0.271,0,0.471-0.091,0.609-0.277
			c0.145-0.191,0.218-0.474,0.218-0.839V20.75h0.774v3.915h-0.723l-0.02-0.014c-0.001-0.001-0.136-0.094-0.266-0.094
			c-0.039,0-0.073,0.009-0.103,0.026C86.188,24.702,85.951,24.763,85.683,24.763z M84.613,20.9v2.263
			c0,0.492,0.09,0.862,0.269,1.101c0.174,0.234,0.436,0.349,0.801,0.349c0.241,0,0.452-0.053,0.627-0.157
			c0.053-0.031,0.112-0.047,0.179-0.047c0.144,0,0.28,0.075,0.331,0.106h0.526V20.9h-0.474v2.058c0,0.398-0.083,0.711-0.248,0.929
			c-0.167,0.224-0.413,0.338-0.729,0.338c-0.274,0-0.482-0.091-0.616-0.27c-0.131-0.172-0.195-0.432-0.195-0.792V20.9H84.613z"/>
	</g>
	<g>
		<path d="M92.933,23.223c0,0.279,0.051,0.489,0.152,0.629c0.103,0.144,0.254,0.214,0.454,0.214h0.724v0.524h-0.785
			c-0.369,0-0.656-0.118-0.859-0.356c-0.204-0.238-0.305-0.575-0.305-1.011v-3.425h-0.994v-0.485h1.306l0.308,0.311V23.223z"/>
		<path d="M94.338,24.665h-0.86c-0.392,0-0.7-0.129-0.916-0.383c-0.215-0.25-0.323-0.606-0.323-1.06v-3.35h-0.994v-0.636h1.412
			l0.352,0.354v3.631c0,0.262,0.046,0.459,0.138,0.585c0.088,0.123,0.217,0.183,0.394,0.183h0.799V24.665z M91.395,19.723h0.994v3.5
			c0,0.416,0.097,0.74,0.286,0.962c0.189,0.223,0.452,0.33,0.803,0.33h0.71v-0.374h-0.648c-0.226,0-0.398-0.083-0.515-0.245
			c-0.11-0.152-0.167-0.378-0.167-0.673v-3.568l-0.264-0.267h-1.199V19.723z"/>
	</g>
	<g>
		<path d="M89.989,23.223c0,0.279,0.051,0.489,0.152,0.629c0.103,0.144,0.254,0.214,0.454,0.214h0.724v0.524h-0.785
			c-0.369,0-0.656-0.118-0.859-0.356s-0.304-0.575-0.304-1.011v-3.425h-0.995v-0.485h1.306l0.308,0.311V23.223z"/>
		<path d="M91.395,24.665h-0.86c-0.392,0-0.7-0.129-0.916-0.383c-0.214-0.251-0.322-0.607-0.322-1.06v-3.35h-0.995v-0.636h1.412
			l0.352,0.354v3.631c0,0.262,0.046,0.459,0.138,0.585c0.088,0.123,0.217,0.183,0.394,0.183h0.799V24.665z M88.451,19.723h0.995v3.5
			c0,0.416,0.096,0.739,0.285,0.962s0.452,0.33,0.803,0.33h0.71v-0.374h-0.648c-0.226,0-0.398-0.083-0.515-0.245
			c-0.11-0.152-0.167-0.378-0.167-0.673v-3.568l-0.264-0.267h-1.199V19.723z"/>
	</g>
	<g>
		<path d="M78.611,23.223c0,0.279,0.05,0.489,0.151,0.629c0.103,0.144,0.254,0.214,0.455,0.214h0.723v0.524h-0.784
			c-0.369,0-0.656-0.118-0.859-0.356c-0.204-0.238-0.305-0.575-0.305-1.011v-3.425h-0.994v-0.485h1.306l0.308,0.311V23.223z"/>
		<path d="M80.016,24.665h-0.859c-0.392,0-0.7-0.129-0.916-0.383c-0.215-0.25-0.323-0.606-0.323-1.06v-3.35h-0.994v-0.636h1.412
			l0.352,0.354v3.631c0,0.263,0.046,0.46,0.137,0.585c0.088,0.123,0.217,0.183,0.395,0.183h0.798V24.665z M77.073,19.723h0.994v3.5
			c0,0.416,0.097,0.74,0.286,0.962c0.189,0.223,0.452,0.33,0.803,0.33h0.709v-0.374h-0.647c-0.227,0-0.399-0.083-0.516-0.245
			c-0.111-0.153-0.166-0.373-0.166-0.673v-3.568l-0.264-0.267h-1.199V19.723z"/>
	</g>
	<g>
		<path d="M75.669,23.223c0,0.279,0.049,0.489,0.151,0.629c0.103,0.144,0.253,0.214,0.455,0.214h0.723v0.524h-0.785
			c-0.369,0-0.656-0.118-0.859-0.356s-0.305-0.575-0.305-1.011v-3.425h-0.993v-0.485h1.306l0.308,0.311V23.223z"/>
		<path d="M77.073,24.665h-0.86c-0.392,0-0.7-0.129-0.916-0.383c-0.215-0.251-0.323-0.607-0.323-1.06v-3.35H73.98v-0.636h1.412
			l0.352,0.354v3.631c0,0.265,0.046,0.461,0.137,0.585c0.088,0.123,0.217,0.183,0.395,0.183h0.798V24.665z M74.131,19.723h0.993v3.5
			c0,0.415,0.097,0.739,0.286,0.962s0.452,0.33,0.803,0.33h0.71v-0.374h-0.647c-0.227,0-0.399-0.083-0.516-0.245
			c-0.111-0.151-0.166-0.372-0.166-0.673v-3.568l-0.264-0.267h-1.199V19.723z"/>
	</g>
</g>
</svg>
