<?xml version="1.0" encoding="UTF-8" standalone="no"?>
<svg width="62px" height="62px" viewBox="0 0 62 62" version="1.1" xmlns="http://www.w3.org/2000/svg" xmlns:xlink="http://www.w3.org/1999/xlink">
    <!-- Generator: Sketch 48.2 (47327) - http://www.bohemiancoding.com/sketch -->
    <title>리콜이란</title>
    <desc>Created with Sketch.</desc>
    <defs>
        <polygon id="path-1" points="1.52284264e-05 0.0420340312 29.9566751 0.0420340312 29.9566751 29.2088329 1.52284264e-05 29.2088329"></polygon>
        <polygon id="path-3" points="0 2.74725275e-06 5.70965644 2.74725275e-06 5.70965644 9.51348129 0 9.51348129"></polygon>
    </defs>
    <g id="03-sub-내차포털소개" stroke="none" stroke-width="1" fill="none" fill-rule="evenodd" transform="translate(-429.000000, -1325.000000)">
        <g id="figure1" transform="translate(430.000000, 921.000000)">
            <g id="Ul" transform="translate(0.000000, 101.000000)">
                <g id="list" transform="translate(0.000000, 304.000000)">
                    <g id="리콜이란">
                        <g id="Group-12">
                            <circle id="Oval" stroke="#0E8BE4" cx="30" cy="30" r="30"></circle>
                            <g id="Group-17" transform="translate(12.857143, 12.857143)">
                                <g id="Page-1">
                                    <g id="Group-3" transform="translate(0.000000, 0.032100)">
                                        <mask id="mask-2" fill="white">
                                            <use xlink:href="#path-1"></use>
                                        </mask>
                                        <g id="Clip-2"></g>
                                        <path d="M20.0090254,23.5578875 C19.8633655,23.2589788 19.496132,23.1314682 19.1890508,23.273435 C18.6894061,23.5042886 18.1655482,23.6951097 17.6320964,23.8404125 C17.4089239,23.9012025 17.2398122,24.0787537 17.1944315,24.3000439 L16.543264,27.4698695 C16.479,27.7828636 16.1943807,28.0100846 15.8665127,28.0100846 L14.0901929,28.0100846 C13.7623249,28.0100846 13.4777817,27.7829378 13.4134416,27.4698695 L12.7622741,24.3000439 C12.7168173,24.0787537 12.5476294,23.9012025 12.3246091,23.8404125 C11.5709543,23.6350611 10.8436447,23.3416384 10.1628579,22.9682991 C9.96085279,22.8575427 9.71209645,22.8666612 9.51930457,22.9917996 L6.75641117,24.7851033 C6.48367005,24.9621355 6.1174264,24.9267735 5.88549746,24.7011094 L4.62945685,23.4781192 C4.39760406,23.2523809 4.36143655,22.8957959 4.54318782,22.6301735 L6.38506599,19.9401437 C6.51367005,19.7523621 6.52303553,19.5102401 6.40920305,19.3135624 C6.02567513,18.6506553 5.72430457,17.9424523 5.51346701,17.2088213 C5.45103046,16.9915343 5.26867005,16.8268825 5.04138579,16.7826985 L1.78570051,16.1487038 C1.46422843,16.0861346 1.23085279,15.8090214 1.23085279,15.4898 L1.23085279,13.7603257 C1.23085279,13.4411043 1.46415228,13.1640652 1.78570051,13.1014219 L5.04138579,12.4674271 C5.26867005,12.423169 5.45103046,12.2584431 5.51346701,12.0413043 C5.72438071,11.3075251 6.02575127,10.5993962 6.40920305,9.93656326 C6.52295939,9.73995964 6.51359391,9.49776356 6.38506599,9.3099819 L4.5433401,6.62024871 C4.36151269,6.35462625 4.39775635,5.99811539 4.62960914,5.77230294 L5.88564975,4.54938693 C6.11750254,4.32364862 6.48382234,4.28843492 6.75656345,4.465393 L9.51945685,6.25869673 C9.71224873,6.38390922 9.96108122,6.39295357 10.1630102,6.28219724 C10.843797,5.90885794 11.5711066,5.6154352 12.3247614,5.41008376 C12.547934,5.3492938 12.7170457,5.17174265 12.7624264,4.95045238 L13.4135939,1.7806268 C13.4778579,1.46763265 13.7624772,1.24041166 14.0903452,1.24041166 L15.866665,1.24041166 C16.194533,1.24041166 16.4790761,1.46755852 16.5434162,1.7806268 L17.1945838,4.95045238 C17.2400406,5.17174265 17.4092284,5.3492938 17.6322487,5.41008376 C18.3859036,5.6154352 19.1132132,5.90885794 19.794,6.28219724 C19.9960051,6.39295357 20.2447614,6.38383508 20.4375533,6.25869673 L23.2004467,4.465393 C23.4731878,4.28836079 23.8393553,4.32372275 24.0713604,4.54938693 L25.327401,5.77230294 C25.5592538,5.99804126 25.5954213,6.35462625 25.4135939,6.62024871 L23.5717919,9.31027843 C23.4431878,9.49806009 23.4338223,9.74018204 23.5476548,9.93685979 C23.9311066,10.5996927 24.2324772,11.3078216 24.4433909,12.0416008 C24.5058274,12.2588879 24.6881878,12.4235397 24.9154721,12.4677236 L28.1711574,13.1017184 C28.4926294,13.1642876 28.7259289,13.4414008 28.7259289,13.7606222 L28.7259289,15.4900965 C28.7259289,15.8093179 28.4927056,16.086357 28.1711574,16.1490003 L24.9154721,16.7829951 C24.6881878,16.8272531 24.5058274,16.9919791 24.4433909,17.2092661 C24.2904213,17.7415489 24.0885685,18.2636753 23.8433147,18.7611892 C23.6962843,19.059579 23.8255736,19.4175725 24.1319695,19.5607254 C24.4385178,19.7040266 24.8062843,19.5780728 24.9532386,19.2796831 C25.1745076,18.8306529 25.3644822,18.3638305 25.5198883,17.8876672 L28.4126041,17.3243964 C29.307198,17.150033 29.9566904,16.3785936 29.9566904,15.4900224 L29.9566904,13.7605481 C29.9566904,12.8719768 29.307198,12.1006116 28.4121472,11.9262482 L25.5195838,11.3629774 C25.3298376,10.7814695 25.0893807,10.2161229 24.8012589,9.67501817 L26.4377056,7.28500913 C26.9438985,6.54566981 26.8430102,5.55301429 26.1975533,4.92465371 L24.9415888,3.7017377 C24.296132,3.07337712 23.2765888,2.97522358 22.5172234,3.46799291 L20.0625533,5.06128285 C19.5067919,4.78083357 18.926132,4.54664397 18.3288731,4.36190181 L17.7503452,1.54554759 C17.5714873,0.674397851 16.7791523,0.0420340312 15.8665127,0.0420340312 L14.0901929,0.0420340312 C13.1775533,0.0420340312 12.3852944,0.674397851 12.2062081,1.54576999 L11.6276802,4.36212421 C11.0304213,4.54686637 10.4497614,4.78098184 9.894,5.06150525 L7.43940609,3.46821531 C6.68011675,2.97537185 5.66049746,3.07352539 5.01511675,3.70196011 L3.75907614,4.92487612 C3.11377157,5.55323669 3.01280711,6.54581808 3.519,7.28523153 L5.1554467,9.67524058 C4.86740102,10.2163453 4.62686802,10.7816178 4.43712183,11.3631998 L1.54440609,11.9264706 C0.649507614,12.1006857 1.52284264e-05,12.8721251 1.52284264e-05,13.7606963 L1.52284264e-05,15.4901706 C1.52284264e-05,16.3787419 0.649507614,17.1501071 1.54448223,17.3244705 L4.43712183,17.8877413 C4.62679188,18.469175 4.86732487,19.0345216 5.1554467,19.5757005 L3.519,21.9657096 C3.01280711,22.7050489 3.11369543,23.6977044 3.75907614,24.326065 L5.01511675,25.548981 C5.66049746,26.1773416 6.68004061,26.2754951 7.43940609,25.7827258 L9.89415228,24.1894359 C10.4499137,24.4698851 11.0304975,24.7040747 11.6278325,24.8888169 L12.2063604,27.7053194 C12.3852944,28.576395 13.1776294,29.2088329 14.090269,29.2088329 L15.8665888,29.2088329 C16.7792284,29.2088329 17.5714873,28.5764691 17.7505736,27.705097 L18.3291015,24.8887428 C18.8033909,24.7420314 19.2689239,24.5635906 19.7170203,24.35646 C20.0241015,24.2143449 20.1549137,23.8569444 20.0090254,23.5578875" id="Fill-1" fill="#0E8BE4" mask="url(#mask-2)"></path>
                                    </g>
                                    <path d="M12.4592056,14.6574817 C12.4592056,13.3051275 13.5893832,12.2047552 14.978368,12.2047552 C16.3673528,12.2047552 17.4975305,13.3051275 17.4975305,14.6574817 C17.4975305,16.0098358 16.3674289,17.1102081 14.978368,17.1102081 C13.589231,17.1102081 12.4592056,16.0098358 12.4592056,14.6574817 M18.7285964,14.6574817 C18.7285964,12.6441479 17.0461599,11.0061551 14.978368,11.0061551 C12.9105,11.0061551 11.2281396,12.6442221 11.2281396,14.6574817 C11.2281396,16.6708154 12.9105,18.3088082 14.978368,18.3088082 C17.046236,18.3088082 18.7285964,16.6707412 18.7285964,14.6574817" id="Fill-4" fill="#0E8BE4"></path>
                                    <path d="M14.9783604,8.7577422 C11.6370914,8.7577422 8.91881726,11.4043294 8.91881726,14.6574817 C8.91881726,17.910634 11.6370914,20.5572211 14.9783604,20.5572211 C18.3196294,20.5572211 21.0379036,17.910634 21.0379036,14.6574817 C21.0379036,11.4043294 18.3196294,8.7577422 14.9783604,8.7577422 M14.9783604,21.5209643 C11.0913046,21.5209643 7.92896954,18.4420271 7.92896954,14.6574817 C7.92896954,10.8729362 11.0913046,7.79399899 14.9783604,7.79399899 C18.8654162,7.79399899 22.0277513,10.8729362 22.0277513,14.6574817 C22.0277513,18.4420271 18.8654162,21.5209643 14.9783604,21.5209643" id="Fill-6" fill="#0E8BE4"></path>
                                </g>
                                <circle id="Oval-2" stroke="#0E8BE4" stroke-width="0.8" cx="27.1428571" cy="27.1428571" r="7.14285714"></circle>
                                <g id="Group-15" transform="translate(27.260044, 27.870771) rotate(6.000000) translate(-27.260044, -27.870771) translate(24.260044, 22.870771)">
                                    <g id="Page-1">
                                        <mask id="mask-4" fill="white">
                                            <use xlink:href="#path-3"></use>
                                        </mask>
                                        <g id="Clip-2"></g>
                                        <path d="M2.71673795,7.15082823 L2.63091849,7.15082823 C2.40206661,7.12307313 2.21433655,7.02246088 2.06772831,6.8489915 C1.92112007,6.67559014 1.85854338,6.47776701 1.87999825,6.25572619 C1.92290798,5.87414456 2.02124277,5.50460374 2.17500263,5.1472568 C2.32876249,4.78990986 2.52721998,4.47244388 2.77037511,4.19489286 C2.84904294,4.09775 2.93484487,4.00928061 3.02783348,3.92948469 C3.12083961,3.84968878 3.21375811,3.77162755 3.30672918,3.69530102 C3.54275022,3.50101531 3.72336372,3.32754592 3.8484645,3.17489286 C3.97356529,3.0222398 4.03619457,2.83489286 4.03619457,2.61285204 C4.03619457,2.41856633 3.99507274,2.25897449 3.9128291,2.13407653 C3.83063804,2.00917857 3.73048028,1.91030102 3.612461,1.83744388 C3.49444172,1.76458673 3.37109378,1.71254592 3.24236459,1.68132143 C3.11363541,1.65009694 2.99920947,1.63448469 2.89908677,1.63448469 L2.8776319,1.63448469 C2.6773865,1.63448469 2.51289921,1.6605051 2.38417003,1.71254592 C2.25544084,1.76458673 2.14637862,1.83744388 2.05698335,1.93111735 C1.96758808,2.02479082 1.89249606,2.13754592 1.83170727,2.26938265 C1.77091849,2.40121939 1.70834181,2.54346429 1.64397721,2.69611735 C1.55815776,2.91121939 1.45445925,3.06213776 1.33288168,3.14887245 C1.21130412,3.23560714 1.08972656,3.28591327 0.968148992,3.29979082 C0.832268186,3.32754592 0.692811569,3.31713776 0.549779141,3.26856633 C0.406746713,3.21305612 0.292320771,3.1332602 0.206501315,3.02917857 C0.127833479,2.93897449 0.0670446976,2.82275 0.0241349693,2.6805051 C-0.018774759,2.5382602 -0.00447151621,2.36305612 0.0670446976,2.15489286 C0.109954426,2.02305612 0.18504645,1.83397449 0.292320771,1.58764796 C0.399595092,1.34132143 0.562294479,1.10019898 0.780418931,0.864280612 C0.998543383,0.628362245 1.27924452,0.423668367 1.62252235,0.25019898 C1.96580018,0.0767295918 2.39489746,-0.00653571429 2.90979667,0.000403061225 C3.2530745,0.00734183673 3.59098861,0.0680561224 3.923539,0.182545918 C4.2560894,0.297035714 4.55466959,0.46530102 4.81927958,0.687341837 C5.08394216,0.909382653 5.29843821,1.18172959 5.46297809,1.50438265 C5.62746538,1.82703571 5.70965644,2.19652551 5.70965644,2.61285204 C5.70965644,2.91815816 5.6667993,3.18877041 5.58092726,3.42468878 C5.4951078,3.66060714 5.38604557,3.8722398 5.25374058,4.05958673 C5.12143558,4.24693367 4.97840316,4.4099949 4.82466082,4.54877041 C4.67090096,4.68754592 4.52965644,4.81244388 4.40092726,4.92348129 C4.32941104,4.98593027 4.26147064,5.04317517 4.19705346,5.09521599 C4.13268887,5.14730782 4.08268011,5.19761395 4.046922,5.24613435 C3.91819281,5.39883844 3.80913059,5.57746088 3.71973532,5.78220578 C3.63028747,5.98691667 3.57491499,6.20026701 3.55346012,6.42230782 C3.53200526,6.63742687 3.44082209,6.81261395 3.27994566,6.94792007 C3.11899912,7.08317517 2.93128659,7.15082823 2.71673795,7.15082823 M3.63929711,8.54552211 C3.63929711,8.41368537 3.61421385,8.28878741 3.56420508,8.17087925 C3.51414373,8.05288605 3.44260999,7.95057313 3.34965644,7.86378741 C3.25668536,7.77705272 3.14941104,7.70766497 3.02785101,7.65569218 C2.90625592,7.60358333 2.77754426,7.57756293 2.64166345,7.57756293 C2.50578265,7.57756293 2.37705346,7.60358333 2.2554759,7.65569218 C2.13389833,7.70771599 2.02841192,7.77710374 1.93901665,7.86378741 C1.84962138,7.95057313 1.77989308,8.05286905 1.72983173,8.17087925 C1.67977038,8.28883844 1.6547397,8.41368537 1.6547397,8.54552211 C1.6547397,8.67739286 1.67977038,8.80230782 1.72983173,8.92021599 C1.77989308,9.03822619 1.84962138,9.14052211 1.93901665,9.22729082 C2.02841192,9.31404252 2.13389833,9.38343027 2.2554759,9.43542007 C2.37705346,9.4875119 2.50578265,9.51348129 2.64166345,9.51348129 C2.77754426,9.51348129 2.90627344,9.4875119 3.02785101,9.43542007 C3.1494461,9.38337925 3.25673795,9.3139915 3.34965644,9.22729082 C3.44264505,9.14052211 3.51414373,9.03822619 3.56420508,8.92021599 C3.61426643,8.8022568 3.63929711,8.67735884 3.63929711,8.54552211" id="Fill-1" fill="#0E8BE4" mask="url(#mask-4)"></path>
                                    </g>
                                </g>
                            </g>
                        </g>
                    </g>
                </g>
            </g>
        </g>
    </g>
</svg>