<?xml version="1.0" encoding="UTF-8" standalone="no"?>
<svg width="62px" height="62px" viewBox="0 0 62 62" version="1.1" xmlns="http://www.w3.org/2000/svg" xmlns:xlink="http://www.w3.org/1999/xlink">
    <!-- Generator: Sketch 48.2 (47327) - http://www.bohemiancoding.com/sketch -->
    <title>Group 12</title>
    <desc>Created with Sketch.</desc>
    <defs></defs>
    <g id="03-sub-내차포털소개" stroke="none" stroke-width="1" fill="none" fill-rule="evenodd" transform="translate(-429.000000, -1043.000000)">
        <g id="figure1" transform="translate(430.000000, 921.000000)">
            <g id="Ul" transform="translate(0.000000, 101.000000)">
                <g id="list">
                    <g id="Group-12" transform="translate(0.000000, 22.000000)">
                        <circle id="Oval" stroke="#0E8BE4" cx="30" cy="30" r="30"></circle>
                        <g id="Group-4" transform="translate(14.062500, 13.125000)" fill="#0E8BE4" fill-rule="nonzero">
                            <g id="car-repair">
                                <path d="M29.8295899,21.8143286 L29.8295899,2.96877319 C29.8295899,1.959375 29.0540445,1.18752319 28.0398159,1.18752319 L20.2841519,1.18752319 C20.2841519,0.534375 19.7472197,0 19.090946,0 L10.738644,0 C10.0823702,0 9.54543802,0.534375 9.54543802,1.18752319 L1.789774,1.18752319 C0.775545428,1.18752319 0,1.959375 0,2.96877319 L0,33.84375 C0,34.8531482 0.775545428,35.625 1.789774,35.625 L25.056836,35.625 C29.3522936,35.625 32.8125,32.1812732 32.8125,27.9062732 C32.8125699,25.4254651 31.6471194,23.2247864 29.8295899,21.8143286 Z M28.0398159,2.37497681 C28.3977707,2.37497681 28.636384,2.61245361 28.636384,2.96870361 L28.636384,21.0523572 C28.2561968,20.8560022 27.8573429,20.6901233 27.443178,20.5577124 L27.443178,4.75002319 C27.443178,4.096875 26.9062458,3.5625 26.249972,3.5625 L20.284082,3.5625 L20.284082,2.37497681 L28.0398159,2.37497681 Z M17.3052968,28.1478552 C17.3056464,28.1596143 17.3062057,28.1713733 17.3066252,28.1830627 C17.3567528,29.6101501 17.792381,30.9365552 18.5140934,32.0625 L3.579548,32.0625 L3.579548,4.75002319 L9.54543802,4.75002319 C9.54543802,5.40317139 10.0823702,5.93754639 10.738644,5.93754639 L19.090946,5.93754639 C19.7472197,5.93754639 20.2841519,5.40317139 20.2841519,4.75002319 L26.2500419,4.75002319 L26.2500419,20.2777222 C26.1667755,20.264989 26.0829498,20.2539954 25.9987745,20.2439063 C25.9929018,20.2432104 25.9869592,20.2425842 25.9810865,20.2418884 C25.9152983,20.234165 25.8493004,20.2272766 25.7830228,20.2212231 C25.7663136,20.2196924 25.7496743,20.2182312 25.7329651,20.2168396 C25.6768249,20.2120386 25.6205449,20.2078638 25.5640551,20.2043152 C25.5435007,20.2029932 25.5228763,20.2016016 25.5023219,20.2004187 C25.4476499,20.1973572 25.3928381,20.195061 25.3378864,20.1931128 C25.3178214,20.192417 25.2978263,20.1914429 25.2777612,20.1908862 C25.2043525,20.1888684 25.130804,20.187616 25.0569059,20.187616 C20.7614483,20.187616 17.3012419,23.6313428 17.3012419,27.9063428 C17.301172,27.9871252 17.3028499,28.0675598 17.3052968,28.1478552 Z M10.738644,1.18752319 L19.090946,1.18752319 L19.090946,1.78125 L19.090946,4.15622681 L19.090946,4.74995361 L10.738644,4.74995361 L10.738644,4.15622681 L10.738644,1.78125 L10.738644,1.18752319 Z M1.789774,34.4374768 C1.4318192,34.4374768 1.19320597,34.2 1.19320597,33.84375 L1.19320597,2.96877319 C1.19320597,2.61252319 1.4318192,2.37504639 1.789774,2.37504639 L9.54543802,2.37504639 L9.54543802,3.5625 L3.579548,3.5625 C2.92327423,3.5625 2.38634203,4.096875 2.38634203,4.75002319 L2.38634203,32.0625 C2.38634203,32.7156482 2.92327423,33.2500232 3.579548,33.2500232 L19.4516973,33.2500232 C19.8870458,33.7022937 20.3774858,34.1014746 20.9123906,34.4375464 L1.789774,34.4375464 L1.789774,34.4374768 Z M25.056836,34.4374768 C23.160934,34.4374768 21.4596,33.6475342 20.2644364,32.3789502 C20.2404563,32.3299658 20.2079467,32.2835559 20.1648104,32.240625 C19.1588315,31.1281787 18.5717717,29.7031091 18.501579,28.2095032 C18.5014391,28.2058154 18.5012993,28.2021973 18.5011595,28.1985095 C18.496755,28.1013062 18.4943779,28.003894 18.4943779,27.9062036 C18.4943779,24.2843518 21.4176522,21.3749304 25.0569059,21.3749304 C25.1337403,21.3749304 25.2102951,21.3766699 25.2867101,21.379314 C25.2937014,21.3795227 25.3006228,21.3798706 25.3076141,21.3800793 C25.3248826,21.3807056 25.3421511,21.3816797 25.3594196,21.3824451 C25.4102464,21.3847412 25.4609334,21.3877332 25.5115504,21.3911426 C25.5576231,21.3944128 25.6037657,21.3977527 25.6498384,21.4022058 C25.6562704,21.4027625 25.6627024,21.4034583 25.6690645,21.4040845 C26.0019205,21.4374133 26.3348465,21.5019836 26.6677025,21.6124768 C26.737266,21.6355774 26.8068994,21.6402393 26.8764628,21.6309155 C27.5030935,21.8113367 28.1097989,22.0868738 28.6899374,22.4586401 C30.4587375,23.625498 31.6193639,25.6242554 31.6193639,27.9062036 C31.6193639,31.528125 28.6960897,34.4374768 25.056836,34.4374768 Z" id="Shape"></path>
                                <path d="M28.9160774,24.707445 C28.6356379,24.4830255 28.2991367,24.539114 28.1308861,24.8196876 L24.9902525,29.3084705 L22.802995,27.5129178 C22.5786828,27.2884984 22.1860543,27.3445868 22.0178037,27.5690063 C21.7934915,27.7934257 21.8495532,28.1862419 22.0738653,28.3545729 L24.7658746,30.5428759 C24.8219362,30.5989643 24.9901868,30.6551185 25.1023757,30.6551185 C25.1023757,30.6551185 25.1584374,30.6551185 25.1584374,30.7112069 C25.3266879,30.7112069 25.4388769,30.5989643 25.5510001,30.4867875 L29.0282007,25.4929458 C29.2525786,25.212438 29.196517,24.875776 28.9160774,24.707445 Z" id="Shape"></path>
                                <path d="M19.3990135,19.6551724 C20.5226485,19.6551724 21.4740719,18.9104615 21.7448119,17.9094899 L22.6700415,17.9094899 C23.5786604,17.9094899 24.2450046,17.2693836 24.3055556,16.3965424 L24.3055556,14.1271552 C24.3055556,13.2543139 23.5786604,12.6142076 22.7305925,12.6142076 L21.4403536,12.6142076 L19.0961169,9.47197917 C18.7326693,8.94827443 18.126947,8.65730462 17.4606029,8.65730462 L14.8394503,8.65730462 C14.7564678,8.61979972 14.660211,8.59913793 14.5530224,8.59913793 C14.4458337,8.59913793 14.3496479,8.61986791 14.2665945,8.65730462 L11.6454419,8.65730462 C10.9790977,8.65730462 10.3733754,8.94827443 10.0099279,9.47197917 L7.66569112,12.6142076 L6.4360742,12.6142076 C5.5274553,12.6142076 4.86111111,13.3124806 4.86111111,14.1271552 L4.86111111,16.3965424 C4.86111111,17.2693836 5.5274553,17.9094899 6.4360742,17.9094899 L7.36130379,17.9094899 C7.63204382,18.9104615 8.58339621,19.6551724 9.70710224,19.6551724 C10.8307373,19.6551724 11.7821606,18.9104615 12.0529007,17.9094899 L17.053286,17.9094899 C17.3240261,18.9104615 18.2753785,19.6551724 19.3990135,19.6551724 Z M19.3990135,18.4913614 C18.7326693,18.4913614 18.187498,17.9676566 18.187498,17.3275503 C18.187498,16.687444 18.7326693,16.1637393 19.3990135,16.1637393 C20.0653577,16.1637393 20.610529,16.6875122 20.610529,17.3276185 C20.610529,17.9677248 20.0653577,18.4913614 19.3990135,18.4913614 Z M18.0663961,10.0539188 L19.9617183,12.6142758 L15.1588156,12.6142758 L15.1588156,9.76301714 L17.4000519,9.76301717 C17.7029485,9.76294898 17.9452233,9.87935054 18.0663961,10.0539188 Z M10.9186178,10.0539188 C11.1003415,9.87935054 11.3426163,9.76294898 11.584962,9.76294898 L13.9473711,9.76294898 L13.9473711,12.6142076 L9.08256871,12.6142076 L10.9186178,10.0539188 Z M9.70710224,18.4913614 C9.04075805,18.4913614 8.49558671,17.9676566 8.49558671,17.3275503 C8.49558671,16.687444 9.04075805,16.1637393 9.70710224,16.1637393 C10.3734464,16.1637393 10.9186178,16.687444 10.9186178,17.3275503 C10.9186178,17.9676566 10.3734464,18.4913614 9.70710224,18.4913614 Z M9.76765317,14.9999964 C9.75657937,14.9999964 9.74571854,15.0005419 9.73471573,15.0006783 C9.72548757,15.0006101 9.71640138,14.9999964 9.70710224,14.9999964 C8.58339621,14.9999964 7.63204382,15.7447073 7.36130379,16.7456789 L6.4360742,16.7456789 C6.25435042,16.7456789 6.07262664,16.5711106 6.07262664,16.3965424 L6.07262664,14.1271552 C6.07262664,13.9525869 6.25435042,13.7780187 6.4360742,13.7780187 L7.61742074,13.7780187 C7.69777672,13.8147053 7.78814171,13.8361854 7.88986444,13.8361854 L21.2162513,13.8361854 C21.317974,13.8361854 21.408339,13.8147053 21.488695,13.7780187 L22.7305925,13.7780187 C22.9123162,13.7780187 23.09404,13.9525869 23.09404,14.1271552 L23.09404,16.3965424 C23.09404,16.5711106 22.9123162,16.7456789 22.7305925,16.7456789 L21.7614226,16.7456789 C21.458526,15.7564361 20.67108,14.9999964 19.5201863,14.9999964 C19.4981097,14.9999964 19.4761751,15.0008147 19.4542405,15.0013602 C19.4358552,15.0009511 19.4175408,14.9999964 19.3990135,14.9999964 C18.2753075,14.9999964 17.3239551,15.7447073 17.0532151,16.7456789 L12.1300623,16.7456789 C11.8272367,15.7565043 10.9186178,14.9999964 9.76765317,14.9999964 Z" id="Shape"></path>
                                <path d="M14.0114576,23.537069 L5.43298682,23.537069 C5.08984799,23.537069 4.86111111,23.7827442 4.86111111,24.1512931 C4.86111111,24.519842 5.08984799,24.7655172 5.43298682,24.7655172 L14.0114576,24.7655172 C14.3545965,24.7655172 14.5833333,24.519842 14.5833333,24.1512931 C14.5833333,23.7827442 14.3545965,23.537069 14.0114576,23.537069 Z" id="Shape"></path>
                                <path d="M14.0114576,25.7974138 L5.43298682,25.7974138 C5.08984799,25.7974138 4.86111111,26.0430891 4.86111111,26.4116379 C4.86111111,26.7801868 5.08984799,27.0258621 5.43298682,27.0258621 L14.0114576,27.0258621 C14.3545965,27.0258621 14.5833333,26.7801868 14.5833333,26.4116379 C14.5833333,26.0430891 14.3545965,25.7974138 14.0114576,25.7974138 Z" id="Shape"></path>
                                <path d="M14.0114576,28.2543103 L5.43298682,28.2543103 C5.08984799,28.2543103 4.86111111,28.4999856 4.86111111,28.8685345 C4.86111111,29.2370834 5.08984799,29.4827586 5.43298682,29.4827586 L14.0114576,29.4827586 C14.3545965,29.4827586 14.5833333,29.2370834 14.5833333,28.8685345 C14.5833333,28.4999856 14.3545965,28.2543103 14.0114576,28.2543103 Z" id="Shape"></path>
                            </g>
                        </g>
                    </g>
                </g>
            </g>
        </g>
    </g>
</svg>