<?xml version="1.0" encoding="UTF-8" standalone="no"?>
<svg width="35px" height="16px" viewBox="0 0 35 16" version="1.1" xmlns="http://www.w3.org/2000/svg" xmlns:xlink="http://www.w3.org/1999/xlink">
    <!-- Generator: Sketch 48.2 (47327) - http://www.bohemiancoding.com/sketch -->
    <title>Page 1</title>
    <desc>Created with Sketch.</desc>
    <defs>
        <polygon id="path-1" points="0 0.2944 34.9519869 0.2944 34.9519869 14.2804 0 14.2804"></polygon>
    </defs>
    <g id="03-sub-내차포털소개" stroke="none" stroke-width="1" fill="none" fill-rule="evenodd" transform="translate(-430.000000, -1960.000000)">
        <g id="figure2" transform="translate(430.000000, 1796.000000)">
            <g id="Page-1" transform="translate(0.000000, 164.000000)">
                <path d="M23.5173357,14 L12.4826643,14 C12.2162336,14 12,13.775 12,13.5 C12,13.224 12.2162336,13 12.4826643,13 L23.5173357,13 C23.7837664,13 24,13.224 24,13.5 C24,13.775 23.7837664,14 23.5173357,14" id="Fill-1" fill="#666666"></path>
                <path d="M10.0004658,10.9323192 C8.85933861,10.9323192 7.93153237,11.8599814 7.93153237,13.0018628 C7.93153237,14.1418814 8.85933861,15.0695436 10.0004658,15.0695436 C11.1406614,15.0695436 12.0684676,14.1418814 12.0684676,13.0018628 C12.0684676,11.8599814 11.1397299,10.9323192 10.0004658,10.9323192 M10.0004658,16 C8.34606428,16 7,14.6550761 7,13.0009314 C7,11.3449239 8.34513274,10 10.0004658,10 C11.6539357,10 13,11.3449239 13,13.0009314 C13,14.6550761 11.6539357,16 10.0004658,16" id="Fill-3" fill="#666666"></path>
                <path d="M26.9995344,10.9323192 C25.8587614,10.9323192 24.9312432,11.8599814 24.9312432,13.0018628 C24.9312432,14.1418814 25.8587614,15.0695436 26.9995344,15.0695436 C28.1412386,15.0695436 29.0687568,14.1418814 29.0687568,13.0018628 C29.0687568,11.8599814 28.1403073,10.9323192 26.9995344,10.9323192 M26.9995344,16 C25.3465777,16 24,14.6550761 24,13.0009314 C24,11.3449239 25.3456464,10 26.9995344,10 C28.6543536,10 30,11.3449239 30,13.0009314 C30,14.6550761 28.6534223,16 26.9995344,16" id="Fill-5" fill="#666666"></path>
                <path d="M23.5174133,14 L12.4825867,14 C12.2161988,14 12,13.775 12,13.5 C12,13.224 12.2161988,13 12.4825867,13 L23.5174133,13 C23.7838012,13 24,13.224 24,13.5 C24,13.775 23.7838012,14 23.5174133,14" id="Fill-7" fill="#666666"></path>
                <g id="Group-11">
                    <mask id="mask-2" fill="white">
                        <use xlink:href="#path-1"></use>
                    </mask>
                    <g id="Clip-10"></g>
                    <path d="M32.1751,14.2804 L29.7731,14.2804 C29.4961,14.2804 29.2731,14.0554 29.2731,13.7804 C29.2731,13.5044 29.4961,13.2804 29.7731,13.2804 L32.1751,13.2804 C32.7941,13.2804 33.3141,12.8364 33.4081,12.2234 L33.9421,8.8114 C33.9781,8.5724 33.9191,8.3344 33.7731,8.1414 C33.6261,7.9484 33.4151,7.8264 33.1741,7.7974 L26.5131,6.9854 C26.4171,6.9724 26.3261,6.9344 26.2521,6.8724 L20.2321,1.8114 C19.8341,1.4774 19.3291,1.2934 18.8091,1.2934 L9.3901,1.2934 C8.9251,1.2934 8.4981,1.5274 8.2471,1.9194 L5.4321,6.3234 C5.3691,6.4254 5.2701,6.4994 5.1561,6.5324 L1.7561,7.5584 C1.2511,7.7104 0.9331,8.2174 1.0141,8.7384 L1.4901,11.7884 C1.6251,12.6514 2.3571,13.2784 3.2311,13.2784 L7.4601,13.2784 C7.7361,13.2784 7.9601,13.5024 7.9601,13.7784 C7.9601,14.0534 7.7361,14.2784 7.4601,14.2784 L3.2291,14.2784 C1.8591,14.2784 0.7101,13.2964 0.5001,11.9424 L0.0241,8.8934 C-0.1329,7.8814 0.4861,6.8964 1.4651,6.6014 L4.6891,5.6294 L7.4051,1.3794 C7.8401,0.6994 8.5821,0.2944 9.3901,0.2944 L18.8111,0.2944 C19.5661,0.2944 20.2981,0.5614 20.8751,1.0464 L26.7821,6.0104 L33.2961,6.8044 C33.8081,6.8674 34.2601,7.1274 34.5711,7.5384 C34.8811,7.9474 35.0081,8.4554 34.9291,8.9654 L34.3971,12.3784 C34.2251,13.4794 33.2901,14.2804 32.1751,14.2804" id="Fill-9" fill="#666666" mask="url(#mask-2)"></path>
                </g>
                <path d="M20.518768,7 L9.48123195,7 C9.21559192,7 9,6.776 9,6.5 C9,6.224 9.21559192,6 9.48123195,6 L20.518768,6 C20.7834456,6 21,6.224 21,6.5 C21,6.776 20.7834456,7 20.518768,7" id="Fill-12" fill="#666666"></path>
            </g>
        </g>
    </g>
</svg>