<?xml version="1.0" encoding="UTF-8" standalone="no"?>
<svg width="48px" height="48px" viewBox="0 0 48 48" version="1.1" xmlns="http://www.w3.org/2000/svg" xmlns:xlink="http://www.w3.org/1999/xlink">
    <!-- Generator: Sketch 48.2 (47327) - http://www.bohemiancoding.com/sketch -->
    <title>Facebook</title>
    <desc>Created with Sketch.</desc>
    <defs></defs>
    <g id="00-main" stroke="none" stroke-width="1" fill="none" fill-rule="evenodd" transform="translate(-667.000000, -834.000000)">
        <g id="social" transform="translate(644.000000, 795.000000)">
            <g id="Group-5" transform="translate(23.000000, 39.000000)">
                <g id="Facebook">
                    <path d="M0,24 C0,10.7451653 10.7451653,0 24,0 C37.2548347,0 48,10.7451653 48,24 C48,37.2548347 37.2548347,48 24,48 C10.7451653,48 0,37.2548347 0,24 Z" id="back" fill="#3B5998"></path>
                    <path d="M25.7015551,37.3114767 L25.7015551,24.2542096 L29.3059319,24.2542096 L29.7835896,19.7546031 L25.7015551,19.7546031 L25.7076789,17.5025067 C25.7076789,16.32894 25.8191834,15.7001161 27.5047641,15.7001161 L29.7580737,15.7001161 L29.7580737,11.2 L26.1531866,11.2 C21.8231375,11.2 20.2990725,13.3827933 20.2990725,17.0535652 L20.2990725,19.7551126 L17.6,19.7551126 L17.6,24.2547192 L20.2990725,24.2547192 L20.2990725,37.3114767 L25.7015551,37.3114767 Z" id="Shape" fill="#FFFFFF"></path>
                </g>
            </g>
        </g>
    </g>
</svg>