<?xml version="1.0" encoding="UTF-8" standalone="no"?>
<svg width="23px" height="26px" viewBox="0 0 23 26" version="1.1" xmlns="http://www.w3.org/2000/svg" xmlns:xlink="http://www.w3.org/1999/xlink">
    <!-- Generator: Sketch 48.2 (47327) - http://www.bohemiancoding.com/sketch -->
    <title>Group</title>
    <desc>Created with Sketch.</desc>
    <defs></defs>
    <g id="03-sub-내차포털소개" stroke="none" stroke-width="1" fill="none" fill-rule="evenodd" transform="translate(-787.000000, -8228.000000)">
        <g id="figure5" transform="translate(430.000000, 7049.000000)">
            <g id="txt" transform="translate(0.000000, 105.000000)">
                <g id="Group-10" transform="translate(70.000000, 1061.000000)">
                    <g id="Group-9" transform="translate(228.000000, 0.000000)">
                        <g id="Group-8" transform="translate(59.000000, 12.000000)">
                            <g id="Group" transform="translate(0.000000, 1.000000)">
                                <g id="donate-white-01">
                                    <path d="M7.16861314,1.71368852 C6.34686396,1.74126121 5.69481492,2.42250002 5.69481492,3.25346311 C5.69481492,4.08442621 6.34686396,4.76566502 7.16861314,4.7932377 L10.5346715,4.7932377 C10.1233577,3.27467213 8.67956204,1.71368852 7.16861314,1.71368852 Z" id="Shape"></path>
                                    <path d="M15.8229927,1.71368852 C14.3120438,1.71368852 12.8682482,3.28315574 12.4569343,4.7932377 L15.8229927,4.7932377 C16.6447419,4.76566502 17.2967909,4.08442621 17.2967909,3.25346311 C17.2967909,2.42250002 16.6447419,1.74126121 15.8229927,1.71368852 Z" id="Shape"></path>
                                    <path d="M18.6266423,4.80172131 C19.4665257,3.23898627 18.8956166,1.28404441 17.3507299,0.432663934 C16.8812465,0.176912352 16.3563326,0.0428280939 15.8229927,0.0424180328 C14.5218978,0.0424180328 13.1872263,0.721106557 12.1715328,1.90881148 C11.9189941,2.19771599 11.6941426,2.51018125 11.5,2.8420082 C11.3058574,2.51018125 11.0810059,2.19771599 10.8284672,1.90881148 C9.81277372,0.721106557 8.47810219,0.0424180328 7.1770073,0.0424180328 C5.41533989,0.0424180328 3.98722628,1.48574925 3.98722628,3.26618852 C3.98763202,3.80521151 4.12030257,4.3357188 4.37335766,4.81020492 L0.0335766423,4.81020492 L0.0335766423,10.2906148 L10.9963504,10.2906148 L10.9963504,4.76778689 L11.9281022,4.76778689 L11.9281022,10.2736475 L22.9580292,10.2736475 L22.9580292,4.80172131 L18.6266423,4.80172131 Z M7.16861314,4.7932377 C6.34686396,4.76566502 5.69481492,4.08442621 5.69481492,3.25346311 C5.69481492,2.42250002 6.34686396,1.74126121 7.16861314,1.71368852 C8.67956204,1.71368852 10.1233577,3.27467213 10.5346715,4.7932377 L7.16861314,4.7932377 Z M15.8229927,4.7932377 L12.4569343,4.7932377 C12.8682482,3.28315574 14.3120438,1.71368852 15.8229927,1.71368852 C16.6447419,1.74126121 17.2967909,2.42250002 17.2967909,3.25346311 C17.2967909,4.08442621 16.6447419,4.76566502 15.8229927,4.7932377 Z" id="Shape" fill="#FFFFFF" fill-rule="nonzero"></path>
                                    <path d="M12.1127737,11.0286885 L1.51934307,11.0286885 L1.51934307,25.8156148 L21.4722628,25.8156148 L21.4722628,11.0286885 L12.1127737,11.0286885 Z M14.8828467,12.8526639 L17.0485401,12.8526639 L17.0485401,14.2439754 L16.4189781,14.2439754 L16.1251825,15.7455738 L14.9583942,15.7455738 L15.2521898,14.2439754 L14.8744526,14.2439754 L14.8744526,12.8526639 L14.8828467,12.8526639 Z M10.9208029,13.4380328 L12.020438,13.4380328 L12.6416058,15.7455738 L10.2912409,15.7455738 L10.9208029,13.4380328 Z M6.04379562,12.8526639 L8.20948905,12.8526639 L8.20948905,14.2439754 L7.68065693,14.2439754 L7.97445255,15.7455738 L6.80766423,15.7455738 L6.51386861,14.2439754 L6.03540146,14.2439754 L6.04379562,12.8526639 Z M9.40985401,23.3977869 L8.29343066,23.3553689 L7.42043796,18.8845082 L8.58722628,18.8845082 L8.94817518,20.7169672 L9.44343066,18.8845082 L10.6270073,18.8845082 L9.40985401,23.3977869 Z M14.6478102,23.3553689 L13.5313869,23.3977869 L12.3142336,18.8845082 L13.4978102,18.8845082 L13.9930657,20.7169672 L14.3540146,18.8845082 L15.5208029,18.8845082 L14.6478102,23.3553689 Z M17.25,18.6554508 L5.84233577,18.6554508 L5.84233577,17.5440984 L17.25,17.5440984 L17.25,18.6554508 Z M17.25,17.0859836 L5.85072993,17.0859836 L5.85072993,15.9746311 L17.2583942,15.9746311 L17.25,17.0859836 Z" id="Shape" fill="#FFFFFF" fill-rule="nonzero"></path>
                                </g>
                            </g>
                        </g>
                    </g>
                </g>
            </g>
        </g>
    </g>
</svg>