<?xml version="1.0" encoding="UTF-8" standalone="no"?>
<svg width="23px" height="25px" viewBox="0 0 23 25" version="1.1" xmlns="http://www.w3.org/2000/svg" xmlns:xlink="http://www.w3.org/1999/xlink">
    <!-- Generator: Sketch 48.2 (47327) - http://www.bohemiancoding.com/sketch -->
    <title>Group 14</title>
    <desc>Created with Sketch.</desc>
    <defs>
        <polygon id="path-1" points="0 24.6291408 22.9678934 24.6291408 22.9678934 0 0 0"></polygon>
    </defs>
    <g id="03-sub-내차포털소개" stroke="none" stroke-width="1" fill="none" fill-rule="evenodd" transform="translate(-559.000000, -8227.000000)">
        <g id="figure5" transform="translate(430.000000, 7049.000000)">
            <g id="txt" transform="translate(0.000000, 105.000000)">
                <g id="Group-10" transform="translate(70.000000, 1061.000000)">
                    <g id="Group-9">
                        <g id="Group-8" transform="translate(59.000000, 12.000000)">
                            <g id="Group-14">
                                <g id="Page-1">
                                    <path d="M11.6243459,7.56546757 C11.3824957,7.56546757 11.1865287,7.76063435 11.1865287,8.00136717 C11.1865287,8.24209998 11.3824957,8.43726676 11.6243459,8.43726676 C13.4184627,8.43726676 14.8780871,9.89049789 14.8780871,11.6767563 L14.8780871,12.0036229 C14.8780871,12.2443557 15.0740541,12.4395225 15.3159043,12.4395225 C15.5577546,12.4395225 15.7537216,12.2443557 15.7537216,12.0036229 L15.7537216,11.6767563 C15.7537799,9.40978782 13.9012876,7.56546757 11.6243459,7.56546757" id="Fill-1" fill="#FFFFFF"></path>
                                    <mask id="mask-2" fill="white">
                                        <use xlink:href="#path-1"></use>
                                    </mask>
                                    <g id="Clip-4"></g>
                                    <path d="M4.35003553,23.7573416 L18.8984112,23.7573416 L18.8984112,22.5682075 L4.35003553,22.5682075 L4.35003553,23.7573416 Z M4.35003553,21.6964084 L18.8984112,21.6964084 L18.8984112,20.6078799 L4.35003553,20.6078799 L4.35003553,21.6964084 Z M6.89322843,11.6767621 C6.89322843,9.07973046 9.01559137,6.96689606 11.6243401,6.96689606 C14.232797,6.96689606 16.354868,9.07973046 16.354868,11.6767621 L16.354868,19.7360226 L6.89322843,19.7360226 L6.89322843,11.6767621 Z M19.3362284,19.7360226 L17.2305609,19.7360226 L17.2305609,11.6767621 C17.2305609,8.59902038 14.7156218,6.09509687 11.6243985,6.09509687 C8.53282487,6.09509687 6.01765228,8.59902038 6.01765228,11.6767621 L6.01765228,19.7360226 L3.91221827,19.7360226 C3.67036802,19.7360226 3.47440102,19.9311894 3.47440102,20.1719222 L3.47440102,24.1932412 C3.47440102,24.4339741 3.67036802,24.6291408 3.91221827,24.6291408 L19.3362284,24.6291408 C19.5780787,24.6291408 19.7740457,24.4339741 19.7740457,24.1932412 L19.7740457,20.1719222 C19.7740457,19.9311894 19.5780203,19.7360226 19.3362284,19.7360226 Z" id="Fill-3" fill="#FFFFFF" mask="url(#mask-2)"></path>
                                    <path d="M11.483935,4.3203985 C11.7258437,4.3203985 11.9217523,4.12523172 11.9217523,3.8844989 L11.9217523,0.435893784 C11.9217523,0.195160967 11.7258437,-5.81199461e-06 11.483935,-5.81199461e-06 C11.2420848,-5.81199461e-06 11.0461178,0.195160967 11.0461178,0.435893784 L11.0461178,3.8844989 C11.0461178,4.12528984 11.2421431,4.3203985 11.483935,4.3203985" id="Fill-5" fill="#FFFFFF" mask="url(#mask-2)"></path>
                                    <path d="M5.81263706,6.40360916 C5.89815736,6.48869677 6.01023858,6.53129869 6.12226142,6.53129869 C6.23428426,6.53129869 6.34636548,6.48875489 6.43188579,6.40360916 C6.60286802,6.23337584 6.60286802,5.95736422 6.43188579,5.78718902 L3.98279442,3.34888292 C3.81175381,3.1786496 3.53458629,3.1786496 3.36360406,3.34888292 C3.19262183,3.51911624 3.19262183,3.79512786 3.36360406,3.96530307 L5.81263706,6.40360916 Z" id="Fill-6" fill="#FFFFFF" mask="url(#mask-2)"></path>
                                    <path d="M4.33882157,11.4336522 C4.33882157,11.1929194 4.14285457,10.9977526 3.90100431,10.9977526 L0.437811421,10.9977526 C0.195961168,10.9977526 -5.83756345e-06,11.1929194 -5.83756345e-06,11.4336522 C-5.83756345e-06,11.674385 0.195961168,11.8695518 0.437811421,11.8695518 L3.90094594,11.8695518 C4.14279619,11.8695518 4.33882157,11.674385 4.33882157,11.4336522" id="Fill-7" fill="#FFFFFF" mask="url(#mask-2)"></path>
                                    <path d="M16.8457137,6.53128706 C16.9577365,6.53128706 17.0698178,6.48874326 17.1553381,6.40359754 L19.6043127,3.96534956 C19.7752949,3.79511624 19.7752949,3.51910462 19.6043127,3.34892941 C19.4332137,3.17869609 19.1560462,3.17869609 18.985064,3.34892941 L16.5360893,5.78717739 C16.3651655,5.95741071 16.3651655,6.23342234 16.5360893,6.40359754 C16.6215513,6.48874326 16.7336909,6.53128706 16.8457137,6.53128706" id="Fill-8" fill="#FFFFFF" mask="url(#mask-2)"></path>
                                    <path d="M22.5300995,10.9977526 L19.0662061,10.9977526 C18.8244142,10.9977526 18.6283888,11.1929194 18.6283888,11.4336522 C18.6283888,11.674385 18.8244142,11.8695518 19.0662061,11.8695518 L22.5300995,11.8695518 C22.7719497,11.8695518 22.9679168,11.674385 22.9679168,11.4336522 C22.9679168,11.1929194 22.7718914,10.9977526 22.5300995,10.9977526" id="Fill-9" fill="#FFFFFF" mask="url(#mask-2)"></path>
                                </g>
                            </g>
                        </g>
                    </g>
                </g>
            </g>
        </g>
    </g>
</svg>