<?xml version="1.0" encoding="UTF-8" standalone="no"?>
<svg width="62px" height="62px" viewBox="0 0 62 62" version="1.1" xmlns="http://www.w3.org/2000/svg" xmlns:xlink="http://www.w3.org/1999/xlink">
    <!-- Generator: Sketch 48.2 (47327) - http://www.bohemiancoding.com/sketch -->
    <title>리콜이란</title>
    <desc>Created with Sketch.</desc>
    <defs>
        <polygon id="path-1" points="1.5196285e-05 2.85175563e-05 31.3821429 2.85175563e-05 31.3821429 31.4063297 1.5196285e-05 31.4063297"></polygon>
    </defs>
    <g id="03-sub-내차포털소개" stroke="none" stroke-width="1" fill="none" fill-rule="evenodd" transform="translate(-429.000000, -1173.000000)">
        <g id="figure1" transform="translate(430.000000, 921.000000)">
            <g id="Ul" transform="translate(0.000000, 101.000000)">
                <g id="list" transform="translate(0.000000, 152.000000)">
                    <g id="리콜이란">
                        <g id="Group-12">
                            <circle id="Oval" stroke="#0E8BE4" cx="30" cy="30" r="30"></circle>
                            <g id="Group-13" transform="translate(14.285714, 14.285714)">
                                <g id="Page-1">
                                    <mask id="mask-2" fill="white">
                                        <use xlink:href="#path-1"></use>
                                    </mask>
                                    <g id="Clip-2"></g>
                                    <path d="M29.66315,29.6948946 C29.0844357,30.2708481 28.1430786,30.270777 27.5645071,29.6948946 L20.3969357,22.5598268 L22.4957214,20.4706089 L29.6632214,27.6057479 C29.9435071,27.8847654 30.0977929,28.255722 30.0977929,28.6502857 C30.0977929,29.0447783 29.9434357,29.4158772 29.66315,29.6948946 Z M18.8612929,21.7828584 C18.6047214,21.7318759 18.5182214,21.5332075 18.4929357,21.4501564 C18.46765,21.3671054 18.4288643,21.1540026 18.6139357,20.9697686 L20.8982929,18.6957479 C21.0115071,18.5830459 21.1355786,18.5536794 21.2339357,18.5536794 C21.2964357,18.5536794 21.3485071,18.5654829 21.3809357,18.5753665 C21.4643643,18.6005378 21.6640071,18.6866464 21.7152214,18.9421991 L21.7980786,19.3553924 L19.2765786,21.8654118 L18.8612929,21.7828584 Z M11.0224357,20.7415204 C9.67329286,22.0845585 9.01800714,23.9113264 9.22465,25.7534531 C9.34157857,26.7964266 8.93743571,27.8337828 8.14357857,28.5286244 C7.98772143,28.6650045 7.81936429,28.7852437 7.64093571,28.8881332 L7.98329286,27.7956703 C8.17050714,27.1983142 8.11279286,26.5641254 7.82086429,26.0098591 C7.52893571,25.4556639 7.03765,25.0478035 6.43750714,24.8614363 C6.20615,24.789691 5.96943571,24.7540672 5.73379286,24.7540672 C5.35822143,24.7540672 4.98565,24.8445844 4.64357857,25.023201 C4.08686429,25.3138087 3.67715,25.8028714 3.48993571,26.4002986 L3.13086429,27.5462327 C2.91736429,27.1215915 2.80093571,26.6513717 2.79315,26.161669 C2.77929286,25.2847977 3.11457857,24.4605443 3.73736429,23.8405766 C4.10315,23.476446 4.53643571,23.2124318 5.02515,23.0558578 C5.98800714,22.7473316 6.86543571,22.2175255 7.56236429,21.5236794 L19.3317929,9.80743504 C20.6810071,8.4643969 21.3362929,6.63762896 21.12965,4.79543116 C21.0127214,3.75259987 21.4168643,2.71517259 22.2107214,2.02025986 C22.3665786,1.88387977 22.5349357,1.76364059 22.7133643,1.66075113 L22.3709357,2.75321396 C22.1837214,3.35057014 22.2414357,3.98475889 22.5333643,4.53902521 C22.8252929,5.09322043 23.3165071,5.5010808 23.9167214,5.68737686 C24.5168643,5.87367292 25.1539357,5.81629089 25.71065,5.52568326 C26.2673643,5.23507563 26.6770071,4.74601293 26.8642214,4.14858565 L27.2234357,3.00265158 C27.4369357,3.42729282 27.5534357,3.89751261 27.56115,4.38728636 C27.5750071,5.26408662 27.2397214,6.08841112 26.6169357,6.7083788 C26.2510786,7.07250937 25.8178643,7.33645249 25.32915,7.49309761 C24.3662214,7.80162379 23.4888643,8.33150097 22.7919357,9.02527602 L11.0224357,20.7415204 Z M3.77715,3.92602586 L2.55715,4.01327214 L1.44465,2.0751532 L1.91786429,1.60408016 L3.86479286,2.71161732 L3.77715,3.92602586 Z M30.5722929,26.7007188 L23.0880071,19.2502275 L22.9760071,18.6916238 C22.8480071,18.0530976 22.37965,17.539148 21.7537214,17.3503633 C21.12765,17.1615074 20.45165,17.3301694 19.9890786,17.7906477 L19.3013643,18.4753213 L17.2092929,16.3927162 L23.7010786,9.93030511 C24.2542929,9.37945184 24.9535071,8.95801034 25.7230786,8.71141694 C26.3983643,8.49504331 27.0217929,8.11534066 27.5260071,7.61333678 C28.3970071,6.74627796 28.8660786,5.59337557 28.8465786,4.36709244 C28.8272929,3.14080931 28.3209357,2.0021991 27.4208643,1.16102262 C27.2595071,1.01020814 27.03165,0.952612799 26.8173643,1.00871493 C26.6032214,1.06481707 26.4332214,1.22658177 26.36715,1.43698255 L25.6368643,3.76738979 C25.5518643,4.03844344 25.3660786,4.26029218 25.1135071,4.39219263 C24.8609357,4.52402198 24.5720071,4.55011765 24.2995786,4.46550226 C24.0272929,4.38095798 23.8044357,4.19594182 23.6720071,3.94451325 C23.5395786,3.69308468 23.5132929,3.40532127 23.5982929,3.13433872 L24.3202214,0.830595992 C24.3865786,0.618844215 24.3380786,0.387965094 24.1918643,0.220440853 C24.0457214,0.0529166128 23.8230071,-0.0273613445 23.60315,0.00840465417 C22.76715,0.144002586 21.9920071,0.507279897 21.36165,1.05898643 C20.2527214,2.02957466 19.6882214,3.47948416 19.8517214,4.93735747 C20.0147214,6.39075113 19.4938643,7.83596768 18.4225786,8.90233484 L14.0537214,13.2514945 L5.04079286,4.27856626 L5.17622143,2.40159793 C5.19393571,2.15607111 5.06865,1.92227666 4.85393571,1.80018875 L2.12943571,0.250305107 C1.87765,0.107098901 1.56093571,0.149335488 1.35586429,0.353407886 L0.188292857,1.51576729 C-0.0167071429,1.71983969 -0.0590642857,2.03519198 0.0847214286,2.28576729 L1.64157857,4.99793924 C1.75657857,5.19824305 1.97015,5.32040207 2.19957857,5.32040207 C2.21486429,5.32040207 2.23029286,5.31983323 2.24572143,5.31876665 L4.13193571,5.18395087 L13.14465,14.1565947 L6.65315,20.6186503 C6.09979286,21.1695747 5.40057857,21.5910162 4.63107857,21.8376096 C3.95586429,22.0539832 3.33236429,22.4336858 2.82815,22.9355475 C1.95707857,23.8027485 1.48807857,24.9556509 1.50750714,26.1819341 C1.52693571,27.4082172 2.03322143,28.5468274 2.93322143,29.3879328 C3.09465,29.5388184 3.32257857,29.5964137 3.53679286,29.5402405 C3.75093571,29.4841383 3.92093571,29.3223736 3.98693571,29.1119729 L4.71729286,26.7815656 C4.89265,26.2221086 5.49243571,25.908605 6.05457857,26.0835242 C6.32686429,26.1679974 6.54972143,26.3530847 6.68215,26.6045133 C6.81457857,26.8559418 6.84079286,27.1437052 6.75586429,27.4146878 L6.03393571,29.7184305 C5.96757857,29.9301823 6.01607857,30.1610614 6.16222143,30.3285856 C6.28536429,30.4697298 6.46307857,30.5490123 6.64757857,30.5490123 C6.68186429,30.5490123 6.71650714,30.5462392 6.75100714,30.540693 C7.58700714,30.405095 8.36207857,30.0417466 8.99243571,29.4901112 C10.1014357,28.5195229 10.6659357,27.0696134 10.5023643,25.6117401 C10.3393643,24.1583465 10.8602214,22.7131299 11.9315071,21.6466917 L16.30015,17.2978875 L18.3922214,19.3804926 L17.7047214,20.0648817 C17.24215,20.5253601 17.07265,21.1984434 17.2624357,21.8214686 C17.4520786,22.4446361 17.9682929,22.9108739 18.6097214,23.0382237 L19.1708643,23.1497169 L26.6552214,30.6000659 C27.1952214,31.1376936 27.9042929,31.4064719 28.61365,31.4063297 C29.3227214,31.4062586 30.0322214,31.1376225 30.5720786,30.6000659 C31.65215,29.5248817 31.65215,27.7757608 30.5722929,26.7007188 Z" id="Fill-1" fill="#0E8BE4" mask="url(#mask-2)"></path>
                                </g>
                            </g>
                        </g>
                    </g>
                </g>
            </g>
        </g>
    </g>
</svg>