<?xml version="1.0" encoding="UTF-8" standalone="no"?>
<svg width="48px" height="48px" viewBox="0 0 48 48" version="1.1" xmlns="http://www.w3.org/2000/svg" xmlns:xlink="http://www.w3.org/1999/xlink">
    <!-- Generator: Sketch 48.2 (47327) - http://www.bohemiancoding.com/sketch -->
    <title>Kakaotalk_Color</title>
    <desc>Created with Sketch.</desc>
    <defs>
        <polygon id="path-1" points="0 0.0589966044 27.7910098 0.0589966044 27.7910098 25.6705773 0 25.6705773"></polygon>
    </defs>
    <g id="social" stroke="none" stroke-width="1" fill="none" fill-rule="evenodd" transform="translate(-147.000000, -39.000000)">
        <g transform="translate(31.000000, 0.000000)" id="Group-5">
            <g transform="translate(0.000000, 39.000000)">
                <g id="Kakaotalk" transform="translate(116.000000, 0.000000)">
                    <path d="M0,24 C0,10.7451653 10.7451653,0 24,0 C37.2548347,0 48,10.7451653 48,24 C48,37.2548347 37.2548347,48 24,48 C10.7451653,48 0,37.2548347 0,24 Z" id="back" fill="#FFE812"></path>
                    <g id="Group" transform="translate(10.000000, 11.000000)">
                        <g id="Page-1">
                            <g id="Group-3" transform="translate(0.000000, 0.399499)">
                                <mask id="mask-2" fill="white">
                                    <use xlink:href="#path-1"></use>
                                </mask>
                                <g id="Clip-2"></g>
                                <path d="M13.8956656,0.0589966044 C6.22137049,0.0589966044 -0.000137704918,4.95796095 -0.000137704918,11.0006435 C-0.000137704918,14.9076214 2.6011082,18.3355671 6.51330492,20.2709491 C6.30032131,21.0039372 5.14589508,24.9870102 5.09953443,25.3001002 C5.09953443,25.3001002 5.07199344,25.5352615 5.22438689,25.6246503 C5.37678033,25.7144975 5.55625574,25.64482 5.55625574,25.64482 C5.99323934,25.5838523 10.6256328,22.3342258 11.4275344,21.7699304 C12.228518,21.8831562 13.0533705,21.9422903 13.8956656,21.9422903 C21.5699607,21.9422903 27.7910098,17.043326 27.7910098,11.0006435 C27.7910098,4.95796095 21.5699607,0.0589966044 13.8956656,0.0589966044" id="Fill-1" fill="#000000" mask="url(#mask-2)"></path>
                            </g>
                            <path d="M6.21297049,15.219657 C5.7709377,15.219657 5.41106885,14.8763124 5.41106885,14.455039 L5.41106885,9.69863837 L4.16024918,9.69863837 C3.72647869,9.69863837 3.37349508,9.34704244 3.37349508,8.9147674 C3.37349508,8.48249236 3.72647869,8.13089643 4.16024918,8.13089643 L8.2656918,8.13089643 C8.6994623,8.13089643 9.0524459,8.48249236 9.0524459,8.9147674 C9.0524459,9.34704244 8.6994623,9.69863837 8.2656918,9.69863837 L7.01487213,9.69863837 L7.01487213,14.455039 C7.01487213,14.8763124 6.65500328,15.219657 6.21297049,15.219657" id="Fill-4" fill="#FFE812"></path>
                            <path d="M11.7570164,12.399601 L10.9560328,10.1277504 L10.1555082,12.399601 L11.7570164,12.399601 Z M13.2423934,15.2091596 C12.9082295,15.2091596 12.6525574,15.073472 12.5754426,14.8552716 L12.1783934,13.8179032 L9.73413115,13.8174448 L9.33662295,14.8557301 C9.25996721,15.073472 9.00429508,15.2091596 8.67013115,15.2091596 C8.49340984,15.2091596 8.31714754,15.1706537 8.16062295,15.0986842 C7.93937705,14.9969185 7.72685246,14.7168336 7.97013115,13.9618421 L9.88790164,8.9212309 C10.0233115,8.53800509 10.4332131,8.14286078 10.9555738,8.13094228 C11.4793115,8.14286078 11.8896721,8.53800509 12.024623,8.92214771 L13.9414754,13.9600085 C14.1856721,14.717292 13.9731475,14.9973769 13.7523607,15.0986842 C13.594918,15.1706537 13.4191148,15.2091596 13.2423934,15.2091596 C13.2423934,15.2091596 13.2423934,15.2091596 13.2423934,15.2091596 Z" id="Fill-6" fill="#FFE812"></path>
                            <path d="M15.2319541,15.1028098 C14.808282,15.1028098 14.4635607,14.7736757 14.4635607,14.3689049 L14.4635607,8.93131579 C14.4635607,8.48987267 14.8307738,8.13094228 15.2815279,8.13094228 C15.7332,8.13094228 16.1004131,8.48987267 16.1004131,8.93131579 L16.1004131,13.635 L17.804282,13.635 C18.2274951,13.635 18.5717574,13.9645925 18.5717574,14.3689049 C18.5717574,14.7736757 18.2274951,15.1028098 17.804282,15.1028098 L15.2319541,15.1028098 Z" id="Fill-8" fill="#FFE812"></path>
                            <path d="M19.6858361,15.2091138 C19.2433443,15.2091138 18.8839344,14.8501834 18.8839344,14.4082818 L18.8839344,8.93126995 C18.8839344,8.48982683 19.2433443,8.13089643 19.6858361,8.13089643 C20.1278689,8.13089643 20.4872787,8.48982683 20.4872787,8.93126995 L20.4872787,10.6521188 L22.7240656,8.41877419 C22.8388197,8.30371477 22.9971803,8.24045501 23.1688525,8.24045501 C23.3685246,8.24045501 23.5700328,8.32663497 23.7201311,8.47653311 C23.8610492,8.61680475 23.9445902,8.79741596 23.9560656,8.98444482 C23.967541,9.1733073 23.9046557,9.34612564 23.7788852,9.47172835 L21.952,11.2961766 L23.9253115,13.9067878 C24.0547541,14.0773141 24.109377,14.28818 24.079541,14.4999626 C24.0497049,14.7117453 23.939541,14.8992326 23.7687869,15.0280441 C23.6283279,15.1334771 23.4617049,15.1898608 23.2863607,15.1898608 C23.0320656,15.1898608 22.7988852,15.0738846 22.6455738,14.8712699 L20.7659016,12.383511 L20.4877377,12.6613039 L20.4877377,14.4078234 C20.4872787,14.8501834 20.1278689,15.2091138 19.6858361,15.2091138" id="Fill-10" fill="#FFE812"></path>
                        </g>
                    </g>
                </g>
            </g>
        </g>
    </g>
</svg>