<?xml version="1.0" encoding="UTF-8" standalone="no"?>
<svg width="62px" height="62px" viewBox="0 0 62 62" version="1.1" xmlns="http://www.w3.org/2000/svg" xmlns:xlink="http://www.w3.org/1999/xlink">
    <!-- Generator: Sketch 48.2 (47327) - http://www.bohemiancoding.com/sketch -->
    <title>리콜이란</title>
    <desc>Created with Sketch.</desc>
    <defs>
        <polygon id="path-1" points="3.03921569e-05 1.48945435e-05 30.8045784 1.48945435e-05 30.8045784 24.1502157 3.03921569e-05 24.1502157"></polygon>
    </defs>
    <g id="03-sub-내차포털소개" stroke="none" stroke-width="1" fill="none" fill-rule="evenodd" transform="translate(-429.000000, -1585.000000)">
        <g id="figure1" transform="translate(430.000000, 921.000000)">
            <g id="Ul" transform="translate(0.000000, 101.000000)">
                <g id="list" transform="translate(0.000000, 564.000000)">
                    <g id="리콜이란">
                        <g id="Group-12">
                            <circle id="Oval" stroke="#0E8BE4" cx="30" cy="30" r="30"></circle>
                            <g id="Page-1" transform="translate(11.000000, 18.000000)">
                                <mask id="mask-2" fill="white">
                                    <use xlink:href="#path-1"></use>
                                </mask>
                                <g id="Clip-2"></g>
                                <path d="M29.1834912,4.04185294 C24.2225794,2.8985 19.9944225,3.62943137 15.0970304,4.76336275 L15.0970304,2.73985294 C19.9929029,1.60531373 24.2228833,0.874078431 29.1834912,2.01834314 L29.1834912,4.04185294 Z M29.1834912,7.34213725 C24.2225794,6.19878431 19.9938147,6.92941176 15.0970304,8.06395098 L15.0970304,6.38508824 C19.9929029,5.2502451 24.2228833,4.51961765 29.1834912,5.66327451 L29.1834912,7.34213725 Z M29.1834912,10.8162647 C24.2225794,9.67291176 19.9944225,10.4035392 15.0970304,11.5380784 L15.0970304,9.68537255 C19.9929029,8.55113725 24.2228833,7.81959804 29.1834912,8.96355882 L29.1834912,10.8162647 Z M29.1834912,14.1539314 C19.7342657,12.0659902 11.0703735,17.5408333 1.62145196,15.4525882 L1.62145196,13.736951 C11.0712853,15.8236765 19.7345696,10.350049 29.1834912,12.4379902 L29.1834912,14.1539314 Z M29.1834912,17.4596863 C19.7342657,15.3714412 11.0709814,20.8459804 1.62145196,18.7586471 L1.62145196,17.0740098 C11.0706775,19.1616471 19.7345696,13.6874118 29.1834912,15.7753529 L29.1834912,17.4596863 Z M29.1834912,20.8329118 C19.7342657,18.7455784 11.0709814,24.218902 1.62145196,22.1321765 L1.62145196,20.3794608 C11.0706775,22.467402 19.7345696,16.9931667 29.1834912,19.0805 L29.1834912,20.8329118 Z M3.73674608,10.2716373 C3.83491275,9.98655882 3.88384412,9.84371569 3.98231471,9.5565098 C4.08017745,9.8735 4.12850098,10.0315392 4.22757941,10.3470098 C4.54517745,10.3904706 4.70352059,10.408098 5.02142255,10.435451 C4.7643049,10.6001765 4.63544216,10.6801078 4.37923627,10.8341961 C4.47709902,11.148451 4.52603039,11.3049706 4.6248049,11.6177059 C4.36738333,11.4028333 4.23882451,11.2928137 3.98261863,11.0666961 C3.72519706,11.2137941 3.59724608,11.2849118 3.3410402,11.4204608 C3.43890294,11.1381176 3.48753039,10.9961863 3.58569706,10.7120196 C3.32857941,10.4789118 3.20062843,10.3594706 2.94351078,10.1145098 C3.26050098,10.1862353 3.41945196,10.2175392 3.73674608,10.2716373 Z M3.73674608,5.40220588 C3.83491275,5.11682353 3.88384412,4.97398039 3.98231471,4.68707843 C4.08017745,5.00406863 4.12850098,5.16210784 4.22757941,5.47757843 C4.54517745,5.52103922 4.70352059,5.53866667 5.02142255,5.56601961 C4.7643049,5.73044118 4.63544216,5.80976471 4.37923627,5.96385294 C4.47709902,6.27810784 4.52603039,6.43523529 4.6248049,6.74827451 C4.36738333,6.53309804 4.23882451,6.42307843 3.98261863,6.19696078 C3.72519706,6.34405882 3.59724608,6.41487255 3.3410402,6.55042157 C3.43890294,6.26807843 3.48753039,6.12614706 3.58569706,5.84228431 C3.32857941,5.60917647 3.20062843,5.48973529 2.94351078,5.24477451 C3.26050098,5.31680392 3.41945196,5.34810784 3.73674608,5.40220588 Z M6.53920686,8.13233333 C6.63706961,7.83023529 6.68660882,7.67918627 6.78538333,7.37587255 C6.88324608,7.67614706 6.93248137,7.82598039 7.03064804,8.12564706 C7.34794216,8.11713725 7.50689314,8.10953922 7.82449118,8.08917647 C7.56706961,8.29219608 7.43911863,8.39218627 7.1823049,8.58760784 C7.28047157,8.88605882 7.32940294,9.03467647 7.42756961,9.33221569 C7.17045196,9.15746078 7.04189314,9.06841176 6.78568725,8.8857549 C6.52826569,9.0760098 6.40031471,9.16931373 6.14350098,9.3507549 C6.24136373,9.05078431 6.2902951,8.90003922 6.38876569,8.59885294 C6.13164804,8.41042157 6.00278529,8.31438235 5.74597157,8.11683333 C6.06356961,8.13020588 6.22160882,8.13263725 6.53920686,8.13233333 Z M8.83199118,10.3664608 C8.92985392,10.0540294 8.97878529,9.8975098 9.07725588,9.58416667 C9.17511863,9.87471569 9.22435392,10.0193824 9.32282451,10.3090196 C9.64011863,10.2692059 9.79906961,10.2470196 10.1166676,10.1983922 C9.85924608,10.4242059 9.7312951,10.536049 9.47417745,10.7557843 C9.57264804,11.0451176 9.62157941,11.1891765 9.71974608,11.4772941 C9.46262843,11.326549 9.33437353,11.2499608 9.0775598,11.0934412 C8.82044216,11.3101373 8.69249118,11.4168137 8.43537353,11.6268235 C8.5335402,11.3162157 8.58247157,11.1603039 8.68063824,10.8484804 C8.42352059,10.6880098 8.29496176,10.6062549 8.03875588,10.4387941 C8.35574608,10.4153922 8.51378529,10.4005 8.83199118,10.3664608 Z M8.83199118,5.49672549 C8.92985392,5.18429412 8.97878529,5.02807843 9.07725588,4.71443137 C9.17511863,5.00498039 9.22435392,5.14995098 9.32282451,5.43958824 C9.64011863,5.39977451 9.79906961,5.37728431 10.1166676,5.32896078 C9.85924608,5.55477451 9.7312951,5.66631373 9.47417745,5.88665686 C9.57264804,6.17568627 9.62157941,6.32004902 9.71974608,6.60847059 C9.46262843,6.45772549 9.33437353,6.38113725 9.0775598,6.22461765 C8.82044216,6.4410098 8.69249118,6.54768627 8.43537353,6.75769608 C8.5335402,6.44678431 8.58247157,6.29087255 8.68063824,5.97904902 C8.42352059,5.81827451 8.29496176,5.73682353 8.03875588,5.56905882 C8.35574608,5.54596078 8.51378529,5.53076471 8.83199118,5.49672549 Z M11.4378147,7.6062451 C11.5359814,7.28591176 11.5849127,7.12544118 11.6836873,6.8045 C11.78155,7.08714706 11.8298735,7.22877451 11.9283441,7.51111765 C12.2462461,7.44759804 12.4051971,7.41416667 12.7224912,7.34608824 C12.4653735,7.5880098 12.3368147,7.70836275 12.0806088,7.94754902 C12.1784716,8.22958824 12.2267951,8.37 12.3252657,8.65173529 C12.068148,8.51861765 11.9401971,8.45145098 11.6839912,8.3149902 C11.4262657,8.55144118 11.2983147,8.6687549 11.0421088,8.90155882 C11.1402755,8.58213725 11.188599,8.42227451 11.2867657,8.1022451 C11.029648,7.96335294 10.9016971,7.89314706 10.6448833,7.74939216 C10.9615696,7.69529412 11.1205206,7.66642157 11.4378147,7.6062451 Z M3.03921569e-05,1.04609804 L3.03921569e-05,23.1041176 C10.502648,26.7280784 20.3032069,19.4798529 30.8046088,23.1041176 L30.8046088,1.04609804 C20.302599,-2.57786275 10.502648,4.67066667 3.03921569e-05,1.04609804 Z" id="Fill-1" fill="#0E8BE4" mask="url(#mask-2)"></path>
                            </g>
                            <circle id="Oval-2" stroke="#0E8BE4" stroke-width="0.8" fill="#FFFFFF" cx="42.1428571" cy="37.1428571" r="7.14285714"></circle>
                            <path d="M45.0410774,34.1384794 C44.7606379,33.91406 44.4241367,33.9701484 44.2558861,34.250722 L41.1152525,38.7395049 L38.927995,36.9439523 C38.7036828,36.7195329 38.3110543,36.7756213 38.1428037,37.0000407 C37.9184915,37.2244602 37.9745532,37.6172763 38.1988653,37.7856073 L40.8908746,39.9739104 C40.9469362,40.0299988 41.1151868,40.086153 41.2273757,40.086153 C41.2273757,40.086153 41.2834374,40.086153 41.2834374,40.1422414 C41.4516879,40.1422414 41.5638769,40.0299988 41.6760001,39.917822 L45.1532007,34.9239803 C45.3775786,34.6434725 45.321517,34.3068105 45.0410774,34.1384794 Z" id="Shape" fill="#0E8BE4" fill-rule="nonzero"></path>
                        </g>
                    </g>
                </g>
            </g>
        </g>
    </g>
</svg>