<?xml version="1.0" encoding="UTF-8" standalone="no"?>
<svg width="62px" height="62px" viewBox="0 0 62 62" version="1.1" xmlns="http://www.w3.org/2000/svg" xmlns:xlink="http://www.w3.org/1999/xlink">
    <!-- Generator: Sketch 48.2 (47327) - http://www.bohemiancoding.com/sketch -->
    <title>Group 12</title>
    <desc>Created with Sketch.</desc>
    <defs>
        <polygon id="path-1" points="0 33.6547266 31.3846991 33.6547266 31.3846991 0 0 0"></polygon>
    </defs>
    <g id="03-sub-내차포털소개" stroke="none" stroke-width="1" fill="none" fill-rule="evenodd" transform="translate(-429.000000, -1455.000000)">
        <g id="figure1" transform="translate(430.000000, 921.000000)">
            <g id="Ul" transform="translate(0.000000, 101.000000)">
                <g id="list" transform="translate(0.000000, 434.000000)">
                    <g id="Group-12">
                        <circle id="Oval" stroke="#0E8BE4" cx="30" cy="30" r="30"></circle>
                        <g id="Group-14" transform="translate(14.285714, 12.857143)">
                            <g id="Page-1">
                                <path d="M15.8841994,10.337906 C15.5537208,10.337906 15.2859398,10.6045935 15.2859398,10.9335452 C15.2859398,11.2624969 15.5537208,11.5291844 15.8841994,11.5291844 C18.3357875,11.5291844 20.3303053,13.5149661 20.3303053,15.9558161 L20.3303053,16.4024661 C20.3303053,16.7314177 20.5980863,16.9981053 20.9285649,16.9981053 C21.2590435,16.9981053 21.5268245,16.7314177 21.5268245,16.4024661 L21.5268245,15.9558161 C21.5269043,12.8580952 18.9955482,10.337906 15.8841994,10.337906" id="Fill-1" fill="#0E8BE4"></path>
                                <mask id="mask-2" fill="white">
                                    <use xlink:href="#path-1"></use>
                                </mask>
                                <g id="Clip-4"></g>
                                <path d="M5.94414793,32.4634482 L25.8239159,32.4634482 L25.8239159,30.8385445 L5.94414793,30.8385445 L5.94414793,32.4634482 Z M5.94414793,29.6472661 L25.8239159,29.6472661 L25.8239159,28.1598359 L5.94414793,28.1598359 L5.94414793,29.6472661 Z M9.41931835,15.955824 C9.41931835,12.4070851 12.3194416,9.51998219 15.8841914,9.51998219 C19.4485424,9.51998219 22.3482669,12.4070851 22.3482669,15.955824 L22.3482669,26.9684781 L9.41931835,26.9684781 L9.41931835,15.955824 Z M26.4221755,26.9684781 L23.5448658,26.9684781 L23.5448658,15.955824 C23.5448658,11.7502142 20.1083031,8.32870379 15.8842712,8.32870379 C11.6597607,8.32870379 8.2228789,11.7502142 8.2228789,15.955824 L8.2228789,26.9684781 L5.34588832,26.9684781 C5.01540972,26.9684781 4.74762872,27.2351656 4.74762872,27.5641173 L4.74762872,33.0590874 C4.74762872,33.3880391 5.01540972,33.6547266 5.34588832,33.6547266 L26.4221755,33.6547266 C26.7526541,33.6547266 27.0204351,33.3880391 27.0204351,33.0590874 L27.0204351,27.5641173 C27.0204351,27.2351656 26.7525743,26.9684781 26.4221755,26.9684781 Z" id="Fill-3" fill="#0E8BE4" mask="url(#mask-2)"></path>
                                <path d="M15.6923336,5.90365013 C16.022892,5.90365013 16.2905932,5.6369626 16.2905932,5.30801093 L16.2905932,0.595631257 C16.2905932,0.266679582 16.022892,-7.94185599e-06 15.6923336,-7.94185599e-06 C15.361855,-7.94185599e-06 15.094074,0.266679582 15.094074,0.595631257 L15.094074,5.30801093 C15.094074,5.63704202 15.3619347,5.90365013 15.6923336,5.90365013" id="Fill-5" fill="#0E8BE4" mask="url(#mask-2)"></path>
                                <path d="M7.94273387,8.75027339 C8.05959391,8.86654216 8.21274837,8.92475597 8.36582306,8.92475597 C8.51889775,8.92475597 8.67205221,8.86662158 8.78891226,8.75027339 C9.02255257,8.51765643 9.02255257,8.14049769 8.78891226,7.90796015 L5.44232777,4.5761133 C5.20860769,4.34349634 4.82986947,4.34349634 4.59622915,4.5761133 C4.36258883,4.80873027 4.36258883,5.18588901 4.59622915,5.41842655 L7.94273387,8.75027339 Z" id="Fill-6" fill="#0E8BE4" mask="url(#mask-2)"></path>
                                <path d="M5.92882451,15.6236241 C5.92882451,15.2946725 5.66104351,15.0279849 5.3305649,15.0279849 L0.598251632,15.0279849 C0.267773024,15.0279849 -7.97679478e-06,15.2946725 -7.97679478e-06,15.6236241 C-7.97679478e-06,15.9525758 0.267773024,16.2192633 0.598251632,16.2192633 L5.33048513,16.2192633 C5.66096374,16.2192633 5.92882451,15.9525758 5.92882451,15.6236241" id="Fill-7" fill="#0E8BE4" mask="url(#mask-2)"></path>
                                <path d="M23.0189877,8.92474008 C23.1720624,8.92474008 23.3252168,8.8666057 23.4420769,8.75025751 L26.7885018,5.41849008 C27.0221421,5.18587312 27.0221421,4.80871438 26.7885018,4.57617684 C26.554702,4.34355988 26.1759637,4.34355988 25.9423234,4.57617684 L22.5958985,7.90794426 C22.3623379,8.14056122 22.3623379,8.51771997 22.5958985,8.75025751 C22.7126788,8.8666057 22.865913,8.92474008 23.0189877,8.92474008" id="Fill-8" fill="#0E8BE4" mask="url(#mask-2)"></path>
                                <path d="M30.7864714,15.0279849 L26.0532009,15.0279849 C25.722802,15.0279849 25.4549413,15.2946725 25.4549413,15.6236241 C25.4549413,15.9525758 25.722802,16.2192633 26.0532009,16.2192633 L30.7864714,16.2192633 C31.11695,16.2192633 31.384731,15.9525758 31.384731,15.6236241 C31.384731,15.2946725 31.1168702,15.0279849 30.7864714,15.0279849" id="Fill-9" fill="#0E8BE4" mask="url(#mask-2)"></path>
                            </g>
                        </g>
                    </g>
                </g>
            </g>
        </g>
    </g>
</svg>