<?xml version="1.0" encoding="UTF-8" standalone="no"?>
<svg width="68px" height="25px" viewBox="0 0 68 25" version="1.1" xmlns="http://www.w3.org/2000/svg" xmlns:xlink="http://www.w3.org/1999/xlink">
    <!-- Generator: Sketch 48.2 (47327) - http://www.bohemiancoding.com/sketch -->
    <title>Page 1</title>
    <desc>Created with Sketch.</desc>
    <defs>
        <polygon id="path-1" points="0.311775683 0.514934769 26.5749677 0.514934769 26.5749677 18.8272463 0.311775683 18.8272463"></polygon>
        <polygon id="path-3" points="0.162273431 0.319714286 8.2413 0.319714286 8.2413 11.6685429 0.162273431 11.6685429"></polygon>
        <polygon id="path-5" points="0.267960059 0.0994103645 3.95036846 0.0994103645 3.95036846 10 0.267960059 10"></polygon>
    </defs>
    <g id="footer" stroke="none" stroke-width="1" fill="none" fill-rule="evenodd" transform="translate(-630.000000, -27.000000)">
        <g id="Group">
            <g transform="translate(630.000000, 19.000000)">
                <g id="Page-1" transform="translate(0.000000, 8.000000)">
                    <g id="Group-3" transform="translate(41.000000, 1.000000)">
                        <mask id="mask-2" fill="white">
                            <use xlink:href="#path-1"></use>
                        </mask>
                        <g id="Clip-2"></g>
                        <path d="M24.0999387,8.63109545 C24.1521968,8.60605 24.2122935,8.59655 24.2689065,8.58100455 L24.2715194,8.54473182 C24.2018419,8.52745909 24.1312935,8.51018636 24.0590032,8.49205 C24.1879065,8.31068636 25.1930032,8.21223182 25.3732935,8.34005 C25.3523903,8.46441364 25.3323581,8.58186818 25.3053581,8.74423182 C25.3976806,8.77359545 25.5100355,8.80727727 25.6337129,8.84614091 C25.631971,8.85132273 25.6337129,8.89191364 25.6180355,8.89968636 C25.4525516,8.98173182 25.306229,9.10782273 25.0971968,9.09141364 C24.7967129,9.06723182 24.4944871,9.05686818 24.1931323,9.05082273 C24.091229,9.04823182 24.0624871,9.00850455 24.0598742,8.91782273 C24.0581323,8.84959545 24.0363581,8.78223182 24.0381,8.71486818 C24.038971,8.68464091 24.0711968,8.64491364 24.0999387,8.63109545 Z M7.45661613,8.52227727 C7.48535806,8.54214091 7.5411,8.57150455 7.53761613,8.58100455 C7.52019677,8.63800455 7.4871,8.69068636 7.4601,8.74423182 C7.4331,8.73127727 7.4061,8.71745909 7.37997097,8.70277727 L7.45661613,8.52227727 Z M7.67958387,7.66986818 C7.70745484,7.65345909 7.77626129,7.70441364 7.82590645,7.72427727 C7.81458387,7.75018636 7.80151935,7.77695909 7.78932581,7.80373182 C7.72487419,7.86936818 7.66564839,7.94364091 7.58987419,7.99200455 C7.57506774,8.00150455 7.49668065,7.91168636 7.44616452,7.86764091 C7.52280968,7.80027727 7.59335806,7.72168636 7.67958387,7.66986818 Z M26.4620032,7.18536818 C26.3696806,7.12405 26.305229,7.02386818 26.2163903,6.92800455 C26.2817129,6.89777727 26.3113258,6.88914091 26.333971,6.87186818 C26.3836161,6.83473182 26.4289065,6.79414091 26.4768097,6.75441364 C26.4367452,6.71382273 26.4019065,6.66545909 26.3548742,6.63350455 C26.2433903,6.55836818 26.1275516,6.49014091 26.0117129,6.42105 C25.9699065,6.39686818 25.927229,6.36491364 25.8810677,6.35800455 C25.6946806,6.32864091 25.5082935,6.30273182 25.3210355,6.28718636 C25.2173903,6.27768636 25.1102613,6.30014091 25.0057452,6.29236818 C24.7252935,6.27336818 24.4448419,6.24745909 24.1643903,6.22068636 C23.8160032,6.18786818 23.4667452,6.12655 23.1183581,6.12223182 C22.6881,6.11705 22.256971,6.15677727 21.8267129,6.18268636 C21.7370032,6.18786818 21.6499065,6.22673182 21.5619387,6.23623182 C21.3276484,6.25955 21.0890032,6.25350455 20.8608097,6.30186818 C20.5672935,6.36405 20.2824871,6.46768636 19.9941968,6.55405 C19.9367129,6.57132273 19.8801,6.59723182 19.8208742,6.60673182 C19.3557774,6.67927727 18.8898097,6.74664091 18.4238419,6.82005 C18.3027774,6.83905 18.1834548,6.87618636 18.0632613,6.90468636 C17.8638097,6.95132273 17.6661,7.01264091 17.4640355,7.04027727 C17.2732935,7.06532273 17.0773258,7.03941364 16.8857129,7.06186818 C16.6366161,7.09036818 16.3988419,7.05495909 16.1636806,6.98500455 C16.1157774,6.97118636 16.0495839,6.93491364 16.0391323,6.89518636 C15.9955839,6.74059545 15.9651,6.57995909 15.9441968,6.42105 C15.9381,6.38045909 16.0069065,6.30186818 15.9973258,6.29409545 C15.8501323,6.17491364 15.9685839,6.10582273 16.0400032,6.02377727 C16.0574226,6.00391364 16.0591645,5.96677727 16.0591645,5.93655 C16.0591645,5.81909545 16.0548097,5.70077727 16.0521968,5.58591364 C16.0548097,5.58418636 16.0339065,5.59973182 16.0121323,5.60318636 C15.965971,5.61009545 15.9189387,5.61009545 15.8727774,5.61268636 C15.8797452,5.57123182 15.8745194,5.52114091 15.8954226,5.49005 C15.9441968,5.42095909 16.0051645,5.36050455 16.072229,5.28450455 C15.9084871,5.31386818 15.9781645,5.17655 15.9590032,5.11091364 C15.9459387,5.06600455 16.0069065,4.99950455 16.0339065,4.94250455 C16.0670032,4.98223182 16.1001,5.02195909 16.1331968,5.06255 C16.1410355,5.07205 16.1445194,5.08500455 16.153229,5.10141364 C16.1776161,5.02023182 16.1854548,4.93818636 16.2255194,4.87686818 C16.315229,4.74127727 16.3021645,4.63159545 16.1671645,4.53745909 C16.2115839,4.46836818 16.2812613,4.40964091 16.2864871,4.34573182 C16.2995516,4.17645909 16.2847452,4.00545909 16.2803903,3.81545909 C16.2429387,3.84827727 16.2185516,3.87245909 16.1915516,3.89059545 C16.1619387,3.91045909 16.1288419,3.92427727 16.0974871,3.94068636 C16.0861645,3.90441364 16.0565516,3.85691364 16.0696161,3.83359545 C16.0974871,3.78523182 16.1427774,3.72045909 16.1906806,3.71182273 C16.3230677,3.68936818 16.3178419,3.57968636 16.3378742,3.49764091 C16.3483258,3.45273182 16.2969387,3.39486818 16.2673258,3.32664091 C16.2586161,3.38795909 16.2638419,3.44582273 16.2429387,3.49073182 C16.2229065,3.53045909 16.1741323,3.55636818 16.1392935,3.58832273 C16.1114226,3.50714091 16.0548097,3.42250455 16.0626484,3.34564091 C16.0731,3.25236818 16.1462613,3.16945909 16.1793581,3.07705 C16.2176806,2.97168636 16.2647129,2.90864091 16.396229,3.01055 C16.4397774,2.90345909 16.477229,2.81105 16.5155516,2.71691364 C16.4206161,2.64350455 16.3370032,2.58218636 16.2568742,2.51655 C16.2403258,2.50273182 16.2263903,2.47164091 16.2290032,2.45177727 C16.2429387,2.35677727 16.2507774,2.25745909 16.2856161,2.16936818 C16.3648742,1.97159545 16.450229,1.77555 16.5477774,1.58641364 C16.6488097,1.38950455 16.5773903,1.16927727 16.3761968,1.06995909 C16.3039065,1.03455 16.2429387,0.971504545 16.1854548,0.913640909 C16.0661323,0.795322727 15.9555194,0.666640909 15.8344548,0.55005 C15.7665194,0.485277273 15.6123581,0.517231818 15.5540032,0.58805 C15.5209065,0.628640909 15.4773581,0.659731818 15.4338097,0.689959091 C15.2570032,0.811731818 15.0793258,0.934368182 14.8981645,1.05182273 C14.8633258,1.07427727 14.8067129,1.09068636 14.7701323,1.07859545 C14.6386161,1.03627727 14.5680677,1.12264091 14.4888097,1.19432273 C14.4600677,1.22023182 14.4391645,1.26686818 14.4069387,1.27723182 C14.2205516,1.33682273 14.1630677,1.51473182 14.0881645,1.65291364 C13.9610032,1.88695909 13.8843581,2.14864091 13.7894226,2.39995909 C13.7432613,2.52259545 13.7153903,2.65300455 13.6666161,2.77564091 C13.5185516,3.15132273 13.3635194,3.52527727 13.211971,3.90095909 C13.2023903,3.92341364 13.1945516,3.94932273 13.1945516,3.97264091 C13.2015194,4.31032273 13.0900355,4.62295909 12.9872613,4.93818636 C12.9454548,5.06427727 12.8818742,5.18605 12.8557452,5.31473182 C12.805229,5.56000455 12.7764871,5.79923182 12.6536806,6.03673182 C12.5265194,6.28286818 12.5056161,6.58427727 12.4402935,6.86236818 C12.4115516,6.98586818 12.4254871,7.14650455 12.3505839,7.22509545 C12.2626161,7.31664091 12.2242935,7.40818636 12.1946806,7.51786818 C12.1729065,7.59991364 12.1502613,7.68195909 12.1171645,7.76055 C12.0736161,7.86073182 12.0143903,7.94536818 11.8785194,7.91945909 C11.8480355,7.91341364 11.8123258,7.93845909 11.7783581,7.94364091 C11.6529387,7.96005 11.5257774,7.97386818 11.3629065,7.99373182 C11.4151645,7.90823182 11.4421645,7.86245909 11.4700355,7.81668636 C11.4160355,7.82014091 11.3872935,7.84691364 11.3585516,7.87195909 C11.3271968,7.89786818 11.2967129,7.93932273 11.2610032,7.94536818 C11.1007452,7.97127727 10.9396161,7.99114091 10.7784871,8.00668636 C10.7122935,8.01359545 10.6286806,7.97732273 10.5816484,8.00582273 C10.4118097,8.10773182 10.2245516,8.12327727 10.0390355,8.15609545 C9.98590645,8.16559545 9.92755161,8.16905 9.87877742,8.19236818 C9.51993871,8.36682273 9.16197097,8.54386818 8.80574516,8.72350455 C8.68990645,8.78223182 8.58277742,8.85736818 8.46693871,8.91695909 C8.27793871,9.01195909 8.08719677,9.10523182 7.89558387,9.19159545 C7.71877742,9.27105 7.5384871,9.34014091 7.36080968,9.41527727 C7.33729355,9.42564091 7.31029355,9.44205 7.29635806,9.46364091 C7.19793871,9.61823182 7.19097097,9.60700455 7.01677742,9.52755 C6.85826129,9.45500455 6.92619677,9.40923182 7.01329355,9.35309545 C7.08906774,9.30473182 7.14132581,9.25636818 7.18400323,9.16482273 C7.25455161,9.01541364 7.30768065,8.81073182 7.52106774,8.79691364 C7.69787419,8.78655 7.72051935,8.65355 7.75013226,8.54559545 C7.85290645,8.16559545 7.86684194,7.77264091 7.89645484,7.38227727 C7.90342258,7.28814091 7.90255161,7.19314091 7.91039032,7.09900455 C7.9191,6.98327727 7.89645484,6.90295909 7.75187419,6.90814091 C7.72313226,6.90900455 7.67000323,6.86409545 7.67000323,6.84164091 C7.67087419,6.80623182 7.70658387,6.76995909 7.73184194,6.73886818 C7.74316452,6.72418636 7.7814871,6.72418636 7.78322903,6.71295909 C7.80326129,6.60759545 7.85551935,6.53677727 7.96787419,6.51345909 C7.97658387,6.51173182 7.98964839,6.43314091 7.97222903,6.41327727 C7.89384194,6.32345909 7.89906774,6.33555 7.98093871,6.25523182 C8.0297129,6.20773182 8.06368065,6.12395909 8.06455161,6.05659545 C8.06629355,5.86918636 8.03580968,5.68091364 8.14816452,5.50905 C8.16645484,5.48055 8.16035806,5.42527727 8.14903548,5.38900455 C8.00793871,4.97705 7.74664839,4.63245909 7.50800323,4.27577727 C7.38519677,4.09095909 7.27806774,3.87159545 7.00284194,3.83186818 C6.94884194,3.88282273 6.94797097,4.07195909 6.8121,3.94586818 C6.72587419,4.07627727 6.66490645,4.23000455 6.55342258,4.31809545 C6.4341,4.41223182 6.33829355,4.49773182 6.30780968,4.64886818 C6.25555161,4.91227727 6.20416452,5.17655 6.13797097,5.43564091 C6.07003548,5.70336818 5.98380968,5.96764091 5.90455161,6.23277727 C5.85926129,6.38650455 5.8104871,6.54023182 5.76345484,6.69395909 C5.75561613,6.72245909 5.74603548,6.75268636 5.74777742,6.78118636 C5.75474516,6.88050455 5.79393871,6.98673182 5.76955161,7.07655 C5.73122903,7.21645909 5.65458387,7.34686818 5.58577742,7.47727727 C5.51697097,7.60768636 5.41158387,7.72427727 5.48735806,7.89095909 C5.50129355,7.92377727 5.48387419,7.97732273 5.46993871,8.01791364 C5.38632581,8.26750455 5.3027129,8.51795909 5.21213226,8.76495909 C5.17032581,8.88068636 5.1137129,8.99123182 5.06493871,9.10350455 C4.95693871,9.34705 4.85155161,9.59145909 4.74180968,9.83414091 C4.71306774,9.89632273 4.66603548,9.95073182 4.63642258,10.0129136 C4.55455161,10.19255 4.48574516,10.3773682 4.39603548,10.5526864 C4.31242258,10.7141864 4.30632581,10.7219591 4.48487419,10.7988227 C4.3794871,10.9680955 4.2767129,11.1347773 4.16522903,11.3144136 C4.24013226,11.3178682 4.29326129,11.3204591 4.38906774,11.3256409 C4.31939032,11.4681409 4.28716452,11.6201409 4.1931,11.7047773 C4.04677742,11.8343227 3.80987419,11.8481409 3.70797097,12.0502318 C3.69403548,12.0761409 3.64874516,12.0865045 3.61739032,12.1029136 C3.41619677,12.2108682 3.19758387,12.2955045 3.01642258,12.4302318 C2.80564839,12.5891409 2.56090645,12.6893227 2.35797097,12.8706864 C2.1924871,13.0209591 2.06358387,13.2152773 1.83190645,13.3171864 C1.62984194,13.4052773 1.48874516,13.62205 1.30932581,13.7688682 C1.1421,13.9061864 1.05239032,14.1367773 0.81026129,14.1842773 C0.798067742,14.1868682 0.781519355,14.2032773 0.779777419,14.2153682 C0.754519355,14.3898227 0.596874194,14.4545955 0.48626129,14.5504591 C0.233680645,14.7706864 0.257196774,15.1360045 0.544616129,15.24655 C0.6561,15.2888682 0.769325806,15.3355045 0.885164516,15.3570955 C1.08897097,15.3942318 1.28319677,15.4797318 1.50180968,15.4572773 C1.59326129,15.4477773 1.69255161,15.5082318 1.78922903,15.5384591 C2.01219677,15.6101409 2.23429355,15.6852773 2.45813226,15.75005 C2.50255161,15.7621409 2.56526129,15.74055 2.60880968,15.7163682 C2.88142258,15.5617773 3.18800323,15.4659136 3.41706774,15.2387773 C3.45016452,15.2059591 3.50851935,15.1999136 3.55206774,15.1748682 C3.59387419,15.1506864 3.65832581,15.12305 3.66442258,15.0876409 C3.69316452,14.9313227 3.82555161,14.9036864 3.93616452,14.8406409 C4.04677742,14.7784591 4.16000323,14.7128227 4.24884194,14.6247318 C4.43522903,14.4399136 4.60593871,14.2386864 4.78274516,14.0443682 C4.79319677,14.0331409 4.80713226,14.0262318 4.81932581,14.0184591 C5.05013226,13.8725045 5.28006774,13.72655 5.41942258,13.4804136 C5.43858387,13.4458682 5.48735806,13.4251409 5.52480968,13.4018227 C5.71642258,13.2817773 5.91064839,13.1669136 6.09877742,13.0416864 C6.1937129,12.9795045 6.27297097,12.8940045 6.36790645,12.8292318 C6.49942258,12.7394136 6.64313226,12.6651409 6.77464839,12.5744591 C7.05858387,12.3784136 7.33206774,12.16855 7.61861613,11.9776864 C7.87206774,11.8084136 8.13422903,11.6520955 8.39813226,11.5000955 C8.78832581,11.2764136 9.18287419,11.0587773 9.57829355,10.8445955 C10.2393581,10.48705 10.9613903,10.2469591 11.5762935,9.80132273 C11.6703581,9.73309545 11.7487452,9.77282273 11.752229,9.88768636 C11.7591968,10.0768227 11.7766161,10.2720045 11.7400355,10.4550955 C11.6930032,10.6951864 11.7139065,10.9214591 11.7801,11.1494591 C11.8097129,11.2461864 11.8044871,11.3187318 11.7147774,11.3852318 C11.6825516,11.4094136 11.6773258,11.4741864 11.6686161,11.52255 C11.6590355,11.5709136 11.6581645,11.6201409 11.6555516,11.6702318 C11.6520677,11.7721409 11.6511968,11.87405 11.6477129,11.9759591 C11.6451,12.0346864 11.6494548,12.0960045 11.6346484,12.1521409 C11.6120032,12.2436864 11.6050355,12.3136409 11.7147774,12.3611409 C11.7470032,12.3758227 11.7783581,12.4829136 11.7583258,12.5079591 C11.617229,12.6901864 11.5832613,12.9060955 11.5876161,13.1176864 C11.591971,13.3767773 11.6930032,13.6289591 11.6381323,13.8984136 C11.6224548,13.9795955 11.6625194,14.0901409 11.7112935,14.16355 C11.7940355,14.2844591 11.9055194,14.3855045 12.0187452,14.5098682 C11.9751968,14.5590955 11.9394871,14.6255955 11.8837452,14.6549591 C11.7835839,14.7067773 11.8018742,14.7775955 11.8210355,14.8561864 C11.8384548,14.9244136 11.8907129,15.0099136 11.8671968,15.0548227 C11.7679065,15.2405045 11.8489065,15.4011409 11.9072613,15.5686864 C12.077971,15.5445045 12.1615839,15.6420955 12.1493903,15.8554136 C12.0988742,15.8588682 12.0466161,15.8631864 11.995229,15.8666409 C11.9900032,15.8804591 11.9839065,15.8951409 11.9786806,15.9089591 C12.0788419,15.9676864 12.1781323,16.0264136 12.2931,16.0929136 C12.2739387,16.1542318 12.2495516,16.2319591 12.2242935,16.3079591 C12.4167774,16.38655 12.4690355,16.5204136 12.3505839,16.6188682 C12.2896161,16.6680955 12.1650677,16.6801864 12.1485194,16.7328682 C12.1284871,16.8028227 12.1781323,16.8986864 12.211229,16.9790045 C12.2338742,17.0351409 12.266971,17.1137318 12.3157452,17.1310045 C12.4350677,17.1759136 12.5195516,17.2216864 12.4768742,17.3235955 C12.5273903,17.4108227 12.5674548,17.4652318 12.590971,17.52655 C12.6153581,17.5895955 12.6205839,17.6586864 12.6397452,17.7243227 C12.6981,17.9229591 12.7686484,18.1190045 12.8148097,18.3202318 C12.8627129,18.5257773 12.9071323,18.5836409 13.1187774,18.63805 C13.1710355,18.6518682 13.2198097,18.6803682 13.2685839,18.7036864 C13.3626484,18.7477318 13.4567129,18.8297773 13.5507774,18.8271864 C13.6448419,18.8254591 13.7667774,18.7641409 13.8251323,18.6890045 C13.9165839,18.5732773 13.9975839,18.5965955 14.1003581,18.6432318 C14.2170677,18.6976409 14.2780355,18.6458227 14.2797774,18.5318227 C14.2815194,18.4273227 14.3302935,18.3824136 14.425229,18.38155 C14.5506484,18.3789591 14.6299065,18.3046864 14.6647452,18.2045045 C14.7196161,18.0421409 14.776229,17.8728682 14.7858097,17.7035955 C14.7988742,17.4583227 14.7814548,17.4574591 15.0052935,17.3607318 C14.9443258,17.1215045 14.8598419,16.8943682 14.8371968,16.6611864 C14.8136806,16.4167773 14.8511323,16.1654591 14.8607129,15.9175955 C14.8624548,15.8778682 14.8633258,15.8364136 14.8563581,15.79755 C14.8180355,15.5652318 14.6882613,15.3424136 14.7823258,15.0962773 C14.7849387,15.0893682 14.777971,15.0764136 14.7727452,15.0686409 C14.7126484,14.9727773 14.7631645,14.8993682 14.7892935,14.8026409 C14.8371968,14.6221409 14.8014871,14.42005 14.803229,14.2274591 C14.803229,14.1186409 14.8067129,14.0098227 14.8093258,13.9010045 C14.8119387,13.8016864 14.8162935,13.7023682 14.8189065,13.60305 C14.8206484,13.5417318 14.8145516,13.47955 14.8241323,13.4190955 C14.8537452,13.2092318 14.8972935,13.0010955 14.9173258,12.7903682 C14.9277774,12.6789591 14.9068742,12.5701409 15.0444871,12.5165955 C15.0688742,12.5070955 15.0828097,12.4552773 15.0906484,12.4198682 C15.1307129,12.2324591 15.1942935,12.0597318 15.3484548,11.93105 C15.3745839,11.9094591 15.4068097,11.8800955 15.4102935,11.8498682 C15.4399065,11.6633227 15.5940677,11.5743682 15.7099065,11.4551864 C15.7926484,11.3696864 15.8823581,11.2885045 15.9520355,11.1935045 C15.9964548,11.1304591 16.0295516,11.1080045 16.1088097,11.1261409 C16.2472935,11.1589591 16.3831645,11.18055 16.4929065,11.0363227 C16.5294871,10.9879591 16.6357452,10.9896864 16.7115194,10.9741409 C16.8317129,10.9490955 16.9553903,10.9344136 17.0738419,10.9033227 C17.2018742,10.8696409 17.3264226,10.8212773 17.4518419,10.7798227 C17.5537452,10.7452773 17.6565194,10.7107318 17.7592935,10.6787773 C17.9186806,10.6278227 18.0824226,10.5302318 18.2391968,10.5405955 C18.4360355,10.5544136 18.610229,10.5138227 18.7896484,10.4611409 C18.8349387,10.4473227 18.8811,10.42055 18.9159387,10.3885955 C19.0178419,10.2944591 19.1188742,10.2072318 19.2747774,10.2314136 C19.3035194,10.2348682 19.3505516,10.2158682 19.3671,10.19255 C19.4481,10.0794136 19.5421645,10.1087773 19.6484226,10.1493682 C19.8278419,10.2167318 20.0812935,10.1692318 20.1649065,10.0483227 C20.2493903,9.92827727 20.3234226,9.91618636 20.4314226,10.02155 C20.5394226,10.1251864 20.6456806,10.10705 20.7562935,9.99218636 C20.7815516,9.96541364 20.8207452,9.93345909 20.852971,9.93432273 C21.0167129,9.94123182 21.1795839,9.96282273 21.3433258,9.96886818 C21.4086484,9.97145909 21.4905194,9.96541364 21.5375516,9.92914091 C21.6664548,9.82982273 21.8040677,9.77886818 21.9660677,9.76418636 C22.0740677,9.75382273 22.1811968,9.71755 22.2857129,9.68386818 C22.4651323,9.62773182 22.6253903,9.53877727 22.8300677,9.53877727 C23.0713258,9.53791364 23.3108419,9.44032273 23.5538419,9.41700455 C24.0755516,9.36864091 24.5990032,9.33927727 25.1224548,9.30645909 C25.172971,9.30300455 25.2321968,9.32286818 25.279229,9.34705 C25.3593581,9.38936818 25.6371968,9.32114091 25.6641968,9.23909545 C25.6729065,9.21405 25.6554871,9.17432273 25.6380677,9.15014091 C25.5823258,9.07241364 25.6119387,9.03095909 25.6903258,9.00418636 C25.7321323,8.98950455 25.7739387,8.97309545 25.8157452,8.95668636 C25.8035516,8.95064091 25.7913581,8.94373182 25.7809065,8.93682273 C25.793971,8.88586818 25.7913581,8.81591364 25.8244548,8.78568636 C25.9341968,8.68723182 25.9977774,8.52314091 25.8958742,8.43159545 C25.7678419,8.31673182 25.8375194,8.24073182 25.9124226,8.11723182 C25.8044226,8.09823182 25.7164548,8.06109545 25.6354548,8.07145909 C25.3323581,8.10945909 25.0318742,8.16473182 24.7305194,8.21050455 C24.4291645,8.25627727 24.1269387,8.30032273 23.7968419,8.22086818 C23.8412613,8.18977727 23.8647774,8.16041364 23.8943903,8.15523182 C24.1548097,8.10600455 24.4161,8.04468636 24.6808742,8.01791364 C24.9308419,7.99200455 25.1842935,8.00495909 25.4351323,7.99805 C25.5710032,7.99459545 25.8000677,7.84950455 25.7852613,7.76314091 C25.7539065,7.58609545 25.8714871,7.60682273 25.9672935,7.61718636 C26.1571645,7.63791364 26.3270032,7.58695909 26.4794226,7.48245909 C26.6196484,7.38832273 26.5987452,7.27518636 26.4620032,7.18536818 Z" id="Fill-1" fill="#231F20" mask="url(#mask-2)"></path>
                    </g>
                    <path d="M39.2189373,5.05813488 C39.2976843,5.15864454 39.3449326,5.22836746 39.4012989,5.28903545 C39.4344556,5.32434966 39.4775592,5.36147485 39.5214918,5.37052977 C39.6267642,5.39226159 39.7403257,5.38049019 39.8016655,5.51088111 C39.8124415,5.53261293 39.8480849,5.55343925 39.8721234,5.55343925 C40.0088947,5.55615573 40.1464948,5.55615573 40.2824371,5.55072277 C40.4357866,5.54438433 40.5891362,5.37596273 40.7408279,5.55706122 C40.7449725,5.56249418 40.7582351,5.55887221 40.7681821,5.55887221 C40.9024666,5.54619531 41.0392378,5.54438433 41.1718644,5.51812505 C41.2506115,5.50273167 41.2945441,5.50816463 41.3335031,5.59146994 C41.3666598,5.66209835 41.4263418,5.68745214 41.4810503,5.60595781 C41.5970986,5.43391425 41.6153347,5.43300875 41.7952096,5.51631406 C41.870641,5.55162827 41.9593351,5.57607656 42.0405689,5.57426558 C42.1823136,5.56973812 42.3248872,5.54347883 42.4666319,5.523558 C42.6191526,5.50092069 42.7219382,5.59146994 42.8023431,5.72910479 C42.9449167,5.97268226 42.8537359,6.23708606 42.8943528,6.48700198 C42.8976685,6.51235577 42.8794323,6.5449535 42.8678275,6.57211827 C42.8421311,6.63550274 42.7923961,6.69707623 42.7899093,6.7613662 C42.7766467,7.05293477 42.7783045,7.34450334 42.7708443,7.63697741 C42.7658708,7.80087154 42.7492924,7.96476568 42.7451479,8.12956531 C42.74349,8.21196512 42.7550949,8.29527043 42.7642129,8.37857573 C42.7758178,8.47455794 42.8040009,8.57054014 42.803172,8.66561684 C42.8015142,8.89198996 42.7318852,9.11293012 42.7998563,9.34473619 C42.8454467,9.50048089 42.8404732,9.67342996 42.8752877,9.83370212 C42.9117601,10.0012182 42.8868926,10.1832222 43.0891482,10.2936923 C43.2333796,10.3724701 43.3146135,10.5807334 43.4339774,10.7219902 C43.5094088,10.811634 43.5906426,10.9121436 43.6901126,10.9574183 C43.7912404,11.0045039 43.9164068,10.991827 44.0316262,10.9999764 C44.0490334,11.0008819 44.0805323,10.9755281 44.0855058,10.9565128 C44.1194913,10.809823 44.2073565,10.8197834 44.3101421,10.8560031 C44.3350096,10.8659635 44.3681663,10.8623416 44.3946916,10.8532866 C44.6118677,10.7835637 44.7635594,10.5445137 44.7569281,10.2945978 C44.7544413,10.2167254 44.7337184,10.1089718 44.7710197,10.0664137 C44.91608,9.90161406 44.9235403,9.68520136 44.9699596,9.48870949 C45.0047741,9.34111422 44.9898536,9.17812558 44.9873668,9.02238087 C44.9790777,8.3704263 44.9666439,7.71756624 44.9566969,7.06470617 C44.9525524,6.82656165 44.9492367,6.58841714 44.9500656,6.35117811 C44.9508945,6.18004004 44.9575259,6.00799647 44.9633283,5.83685839 C44.9674729,5.73272676 44.9915114,5.61501274 45.1009284,5.61410725 C45.224437,5.61410725 45.3214202,5.42395383 45.4598492,5.56068319 C45.4656516,5.56611615 45.4946637,5.54891179 45.5104131,5.53804588 C45.5734108,5.49186576 45.6314349,5.43753622 45.6985772,5.40041103 C45.7532856,5.37052977 45.829546,5.29446841 45.859387,5.43663072 C45.8618737,5.44568565 45.9165822,5.45564607 45.9339894,5.44387466 C46.0749052,5.34245951 46.1420475,5.37052977 46.176033,5.56249418 C46.3517633,5.49548773 46.5415852,5.5000152 46.7032239,5.36147485 C46.8814409,5.20935212 47.0206989,5.23017844 47.2005738,5.38049019 C47.2237834,5.39950553 47.2668871,5.42938678 47.2793208,5.42033186 C47.3829354,5.34427049 47.4790897,5.39860004 47.585191,5.40765497 C47.833037,5.42576481 48.0900011,5.45655156 48.3245845,5.30895629 C48.3527676,5.29175193 48.4132785,5.28994095 48.4315147,5.30986178 C48.5351292,5.41942637 48.65698,5.35423091 48.7688837,5.36147485 C48.8393416,5.36600231 48.9106284,5.34064852 48.9819152,5.3315936 C49.1990913,5.30442882 49.4162674,5.27907504 49.6409038,5.25191026 C49.6218387,5.18852579 49.608576,5.14596764 49.5936556,5.09616556 C49.7552943,5.04455249 49.9119595,4.99384491 50.0702825,4.94404283 C50.0744271,4.9594362 50.0785717,4.97482957 50.0818873,4.99112843 C50.0246921,5.0789612 49.976615,5.19305325 49.877145,5.09254359 C49.82741,5.14868412 49.7867931,5.19395874 49.7337424,5.25462674 C49.945945,5.2229345 50.1631212,5.25643772 50.2858008,4.98388449 C50.3380225,5.10703147 50.372837,5.1867148 50.4018491,5.25553223 C50.5129239,5.22384 50.6273144,5.19033677 50.7707169,5.14958961 C50.7093771,5.11155893 50.6778783,5.0916381 50.6447216,5.06990628 C50.8461483,4.8507771 51.1006257,4.78920361 51.2291077,4.92412199 C51.3119993,4.86073752 51.3774837,4.69955986 51.5009923,4.86707597 C51.5059658,4.87431991 51.5291755,4.86888695 51.5416092,4.86617047 C51.6800383,4.83447824 51.8184673,4.802786 51.9428048,4.77471573 C51.9643566,4.67420607 51.9817638,4.59361724 52,4.51393391 C51.9635277,4.46322633 51.9311999,4.39984186 51.9336867,4.33917386 C51.9461204,4.12185567 51.8856095,3.94709562 51.7082214,3.83390907 C51.5813972,3.75422573 51.5656478,3.63017326 51.5722791,3.48438898 C51.5805683,3.33226624 51.5764237,3.17742703 51.5673056,3.02439881 C51.5615032,2.9293221 51.5167417,2.8333399 51.5225441,2.74097966 C51.5490695,2.34980692 51.4852429,2.28189499 51.186833,2.23028192 C51.176886,2.22847093 51.1685968,2.22122699 51.1594787,2.21851051 C51.017734,2.16780294 50.8801339,2.09445805 50.7359024,2.07182073 C50.5469095,2.04375047 50.3537719,2.0636713 50.1631212,2.04918342 C49.8705136,2.02564062 49.5721037,2.13067774 49.2844697,2.00209782 C49.2703781,1.99666486 49.2413661,2.00209782 49.232248,2.01477471 C49.1584744,2.11347339 49.0639779,2.08268664 48.9686525,2.08268664 C48.8675247,2.08178115 48.7672259,2.11528437 48.6652691,2.12977225 C48.6196787,2.1361107 48.5724305,2.13158324 48.5268401,2.13158324 C48.4505798,2.13158324 48.368517,2.1125679 48.2988881,2.13520521 C48.1289602,2.19044025 47.9664926,2.22122699 47.783302,2.20040066 C47.4724584,2.16508646 47.1616147,2.28189499 46.8474554,2.22937642 C46.8267324,2.22575445 46.801036,2.25382472 46.7794842,2.25201373 C46.6037539,2.23843135 46.4454309,2.45212757 46.2580958,2.30000484 C46.2506355,2.29366639 46.2323994,2.30724878 46.2183078,2.30996525 C46.0649582,2.33713003 45.9107798,2.36338931 45.7574302,2.39145957 C45.6272903,2.41500238 45.4847167,2.40956942 45.3736419,2.4729539 C45.2526201,2.54267682 45.1589526,2.54992075 45.055338,2.46842643 C44.9550391,2.39055408 44.8754631,2.41771886 44.7826245,2.49287473 C44.7287449,2.53543288 44.6499979,2.54810977 44.5803689,2.55535371 C44.4767543,2.56621962 44.3673373,2.53905485 44.2686963,2.56621962 C44.0614672,2.62236015 43.9487345,2.57527454 43.8716453,2.37063325 C43.7348741,2.39689253 43.5997607,2.41952984 43.4663052,2.44941109 C43.438122,2.45484405 43.3941894,2.47748136 43.3900449,2.49921318 C43.358546,2.66401281 43.2516158,2.67759519 43.1363964,2.64680845 C42.9954806,2.60968326 42.8553937,2.56078666 42.7202804,2.50374064 C42.6232971,2.46299348 42.5395766,2.39779802 42.4318174,2.48200882 C42.396174,2.50917359 42.3306896,2.49378022 42.2784679,2.49287473 C42.1848003,2.49015825 42.088646,2.46389897 41.9991231,2.48291431 C41.9145736,2.50102416 41.8366554,2.56440863 41.7562505,2.60696678 C41.652636,2.41409689 41.5440479,2.42134083 41.4213683,2.61421072 C41.3865538,2.66944576 41.3094646,2.69479955 41.2497826,2.72830277 C41.2274018,2.74097966 41.1793247,2.73192474 41.1751801,2.74460163 C41.1312475,2.87589804 41.0533294,2.86503213 40.9546883,2.82609596 C40.9215317,2.81251357 40.8726256,2.84058384 40.8336665,2.85416622 C40.7714978,2.87770903 40.7109869,2.9048738 40.650476,2.93022759 C40.4283264,3.02349331 40.1721912,3.00176149 39.9740802,3.18195449 C39.9210295,3.23085109 39.8348222,3.24986643 39.7618776,3.25892135 C39.5637665,3.28518063 39.4112459,3.4699011 39.4162194,3.68903027 C39.4170483,3.72343899 39.4112459,3.76780812 39.3921808,3.79225641 C39.3059735,3.90453748 39.2172795,4.01410207 39.1244408,4.1182337 C38.9893274,4.26763996 38.9470527,4.58727879 39.0846528,4.71676422 C39.2089903,4.83357274 39.211477,4.96668014 39.2189373,5.05813488" id="Fill-4" fill="#231F20"></path>
                    <path d="M41.6516219,14.568363 C41.7160515,14.5282782 41.7713949,14.4672796 41.8383027,14.4350374 C42.0150712,14.3505108 42.1967958,14.2773124 42.3570439,14.2067283 C42.3570439,14.1640292 42.3487837,14.1100019 42.3570439,14.1065162 C42.4041271,14.0890881 42.4561665,14.0751455 42.5049017,14.0760169 C42.632935,14.0786312 42.7609683,14.0890881 42.8890016,14.0960593 C42.8890016,14.0812454 42.8898276,14.0673028 42.8906536,14.0524889 C42.7568382,14.0219896 42.6230227,13.9906188 42.4553405,13.9514054 C42.5990681,13.7623097 42.7659244,13.7239677 42.9286506,13.6847543 C43.0732043,13.6507693 43.220236,13.6289841 43.3639637,13.5923849 C43.4102209,13.5810566 43.4498699,13.539229 43.492823,13.5113439 C43.3623117,13.4956585 43.2499728,13.5104725 43.1368079,13.5130867 C43.025295,13.5157009 42.9137822,13.5069869 42.7964872,13.5035012 C42.8708291,13.3361907 43.0013404,13.2298788 43.1929773,13.1976367 C43.4944751,13.1470949 43.7934947,13.0965532 44,12.8612728 C43.8157973,12.744504 43.5944236,12.8560443 43.3813102,12.7453754 C43.1921513,12.6469062 42.9716037,12.7514753 42.7700545,12.8150881 C42.6238488,12.8621442 42.478469,12.8882865 42.3322633,12.8238022 C42.3289592,12.806374 42.3256551,12.7889459 42.3223511,12.7723891 C42.5635492,12.7270758 42.8047474,12.6808911 43.0533798,12.6338351 C43.0484236,12.5998501 43.0409894,12.5763221 43.0434675,12.5536654 C43.0591619,12.3872263 43.0203389,12.3427845 42.8559607,12.3488843 C42.8187898,12.3506271 42.7807928,12.3636983 42.7436218,12.3697981 C42.6296309,12.3872263 42.51564,12.4037831 42.3950409,12.4220827 C42.4264297,12.1685027 42.4652527,12.1179609 42.6676279,12.1127325 C42.790705,12.1092468 42.9137822,12.1502031 43.0376854,12.1519459 C43.259059,12.1554315 43.4820847,12.1441032 43.7034584,12.1397462 C43.7092406,12.1249322 43.7141967,12.1109897 43.7199788,12.0961757 C43.608466,12.0508624 43.4961271,12.0055492 43.3689198,11.9532646 C43.4383056,11.9140512 43.492823,11.8835519 43.5539486,11.849567 C43.451522,11.7850827 43.3672678,11.6996846 43.2714493,11.6796422 C43.1582845,11.6552428 43.0310772,11.6717995 42.9162603,11.6996846 C42.670106,11.7589404 42.4297338,11.8425957 42.1852315,11.9053371 C41.7375281,12.0221059 41.2856945,12.1214466 40.8396431,12.2443152 C40.5034525,12.337556 40.1746961,12.4604247 39.8409835,12.5615081 C39.4056704,12.6922195 38.9687052,12.8150881 38.5333921,12.9414424 C38.4309654,12.9710703 38.3285388,13.0041839 38.1922453,13.0460115 C38.2261122,12.9928556 38.2475887,12.9719417 38.2434586,12.9632277 C38.1831591,12.8185738 38.2104178,12.6791483 38.257501,12.5379801 C38.3103663,12.3793836 38.3442332,12.2120731 38.413619,12.0621908 C38.4830048,11.9140512 38.5837793,11.7815971 38.6738156,11.6456573 C38.8084571,11.442619 38.7696341,11.1637681 38.9439246,10.9772866 C38.9695312,10.9494015 38.961271,10.8857886 38.9720093,10.8178187 C38.9075796,10.8422182 38.8629745,10.8596464 38.7911106,10.88666 C38.8414979,10.7080212 38.881973,10.552039 38.9290562,10.398671 C38.9513588,10.3228584 38.9769654,10.245303 39.0182665,10.1808188 C39.1388656,9.99346582 39.157038,9.79217034 39.1396916,9.57083246 C39.1223451,9.36866558 39.1842967,9.15168474 39.1380395,8.96084617 C39.0736099,8.68809516 38.9430985,8.43277232 38.8406719,8.17047822 C38.763852,7.9744112 38.6217763,7.94478329 38.4863088,8.09553705 C38.414445,8.17570667 38.3467113,8.26371898 38.2624571,8.32646043 C38.2079397,8.36741665 38.1253376,8.3918161 38.0584299,8.38658765 C37.8907476,8.37351651 37.7230653,8.46065741 37.6396372,8.62535371 C37.6231167,8.65585302 37.6024662,8.68548093 37.5793376,8.70988038 C37.4595646,8.84582018 37.3249231,8.96868885 37.2200184,9.11508556 C37.0292075,9.38173671 36.8573951,9.66233041 36.6773225,9.93856705 C36.8458308,10.0501074 36.8037038,10.2121895 36.6137189,10.3472579 C36.6913649,10.4875547 36.6674103,10.57121 36.5195525,10.6679364 C36.5311168,10.6993071 36.5575495,10.7359063 36.5501153,10.7611771 C36.5096402,10.901474 36.5038581,11.0513563 36.3948233,11.1689965 C36.3419579,11.2256381 36.3262635,11.327593 36.3097431,11.4121197 C36.2948747,11.4896751 36.3138732,11.5759445 36.2932227,11.6508857 C36.2510956,11.8016395 36.1965782,11.949779 36.1379307,12.0953043 C36.0991077,12.1902879 36.0445903,12.2783002 35.9975071,12.3697981 C35.9553801,12.4534534 35.8934285,12.533623 35.876082,12.6225067 C35.8397371,12.8098597 35.8694739,13.0155122 35.7381365,13.17498 C35.6852711,13.2377215 35.6241456,13.2926202 35.5498037,13.3693042 C35.601843,13.3989321 35.6431441,13.4224602 35.6836191,13.4459882 C35.6646206,13.4538309 35.6456221,13.4608022 35.6257976,13.4686449 C35.6282757,13.5662427 35.6291017,13.6629691 35.6315798,13.7596955 C35.6348838,13.8834355 35.6621425,14.0124041 35.5398914,14.1004164 C35.5167628,14.1169732 35.5060245,14.1605436 35.5010684,14.1927857 C35.485374,14.3051975 35.4614194,14.4202235 35.4672016,14.5317638 C35.4762878,14.7435162 35.40525,14.9021126 35.2375677,15.0171386 C35.2193952,15.0293384 35.209483,15.0554806 35.210309,15.0528664 C35.3829474,15.3700593 35.2342636,15.6027255 35.0880578,15.8136065 C35.1301849,15.885062 35.1913105,15.9434464 35.1805722,15.9748171 C35.1153165,16.1691413 35.1566176,16.3843793 35.1087084,16.5612754 C35.0475828,16.7913273 35.1012742,17.0065654 35.0756675,17.2279032 C35.0475828,17.4692835 35.0814497,17.7185065 35.0715374,17.9633724 C35.0616252,18.2230523 35.0318884,18.4827322 35.014542,18.7424121 C35.0054557,18.8713806 34.9938914,19.0029633 35.0038037,19.1319319 C35.0434527,19.632992 35.094666,20.1331808 35.131837,20.6351124 C35.1409232,20.7510098 35.1351411,20.8555789 35.3119096,20.8599359 C35.095492,21.1021876 35.2474799,21.3278825 35.2689565,21.5474776 C35.4952863,21.5195925 35.4928082,21.7391876 35.5844966,21.8437566 C35.6175374,21.8803558 35.6109292,21.9579112 35.6216675,22.017167 C35.6059731,22.0215241 35.5902787,22.0250097 35.5745843,22.0284954 C35.5489776,21.9753394 35.524197,21.921312 35.4985904,21.8681561 C35.4911562,21.9779536 35.525023,22.0738086 35.5258491,22.1696636 C35.5266751,22.2437334 35.484548,22.3186745 35.4721577,22.3613736 C35.5745843,22.4023298 35.6761849,22.4110439 35.7166599,22.4685569 C35.7480487,22.5112559 35.7001395,22.6166964 35.6819671,22.7203941 C35.6175374,22.6471957 35.5745843,22.596654 35.5308052,22.5469837 C35.5192409,22.5548264 35.5085026,22.5617977 35.4977643,22.5687689 C35.5440215,22.7134228 35.5960609,22.8554625 35.6373619,23.0018592 C35.6695767,23.1160138 35.7059217,23.2162258 35.875256,23.2040261 C35.7463967,23.3181807 35.7827416,23.4218783 35.8199126,23.5316759 C35.9066448,23.7808988 35.9041667,23.7826416 36.1676675,23.7930986 C36.3287416,23.8000698 36.4039095,23.9272955 36.3543483,24.0876348 C36.2502696,24.0797921 36.149495,24.0719494 36.0371561,24.0632353 C36.0437643,24.3351149 36.1957522,24.5102681 36.3254375,24.688907 C36.345262,24.7159207 36.4832076,24.693264 36.5236826,24.6488222 C36.6517159,24.5102681 36.6492378,24.5024255 36.7367961,24.6592791 C36.849961,24.8605746 37.0374678,24.9294159 37.2456251,24.8623174 C37.2794919,24.8509891 37.3340093,24.8971737 37.3753104,24.9241874 C37.4190895,24.9529439 37.4579125,24.9904145 37.4686508,25 C37.5347325,24.9050164 37.5677733,24.8170041 37.6280729,24.7812763 C37.7007627,24.7385773 37.7222393,24.6958783 37.7214133,24.6174515 C37.7197612,24.569524 37.7280214,24.5181108 37.7428898,24.4719262 C37.8139276,24.2410028 37.8081455,24.0196649 37.6825903,23.8079125 C37.6660698,23.779156 37.672678,23.7355856 37.6693739,23.6989864 C37.6635918,23.6371163 37.6677219,23.5726321 37.6512015,23.5151191 C37.6189866,23.4027073 37.6553316,23.2850671 37.749498,23.276353 C37.8775313,23.2641533 37.8643149,23.2075117 37.8411863,23.103814 C37.8213618,23.0210302 37.789147,22.9060042 37.9006599,22.8511054 C38.0799064,22.7622217 38.0840365,22.7212655 37.9320487,22.5975254 C37.9295706,22.3892587 37.8808353,22.2123626 37.7627143,22.0528948 C37.709849,21.9796964 37.6487234,21.8942984 37.6404632,21.8080289 C37.6156826,21.5779769 37.5826417,21.3583818 37.4496523,21.164929 C37.4108293,21.1082875 37.3810926,21.0394462 37.3653981,20.9723477 C37.3034466,20.7144106 37.2679277,20.4486309 37.1878036,20.1985365 C37.1002454,19.9275283 37.0795948,19.6626199 37.1184178,19.3828977 C37.1324602,19.2774572 37.1382423,19.1572027 37.1052015,19.0596049 C37.0515101,18.8992657 37.0217734,18.7607116 37.1555888,18.6395858 C37.1332862,18.5550591 37.1308081,18.4731467 37.1382423,18.3929771 C37.1555888,18.2047527 37.1663271,18.0165284 37.1985419,17.8309183 C37.2200184,17.7124066 37.1291561,17.5285393 37.3513558,17.5154682 C37.2654496,17.359486 37.2687537,17.3612288 37.3538339,17.1721331 C37.3728323,17.129434 37.3852227,17.0614641 37.3670502,17.0266078 C37.3150109,16.9342384 37.3637461,16.8836967 37.4190895,16.8348978 C37.5289503,16.7399142 37.6404632,16.6466734 37.7528021,16.5560469 C37.8321001,16.4924341 37.9089201,16.4227213 37.9964783,16.3747938 C38.2269382,16.2484395 38.4730925,16.1482275 38.6969442,16.0079307 C39.0306568,15.7970497 39.3453708,15.5539266 39.7112982,15.3988158 C39.9475403,15.2977323 40.17387,15.1678924 40.4026779,15.0476379 C40.4902361,15.0023247 40.5687082,14.9378404 40.6587445,14.9021126 C40.7545629,14.8637707 40.8594676,14.8524423 40.9585901,14.8228144 C41.1262724,14.7731441 41.2947807,14.7226024 41.460811,14.6650894 C41.5277187,14.6424328 41.5913223,14.6058336 41.6516219,14.568363" id="Fill-6" fill="#231F20"></path>
                    <path d="M34.6447827,10.5399109 C34.6551288,10.5615267 34.6637506,10.5840432 34.6740967,10.605659 C34.5835681,10.6488907 34.4930394,10.6912217 34.4033729,10.7344534 L34.3775075,10.6614999 C34.4663119,10.6209703 34.5551162,10.5804406 34.6447827,10.5399109 M34.8284266,14.57937 C34.7732472,14.5874759 34.71893,14.5964825 34.6525423,14.6063898 C34.6637506,14.5307344 34.6723724,14.4766948 34.6827185,14.4154499 C34.4309626,14.4064433 34.1981745,14.4379664 33.9912518,14.5883766 C33.9653865,14.6072905 33.9274507,14.6117938 33.8938257,14.6162971 C33.783467,14.6334096 33.6705216,14.6397142 33.5610251,14.6649327 C33.3963491,14.7018597 33.2515032,14.8144422 33.0635484,14.7820185 C32.954914,14.7640053 32.8307604,14.8576739 32.7324721,14.7315815 C32.727299,14.7261775 32.6988471,14.7414888 32.6816036,14.7477934 C32.2832774,14.889197 31.884089,15.0287992 31.486625,15.1729048 C31.4323078,15.1927193 31.3452278,15.2269444 31.3409169,15.2638714 C31.3150516,15.4827318 31.2340068,15.3674473 31.1546865,15.3016991 C30.8555107,15.4836324 30.5339184,15.4602153 30.2106017,15.3971691 C30.0829993,15.37105 30.0321308,15.2692754 30.0933455,15.1584942 C30.1304191,15.0909448 30.2028421,15.0432098 30.2588836,14.9873689 C30.304579,14.9423359 30.362345,14.9045082 30.3925212,14.8504686 C30.4925338,14.6658333 30.5822003,14.4757941 30.6985944,14.2425232 C30.7020431,14.2290133 30.6985944,14.1497553 30.7330815,14.1227355 C30.9503503,13.9534115 31.166757,13.7768821 31.4021315,13.6390812 C31.5711184,13.5409093 31.7711437,13.5030816 31.9547876,13.4301281 C32.1427424,13.356274 32.3488029,13.3040357 32.4195015,13.0635596 C32.4263989,13.0410431 32.4488155,13.0167253 32.4695078,13.0077187 C32.7376451,12.8897322 32.9618114,12.6735739 33.2713333,12.6456534 C33.3756568,12.6366468 33.4756694,12.5528855 33.5748199,12.4997466 C33.6136179,12.479932 33.6498294,12.4294951 33.6851787,12.4303958 C33.890377,12.437601 34.0576395,12.3403298 34.2266264,12.2385552 C34.3076711,12.1899196 34.3852671,12.1421846 34.3085333,12.0323041 C34.3662992,11.9899731 34.428376,11.9647546 34.4576901,11.916119 C34.5197669,11.8161458 34.5654623,11.7035633 34.6249526,11.5828749 C34.6163308,11.5738683 34.5861546,11.5414446 34.5508053,11.5036168 C34.5809815,11.4693918 34.6059847,11.4405707 34.6430583,11.3982396 C34.5620136,11.4135509 34.5042477,11.4243588 34.4456196,11.4360674 C34.4387222,11.4216568 34.4318248,11.4063456 34.4240651,11.391935 C34.5145938,11.3243855 34.5999494,11.2496308 34.6965134,11.1919886 C34.7939395,11.1343463 34.7973882,11.0722008 34.7275518,10.9614197 C34.6344366,11.2325182 34.4645875,11.0397771 34.3283634,11.0397771 C34.3257769,11.0920153 34.3249147,11.1235384 34.321466,11.1541608 C34.3016359,11.3324915 34.2680109,11.3532067 34.1076459,11.2982664 C34.0826427,11.2892598 34.0490178,11.2901605 34.0222902,11.2991671 C33.9136558,11.3342928 33.8067458,11.3784251 33.6972492,11.4117495 C33.5912013,11.4432726 33.4825669,11.4666898 33.3747946,11.4937096 C33.3661728,11.4783984 33.3566889,11.4621865 33.3472049,11.4468753 C33.4135926,11.3784251 33.4696342,11.2829552 33.5489546,11.2460281 C33.8041592,11.1262404 34.0671235,11.0244658 34.3300878,10.9253933 C34.4594144,10.875857 34.5965007,10.8497378 34.7301383,10.8074068 C34.8939521,10.7551686 34.9922404,10.6362815 35,10.4912752 C34.8223913,10.5354076 34.733587,10.4822686 34.7396223,10.3363618 C34.6352987,10.3570769 34.530113,10.3777921 34.4249273,10.3994079 C34.4206164,10.3849974 34.4163055,10.3714875 34.4119947,10.3570769 C34.4395844,10.3129446 34.4663119,10.2679116 34.4956259,10.2183753 C34.2861167,10.1877529 34.0619504,10.3057393 33.8688226,10.0994882 C33.9550404,10.0337401 34.0317742,9.96258795 34.1205785,9.912151 C34.3197416,9.79776721 34.345607,9.46542375 34.655991,9.4933442 C34.6473692,9.47352969 34.6396096,9.45371517 34.6309879,9.43390066 C34.5197669,9.44921188 34.4094081,9.46452309 34.2981872,9.47983431 L34.2800814,9.45281451 C34.3525044,9.39156965 34.4240651,9.33032478 34.5059721,9.26097398 C34.4663119,9.22674891 34.4352735,9.20062978 34.4042351,9.17360998 C34.4352735,9.11236512 34.462001,9.06012685 34.491315,9.00338528 C34.3171551,8.98537209 34.2680109,9.03670969 34.282668,9.21864297 C34.2912897,9.32942412 34.297325,9.43209934 34.1602387,9.45821847 C34.0516043,9.47893365 33.943832,9.5023508 33.8351976,9.51946334 C33.8050214,9.52396664 33.7567394,9.520364 33.7446689,9.50145014 C33.7274254,9.47172837 33.725701,9.4239934 33.7317363,9.38796701 C33.7386337,9.35644392 33.7662234,9.32942412 33.8076079,9.26367596 C33.5386084,9.28979509 33.3015095,9.31321225 33.0661349,9.33572874 L33.0661349,9.35824524 C33.1307983,9.36094722 33.1963238,9.3636492 33.2790929,9.36725183 C33.2584006,9.40958284 33.2523654,9.44470858 33.235984,9.45101319 C33.0980355,9.50145014 32.9609492,9.55999303 32.8178277,9.58791348 C32.7583374,9.59962206 32.6867766,9.54468181 32.6186646,9.51946334 C32.6238377,9.48253629 32.6290107,9.44560924 32.6393569,9.37445711 C32.2824152,9.49604618 31.9453036,9.60232404 31.6142273,9.72571443 C31.17193,9.89053517 30.7330815,10.0670645 30.2933707,10.2408918 C30.149387,10.2985341 30.0148873,10.3931033 29.8665927,10.4228251 C29.6010419,10.4750634 29.4053275,10.6921224 29.1294305,10.7227448 C28.9923443,10.7371554 28.8630176,10.8362279 28.7328287,10.9028768 C28.6336782,10.9524131 28.525906,10.9956447 28.4474478,11.0703995 C28.3629544,11.1496575 28.2905314,11.1910879 28.2232815,11.1496575 C28.0775735,11.26224 27.9482468,11.3586106 27.8240932,11.4603852 C27.7275292,11.5387426 27.6352762,11.6234046 27.542161,11.7053646 C27.392142,11.8377616 27.3645523,12.0359068 27.2921294,12.220542 C27.4205939,12.2619724 27.5499206,12.3025021 27.6895934,12.3466344 C27.6257922,12.440303 27.5766481,12.5150578 27.5292283,12.5862099 C27.706837,12.6690706 27.8749617,12.7384214 28.0361889,12.8230834 C28.1948297,12.9059441 28.2681148,13.1004866 28.2008649,13.2671087 C28.0974036,13.5237967 27.9792852,13.7732795 27.8723751,14.0290669 C27.7654651,14.2848543 27.6516576,14.5379397 27.566302,14.801833 C27.4593919,15.1350771 27.3671389,15.4737252 27.290405,15.8141746 C27.2145334,16.154624 27.1671136,16.501378 27.1041746,16.8445294 C27.0705497,17.0291646 27.0170946,17.2110979 27.0007133,17.3975345 C26.9920915,17.4930044 27.0645144,17.594779 27.0627901,17.6938515 C27.0610657,17.856871 27.0602035,18.0018772 27.2214308,18.0955458 C27.2619532,18.1198636 27.275748,18.1910157 27.3041999,18.2396514 C27.3369626,18.2945916 27.3723119,18.3468299 27.4059369,18.4017701 C27.4447349,18.4666176 27.4852572,18.5323658 27.5197444,18.5999153 C27.5783725,18.7124977 27.6249301,18.8322855 27.6930421,18.9385634 C27.7171831,18.9763911 27.7870195,19.0025102 27.8344393,18.9998082 C28.0542947,18.984497 28.2801853,18.984497 28.4922811,18.9295568 C28.7285178,18.8683119 28.9871712,18.8809211 29.1984048,18.719703 C29.2389271,18.6881799 29.3053148,18.6647628 29.3527346,18.67467 C29.601904,18.7242063 29.7226089,18.5134519 29.8605574,18.3792536 C29.9321182,18.3090022 29.9976437,18.282883 30.0769641,18.2540619 C30.2002555,18.2090289 30.323547,18.1648966 30.4425275,18.1099564 C30.5235722,18.0721286 30.5942708,18.0108838 30.6735912,17.9694534 C30.7951583,17.9046059 30.9210363,17.8478644 31.0434655,17.7866195 C31.1098532,17.7541957 31.1753787,17.71907 31.2365934,17.6875469 C31.2219364,17.6353086 31.210728,17.5938783 31.2081415,17.5830704 C31.3452278,17.4939051 31.462484,17.417349 31.5581857,17.3543028 C31.6375061,17.4056404 31.6961342,17.4434681 31.7547623,17.4803952 C31.782352,17.4975077 31.8314961,17.5164216 31.830634,17.5308321 C31.8280474,17.5632559 31.8056308,17.5983816 31.7814898,17.6226994 C31.7607976,17.6434146 31.7280348,17.6497192 31.7013073,17.6623284 C31.7151021,17.6803416 31.7280348,17.6974542 31.7418296,17.7145667 C31.9582363,17.6875469 32.1642968,17.6551232 32.3281106,17.4605806 C32.4479534,17.3173757 32.6031454,17.2074952 32.7428182,17.0832042 C32.7729944,17.0570851 32.8333469,17.0336679 32.8324847,17.0111514 C32.8255873,16.7823838 33.0152664,16.7715759 33.1411444,16.6878146 C33.187702,16.6571921 33.2221891,16.6040532 33.2575384,16.5590202 C33.2842659,16.5229938 33.3049582,16.4815635 33.3290992,16.4428351 C33.3575511,16.4752588 33.3860029,16.5076826 33.4480797,16.5779341 C33.4773938,16.4698549 33.4989482,16.3887955 33.5213649,16.3014315 C33.4230766,16.2798157 33.40066,16.2122662 33.4567015,16.1447167 C33.5136053,16.0771672 33.5912013,16.0240283 33.6687973,15.979896 C33.8162297,15.8952339 33.9696974,15.8213798 34.1214407,15.7430224 C34.1154055,15.7277112 34.1102324,15.7114993 34.1050593,15.6961881 C34.0757453,15.6880822 34.0472934,15.6808769 33.9826301,15.6628637 C34.0878158,15.5160562 34.1826553,15.3845598 34.2757705,15.2530635 C34.2455943,15.2413549 34.2085207,15.2269444 34.1464439,15.2017259 C34.2076585,15.1530903 34.2507674,15.1215672 34.2904276,15.0855408 C34.3137064,15.0630243 34.3516422,15.0260973 34.3464691,15.0053821 C34.3154307,14.8855943 34.399062,14.8459653 34.4706228,14.8027336 C34.5913277,14.7315815 34.7163435,14.6676347 34.8404971,14.6009858 C34.8361862,14.5937806 34.8327375,14.5865753 34.8284266,14.57937" id="Fill-8" fill="#231F20"></path>
                    <path d="M35.9112033,4.8729674 C35.9410788,5.03341578 35.8838174,5.10160634 35.73361,5.10561755 C35.6340249,5.10802428 35.5360996,5.13931171 35.4365145,5.15535655 C35.4107884,5.15936776 35.3850622,5.15455431 35.3510373,5.13209154 C35.5460581,5.05748304 35.6813278,4.87537412 35.9112033,4.8729674 M27.5775934,8.17900635 C27.6738589,8.19184222 27.7717842,8.22633863 27.8672199,8.21911845 C28.1103734,8.19986464 28.3311203,8.26725297 28.5435685,8.36271975 C28.8887967,8.51755244 29.2273859,8.68602325 29.5692946,8.84647163 C29.6049793,8.86251647 29.6788382,8.87615458 29.6871369,8.86251647 C29.753527,8.76063175 29.8215768,8.81117299 29.8979253,8.84406491 C30.0190871,8.89540839 30.1443983,8.94354291 30.2697095,8.98525948 C30.3112033,8.99969984 30.3651452,9.00611777 30.4041494,8.99247966 C30.659751,8.90262857 30.9136929,8.80796402 31.1659751,8.71329947 C31.259751,8.67880307 31.3477178,8.62344838 31.4431535,8.60419457 C31.7477178,8.54322419 32.019917,8.36753321 32.3385892,8.36512648 C32.5958506,8.36271975 32.7385892,8.15574134 32.8854772,8.02176694 C33.0514523,7.87254994 33.2473029,7.91346428 33.4116183,7.8220087 C33.3966805,7.85169165 33.3817427,7.88057236 33.3568465,7.92950912 C33.4232365,7.9062441 33.4829876,7.90223289 33.5170124,7.87094546 C33.6738589,7.72734415 33.8182573,7.57170922 33.9767635,7.43051464 C34.0323651,7.3799734 34.1161826,7.35911511 34.1875519,7.32461871 C34.1950207,7.33504785 34.2016598,7.34627924 34.2091286,7.35670838 C34.1883817,7.41687653 34.1676349,7.47624243 34.146888,7.53560833 C34.1585062,7.54363075 34.1684647,7.55165317 34.180083,7.55967559 C34.3170124,7.45779087 34.453112,7.35670838 34.5892116,7.25482366 C34.5834025,7.00853539 34.8705394,6.97644571 34.9526971,6.79353456 C34.9576763,6.78390765 34.986722,6.78230317 35.0041494,6.77989644 C35.1883817,6.75663143 35.3502075,6.70207898 35.4290456,6.51676109 C35.439834,6.49108935 35.4788382,6.47183555 35.5087137,6.45819743 C35.560166,6.43493242 35.6190871,6.42610776 35.6688797,6.39963377 C35.8556017,6.30095802 36.0290456,6.16537913 36.226556,6.1036065 C36.4821577,6.0249868 36.7742739,5.68082501 36.7253112,5.42250311 C36.7087137,5.33505874 36.7369295,5.32061839 36.8041494,5.29574889 C36.873029,5.27087939 36.9344398,5.22755833 37,5.19225968 L36.9775934,5.15696104 C36.8481328,5.20750228 36.7161826,5.25323007 36.5883817,5.309387 C36.406639,5.38961119 36.2307054,5.48026453 36.0481328,5.55888424 C35.9684647,5.5925784 35.8921162,5.57653356 35.8688797,5.47946229 C35.8481328,5.38880895 35.9809129,5.14893862 36.0697095,5.09679289 C36.2099585,5.24600989 36.3145228,5.0911772 36.4248963,5.05507631 C36.5975104,4.99811714 36.6149378,4.96041177 36.5875519,4.81279925 C36.4879668,4.79194096 36.4240664,5.03822923 36.3020747,4.84569117 C36.246473,4.87216515 36.1883817,4.89382569 36.1360996,4.92591536 C36.0373444,4.98768799 35.9634855,4.97886333 35.9136929,4.8729674 L35.9145228,4.87216515 C35.9294606,4.54244373 35.9294606,4.54244373 36.1775934,4.45419711 C35.9576763,4.40365587 35.7726141,4.58496255 35.560166,4.54886166 C35.4904564,4.71492574 35.4887967,4.71653022 35.3643154,4.70128763 C35.3751037,4.64753742 35.3875519,4.59378721 35.4,4.53682803 C35.3568465,4.52960785 35.3186722,4.52238768 35.2614108,4.51276077 C35.2979253,4.46943971 35.3211618,4.44216349 35.3452282,4.41328278 C35.2157676,4.39001776 35.0829876,4.48869352 35.0713693,4.60020514 C35.0672199,4.64111948 35.0315353,4.67882485 35.0082988,4.72294816 C34.9609959,4.63871276 34.93361,4.58416031 34.8995851,4.53281682 C34.8556017,4.46462626 34.873029,4.41328278 34.9485477,4.39242449 C35.0365145,4.36915947 35.1319502,4.36675274 35.219917,4.34188325 C35.2614108,4.33065186 35.3120332,4.29374873 35.3253112,4.2568456 C35.3419087,4.2071066 35.3360996,4.14453173 35.3211618,4.09238601 C35.3112033,4.05468064 35.2655602,3.99691922 35.2439834,4.00012819 C35.1941909,4.00734836 35.1435685,4.04024028 35.1037344,4.07473669 C35.0821577,4.09399049 35.0821577,4.13650931 35.0721992,4.16859899 L35.0506224,4.12848689 C34.986722,4.13009138 34.9178423,4.11725551 34.8589212,4.13490483 C34.6215768,4.20790884 34.3875519,4.29214425 34.1518672,4.36996171 C33.9502075,4.43735003 33.7518672,4.52800337 33.5443983,4.55848856 C33.3502075,4.58736927 33.1618257,4.58255582 32.9701245,4.67240692 C32.6622407,4.8176127 32.3228216,4.89703465 32.0091286,5.03261354 C31.5634855,5.22354712 31.1311203,5.4433614 30.6912863,5.64632861 C30.0165975,5.95840072 29.3419087,6.2680661 28.6647303,6.57532475 C28.2863071,6.74620228 27.9029046,6.90905739 27.5228216,7.07833044 C27.4879668,7.09357303 27.4564315,7.12405823 27.4340249,7.15454342 C27.3460581,7.2708685 27.2630705,7.39200703 27.1751037,7.50913435 C27.1294606,7.56850025 27.0755187,7.6230527 27,7.70969483 C27.2307054,7.73697106 27.193361,7.88538581 27.1892116,8.01133779 C27.2572614,8.01695349 27.3087137,8.0209647 27.3676349,8.02577815 C27.360166,8.07230818 27.353527,8.11161803 27.3485477,8.15092789 C27.4298755,8.16055479 27.5037344,8.16777497 27.5775934,8.17900635" id="Fill-10" fill="#231F20"></path>
                    <path d="M33.02,18.179 C33.122,18.147 33.207,18.119 33.293,18.092 C33.296,18.075 33.298,18.059 33.301,18.042 C33.205,18.029 33.109,18.015 33,18 C33.008,18.073 33.014,18.122 33.02,18.179" id="Fill-12" fill="#231F20"></path>
                    <g id="Group-16" transform="translate(15.000000, 0.000000)">
                        <mask id="mask-4" fill="white">
                            <use xlink:href="#path-3"></use>
                        </mask>
                        <g id="Clip-15"></g>
                        <path d="M0.296754545,10.4059714 C0.288572727,10.6374 0.273027273,10.8679714 0.265663636,11.0994 C0.264845455,11.1319714 0.296754545,11.1654 0.313118182,11.1954 C0.376118182,11.1525429 0.428481818,11.1174 0.516845455,11.0582571 C0.5193,11.2305429 0.521754545,11.3548286 0.524209091,11.4782571 L0.565118182,11.4885429 C0.588027273,11.4345429 0.616663636,11.3831143 0.633027273,11.3265429 C0.670663636,11.1936857 0.6993,11.0582571 0.740209091,10.9271143 C0.750845455,10.8936857 0.794209091,10.8714 0.823663636,10.8448286 C0.841663636,10.8765429 0.877663636,10.9091143 0.876027273,10.9391143 C0.867027273,11.0668286 0.849027273,11.1928286 0.831027273,11.3196857 C0.814663636,11.4362571 0.795027273,11.5519714 0.777845455,11.6685429 C0.863754545,11.5974 0.921027273,11.5194 0.973390909,11.4388286 C1.05848182,11.3119714 1.08302727,11.4028286 1.11411818,11.4945429 C1.18366364,11.3934 1.24093636,11.4191143 1.28839091,11.5099714 C1.43566364,11.4071143 1.3833,11.2494 1.39639091,11.1208286 C1.40702727,11.0145429 1.42339091,10.9596857 1.53466364,10.9425429 C1.69093636,10.9202571 1.75311818,10.9459714 1.80875455,11.0951143 C1.82348182,11.1354 1.83984545,11.1739714 1.86602727,11.2408286 C1.98957273,11.0556857 2.11720909,10.8996857 2.20311818,10.7222571 C2.24566364,10.6348286 2.25957273,10.5499714 2.3643,10.5259714 C2.37902727,10.5225429 2.39539091,10.4874 2.39702727,10.4659714 C2.40111818,10.4248286 2.39457273,10.3828286 2.39293636,10.3408286 C2.45920909,10.3374 2.5263,10.3374 2.59257273,10.3296857 C2.64411818,10.3236857 2.70711818,10.3236857 2.74475455,10.2928286 C2.8323,10.2191143 2.91002727,10.1334 2.98448182,10.0451143 C3.0483,9.96882857 3.1023,9.88311429 3.17593636,9.78025714 C3.06548182,9.75025714 2.99020909,9.72968571 2.87157273,9.69797143 C2.92475455,9.63454286 3.00657273,9.57968571 3.0033,9.53168571 C2.98611818,9.29682857 3.15875455,9.36625714 3.26920909,9.32597143 C3.28966364,9.26425714 3.29539091,9.17682857 3.34039091,9.13397143 C3.40502727,9.0714 3.49748182,9.04225714 3.61202727,8.98054286 C3.44839091,8.92997143 3.48766364,8.85368571 3.54657273,8.80397143 C3.62184545,8.73882857 3.71020909,8.67711429 3.80184545,8.64711429 C3.95402727,8.59654286 4.11193636,8.55797143 4.26984545,8.53911429 C4.60284545,8.50054286 4.94075455,8.43025714 5.24757273,8.6514 C5.26066364,8.66082857 5.28439091,8.6574 5.30320909,8.6574 C5.63211818,8.65825714 5.95693636,8.68997143 6.28339091,8.74311429 C6.50757273,8.77997143 6.74811818,8.7234 6.97802727,8.6874 C7.06066364,8.67454286 7.13020909,8.59054286 7.21284545,8.55968571 C7.32411818,8.51682857 7.44111818,8.49368571 7.56384545,8.4594 C7.49675455,8.34282857 7.41002727,8.25454286 7.2873,8.28111429 C7.06311818,8.32997143 7.0173,8.31368571 6.93302727,8.0814 C7.0983,7.97597143 7.26848182,7.96654286 7.53439091,8.01625714 C7.61784545,8.03168571 7.71275455,8.0034 7.79948182,7.97854286 C7.93120909,7.94168571 8.05966364,7.89025714 8.18893636,7.84311429 C8.20857273,7.8354 8.22411818,7.81654286 8.2413,7.80368571 C8.18239091,7.6554 8.08748182,7.57397143 7.94675455,7.5234 C7.83139091,7.48225714 7.67348182,7.50625714 7.61048182,7.34425714 C7.60966364,7.33911429 7.54911818,7.36311429 7.51639091,7.36482857 C7.44848182,7.3674 7.37893636,7.37254286 7.31184545,7.36225714 C7.26111818,7.35454286 7.21120909,7.32711429 7.16375455,7.30397143 C7.11957273,7.28254286 7.06475455,7.2654 7.04020909,7.22854286 C7.02711818,7.20882857 7.05411818,7.12825714 7.0803,7.11625714 C7.1163,7.09911429 7.16866364,7.1214 7.22102727,7.1274 C7.24148182,7.09482857 7.26111818,7.03311429 7.30039091,7.00997143 C7.52457273,6.87454286 7.52620909,6.87797143 7.42148182,6.68854286 C7.46975455,6.60882857 7.51393636,6.53511429 7.57448182,6.4374 C7.49839091,6.40568571 7.43866364,6.3654 7.37402727,6.35511429 C7.27420909,6.34054286 7.24557273,6.2934 7.26520909,6.19482857 C7.28239091,6.10997143 7.29302727,6.0234 7.30284545,5.95997143 C7.2333,5.91025714 7.15639091,5.88197143 7.12366364,5.82625714 C7.00175455,5.61968571 6.79639091,5.54254286 6.60902727,5.43882857 C6.48384545,5.37025714 6.34802727,5.3214 6.22611818,5.24682857 C5.90784545,5.05225714 5.58957273,4.85854286 5.28275455,4.64597143 C5.05611818,4.48911429 4.82457273,4.32968571 4.70675455,4.05197143 C4.69120909,4.01682857 4.66584545,3.98168571 4.63639091,3.96025714 C4.55866364,3.90368571 4.56766364,3.84625714 4.61102727,3.76997143 C4.63884545,3.72454286 4.64784545,3.66454286 4.65602727,3.60968571 C4.66339091,3.55654286 4.64293636,3.49482857 4.66257273,3.44854286 C4.76239091,3.21025714 4.82866364,2.96597143 4.86139091,2.70625714 C4.88184545,2.54597143 4.94157273,2.38225714 5.01684545,2.23911429 C5.09293636,2.09254286 5.10193636,1.89368571 5.02666364,1.74282857 C4.94402727,1.57568571 4.85975455,1.3974 4.82948182,1.21397143 C4.80493636,1.06482857 4.78693636,0.922542857 4.73702727,0.775971429 C4.66911818,0.578828571 4.56111818,0.456257143 4.37211818,0.402257143 C4.32793636,0.388542857 4.27720909,0.380828571 4.23957273,0.354257143 C4.15120909,0.290828571 4.08984545,0.322542857 4.01293636,0.385971429 C3.90411818,0.474257143 3.78302727,0.543685714 3.66439091,0.619114286 C3.6513,0.627685714 3.6243,0.628542857 3.60957273,0.620828571 C3.49339091,0.562542857 3.42384545,0.637971429 3.34857273,0.709971429 C3.30520909,0.753685714 3.25611818,0.796542857 3.20211818,0.824828571 C2.93211818,0.966257143 2.73411818,1.1574 2.74639091,1.50625714 C2.74720909,1.51482857 2.74393636,1.52682857 2.73820909,1.53368571 C2.66702727,1.6314 2.59339091,1.72654286 2.5263,1.82682857 C2.4813,1.89368571 2.45102727,1.97082857 2.40520909,2.03682857 C2.36266364,2.0994 2.3103,2.15511429 2.25957273,2.21082857 C2.23257273,2.24082857 2.17693636,2.26482857 2.17693636,2.29225714 C2.17448182,2.48168571 2.05420909,2.47225714 1.94948182,2.46454286 C1.90448182,2.56911429 1.8873,2.67882857 1.82675455,2.73882857 C1.66066364,2.89825714 1.5813,3.0954 1.53384545,3.31654286 C1.52075455,3.37654286 1.48720909,3.43225714 1.46511818,3.4914 C1.40457273,3.64997143 1.27939091,3.82054286 1.30148182,3.96711429 C1.33911818,4.22511429 1.13293636,4.39054286 1.14848182,4.62197143 C1.14848182,4.62968571 1.13784545,4.63825714 1.13211818,4.64511429 C0.997118182,4.77711429 0.964390909,4.93482857 0.985663636,5.12511429 C0.997936364,5.2434 0.975845455,5.3754 0.934118182,5.48682857 C0.845754545,5.72768571 0.6993,5.94197143 0.646118182,6.19997143 C0.602754545,6.40397143 0.508663636,6.60625714 0.512754545,6.80768571 C0.517663636,7.04854286 0.4203,7.20968571 0.295118182,7.35111429 C0.297572727,7.48225714 0.338481818,7.61682857 0.295118182,7.70511429 C0.156845455,7.98625714 0.322118182,8.29911429 0.185481818,8.5734 C0.178118182,8.58797143 0.201845455,8.61625714 0.207572727,8.6394 C0.2313,8.73711429 0.277936364,8.83654286 0.272209091,8.93168571 C0.259118182,9.12797143 0.2403,9.3294 0.184663636,9.51625714 C0.111027273,9.76397143 0.239481818,9.9654 0.2763,10.1882571 C0.286936364,10.2602571 0.299209091,10.3339714 0.296754545,10.4059714" id="Fill-14" fill="#231F20" mask="url(#mask-4)"></path>
                    </g>
                    <path d="M26.2232134,10.5954054 C26.235642,10.5681819 26.2498461,10.5418365 26.2587236,10.5137348 C26.279142,10.4496277 26.3332952,10.3495153 26.3102135,10.3275608 C26.2365297,10.2555501 26.1291113,10.1580722 26.0447744,10.166854 C25.7198557,10.201103 25.4002635,10.2766264 25.0771203,10.328439 C24.9732528,10.3451244 24.8649466,10.3354644 24.7326709,10.3380989 C24.7788342,10.2678446 24.8063547,10.2274484 24.8347628,10.1852958 C24.5489054,10.2037375 24.2825785,10.3407335 23.9842925,10.3126318 C24.0091497,10.2458901 24.0437722,10.201103 24.0854967,10.1642195 C24.13166,10.1238233 24.1840376,10.0895743 24.233752,10.0535689 C24.2239866,10.0351272 24.2142213,10.0175636 24.204456,10 C23.8679964,10.0957215 23.5270981,10.1782704 23.1968528,10.2897991 C22.926975,10.3811297 22.6695257,10.5075875 22.4067499,10.6164817 C22.3099845,10.656878 22.2114435,10.7262541 22.1146781,10.6120908 C22.1040251,10.5997963 22.0658515,10.603309 22.0436576,10.6103345 C21.7498104,10.6946397 21.4550753,10.7780667 21.1621158,10.8676409 C20.9827891,10.922088 20.8061256,10.9870733 20.6267989,11.0432768 C20.4856457,11.0871857 20.4430334,11.2382325 20.2867883,11.2926796 C19.9742981,11.4006956 19.6147569,11.4331883 19.3839403,11.7168401 C19.3759505,11.7273783 19.3573076,11.7300128 19.3422158,11.7344037 C19.2205932,11.7660181 19.1007461,11.794998 18.9800113,11.8274907 C18.9462766,11.8362725 18.9116541,11.8476888 18.8823581,11.8661306 C18.7447559,11.9530703 18.6195823,12.0672336 18.471327,12.1260716 C18.3133065,12.1893005 18.143745,12.2103768 17.9883877,12.2990728 C17.6785608,12.4755868 17.3367747,12.5976537 17.0340499,12.7847059 C16.8227639,12.9155546 16.6567536,13.1166576 16.4676615,13.2843898 C16.3842124,13.3581568 16.2998756,13.4310457 16.2119877,13.4995436 C16.0069161,13.6567377 15.7805383,13.7902209 15.6819973,14.0492838 C15.6544769,14.1230508 15.6038748,14.1897924 15.5541605,14.2521431 C15.5035584,14.315372 15.4192215,14.3601591 15.3863746,14.4304135 C15.3251194,14.5612622 15.3126908,14.717578 15.2381193,14.8396449 C15.1537825,14.9766409 15.1369151,15.0908041 15.2185887,15.2295564 C15.2869459,15.3419634 15.1972825,15.5193555 15.0694456,15.5544827 C15.0410374,15.5623863 14.9966496,15.600148 15.0002007,15.6133207 C15.0090782,15.6449351 15.0374864,15.6914786 15.0650068,15.6967477 C15.235456,15.7292403 15.4085685,15.7318749 15.5337421,15.8925816 C15.5807931,15.9540542 15.6926504,15.9803996 15.7787628,15.9935722 C15.8817425,16.0085013 15.989161,15.9935722 16.0939162,15.987425 C16.1587224,15.9830341 16.2226408,15.968105 16.2883348,15.9593233 C16.3318348,15.953176 16.3806614,15.9575669 16.4214982,15.943516 C16.4845289,15.9215616 16.5626514,15.9031198 16.6008249,15.8565763 C16.7091312,15.7248494 16.8316415,15.658986 17.008305,15.6537169 C17.1183867,15.6510824 17.266642,15.6212243 17.3296727,15.5465791 C17.4619483,15.3902632 17.6439384,15.3972886 17.8028467,15.3674306 C17.9608673,15.3375725 18.1188879,15.3358161 18.2662554,15.2515109 C18.325735,15.2181401 18.4118474,15.2234092 18.4846434,15.2260437 C18.6222456,15.232191 18.7616233,15.2673181 18.8965622,15.2550236 C18.9853378,15.2462418 19.0705624,15.1795002 19.1513482,15.1303222 C19.2001748,15.1004641 19.2312463,15.0381134 19.2818484,15.0170371 C19.3617464,14.9845445 19.4549608,14.9863008 19.5330834,14.9520518 C19.5872365,14.928341 19.6626957,14.8703812 19.665359,14.8238377 C19.6724611,14.6956236 19.7585734,14.6499582 19.847349,14.6007802 C19.9769614,14.5305259 20.1110126,14.4699315 20.2388495,14.3961645 C20.6356764,14.1678379 21.0262891,13.9289732 21.4266671,13.7076721 C21.696545,13.5592598 21.9788514,13.4301675 22.2593824,13.3010752 C22.5638827,13.1605665 22.8772606,13.040256 23.1782099,12.8944783 C23.4214551,12.7768023 23.6496084,12.6292682 23.8884148,12.5045667 C24.1875886,12.3482509 24.4938645,12.2042295 24.7939261,12.0487918 C24.9066711,11.9899538 25.0123141,11.9161868 25.117957,11.8441761 C25.3638655,11.6764439 25.6008964,11.4946608 25.8547946,11.3401013 C26.1894787,11.1354856 26.5374791,10.9510679 26.8792652,10.7596249 C26.9156632,10.7394268 26.960051,10.7341577 27,10.7218632 C26.9813571,10.6990305 26.9609387,10.6761979 26.9422959,10.6524871 C26.712367,10.5479837 26.4451524,10.8281229 26.2232134,10.5954054" id="Fill-17" fill="#231F20"></path>
                    <path d="M24.265,6.64020311 C24.357,6.66420311 24.413,6.63120311 24.388,6.52420311 C24.38,6.49220311 24.367,6.46120311 24.35,6.41420311 C24.431,6.38920311 24.503,6.36620311 24.587,6.33920311 C24.559,6.24820311 24.538,6.16520311 24.507,6.08720311 C24.494,6.05220311 24.452,5.99620311 24.433,6.00020311 C24.39,6.00820311 24.353,6.04820311 24.316,6.07320311 C24.387,6.12920311 24.437,6.16820311 24.486,6.20620311 C24.468,6.22720311 24.452,6.24820311 24.435,6.26820311 C24.384,6.24020311 24.334,6.21120311 24.241,6.15920311 C24.281,6.28920311 24.31,6.38620311 24.34,6.48520311 C24.173,6.61320311 24.168,6.32620311 24,6.38520311 C24.013,6.43320311 24.011,6.51420311 24.05,6.54720311 C24.106,6.59720311 24.19,6.62020311 24.265,6.64020311" id="Fill-19" fill="#231F20"></path>
                    <path d="M10.8755963,13.9456786 C10.8472418,13.944793 10.8047102,13.9279652 10.7955367,13.906709 C10.7846953,13.8810244 10.7922009,13.8234556 10.8113818,13.8101705 C10.9181279,13.7375452 11.0307118,13.6746623 11.1407937,13.6082368 C11.1499672,13.6250646 11.1591407,13.6427781 11.1691481,13.6604915 C11.1482993,13.7472876 10.9489842,13.9465643 10.8755963,13.9456786 M10.7321562,14.4513986 C10.716311,14.4327995 10.698798,14.415086 10.6821189,14.3964868 C10.788865,14.2840062 10.8964451,14.1715256 11.0040252,14.0590449 C11.0182024,14.0741014 11.0323797,14.0891579 11.0465569,14.1042143 C10.9414787,14.2202377 10.8372344,14.3353753 10.7321562,14.4513986 M10.4244271,14.4274854 C10.4494457,14.3132334 10.461955,14.2237804 10.4903095,14.1422983 C10.5019848,14.1104141 10.5511881,14.0935862 10.5837123,14.069673 C10.6012254,14.1006716 10.626244,14.1298989 10.6337496,14.1644402 C10.6679417,14.3220902 10.5753728,14.3805447 10.4244271,14.4274854 M10.443608,14.809211 C10.2334516,15.0279725 10.0241291,15.2458484 9.80396517,15.475238 C9.79479168,15.3193594 10.3210168,14.7135582 10.516162,14.6533323 C10.4869736,14.7171009 10.4652908,14.763156 10.443608,14.809211 M9.70472463,15.1094546 C9.74809024,15.0341723 9.78978795,14.9562329 9.84065916,14.8862647 C9.85150056,14.8703225 9.9090434,14.8738652 9.92739039,14.8898074 C9.94490343,14.9057495 9.95491088,14.9650897 9.94156761,14.9792605 C9.88569268,15.043029 9.8198103,15.0979408 9.75726374,15.1555096 C9.74058466,15.1395675 9.72223767,15.124511 9.70472463,15.1094546 M10.1767427,14.5302236 C10.1675692,14.6639604 10.0649928,14.7126725 9.98243137,14.7782124 C9.9599146,14.7569562 9.93739784,14.7348144 9.91571503,14.7135582 C9.99077091,14.6409329 10.0666607,14.5691933 10.1417166,14.496568 C10.153392,14.5080818 10.1650673,14.5187099 10.1767427,14.5302236 M9.2485517,15.1794228 C9.22436703,15.203336 9.19517863,15.2378773 9.16682419,15.2405344 C8.96750915,15.2600192 8.93665284,15.4150122 8.87577419,15.5797476 C8.76319038,15.8782198 8.55970556,16.1173518 8.33453793,16.331685 C8.24947461,16.413167 8.15523779,16.4849066 8.07517819,16.5699314 C8.04182002,16.6044727 8.03181257,16.6646985 8.00929581,16.7125249 C7.98511114,16.7656654 7.97176787,16.8329766 7.93257203,16.8657465 C7.8166524,16.962285 7.68071787,17.0322533 7.57230383,17.1367629 C7.47139537,17.2333014 7.39550554,17.3608384 7.30960826,17.4759761 C7.20453004,17.6150269 7.09528204,17.7514208 6.9960415,17.8949 C6.9359968,17.9799247 6.89680095,18.0808916 6.83842416,18.166802 C6.786719,18.2411986 6.72750826,18.3182523 6.65662215,18.3687357 C6.53486484,18.4546461 6.42561685,18.5387852 6.42561685,18.7123773 C6.42561685,18.7424902 6.41894521,18.7752602 6.40560195,18.8009447 C6.31219908,18.9816223 6.21045667,19.1578714 6.12539335,19.3429773 C6.10454449,19.3854897 6.12789521,19.455458 6.13957057,19.5103698 C6.15374779,19.5688243 6.20712086,19.6396782 6.19127573,19.6786479 C6.17126083,19.7211602 6.09203518,19.7335597 6.03949607,19.7619012 C5.99613045,19.7858145 5.95193088,19.8097277 5.91440294,19.8416119 C5.86853547,19.8796959 5.83017357,19.9275223 5.78930982,19.9709204 C5.77096283,19.9594066 5.75261584,19.9470072 5.73426884,19.9354934 C5.78930982,19.7902428 5.83601125,19.6405639 5.90105968,19.5006274 C6.02698676,19.2313824 6.14040452,18.9506237 6.29968977,18.7044062 C6.63994307,18.1738874 7.00855081,17.6655104 7.35964551,17.1420769 C7.49724795,16.9374862 7.59899036,16.7027825 7.75077002,16.5105912 C8.0076279,16.1855487 8.22945971,15.8295077 8.53802275,15.5478633 C8.75234897,15.3521293 8.92747935,15.1085689 9.12429253,14.890693 C9.30776245,14.686988 9.47622119,14.4593697 9.6888795,14.2972913 C9.88819454,14.145841 10.0758342,13.94745 10.3401977,13.9049376 C10.3660503,13.9005093 10.3852312,13.8562256 10.4094159,13.8340837 C10.4502797,13.7968854 10.4936453,13.7623441 10.5361769,13.7269171 C10.4969811,14.0537309 10.2759832,14.1502694 10.0491477,14.224666 C10.0399742,14.2662927 10.0424761,14.3194332 10.0191253,14.3477747 C9.87068151,14.5231382 9.71890185,14.694959 9.56462033,14.8632371 C9.46371187,14.9730607 9.35529783,15.0749133 9.2485517,15.1794228 M7.96926601,17.1482766 C7.99428463,16.9941693 8.16357733,16.7621227 8.2586481,16.7479519 C8.26615369,16.8533471 8.08518564,17.1022216 7.96926601,17.1482766 M6.04116398,17.4130932 C6.09787286,17.313012 6.1754306,17.2244446 6.25715811,17.1438483 C6.27383719,17.1279061 6.34805911,17.1606761 6.38225123,17.1899033 C6.39642845,17.2014171 6.38391914,17.2704997 6.36473819,17.2997269 C6.29718791,17.3998081 6.22046412,17.4945752 6.14791011,17.5911137 C6.12872917,17.5857997 6.10871427,17.5813713 6.08953332,17.5769429 C6.07118633,17.5211455 6.02281699,17.4458632 6.04116398,17.4130932 M6.53403089,12.7340763 C6.44312989,12.8182154 6.30052372,12.8368145 6.18210223,12.8890693 C6.11121613,12.9200679 6.04533375,12.9625803 5.9752816,12.9953502 C5.95693461,13.0033213 5.93024807,12.9944645 5.86519965,12.9909218 C5.92441039,12.9191822 5.95443274,12.8527567 6.00113418,12.8306148 C6.39309264,12.6499373 6.78922086,12.4763451 7.18368118,12.3036386 C7.20869981,12.2930106 7.24039007,12.3009816 7.28542359,12.3000959 C7.25957101,12.4418038 7.19118677,12.4949443 7.07693505,12.5188575 C6.88762746,12.5595985 6.69498404,12.5861687 6.53403089,12.7340763 M9.13846975,11.7500923 C9.12095671,11.7527493 9.07425528,11.7031515 9.07508923,11.6792383 C9.07675714,11.5694147 9.13680184,11.5304451 9.23854425,11.5499299 C9.2685666,11.6597535 9.23604239,11.7288361 9.13846975,11.7500923 M9.53209612,11.5871282 C9.47705514,11.6216695 9.42201417,11.6570965 9.36697319,11.6916378 C9.34779225,11.6703816 9.3286113,11.6491254 9.3085964,11.6269835 C9.34195457,11.5809285 9.37447878,11.5331021 9.40700299,11.487047 C9.4487007,11.5207026 9.49039841,11.5534726 9.53209612,11.5871282 M9.16932605,11.1699756 C9.28691359,11.1487195 9.40783695,11.1345487 9.51625099,11.0876079 C9.75309397,10.9875268 9.80479913,10.981327 10.0833398,11.1292346 C9.98409927,11.1531478 9.91404712,11.1761754 9.84232707,11.1850321 C9.68387577,11.2045169 9.52459053,11.215145 9.36613924,11.2328585 C9.3394527,11.2355155 9.30609454,11.2443723 9.28941545,11.2629714 C9.15848465,11.4117647 8.99836545,11.3479962 8.8390802,11.334711 C8.91830585,11.2045169 9.04506688,11.1912318 9.16932605,11.1699756 M10.3093414,11.9422836 C10.3226847,12.1265038 10.2584702,12.185844 10.1041887,12.1893867 C10.0941812,12.1761016 10.0850077,12.1619308 10.0758342,12.1486457 C10.1458864,12.0866485 10.2159385,12.0246513 10.3093414,11.9422836 M14.9786508,11.995424 C14.991994,11.8944572 15.0053373,11.7908333 14.9978317,11.6898664 C14.9861564,11.5180456 14.9427907,11.3471105 14.9394549,11.1761754 C14.9361191,10.9830984 14.846886,10.8909883 14.6850989,10.8431619 C14.5408248,10.7997638 14.447422,10.6961399 14.3898791,10.5473467 C14.3281665,10.388811 14.1863943,10.3321278 14.04629,10.2940438 C13.9887472,10.2781017 13.9178611,10.3197284 13.8528126,10.3347849 C13.8261261,10.3409846 13.7986056,10.34807 13.7635796,10.3569267 C13.7452326,10.2949295 13.7285535,10.2382464 13.7177121,10.2037051 C13.6534976,10.2347037 13.5901171,10.2648166 13.5275705,10.2940438 C13.5067217,10.2134475 13.4867068,10.1319655 13.4608542,10.0265702 C13.2315168,10.0185992 12.9621496,10.0088567 12.7228048,10 C12.6736015,10.0628829 12.6419112,10.1027382 12.6102209,10.1434792 C12.5843684,10.1062809 12.5593497,10.0681969 12.5218218,10.0132851 C12.4676148,10.0371983 12.4025664,10.0655399 12.3383519,10.0938815 L12.3091635,10.1399365 C12.3575328,10.1718208 12.4100719,10.2001624 12.4551055,10.2373607 C12.4851278,10.2630452 12.5043088,10.3020149 12.5284934,10.3356705 C12.4934674,10.3586981 12.4617771,10.3905823 12.4242492,10.4029818 C12.2916505,10.4463798 12.1590517,10.4942062 12.0239512,10.5181194 C11.8204663,10.5553177 11.6153136,10.5774596 11.4101609,10.5987158 C11.3784706,10.6013728 11.3442785,10.5579748 11.3092524,10.543804 C11.2708906,10.5287475 11.2283589,10.511034 11.189163,10.5154624 C11.0498927,10.5322902 10.9122903,10.5624031 10.7730199,10.5792309 C10.6087309,10.5996014 10.4427741,10.6102295 10.2734814,10.6261717 C10.2709795,10.6642557 10.2676437,10.7173961 10.26264,10.8006495 C10.190086,10.777622 10.1300413,10.7616798 10.0733324,10.7404236 C10.0399742,10.7289099 10.0041142,10.6890545 9.97742764,10.6961399 C9.78228237,10.7457377 9.58797105,10.7997638 9.39616159,10.861761 C9.23020471,10.9149015 9.06758365,10.9795557 8.91413608,11.0353532 C8.6280898,11.2833419 8.26281788,11.3586243 7.9475832,11.5428445 C8.08601959,11.5233597 8.21278063,11.4666765 8.34371143,11.4312495 C8.47297433,11.3958226 8.6080749,11.3816518 8.74067361,11.3595099 L8.75568479,11.405565 C8.7189908,11.4542771 8.68313078,11.5038748 8.64560284,11.5517012 C8.55219997,11.6694959 8.21528249,11.7341501 8.08935541,11.6721529 C8.05099352,11.6526681 7.95425483,11.6668389 7.95008506,11.682781 C7.91756085,11.8236032 7.81081472,11.8200605 7.71324208,11.8457451 C7.67321228,11.8554875 7.63485039,11.8882574 7.60566199,11.9201417 C7.48307073,12.0503358 7.45972001,12.0450218 7.39383763,11.8519448 C7.31544594,11.8856004 7.23872216,11.9245701 7.15866256,11.9529117 C7.00021127,12.0095948 6.83925811,12.0609639 6.68080682,12.1158757 C6.66829751,12.1194184 6.65412029,12.1335892 6.65078447,12.145103 C6.6157584,12.2894679 6.52485739,12.3222378 6.39642845,12.302753 C6.36056842,12.2965533 6.31803676,12.3328659 6.27967487,12.3505794 C6.21462644,12.381578 6.14957802,12.4143479 6.08452959,12.4462322 C5.94525925,12.5126578 5.77596655,12.5454277 5.67339019,12.6525943 C5.5257803,12.8049303 5.34231039,12.8288435 5.18052328,12.8288435 C5.03958502,12.8288435 4.90448445,12.8288435 4.77772342,12.8819839 C4.71684476,12.9076685 4.67347915,12.9811794 4.6251098,13.0352056 C4.58174419,13.0839176 4.54671811,13.1707137 4.49918272,13.1795704 C4.37575751,13.202598 4.24899648,13.2769946 4.12140149,13.1839988 C4.09888473,13.1680567 4.0538512,13.1733707 4.02382885,13.1839988 C3.58016523,13.3345634 3.13650162,13.4868994 2.692838,13.640121 C2.67615892,13.6463208 2.65781193,13.6596059 2.64613657,13.6737767 C2.48601737,13.8535685 2.27085719,13.9058233 2.06236865,13.988191 C1.89307596,14.0555023 1.72711908,14.1706399 1.59952409,14.3052624 C1.32598712,14.5939922 1.07663483,14.9084065 0.818942991,15.2139641 C0.591273504,15.4849804 0.361936108,15.7551111 0.139270346,16.0314414 C0.0025018625,16.2023766 0.0133432667,16.2386892 0.190975504,16.3564839 C0.227669487,16.3803971 0.266865333,16.3998819 0.306895133,16.4167097 C0.396128229,16.453908 0.403633816,16.5123625 0.343589116,16.5814451 C0.301057454,16.6301572 0.248518341,16.6682412 0.203484816,16.7142963 C0.137602437,16.7842645 0.0750558749,16.8577755 0,16.9419145 C0.0550409749,16.9605137 0.0783916916,16.9702561 0.101742408,16.9755702 C0.271035104,17.0171968 0.265197425,17.0145398 0.209322496,17.1845893 C0.185137825,17.2563289 0.187639687,17.3386966 0.173462467,17.4476345 C0.385286825,17.4308067 0.567088833,17.427264 0.745555024,17.3989224 C0.928190987,17.3705809 1.10915904,17.3183261 1.29096105,17.274928 C1.38603182,17.2527862 1.48527237,17.2173592 1.48860819,17.3404679 C1.71961349,17.3014983 1.94644902,17.2519005 2.17662037,17.226216 C2.42847453,17.1978744 2.68283055,17.193446 2.93551866,17.1748469 C2.96637497,17.1721898 2.99389546,17.1420769 3.02391781,17.1287918 C3.06394761,17.1110783 3.10314345,17.0889365 3.14400721,17.0818511 C3.39002368,17.04111 3.63520621,16.9985977 3.8828906,16.9667134 C4.25233229,16.9180013 4.5342088,16.6779836 4.84193789,16.491992 C5.03624921,16.372426 5.16634606,16.1297513 5.43070953,16.1377223 C5.45739606,16.138608 5.48658446,16.0996383 5.51243704,16.0774965 C5.73593675,15.8844195 5.95860252,15.6922282 6.18710596,15.4938372 C6.13123103,15.3043029 6.13123103,15.3043029 6.32971212,15.203336 C6.48149178,15.1262824 6.63327144,15.0483431 6.78755296,14.9748321 C6.81757531,14.9606613 6.8559372,14.9677467 6.89096327,14.9650897 C6.89846886,14.9774891 6.90764236,14.9898886 6.91681585,15.002288 C6.84843161,15.0970551 6.786719,15.1989077 6.71082917,15.2865894 C6.56822301,15.4495535 6.41644335,15.6054321 6.27050137,15.7648535 C6.08202773,15.9694442 5.97277974,16.2395749 5.75261584,16.4220238 C5.6458697,16.5105912 5.58916082,16.6682412 5.49742586,16.7824932 C5.37400064,16.9348291 5.26475265,17.0907078 5.22889262,17.2952985 C5.22222099,17.3360396 5.1746856,17.4006938 5.14716511,17.3998081 C5.00872872,17.3971511 4.9745366,17.5052033 4.92449935,17.6035132 C4.88947327,17.6734814 4.86278674,17.7655916 4.80691181,17.8019042 C4.61843817,17.9232416 4.55672556,18.1003764 4.54421625,18.3182523 C4.54171439,18.3660787 4.49584691,18.4112481 4.46916037,18.4581888 C4.43663616,18.4360469 4.403278,18.4139051 4.35907843,18.3846778 C4.27985278,18.5396708 4.19145364,18.6893498 4.12723917,18.8505425 C4.09471495,18.9337959 4.10805822,19.0374197 4.09554891,19.1304155 C4.08804332,19.186213 4.08220564,19.2473245 4.05802097,19.2951509 C3.97545951,19.458115 3.86704547,19.5971658 3.87538501,19.8123847 C3.88038873,19.9408074 3.91541481,20.1453982 3.70859418,20.2065097 C3.69274905,20.2118238 3.68023973,20.319876 3.70108859,20.360617 C3.7444542,20.4447561 3.81117054,20.5164957 3.86871338,20.5935493 L3.94877298,20.6210052 C3.91041108,20.6342904 3.87038128,20.6422614 3.83452125,20.6617463 C3.73861653,20.714001 3.73528071,20.8078825 3.75946538,20.8999926 C3.79198959,21.0310724 3.83869103,21.1568381 3.8737171,21.2870323 C3.88372455,21.3233449 3.88872828,21.3791424 3.87038128,21.4030556 C3.70025463,21.6262455 3.80950263,21.8078087 3.93459575,22 C3.96795392,21.7812385 4.00047813,21.575762 4.03050048,21.3694 C4.05968888,21.1727803 4.13474475,21.1036977 4.29569791,21.1462101 C4.31154304,21.0540999 4.32738817,20.9637612 4.3432333,20.8734224 C4.32905608,20.8831648 4.31571281,20.8929072 4.30153559,20.9026496 C4.24732857,20.866337 4.15058988,20.8317957 4.14892198,20.792826 C4.1447522,20.7175437 4.18644991,20.632519 4.22731367,20.5643221 C4.24149089,20.5421802 4.33989748,20.5404089 4.35324075,20.5616651 C4.40661381,20.6493468 4.46832642,20.629862 4.53921252,20.6068345 C4.62927957,20.5767215 4.64762657,20.6201196 4.66430565,20.7122297 C4.68849032,20.8477378 4.74436525,20.977932 4.78689691,21.1098974 C4.8744621,21.0771275 4.95285379,21.0151303 5.0145664,21.0301867 C5.13715766,21.0602997 5.2055419,21.0284154 5.25140938,20.9106207 C5.26058288,20.8884789 5.27809592,20.8619086 5.29811082,20.8530519 C5.47657701,20.7804266 5.53995752,20.6192339 5.58248919,20.4412134 C5.60000222,20.3730165 5.61584735,20.3030482 5.64336784,20.238394 C5.67839392,20.1569119 5.72175953,20.0789726 5.75678561,20.0107757 C5.84184893,20.1028858 5.90856527,20.1701971 5.96777601,20.2445937 C5.99029277,20.2729353 6.00697186,20.319876 6.00280209,20.355303 C5.99196068,20.4509558 5.97194578,20.5466086 5.94859507,20.6396044 C5.89605595,20.8468522 5.82516985,21.0505572 5.79097773,21.2613477 C5.77429864,21.3676286 5.82016612,21.486309 5.83767916,21.5996753 C5.91356899,21.5846188 5.98862487,21.5695623 6.06368074,21.5545059 C6.06868447,21.5536202 6.07368819,21.5527345 6.07869192,21.5527345 C6.23630925,21.5474205 6.30552745,21.4305115 6.35306284,21.2967747 C6.42811871,21.0886412 6.44563175,20.8495092 6.64828261,20.7104583 C6.68330869,20.6865451 6.69998777,20.6263193 6.71666685,20.5793786 C6.75169293,20.4784117 6.76587015,20.3677024 6.81423949,20.2747066 C7.00855081,19.8938667 7.20786586,19.5147981 7.41552044,19.1419293 C7.496414,18.9949074 7.61066572,18.8691416 7.70073277,18.7265481 C7.87169337,18.4573031 8.02931071,18.1765444 8.20694295,17.9126135 C8.36956401,17.6708244 8.54719625,17.4405491 8.7281643,17.2138165 C8.9283133,16.9613994 9.13846975,16.7187246 9.34695829,16.4742785 C9.40366717,16.407853 9.50040586,16.3626836 9.52792635,16.2865156 C9.64217807,15.9641302 9.8690136,15.7382833 10.0908454,15.5062366 C10.0958491,15.5009226 10.0958491,15.4885231 10.098351,15.4770094 C10.0591551,15.4743524 10.0191253,15.4716953 9.93823179,15.4654956 C10.1617315,15.3078456 10.353541,15.1714518 10.5453504,15.0350579 C10.5261695,15.0235442 10.5069885,15.0129161 10.4878076,15.0014023 C10.4752983,14.9367481 10.461955,14.8720939 10.4486117,14.8074397 C10.5053206,14.7817551 10.5687011,14.7666986 10.6120668,14.7259576 C10.7146431,14.6276478 10.7980385,14.5045391 10.9047847,14.412429 C11.0999299,14.2423795 11.3025808,14.0820725 11.5077335,13.9279652 C11.6928714,13.7889143 11.827138,13.561296 12.0839959,13.5391542 C12.1106824,13.5364972 12.135701,13.4948705 12.1598857,13.4700716 C12.3575328,13.2743376 12.5968777,13.1530002 12.8537356,13.0848033 C13.1139293,13.0157207 13.3807946,12.9794081 13.6451581,12.930696 C13.6534976,12.9289246 13.6635051,12.9342387 13.6776823,12.9377814 C13.6860218,12.9732084 13.6951953,13.0104067 13.7035349,13.0458336 C13.9262006,13.0210348 14.1413608,13.0015499 14.355687,12.9705513 C14.4766104,12.9537235 14.5833565,12.8005019 14.537489,12.7110488 C14.4599313,12.5631412 14.5249797,12.503801 14.6442352,12.4426895 C14.8201995,12.3532364 14.9511303,12.2132999 14.9786508,11.995424" id="Fill-21" fill="#231F20"></path>
                    <path d="M1.28995385,8.43222514 C1.3291368,8.46063231 1.38660513,8.48151993 1.40489051,8.51911765 C1.46584177,8.64862092 1.48935154,8.78397272 1.39966612,8.915147 C1.39008806,8.93018609 1.37441488,8.94188315 1.3587417,8.95190921 C1.35177584,8.95608674 1.33958559,8.95190921 1.30823923,8.9502382 C1.26905628,8.82825448 1.21594161,8.7129548 1.19765623,8.59347759 C1.18981964,8.54501831 1.25686602,8.48653296 1.28995385,8.43222514 M2.68486697,8.43222514 C2.72317919,8.46063231 2.78151825,8.48151993 2.7989329,8.51911765 C2.86075489,8.64862092 2.88339393,8.78397272 2.79544997,8.915147 C2.78500118,8.93018609 2.76845727,8.94188315 2.75365482,8.95190921 C2.74668896,8.95608674 2.73449871,8.95190921 2.70315234,8.9502382 C2.66309866,8.82825448 2.61085472,8.7129548 2.59169861,8.59347759 C2.58386202,8.54501831 2.65090841,8.48653296 2.68486697,8.43222514 M1,7.82063552 C1.12190252,7.92758015 1.13844643,8.03368928 1.12016105,8.1723831 C1.09752202,8.33948409 1.12799765,8.51410462 1.15063668,8.68454763 C1.18024158,8.92266654 1.20984648,9.16245646 1.26296115,9.39639784 C1.31781728,9.63869428 1.20636355,9.92694348 1.4693247,10.1174386 C1.4989296,10.1391617 1.50676619,10.1959761 1.51547351,10.2385868 C1.53375889,10.3380119 1.53985402,10.4399435 1.56249305,10.5385331 C1.59732235,10.683911 1.58861502,10.8142497 1.5285345,10.9596276 C1.47716129,11.0849533 1.45539298,11.2503833 1.57816624,11.3698605 C1.6608858,11.45174 1.76276148,11.5144029 1.85418837,11.5879273 C1.9412616,11.6564387 2.0196275,11.7391537 2.14936661,11.6681358 C2.16852272,11.6572742 2.23121545,11.6806684 2.24166423,11.7023915 C2.30522769,11.8352368 2.41406923,11.8870381 2.55861079,11.8962286 C2.58821568,11.8978996 2.61433765,11.9346619 2.64481328,11.9522075 C2.66309866,11.9639045 2.68922063,11.9822856 2.70576454,11.9772726 C2.83202072,11.9371684 2.94173299,11.9363329 3.07930869,11.9789436 C3.26390393,12.0349225 3.45807723,11.9705886 3.63831882,11.8878736 C3.70884813,11.8552889 3.8159482,11.8318948 3.88125312,11.8603019 C4.02840688,11.9246358 4.15205086,11.8820251 4.27830704,11.8285527 C4.3958559,11.7784224 4.50295597,11.701556 4.62311703,11.6547677 C4.87911232,11.5545071 5.1455564,11.4784762 5.39719803,11.3698605 C5.5556713,11.3021846 5.69760066,11.19524 5.84301296,11.1008279 C5.93008618,11.0440136 6.07375701,11.0256325 6.03457406,10.8685576 C6.03109113,10.856025 6.06243749,10.8292888 6.0842058,10.8184273 C6.31407912,10.7014566 6.53785732,10.5736243 6.77556723,10.4733637 C7.08990158,10.3396829 7.4381945,10.3037562 7.74991665,10.1466813 C7.98501437,10.0280396 8.25755358,9.97456727 8.51354887,9.89435879 C8.7625783,9.81665683 9.01247846,9.7431324 9.26063716,9.66543044 C9.43304216,9.61028711 9.59848129,9.53926919 9.77262775,9.49415192 C10.0085962,9.43483107 10.249789,9.39556234 10.487499,9.34376103 C10.6581625,9.30616331 10.7635211,9.19169913 10.8427577,9.05300531 C10.978592,8.8140509 11.1109433,8.57258997 10.8523358,8.32778702 C10.8471114,8.32110298 10.8410163,8.30857041 10.8436285,8.30105086 C10.8845529,8.15734401 10.7687455,8.1389629 10.6877674,8.11891079 C10.5867624,7.75212411 10.7487186,7.35860129 10.4831453,7.03609638 C10.4753087,7.02607032 10.4831453,7.0060182 10.4779209,6.99348563 C10.4544111,6.94168432 10.4439623,6.85813382 10.4047794,6.84309474 C10.1940622,6.76205076 9.98073276,6.67515824 9.7604375,6.635054 C9.5906447,6.60414032 9.40866165,6.64257355 9.231903,6.64257355 C9.08997364,6.64257355 8.94804428,6.63087648 8.80263198,6.62335694 C8.80698565,6.64591557 8.8139515,6.6851843 8.82701249,6.76288626 C8.7329734,6.73447909 8.66244409,6.71108495 8.59104404,6.69186834 C8.55447328,6.68267779 8.51267813,6.66680319 8.48046104,6.67599375 C8.28628774,6.73280808 8.06163881,6.70356541 7.9022948,6.86147584 C7.88488016,6.87902145 7.84395574,6.87651493 7.81435084,6.87818594 C7.4355823,6.89990907 7.09338451,7.04528693 6.7477038,7.17813222 C6.47168166,7.28257034 6.19653026,7.38700845 5.91528374,7.47557198 C5.78815682,7.51567622 5.64622746,7.50815667 5.51387615,7.53656384 C5.24133695,7.5967202 4.97489287,7.6309759 4.75372687,7.41959315 C4.7032244,7.37113386 4.6466268,7.29510291 4.65098046,7.23494655 C4.66404145,7.01353774 4.70235367,6.79379994 4.7302171,6.57322664 C4.7572098,6.35098232 4.80161715,6.12957351 4.71280245,5.9073292 C4.69016341,5.85469239 4.71367319,5.78618098 4.71019026,5.72518912 C4.70409513,5.62743504 4.69364634,5.52884546 4.68493902,5.43192688 C4.68058536,5.36508649 4.67710243,5.2990816 4.66839511,5.23307671 C4.65620485,5.12613208 4.64575607,5.02002295 4.62485849,4.91558483 C4.60570238,4.82284378 4.55258771,4.73344475 4.54997552,4.64237471 C4.54475112,4.4535506 4.5656487,4.26472648 4.57348529,4.07506686 C4.58480481,3.74671341 4.52559501,3.43172805 4.40020956,3.12426223 C4.31139487,2.90786645 4.2286753,2.69314168 4.23041677,2.4441612 C4.2312875,2.25867911 4.13724841,2.06400646 4.05278738,1.88771491 C3.95700683,1.68970024 3.82900919,1.50421814 3.70362374,1.32040705 C3.66095786,1.25690868 3.59129927,1.19090379 3.51902849,1.16750965 C3.31353567,1.10150476 3.10281846,1.03967739 2.88948905,1.00792821 C2.7667158,0.990382602 2.61172546,0.999573156 2.51333271,1.05972951 C2.38881799,1.13826698 2.29652037,1.27278327 2.20857641,1.3956025 C2.11453732,1.52510577 2.08754462,1.7005618 1.91078597,1.77659275 C1.88118107,1.78912533 1.87334448,1.8517882 1.85592983,1.89189244 C1.80716883,2.00552111 1.75840782,2.11998529 1.70790535,2.23444946 C1.67394679,2.31298693 1.6338931,2.38901788 1.6042882,2.47006186 C1.55726866,2.60290714 1.5259223,2.74243647 1.4693247,2.87277524 C1.4153393,2.99977199 1.33523193,3.11590718 1.27166847,3.23956191 C1.25773676,3.26629807 1.25251236,3.30723781 1.26296115,3.33480948 C1.35961243,3.60718409 1.26557335,3.87788769 1.24467577,4.14524927 C1.2185538,4.50284539 1.12103179,4.85626398 1.0809781,5.21386009 C1.04789028,5.50962884 1.0539854,5.80873961 1.04266588,6.10701488 C1.03570002,6.27495137 1.02525124,6.44455888 1.02176831,6.61333088 C1.01741465,6.91077064 1.01654391,7.2082104 1.01480245,7.50648566 C1.01393172,7.57165505 0.996517071,7.64016645 1.10971227,7.65019251 C1.21507087,7.66021857 1.20636355,7.73875604 1.18198305,7.8172935 C1.12712691,7.81812901 1.07662444,7.81896451 1,7.82063552" id="Fill-23" fill="#231F20"></path>
                    <g id="Group-27" transform="translate(9.000000, 15.000000)">
                        <mask id="mask-6" fill="white">
                            <use xlink:href="#path-5"></use>
                        </mask>
                        <g id="Clip-26"></g>
                        <path d="M2.03152,7.77808333 C2.01072,7.74808333 1.97712,7.71975 1.97392,7.68808333 C1.97152,7.66225 2.00832,7.63391667 2.02752,7.60725 C2.05472,7.62891667 2.08272,7.65141667 2.12832,7.68891667 C2.08352,7.72975 2.05792,7.75391667 2.03152,7.77808333 M2.06032,6.15141667 C2.07312,6.15641667 2.08592,6.16141667 2.09952,6.16558333 C2.10032,6.21308333 2.11152,6.26225 2.09952,6.30558333 C2.08832,6.34725 2.05392,6.38225 2.02992,6.42058333 C2.01792,6.37391667 1.99312,6.32641667 1.99872,6.28308333 C2.00432,6.23725 2.03872,6.19558333 2.06032,6.15141667 M1.47392,8.28141667 C1.45232,8.23725 1.42112,8.19641667 1.41312,8.15058333 C1.40832,8.12641667 1.44432,8.09475 1.46192,8.06641667 C1.48912,8.10058333 1.51712,8.13391667 1.55472,8.17975 C1.51872,8.22475 1.49632,8.25308333 1.47392,8.28141667 M1.18752,8.26141667 C1.18032,8.27058333 1.12752,8.25975 1.11552,8.24308333 C1.09952,8.22058333 1.08832,8.16475 1.10032,8.15558333 C1.21072,8.06141667 1.13232,7.99308333 1.08832,7.90558333 C1.06432,7.85725 1.08992,7.78058333 1.09312,7.71725 C1.14512,7.72308333 1.20592,7.71308333 1.24512,7.73975 C1.27152,7.75808333 1.26672,7.82558333 1.27792,7.87141667 C1.29152,7.92641667 1.30672,7.98225 1.32752,8.05891667 C1.28672,8.11808333 1.24112,8.19308333 1.18752,8.26141667 M0.74992,7.77808333 C0.72912,7.74808333 0.69472,7.71975 0.69232,7.68808333 C0.68992,7.66225 0.72672,7.63391667 0.74672,7.60725 C0.77392,7.62891667 0.80112,7.65141667 0.84752,7.68891667 C0.80272,7.72975 0.77712,7.75391667 0.74992,7.77808333 M0.77872,6.15141667 C0.79152,6.15641667 0.80512,6.16141667 0.81792,6.16558333 C0.81872,6.21308333 0.82992,6.26225 0.81792,6.30558333 C0.80672,6.34725 0.77312,6.38225 0.74832,6.42058333 C0.73712,6.37391667 0.71232,6.32641667 0.71712,6.28308333 C0.72272,6.23725 0.75712,6.19558333 0.77872,6.15141667 M3.73472,1.54308333 C3.66432,1.56475 3.60672,1.57558333 3.60272,1.56475 C3.54672,1.40558333 3.48752,1.24558333 3.44752,1.08141667 C3.40112,0.89475 3.44992,0.688916667 3.34112,0.511416667 C3.26752,0.393083333 3.20912,0.263916667 3.14032,0.14225 C3.10672,0.0830833333 2.98032,0.0864166667 2.93072,0.14475 C2.90352,0.17725 2.88112,0.213916667 2.85312,0.246416667 C2.77712,0.33725 2.67952,0.415583333 2.62592,0.518916667 C2.49632,0.768916667 2.44672,1.05808333 2.24832,1.27891667 C2.07552,1.47141667 1.93312,1.69391667 1.77392,1.89975 C1.71072,1.98225 1.63792,2.05558333 1.57072,2.13475 C1.49872,2.21975 1.43712,2.31725 1.35472,2.39058333 C0.95952,2.74725 0.75552,3.18058333 0.83152,3.73558333 C0.83472,3.76141667 0.82912,3.80141667 0.81312,3.81475 C0.69712,3.90975 0.70832,4.02475 0.74192,4.15558333 C0.77472,4.28391667 0.73232,4.32891667 0.60912,4.34141667 C0.58192,4.34475 0.53632,4.38308333 0.53632,4.40558333 C0.53712,4.55975 0.43312,4.71391667 0.53712,4.86975 C0.55632,4.89808333 0.55552,4.94391667 0.55552,4.98225 C0.55632,5.11558333 0.55552,5.24891667 0.55152,5.38225 C0.54992,5.42975 0.53872,5.47558333 0.53232,5.52141667 C0.51312,5.66558333 0.35712,5.78225 0.50912,5.95975 C0.64432,6.11808333 0.58032,6.22558333 0.37232,6.24225 C0.29232,6.24891667 0.25312,6.28141667 0.27312,6.35641667 C0.31232,6.51141667 0.36432,6.66225 0.40512,6.81558333 C0.42512,6.89058333 0.46752,7.00225 0.43632,7.03808333 C0.33152,7.16141667 0.40352,7.25558333 0.45632,7.36725 C0.31152,7.38308333 0.30592,7.49475 0.32912,7.59141667 C0.33872,7.62975 0.43312,7.64558333 0.50272,7.67891667 C0.56992,7.81725 0.43392,7.90808333 0.36992,8.02058333 C0.41392,8.05141667 0.44752,8.07475 0.47952,8.09725 C0.44032,8.29225 0.58112,8.69058333 0.67552,8.70641667 C0.77872,8.53308333 0.57632,8.31558333 0.75952,8.13391667 C0.84992,8.33391667 0.93232,8.51558333 1.01472,8.69808333 C1.02832,8.69391667 1.04192,8.69058333 1.05552,8.68641667 C1.05552,8.51725 1.16112,8.51975 1.26832,8.54225 C1.24272,8.47641667 1.22032,8.41975 1.19872,8.36308333 C1.24512,8.34391667 1.29152,8.32558333 1.31792,8.31475 C1.37152,8.42391667 1.41232,8.50725 1.45472,8.59725 C1.60752,8.47141667 1.63792,8.48225 1.67232,8.64725 C1.70992,8.82558333 1.74512,9.00391667 1.78352,9.19225 C1.85792,9.16058333 1.90352,9.14058333 1.97312,9.11141667 C1.93552,8.99808333 1.92352,8.86475 1.85552,8.78141667 C1.75712,8.66058333 1.71552,8.54225 1.75872,8.39641667 C1.80592,8.24141667 1.86352,8.09058333 1.93072,7.89558333 C2.25712,8.57975 2.22672,9.32391667 2.49792,10.0005833 C2.49232,9.39808333 2.26752,8.83725 2.31472,8.24391667 C2.36192,8.28975 2.39552,8.34141667 2.40912,8.39808333 C2.46832,8.64558333 2.52192,8.89391667 2.57792,9.14308333 C2.58752,9.14141667 2.59792,9.13975 2.60912,9.13725 C2.60432,9.08225 2.60352,9.02725 2.59552,8.97308333 C2.53392,8.53891667 2.39632,8.11558333 2.42352,7.66808333 C2.43872,7.42808333 2.43072,7.18725 2.44752,6.94725 C2.46112,6.73225 2.49152,6.51808333 2.52192,6.30391667 C2.53632,6.20641667 2.55792,6.10725 2.59312,6.01558333 C2.62832,5.92308333 2.70112,5.84558333 2.72752,5.75141667 C2.77152,5.59558333 2.79232,5.43225 2.82112,5.27225 C2.85072,5.10808333 2.86592,4.93975 2.91392,4.78225 C2.94592,4.67891667 3.00592,4.56641667 3.08512,4.50141667 C3.19472,4.41225 3.24352,4.30641667 3.29312,4.17891667 C3.39472,3.91975 3.52272,3.67225 3.78672,3.54308333 C3.87712,3.49891667 3.89872,3.37891667 3.84192,3.34058333 C3.72272,3.26141667 3.78672,3.19391667 3.81232,3.11308333 C3.82912,3.05891667 3.83472,3.00058333 3.85312,2.94725 C3.91952,2.75475 3.78832,2.52975 3.94512,2.35225 C3.95552,2.33975 3.94832,2.30391667 3.94192,2.28141667 C3.87392,2.03475 3.80432,1.78891667 3.73472,1.54308333" id="Fill-25" fill="#231F20" mask="url(#mask-6)"></path>
                    </g>
                </g>
            </g>
        </g>
    </g>
</svg>