<?xml version="1.0" encoding="UTF-8"?>
<svg width="200px" height="30px" viewBox="0 0 200 30" version="1.1" xmlns="http://www.w3.org/2000/svg" xmlns:xlink="http://www.w3.org/1999/xlink">
    <!-- Generator: Sketch 48.1 (47250) - http://www.bohemiancoding.com/sketch -->
    <title>Page 1</title>
    <desc>Created with Sketch.</desc>
    <defs>
        <polygon id="path-1" points="4.86906057 12 0.265475839 12 0.265475839 0.119292437 4.86906057 0.119292437"></polygon>
        <polygon id="path-3" points="0 29.6271 199.443 29.6271 199.443 0.0001 0 0.0001"></polygon>
    </defs>
    <g id="Desktop-(-&gt;1170px)" stroke="none" stroke-width="1" fill="none" fill-rule="evenodd" transform="translate(-30.000000, -124.000000)">
        <g id="1-GNB" transform="translate(30.000000, 121.000000)">
            <g id="Page-1" transform="translate(0.000000, 3.000000)">
                <path d="M196.6014,11.621 C196.5684,11.637 196.5314,11.683 196.5304,11.718 C196.5274,11.796 196.5534,11.874 196.5554,11.953 C196.5574,12.058 196.5914,12.104 196.7074,12.107 C197.0544,12.114 197.4014,12.126 197.7464,12.154 C197.9864,12.173 198.1534,12.027 198.3444,11.932 C198.3624,11.923 198.3604,11.876 198.3624,11.87 C198.2194,11.825 198.0914,11.786 197.9854,11.752 C198.0164,11.564 198.0384,11.428 198.0634,11.284 C197.8554,11.136 196.7024,11.25 196.5544,11.46 C196.6374,11.481 196.7174,11.501 196.7984,11.521 C196.7974,11.535 196.7964,11.549 196.7944,11.563 C196.7304,11.581 196.6614,11.592 196.6014,11.621 Z M177.4924,11.495 C177.4624,11.565 177.4324,11.635 177.4034,11.704 C177.4344,11.721 177.4644,11.737 177.4964,11.752 C177.5274,11.69 177.5644,11.629 177.5854,11.563 C177.5884,11.552 177.5254,11.518 177.4924,11.495 Z M177.7474,10.508 C177.6494,10.568 177.5684,10.659 177.4804,10.737 C177.5374,10.788 177.6284,10.892 177.6454,10.881 C177.7324,10.825 177.7994,10.739 177.8744,10.663 L177.9154,10.571 C177.8594,10.548 177.7794,10.489 177.7474,10.508 Z M199.3134,9.947 C199.4694,10.051 199.4934,10.182 199.3334,10.291 C199.1584,10.412 198.9634,10.471 198.7444,10.447 C198.6344,10.435 198.5004,10.411 198.5364,10.615 C198.5534,10.716 198.2904,10.884 198.1344,10.888 C197.8454,10.896 197.5544,10.881 197.2684,10.911 C196.9644,10.942 196.6644,11.013 196.3644,11.07 C196.3314,11.076 196.3044,11.11 196.2524,11.146 C196.6324,11.238 196.9784,11.187 197.3254,11.134 C197.6704,11.081 198.0164,11.017 198.3644,10.973 C198.4574,10.961 198.5584,11.004 198.6814,11.026 C198.5954,11.169 198.5164,11.257 198.6624,11.39 C198.7794,11.496 198.7074,11.686 198.5814,11.8 C198.5424,11.835 198.5464,11.916 198.5304,11.975 C198.5434,11.983 198.5574,11.991 198.5714,11.998 C198.5234,12.017 198.4754,12.036 198.4274,12.053 C198.3374,12.084 198.3034,12.132 198.3674,12.222 C198.3874,12.25 198.4064,12.296 198.3974,12.325 C198.3654,12.42 198.0474,12.499 197.9554,12.45 C197.9014,12.422 197.8334,12.399 197.7744,12.403 C197.1734,12.441 196.5734,12.475 195.9744,12.531 C195.6954,12.558 195.4204,12.671 195.1434,12.672 C194.9074,12.672 194.7234,12.775 194.5184,12.84 C194.3984,12.879 194.2754,12.921 194.1504,12.933 C193.9644,12.95 193.8064,13.009 193.6594,13.123 C193.6044,13.166 193.5104,13.173 193.4364,13.17 C193.2474,13.163 193.0614,13.138 192.8724,13.13 C192.8364,13.128 192.7904,13.166 192.7614,13.197 C192.6354,13.33 192.5124,13.351 192.3894,13.231 C192.2654,13.109 192.1804,13.123 192.0834,13.262 C191.9864,13.402 191.6954,13.457 191.4904,13.379 C191.3684,13.332 191.2604,13.298 191.1664,13.429 C191.1474,13.456 191.0944,13.478 191.0614,13.474 C190.8814,13.446 190.7664,13.547 190.6494,13.656 C190.6084,13.693 190.5564,13.724 190.5044,13.74 C190.2984,13.801 190.0984,13.848 189.8724,13.832 C189.6924,13.82 189.5034,13.933 189.3204,13.992 C189.2034,14.029 189.0854,14.069 188.9684,14.108 C188.8244,14.157 188.6814,14.213 188.5344,14.252 C188.3984,14.288 188.2564,14.305 188.1184,14.334 C188.0314,14.352 187.9094,14.35 187.8674,14.406 C187.7414,14.573 187.5854,14.548 187.4264,14.51 C187.3344,14.489 187.2974,14.515 187.2454,14.588 C187.1654,14.698 187.0634,14.792 186.9684,14.891 C186.8354,15.029 186.6574,15.132 186.6244,15.348 C186.6194,15.383 186.5824,15.417 186.5534,15.442 C186.3764,15.591 186.3034,15.791 186.2574,16.008 C186.2484,16.049 186.2324,16.109 186.2034,16.12 C186.0464,16.182 186.0704,16.308 186.0574,16.437 C186.0354,16.681 185.9844,16.922 185.9504,17.165 C185.9404,17.235 185.9474,17.307 185.9454,17.378 C185.9424,17.493 185.9374,17.608 185.9344,17.723 C185.9314,17.849 185.9274,17.975 185.9264,18.101 C185.9254,18.324 185.9664,18.558 185.9114,18.767 C185.8804,18.879 185.8224,18.964 185.8924,19.075 C185.8984,19.084 185.9064,19.099 185.9034,19.106 C185.7954,19.392 185.9434,19.65 185.9884,19.919 C185.9964,19.964 185.9954,20.012 185.9934,20.058 C185.9824,20.345 185.9394,20.636 185.9654,20.919 C185.9924,21.189 186.0894,21.452 186.1584,21.729 C185.9024,21.841 185.9224,21.842 185.9074,22.126 C185.8964,22.322 185.8314,22.518 185.7674,22.706 C185.7284,22.822 185.6364,22.908 185.4934,22.911 C185.3844,22.912 185.3284,22.964 185.3264,23.085 C185.3244,23.217 185.2544,23.277 185.1204,23.214 C185.0024,23.16 184.9094,23.133 184.8044,23.267 C184.7364,23.354 184.5974,23.425 184.4884,23.427 C184.3814,23.43 184.2734,23.335 184.1644,23.284 C184.1084,23.257 184.0524,23.223 183.9934,23.208 C183.7504,23.145 183.6994,23.078 183.6444,22.84 C183.5914,22.607 183.5094,22.38 183.4434,22.15 C183.4214,22.074 183.4154,21.993 183.3874,21.921 C183.3604,21.85 183.3134,21.787 183.2554,21.686 C183.3054,21.568 183.2084,21.515 183.0704,21.463 C183.0154,21.443 182.9774,21.352 182.9504,21.287 C182.9134,21.194 182.8554,21.083 182.8794,21.002 C182.8984,20.941 183.0414,20.927 183.1114,20.87 C183.2474,20.756 183.1874,20.601 182.9664,20.51 C182.9954,20.422 183.0234,20.332 183.0454,20.261 C182.9134,20.184 182.7984,20.116 182.6834,20.048 C182.6904,20.031 182.6964,20.015 182.7034,19.999 C182.7624,19.995 182.8214,19.99 182.8794,19.986 C182.8944,19.739 182.7984,19.626 182.6024,19.654 C182.5354,19.46 182.4414,19.274 182.5564,19.059 C182.5834,19.007 182.5224,18.908 182.5034,18.829 C182.4814,18.738 182.4604,18.656 182.5754,18.596 C182.6394,18.562 182.6794,18.485 182.7304,18.428 C182.6004,18.283 182.4724,18.167 182.3774,18.027 C182.3204,17.942 182.2744,17.814 182.2934,17.72 C182.3564,17.408 182.2404,17.116 182.2344,16.816 C182.2304,16.571 182.2694,16.321 182.4314,16.11 C182.4544,16.081 182.4184,15.957 182.3814,15.94 C182.2554,15.885 182.2634,15.804 182.2894,15.698 C182.3054,15.633 182.3014,15.562 182.3034,15.494 C182.3074,15.376 182.3094,15.258 182.3134,15.14 C182.3154,15.082 182.3174,15.025 182.3284,14.969 C182.3384,14.913 182.3444,14.838 182.3804,14.81 C182.4844,14.733 182.4904,14.649 182.4564,14.537 C182.3794,14.273 182.3554,14.011 182.4104,13.733 C182.4514,13.521 182.4324,13.295 182.4244,13.076 C182.4194,12.943 182.3304,12.897 182.2224,12.976 C181.5164,13.492 180.6874,13.77 179.9284,14.184 C179.4734,14.432 179.0214,14.684 178.5734,14.943 C178.2694,15.119 177.9694,15.3 177.6784,15.496 C177.3494,15.717 177.0354,15.96 176.7094,16.187 C176.5584,16.292 176.3934,16.378 176.2424,16.482 C176.1334,16.557 176.0414,16.656 175.9334,16.728 C175.7174,16.873 175.4944,17.006 175.2744,17.145 C175.2314,17.172 175.1754,17.196 175.1524,17.236 C174.9924,17.521 174.7294,17.69 174.4644,17.859 C174.4504,17.868 174.4344,17.876 174.4224,17.889 C174.2184,18.114 174.0234,18.346 173.8094,18.561 C173.7074,18.663 173.5774,18.739 173.4504,18.811 C173.3234,18.884 173.1714,18.916 173.1384,19.097 C173.1304,19.138 173.0564,19.17 173.0084,19.198 C172.9594,19.227 172.8924,19.234 172.8544,19.272 C172.5904,19.535 172.2394,19.646 171.9254,19.825 C171.8754,19.853 171.8034,19.878 171.7534,19.864 C171.4964,19.789 171.2414,19.702 170.9854,19.619 C170.8744,19.584 170.7604,19.514 170.6554,19.525 C170.4044,19.551 170.1814,19.452 169.9474,19.409 C169.8134,19.384 169.6844,19.33 169.5564,19.281 C169.2254,19.153 169.1994,18.73 169.4894,18.475 C169.6164,18.364 169.7974,18.289 169.8264,18.087 C169.8284,18.073 169.8464,18.054 169.8604,18.051 C170.1394,17.996 170.2424,17.729 170.4344,17.57 C170.6394,17.4 170.8024,17.149 171.0344,17.047 C171.3004,16.929 171.4484,16.704 171.6384,16.53 C171.8714,16.319 172.1514,16.204 172.3944,16.02 C172.6014,15.864 172.8524,15.766 173.0844,15.641 C173.1204,15.622 173.1724,15.61 173.1874,15.58 C173.3054,15.346 173.5774,15.33 173.7444,15.18 C173.8534,15.082 173.8904,14.905 173.9704,14.741 C173.8604,14.735 173.7994,14.732 173.7124,14.728 C173.8404,14.52 173.9594,14.327 174.0794,14.131 C173.8754,14.042 173.8814,14.033 173.9774,13.846 C174.0804,13.643 174.1604,13.428 174.2544,13.221 C174.2874,13.149 174.3424,13.086 174.3744,13.014 C174.5014,12.733 174.6224,12.45 174.7464,12.168 C174.8024,12.038 174.8674,11.91 174.9144,11.776 C175.0184,11.49 175.1154,11.2 175.2114,10.911 C175.2274,10.864 175.2474,10.802 175.2304,10.764 C175.1434,10.57 175.2644,10.436 175.3434,10.285 C175.4224,10.134 175.5104,9.983 175.5554,9.821 C175.5834,9.717 175.5384,9.594 175.5304,9.479 C175.5284,9.446 175.5394,9.411 175.5484,9.378 C175.6014,9.2 175.6584,9.022 175.7104,8.844 C175.8014,8.537 175.8994,8.231 175.9784,7.921 C176.0544,7.621 176.1134,7.315 176.1734,7.01 C176.2074,6.834 176.3184,6.735 176.4554,6.627 C176.5834,6.525 176.6524,6.347 176.7514,6.196 C176.9084,6.342 176.9094,6.123 176.9714,6.064 C177.2864,6.11 177.4104,6.364 177.5514,6.578 C177.8244,6.991 178.1254,7.39 178.2864,7.867 C178.3004,7.909 178.3064,7.972 178.2854,8.006 C178.1574,8.205 178.1924,8.423 178.1904,8.64 C178.1894,8.718 178.1494,8.815 178.0944,8.87 C178.0004,8.963 177.9944,8.949 178.0844,9.053 C178.1034,9.076 178.0894,9.167 178.0794,9.169 C177.9494,9.196 177.8904,9.278 177.8674,9.4 C177.8644,9.413 177.8214,9.413 177.8084,9.429 C177.7784,9.466 177.7384,9.508 177.7374,9.549 C177.7364,9.575 177.7984,9.627 177.8304,9.626 C177.9974,9.62 178.0234,9.713 178.0134,9.847 C178.0044,9.956 178.0054,10.066 177.9974,10.175 C177.9624,10.627 177.9474,11.082 177.8294,11.522 C177.7954,11.647 177.7694,11.801 177.5664,11.813 C177.3214,11.829 177.2594,12.066 177.1794,12.239 C177.1294,12.344 177.0704,12.401 176.9834,12.457 C176.8834,12.522 176.8044,12.575 176.9874,12.659 C177.1874,12.751 177.1944,12.764 177.3084,12.585 C177.3244,12.56 177.3544,12.541 177.3824,12.529 C177.5864,12.442 177.7934,12.362 177.9954,12.27 C178.2164,12.17 178.4354,12.062 178.6514,11.952 C178.7854,11.883 178.9084,11.796 179.0414,11.728 C179.4504,11.52 179.8614,11.315 180.2734,11.113 C180.3284,11.086 180.3954,11.082 180.4574,11.071 C180.6704,11.033 180.8854,11.014 181.0804,10.897 C181.1344,10.864 181.2304,10.906 181.3064,10.898 C181.4914,10.88 181.6764,10.857 181.8604,10.827 C181.9014,10.82 181.9364,10.772 181.9724,10.742 C182.0054,10.713 182.0374,10.682 182.0994,10.678 C182.0684,10.731 182.0374,10.784 181.9774,10.883 C182.1644,10.86 182.3094,10.844 182.4544,10.825 C182.4934,10.819 182.5344,10.79 182.5684,10.797 C182.7244,10.827 182.7934,10.729 182.8424,10.613 C182.8814,10.522 182.9074,10.427 182.9324,10.331 C182.9664,10.205 183.0104,10.099 183.1104,9.993 C183.1964,9.901 183.1814,9.716 183.2144,9.573 C183.2894,9.251 183.3134,8.902 183.4594,8.617 C183.6004,8.342 183.6324,8.065 183.6914,7.781 C183.7214,7.632 183.7944,7.491 183.8414,7.345 C183.9594,6.98 184.0874,6.618 184.0804,6.227 C184.0804,6.2 184.0894,6.17 184.1004,6.144 C184.2744,5.709 184.4524,5.276 184.6224,4.84 C184.6774,4.699 184.7104,4.548 184.7634,4.406 C184.8714,4.115 184.9604,3.812 185.1064,3.541 C185.1924,3.381 185.2584,3.175 185.4714,3.106 C185.5094,3.094 185.5324,3.04 185.5664,3.01 C185.6574,2.927 185.7384,2.827 185.8894,2.876 C185.9314,2.889 185.9964,2.871 186.0364,2.844 C186.2444,2.709 186.4474,2.567 186.6514,2.426 C186.7014,2.391 186.7514,2.355 186.7884,2.308 C186.8564,2.226 187.0334,2.189 187.1114,2.264 C187.2504,2.399 187.3764,2.548 187.5144,2.685 C187.5804,2.752 187.6504,2.825 187.7324,2.866 C187.9644,2.98 188.0464,3.236 187.9294,3.464 C187.8184,3.683 187.7194,3.91 187.6294,4.139 C187.5894,4.241 187.5804,4.356 187.5644,4.466 C187.5604,4.489 187.5774,4.525 187.5954,4.541 C187.6874,4.617 187.7844,4.688 187.8924,4.773 C187.8494,4.881 187.8064,4.989 187.7564,5.113 C187.6044,4.995 187.5514,5.068 187.5074,5.19 C187.4694,5.297 187.3854,5.393 187.3734,5.501 C187.3634,5.59 187.4294,5.688 187.4614,5.782 C187.5014,5.745 187.5574,5.715 187.5794,5.669 C187.6044,5.617 187.5984,5.55 187.6084,5.479 C187.6424,5.558 187.7014,5.625 187.6894,5.677 C187.6664,5.772 187.6724,5.898 187.5194,5.925 C187.4654,5.935 187.4134,6.01 187.3804,6.066 C187.3664,6.093 187.4004,6.148 187.4124,6.19 C187.4484,6.171 187.4874,6.155 187.5204,6.132 C187.5524,6.111 187.5804,6.083 187.6234,6.045 C187.6284,6.265 187.6454,6.463 187.6294,6.659 C187.6244,6.733 187.5444,6.801 187.4934,6.881 C187.6484,6.99 187.6634,7.117 187.5604,7.274 C187.5144,7.345 187.5054,7.44 187.4774,7.534 C187.4674,7.515 187.4624,7.5 187.4544,7.489 C187.4164,7.442 187.3784,7.396 187.3404,7.35 C187.3084,7.416 187.2394,7.493 187.2534,7.545 C187.2764,7.621 187.1964,7.78 187.3844,7.746 C187.3074,7.834 187.2364,7.904 187.1814,7.984 C187.1564,8.02 187.1634,8.078 187.1554,8.126 C187.2084,8.123 187.2614,8.123 187.3144,8.115 C187.3404,8.111 187.3644,8.093 187.3614,8.095 C187.3644,8.228 187.3684,8.365 187.3694,8.501 C187.3694,8.536 187.3674,8.579 187.3474,8.602 C187.2654,8.697 187.1294,8.777 187.2984,8.915 C187.3094,8.924 187.2304,9.015 187.2364,9.062 C187.2614,9.246 187.2964,9.432 187.3454,9.611 C187.3584,9.657 187.4344,9.699 187.4894,9.715 C187.7594,9.796 188.0324,9.837 188.3184,9.804 C188.5384,9.778 188.7634,9.808 188.9824,9.779 C189.2144,9.747 189.4414,9.676 189.6704,9.622 C189.8084,9.589 189.9454,9.546 190.0844,9.524 C190.6194,9.438 191.1544,9.361 191.6884,9.277 C191.7554,9.266 191.8214,9.236 191.8874,9.216 C192.2184,9.116 192.5444,8.996 192.8824,8.924 C193.1434,8.868 193.4184,8.875 193.6864,8.848 C193.7884,8.837 193.8884,8.792 193.9914,8.786 C194.4854,8.756 194.9794,8.71 195.4734,8.716 C195.8744,8.721 196.2754,8.791 196.6754,8.83 C196.9974,8.861 197.3194,8.891 197.6414,8.913 C197.7614,8.922 197.8834,8.896 198.0034,8.907 C198.2184,8.925 198.4324,8.955 198.6454,8.989 C198.6984,8.997 198.7484,9.034 198.7964,9.062 C198.9284,9.142 199.0624,9.221 199.1904,9.308 C199.2444,9.345 199.2834,9.401 199.3294,9.448 C199.2754,9.494 199.2224,9.541 199.1664,9.584 C199.1394,9.604 199.1064,9.614 199.0304,9.649 C199.1334,9.76 199.2074,9.876 199.3134,9.947 Z" id="Fill-1" fill="#231F20"></path>
                <path d="M166.24,5.5707 C166.335,5.6817 166.392,5.7587 166.46,5.8257 C166.5,5.8647 166.552,5.9057 166.604,5.9157 C166.732,5.9397 166.869,5.9267 166.943,6.0707 C166.956,6.0947 166.999,6.1177 167.028,6.1177 C167.193,6.1207 167.358,6.1207 167.523,6.1147 C167.708,6.1077 167.893,5.9217 168.075,6.1217 C168.081,6.1277 168.097,6.1237 168.108,6.1237 C168.271,6.1097 168.436,6.1077 168.596,6.0787 C168.691,6.0617 168.744,6.0677 168.791,6.1597 C168.83,6.2377 168.903,6.2657 168.969,6.1757 C169.109,5.9857 169.131,5.9847 169.347,6.0767 C169.439,6.1157 169.545,6.1427 169.643,6.1407 C169.815,6.1357 169.986,6.1067 170.158,6.0847 C170.342,6.0597 170.465,6.1587 170.563,6.3117 C170.735,6.5807 170.625,6.8727 170.674,7.1487 C170.678,7.1767 170.656,7.2127 170.642,7.2427 C170.61,7.3127 170.551,7.3807 170.548,7.4517 C170.531,7.7737 170.534,8.0957 170.524,8.4187 C170.519,8.5997 170.499,8.7807 170.494,8.9617 C170.491,9.0537 170.505,9.1457 170.516,9.2377 C170.53,9.3437 170.564,9.4497 170.564,9.5547 C170.562,9.8047 170.478,10.0487 170.56,10.3047 C170.615,10.4767 170.609,10.6677 170.651,10.8447 C170.694,11.0297 170.665,11.2307 170.909,11.3527 C171.083,11.4397 171.181,11.6697 171.325,11.8257 C171.416,11.9247 171.514,12.0357 171.633,12.0857 C171.756,12.1377 171.906,12.1237 172.045,12.1327 C172.066,12.1337 172.105,12.1057 172.11,12.0847 C172.152,11.9227 172.258,11.9337 172.381,11.9737 C172.412,11.9847 172.452,11.9807 172.484,11.9707 C172.745,11.8937 172.928,11.6297 172.92,11.3537 C172.918,11.2677 172.893,11.1487 172.938,11.1017 C173.112,10.9197 173.122,10.6807 173.177,10.4637 C173.219,10.3007 173.201,10.1207 173.199,9.9487 C173.188,9.2277 173.174,8.5077 173.162,7.7867 C173.157,7.5237 173.153,7.2607 173.154,6.9987 C173.155,6.8097 173.162,6.6197 173.17,6.4307 C173.174,6.3147 173.203,6.1857 173.336,6.1847 C173.485,6.1847 173.602,5.9747 173.768,6.1247 C173.776,6.1317 173.81,6.1127 173.829,6.1007 C173.905,6.0497 173.976,5.9897 174.057,5.9487 C174.122,5.9157 174.215,5.8317 174.251,5.9887 C174.253,5.9987 174.319,6.0097 174.341,5.9967 C174.511,5.8847 174.592,5.9157 174.633,6.1277 C174.845,6.0537 175.074,6.0587 175.269,5.9057 C175.484,5.7377 175.652,5.7607 175.869,5.9267 C175.897,5.9477 175.949,5.9807 175.964,5.9707 C176.088,5.8867 176.205,5.9467 176.333,5.9567 C176.631,5.9767 176.942,6.0107 177.224,5.8477 C177.259,5.8287 177.331,5.8267 177.354,5.8487 C177.478,5.9697 177.626,5.8977 177.761,5.9047 C177.846,5.9097 177.932,5.8827 178.018,5.8727 C178.279,5.8427 178.541,5.8147 178.813,5.7847 C178.79,5.7147 178.774,5.6677 178.756,5.6127 C178.951,5.5557 179.14,5.4997 179.33,5.4447 C179.336,5.4617 179.341,5.4787 179.345,5.4967 C179.276,5.5937 179.218,5.7197 179.097,5.6087 C179.038,5.6707 178.989,5.7207 178.925,5.7877 C179.181,5.7527 179.442,5.7897 179.591,5.4887 C179.654,5.6247 179.695,5.7127 179.731,5.7887 C179.864,5.7537 180.003,5.7167 180.176,5.6717 C180.102,5.6297 180.064,5.6077 180.024,5.5837 C180.267,5.3417 180.574,5.2737 180.729,5.4227 C180.829,5.3527 180.907,5.1747 181.056,5.3597 C181.063,5.3677 181.09,5.3617 181.106,5.3587 C181.273,5.3237 181.439,5.2887 181.59,5.2567 C181.616,5.1467 181.637,5.0577 181.659,4.9697 C181.615,4.9137 181.575,4.8437 181.579,4.7767 C181.593,4.5367 181.521,4.3437 181.306,4.2187 C181.154,4.1307 181.134,3.9937 181.143,3.8327 C181.153,3.6647 181.148,3.4937 181.136,3.3247 C181.13,3.2197 181.075,3.1137 181.083,3.0117 C181.115,2.5797 181.038,2.5047 180.677,2.4477 C180.666,2.4457 180.656,2.4377 180.645,2.4347 C180.474,2.3787 180.307,2.2977 180.133,2.2727 C179.906,2.2417 179.673,2.2637 179.443,2.2477 C179.09,2.2217 178.73,2.3377 178.383,2.1957 C178.366,2.1897 178.331,2.1957 178.32,2.2097 C178.231,2.3187 178.117,2.2847 178.001,2.2847 C177.88,2.2837 177.759,2.3207 177.636,2.3367 C177.581,2.3437 177.524,2.3387 177.468,2.3387 C177.376,2.3387 177.278,2.3177 177.194,2.3427 C176.989,2.4037 176.793,2.4377 176.572,2.4147 C176.197,2.3757 175.822,2.5047 175.442,2.4467 C175.417,2.4427 175.387,2.4737 175.361,2.4717 C175.148,2.4567 174.957,2.6927 174.732,2.5247 C174.723,2.5177 174.701,2.5327 174.683,2.5357 C174.499,2.5657 174.313,2.5947 174.128,2.6257 C173.971,2.6517 173.799,2.6457 173.665,2.7157 C173.519,2.7927 173.406,2.8007 173.281,2.7107 C173.16,2.6247 173.063,2.6547 172.952,2.7377 C172.887,2.7847 172.791,2.7987 172.708,2.8067 C172.583,2.8187 172.451,2.7887 172.332,2.8187 C172.082,2.8807 171.945,2.8287 171.852,2.6027 C171.688,2.6317 171.525,2.6567 171.363,2.6897 C171.33,2.6957 171.277,2.7207 171.272,2.7447 C171.234,2.9267 171.104,2.9417 170.966,2.9077 C170.795,2.8667 170.627,2.8127 170.464,2.7497 C170.347,2.7047 170.246,2.6327 170.115,2.7257 C170.073,2.7557 169.993,2.7387 169.93,2.7377 C169.818,2.7347 169.702,2.7057 169.594,2.7267 C169.491,2.7467 169.398,2.8167 169.301,2.8637 C169.176,2.6507 169.045,2.6587 168.897,2.8717 C168.854,2.9327 168.761,2.9607 168.689,2.9977 C168.663,3.0117 168.605,3.0017 168.6,3.0157 C168.547,3.1607 168.453,3.1487 168.334,3.1057 C168.294,3.0907 168.235,3.1207 168.187,3.1367 C168.113,3.1627 168.04,3.1927 167.966,3.2207 C167.699,3.3237 167.39,3.2997 167.151,3.4987 C167.086,3.5517 166.983,3.5737 166.894,3.5837 C166.656,3.6127 166.472,3.8167 166.478,4.0587 C166.479,4.0967 166.471,4.1457 166.449,4.1727 C166.345,4.2967 166.238,4.4177 166.125,4.5327 C165.963,4.6977 165.912,5.0507 166.078,5.1937 C166.228,5.3227 166.231,5.4697 166.24,5.5707" id="Fill-3" fill="#231F20"></path>
                <path d="M169.9041,16.3065 C169.9821,16.2605 170.0491,16.1905 170.1301,16.1535 C170.3431,16.0565 170.5631,15.9725 170.7581,15.8915 C170.7581,15.8425 170.7471,15.7805 170.7581,15.7765 C170.8141,15.7565 170.8771,15.7405 170.9371,15.7415 C171.0911,15.7445 171.2471,15.7565 171.4011,15.7645 C171.4021,15.7475 171.4031,15.7315 171.4041,15.7145 C171.2421,15.6795 171.0801,15.6435 170.8771,15.5985 C171.0501,15.3815 171.2531,15.3375 171.4501,15.2925 C171.6251,15.2535 171.8021,15.2285 171.9761,15.1865 C172.0331,15.1735 172.0811,15.1255 172.1321,15.0935 C171.9751,15.0755 171.8391,15.0925 171.7011,15.0955 C171.5671,15.0985 171.4321,15.0885 171.2891,15.0845 C171.3801,14.8925 171.5371,14.7705 171.7701,14.7335 C172.1351,14.6755 172.4961,14.6175 172.7471,14.3475 C172.5231,14.2135 172.2561,14.3415 171.9971,14.2145 C171.7691,14.1015 171.5011,14.2215 171.2581,14.2945 C171.0811,14.3485 170.9051,14.3785 170.7271,14.3045 C170.7231,14.2845 170.7191,14.2645 170.7161,14.2455 C171.0081,14.1935 171.3001,14.1405 171.6011,14.0865 C171.5951,14.0475 171.5861,14.0205 171.5881,13.9945 C171.6081,13.8035 171.5611,13.7525 171.3621,13.7595 C171.3161,13.7615 171.2711,13.7765 171.2251,13.7835 C171.0881,13.8035 170.9501,13.8225 170.8041,13.8435 C170.8421,13.5525 170.8881,13.4945 171.1341,13.4885 C171.2831,13.4845 171.4321,13.5315 171.5821,13.5335 C171.8501,13.5365 172.1191,13.5245 172.3881,13.5195 C172.3951,13.5025 172.4011,13.4865 172.4081,13.4695 C172.2721,13.4175 172.1371,13.3655 171.9821,13.3055 C172.0671,13.2605 172.1331,13.2255 172.2061,13.1865 C172.0831,13.1125 171.9811,13.0145 171.8641,12.9915 C171.7271,12.9635 171.5741,12.9825 171.4341,13.0145 C171.1371,13.0825 170.8461,13.1785 170.5501,13.2505 C170.0081,13.3845 169.4611,13.4985 168.9211,13.6395 C168.5131,13.7465 168.1161,13.8875 167.7121,14.0035 C167.1851,14.1535 166.6561,14.2935 166.1291,14.4395 C166.0051,14.4735 165.8811,14.5115 165.7151,14.5595 C165.7571,14.4985 165.7831,14.4745 165.7781,14.4645 C165.7041,14.2985 165.7371,14.1385 165.7951,13.9765 C165.8581,13.7945 165.9001,13.6025 165.9841,13.4305 C166.0681,13.2605 166.1891,13.1085 166.2991,12.9525 C166.4611,12.7195 166.4151,12.3995 166.6261,12.1855 C166.6571,12.1535 166.6461,12.0805 166.6601,12.0025 C166.5821,12.0305 166.5271,12.0505 166.4411,12.0815 C166.5021,11.8765 166.5501,11.6975 166.6081,11.5215 C166.6351,11.4345 166.6651,11.3455 166.7161,11.2715 C166.8621,11.0565 166.8841,10.8255 166.8621,10.5715 C166.8421,10.3395 166.9161,10.0905 166.8611,9.8715 C166.7831,9.5585 166.6251,9.2655 166.5011,8.9645 C166.4081,8.7395 166.2361,8.7055 166.0711,8.8785 C165.9841,8.9705 165.9031,9.0715 165.8011,9.1435 C165.7351,9.1905 165.6351,9.2185 165.5541,9.2125 C165.3511,9.1975 165.1471,9.2975 165.0461,9.4865 C165.0271,9.5215 165.0021,9.5555 164.9741,9.5835 C164.8291,9.7395 164.6661,9.8805 164.5391,10.0485 C164.3081,10.3545 164.0991,10.6765 163.8811,10.9935 C164.0861,11.1215 164.0351,11.3075 163.8051,11.4625 C163.8991,11.6235 163.8691,11.7195 163.6911,11.8305 C163.7051,11.8665 163.7371,11.9085 163.7281,11.9375 C163.6791,12.0985 163.6711,12.2705 163.5391,12.4055 C163.4751,12.4705 163.4571,12.5875 163.4361,12.6845 C163.4191,12.7735 163.4421,12.8725 163.4171,12.9585 C163.3661,13.1315 163.3001,13.3015 163.2281,13.4685 C163.1821,13.5775 163.1161,13.6785 163.0591,13.7835 C163.0081,13.8795 162.9321,13.9715 162.9121,14.0735 C162.8671,14.2885 162.9041,14.5245 162.7441,14.7075 C162.6811,14.7795 162.6071,14.8425 162.5171,14.9305 C162.5801,14.9645 162.6291,14.9915 162.6781,15.0185 C162.6561,15.0275 162.6331,15.0355 162.6091,15.0445 C162.6111,15.1565 162.6131,15.2675 162.6161,15.3785 C162.6201,15.5205 162.6531,15.6685 162.5051,15.7695 C162.4771,15.7885 162.4631,15.8385 162.4581,15.8755 C162.4391,16.0045 162.4101,16.1355 162.4161,16.2645 C162.4271,16.5075 162.3411,16.6895 162.1381,16.8215 C162.1171,16.8355 162.1051,16.8655 162.1061,16.8625 C162.3151,17.2265 162.1351,17.4935 161.9581,17.7355 C162.0091,17.8175 162.0831,17.8845 162.0701,17.9205 C161.9911,18.1435 162.0401,18.3895 161.9831,18.5935 C161.9081,18.8575 161.9731,19.1045 161.9431,19.3585 C161.9091,19.6355 161.9501,19.9215 161.9381,20.2025 C161.9261,20.5005 161.8891,20.7985 161.8691,21.0965 C161.8581,21.2445 161.8441,21.3955 161.8561,21.5435 C161.9041,22.1185 161.9661,22.6925 162.0111,23.2685 C162.0221,23.4015 162.0141,23.5205 162.2291,23.5265 C161.9671,23.8045 162.1511,24.0635 162.1771,24.3155 C162.4511,24.2835 162.4471,24.5355 162.5591,24.6555 C162.5991,24.6975 162.5911,24.7865 162.6041,24.8545 C162.5851,24.8585 162.5651,24.8635 162.5471,24.8675 C162.5161,24.8065 162.4851,24.7445 162.4551,24.6835 C162.4461,24.8095 162.4871,24.9195 162.4881,25.0295 C162.4881,25.1145 162.4381,25.2005 162.4231,25.2495 C162.5471,25.2965 162.6701,25.3065 162.7191,25.3725 C162.7561,25.4215 162.6981,25.5425 162.6771,25.6615 C162.5991,25.5775 162.5471,25.5195 162.4941,25.4625 C162.4801,25.4715 162.4671,25.4795 162.4541,25.4875 C162.5101,25.6535 162.5731,25.8165 162.6231,25.9845 C162.6611,26.1155 162.7061,26.2305 162.9111,26.2165 C162.7541,26.3475 162.7991,26.4665 162.8441,26.5925 C162.9491,26.8785 162.9461,26.8805 163.2641,26.8925 C163.4601,26.9005 163.5511,27.0465 163.4911,27.2305 C163.3651,27.2215 163.2431,27.2125 163.1071,27.2025 C163.1151,27.5145 163.2991,27.7155 163.4561,27.9205 C163.4801,27.9515 163.6471,27.9255 163.6961,27.8745 C163.8501,27.7155 163.8471,27.7065 163.9541,27.8865 C164.0901,28.1175 164.3181,28.1965 164.5691,28.1195 C164.6111,28.1065 164.6771,28.1595 164.7271,28.1905 C164.7801,28.2235 164.8261,28.2665 164.8401,28.2775 C164.9201,28.1685 164.9601,28.0675 165.0331,28.0265 C165.1201,27.9775 165.1471,27.9285 165.1451,27.8385 C165.1441,27.7835 165.1541,27.7245 165.1711,27.6715 C165.2581,27.4065 165.2501,27.1525 165.0991,26.9095 C165.0791,26.8765 165.0861,26.8265 165.0821,26.7845 C165.0751,26.7135 165.0811,26.6395 165.0611,26.5735 C165.0221,26.4445 165.0651,26.3095 165.1801,26.2995 C165.3341,26.2855 165.3191,26.2205 165.2901,26.1015 C165.2661,26.0065 165.2281,25.8745 165.3621,25.8115 C165.5801,25.7095 165.5851,25.6625 165.4001,25.5205 C165.3971,25.2815 165.3391,25.0785 165.1961,24.8955 C165.1321,24.8115 165.0571,24.7135 165.0471,24.6145 C165.0181,24.3505 164.9781,24.0985 164.8171,23.8765 C164.7691,23.8115 164.7331,23.7325 164.7141,23.6545 C164.6391,23.3595 164.5971,23.0545 164.5001,22.7675 C164.3941,22.4565 164.3681,22.1525 164.4151,21.8315 C164.4331,21.7105 164.4401,21.5725 164.4001,21.4605 C164.3351,21.2765 164.2991,21.1175 164.4611,20.9775 C164.4341,20.8815 164.4311,20.7875 164.4401,20.6955 C164.4601,20.4795 164.4741,20.2635 164.5131,20.0505 C164.5391,19.9145 164.4281,19.7035 164.6981,19.6885 C164.5941,19.5095 164.5971,19.5115 164.7011,19.2945 C164.7241,19.2455 164.7391,19.1675 164.7161,19.1275 C164.6531,19.0215 164.7131,18.9635 164.7801,18.9075 C164.9121,18.7975 165.0481,18.6915 165.1841,18.5875 C165.2791,18.5145 165.3731,18.4345 165.4781,18.3795 C165.7581,18.2345 166.0561,18.1195 166.3261,17.9585 C166.7311,17.7165 167.1121,17.4375 167.5541,17.2595 C167.8411,17.1435 168.1151,16.9945 168.3921,16.8565 C168.4971,16.8045 168.5931,16.7305 168.7021,16.6895 C168.8181,16.6455 168.9451,16.6325 169.0651,16.5985 C169.2681,16.5415 169.4711,16.4825 169.6731,16.4175 C169.7541,16.3915 169.8311,16.3495 169.9041,16.3065" id="Fill-5" fill="#231F20"></path>
                <path d="M161.6912,12.4813 C161.7022,12.5053 161.7132,12.5303 161.7242,12.5543 C161.6202,12.6023 161.5152,12.6493 161.4112,12.6973 C161.4012,12.6703 161.3912,12.6433 161.3802,12.6163 C161.4842,12.5713 161.5872,12.5263 161.6912,12.4813 M161.9042,16.9663 C161.8402,16.9753 161.7762,16.9853 161.7002,16.9963 C161.7132,16.9123 161.7232,16.8523 161.7352,16.7843 C161.4432,16.7733 161.1732,16.8093 160.9332,16.9763 C160.9032,16.9973 160.8592,17.0023 160.8202,17.0073 C160.6912,17.0263 160.5612,17.0333 160.4342,17.0613 C160.2422,17.1023 160.0752,17.2273 159.8562,17.1913 C159.7302,17.1713 159.5872,17.2753 159.4722,17.1353 C159.4672,17.1293 159.4332,17.1463 159.4142,17.1533 C158.9512,17.3103 158.4892,17.4653 158.0272,17.6253 C157.9642,17.6473 157.8642,17.6853 157.8592,17.7263 C157.8292,17.9693 157.7352,17.8413 157.6432,17.7683 C157.2962,17.9703 156.9232,17.9443 156.5482,17.8743 C156.4002,17.8453 156.3412,17.7323 156.4112,17.6093 C156.4552,17.5343 156.5392,17.4813 156.6042,17.4193 C156.6572,17.3693 156.7242,17.3273 156.7582,17.2663 C156.8752,17.0623 156.9782,16.8513 157.1132,16.5923 C157.1182,16.5773 157.1142,16.4893 157.1542,16.4593 C157.4062,16.2713 157.6562,16.0753 157.9292,15.9223 C158.1262,15.8133 158.3582,15.7713 158.5702,15.6903 C158.7892,15.6083 159.0282,15.5503 159.1102,15.2833 C159.1182,15.2583 159.1432,15.2313 159.1682,15.2213 C159.4782,15.0903 159.7392,14.8503 160.0982,14.8193 C160.2192,14.8093 160.3342,14.7163 160.4502,14.6573 C160.4952,14.6353 160.5362,14.5793 160.5782,14.5803 C160.8162,14.5883 161.0102,14.4803 161.2062,14.3673 C161.2992,14.3133 161.3892,14.2603 161.3012,14.1383 C161.3672,14.0913 161.4402,14.0633 161.4742,14.0093 C161.5462,13.8983 161.5992,13.7733 161.6682,13.6393 C161.6582,13.6293 161.6232,13.5933 161.5822,13.5513 C161.6172,13.5133 161.6452,13.4813 161.6892,13.4343 C161.5952,13.4513 161.5272,13.4633 161.4602,13.4763 C161.4522,13.4603 161.4432,13.4433 161.4352,13.4273 C161.5402,13.3523 161.6392,13.2693 161.7512,13.2053 C161.8642,13.1413 161.8682,13.0723 161.7872,12.9493 C161.6792,13.2503 161.4822,13.0363 161.3242,13.0363 C161.3202,13.0943 161.3202,13.1293 161.3162,13.1633 C161.2922,13.3613 161.2542,13.3843 161.0682,13.3233 C161.0382,13.3133 161.0002,13.3143 160.9692,13.3243 C160.8432,13.3633 160.7192,13.4123 160.5922,13.4493 C160.4692,13.4843 160.3432,13.5103 160.2182,13.5403 C160.2082,13.5233 160.1962,13.5053 160.1852,13.4883 C160.2632,13.4123 160.3282,13.3063 160.4202,13.2653 C160.7162,13.1323 161.0212,13.0193 161.3262,12.9093 C161.4762,12.8543 161.6352,12.8253 161.7892,12.7783 C161.9802,12.7203 162.0932,12.5883 162.1032,12.4273 C161.8962,12.4763 161.7942,12.4173 161.8012,12.2553 C161.6792,12.2783 161.5572,12.3013 161.4362,12.3253 C161.4312,12.3093 161.4252,12.2943 161.4202,12.2783 C161.4522,12.2293 161.4842,12.1793 161.5182,12.1243 C161.2752,12.0903 161.0152,12.2213 160.7902,11.9923 C160.8912,11.9193 160.9802,11.8403 161.0822,11.7843 C161.3132,11.6573 161.3442,11.2883 161.7042,11.3193 L161.6742,11.2533 C161.5462,11.2703 161.4182,11.2873 161.2892,11.3033 C161.2822,11.2943 161.2752,11.2843 161.2682,11.2743 C161.3522,11.2063 161.4352,11.1383 161.5292,11.0613 C161.4842,11.0233 161.4472,10.9943 161.4112,10.9643 C161.4482,10.8963 161.4792,10.8383 161.5132,10.7753 C161.3112,10.7553 161.2542,10.8123 161.2712,11.0143 C161.2812,11.1373 161.2882,11.2513 161.1292,11.2803 C161.0032,11.3033 160.8782,11.3293 160.7522,11.3483 C160.7162,11.3533 160.6602,11.3493 160.6472,11.3283 C160.6262,11.2953 160.6242,11.2423 160.6322,11.2023 C160.6392,11.1673 160.6722,11.1363 160.7202,11.0643 C160.4082,11.0933 160.1332,11.1193 159.8592,11.1443 C159.8602,11.1523 159.8602,11.1613 159.8602,11.1693 C159.9352,11.1723 160.0102,11.1753 160.1072,11.1793 C160.0832,11.2263 160.0762,11.2653 160.0572,11.2723 C159.8972,11.3283 159.7372,11.3933 159.5722,11.4243 C159.5032,11.4373 159.4192,11.3763 159.3402,11.3473 C159.3472,11.3073 159.3532,11.2663 159.3652,11.1873 C158.9512,11.3223 158.5602,11.4403 158.1762,11.5773 C157.6632,11.7603 157.1542,11.9563 156.6442,12.1493 C156.4772,12.2133 156.3202,12.3183 156.1482,12.3513 C155.8402,12.4093 155.6142,12.6503 155.2942,12.6843 C155.1342,12.7003 154.9852,12.8103 154.8342,12.8843 C154.7192,12.9393 154.5942,12.9873 154.5032,13.0703 C154.4052,13.1583 154.3202,13.2043 154.2422,13.1583 C154.0742,13.2833 153.9242,13.3903 153.7792,13.5033 C153.6682,13.5903 153.5602,13.6843 153.4532,13.7753 C153.2792,13.9223 153.2462,14.1423 153.1632,14.3473 C153.3122,14.3933 153.4612,14.4383 153.6232,14.4873 C153.5502,14.5913 153.4932,14.6743 153.4372,14.7533 C153.6442,14.8453 153.8382,14.9223 154.0262,15.0163 C154.2092,15.1083 154.2952,15.3243 154.2172,15.5093 C154.0972,15.7943 153.9592,16.0713 153.8362,16.3553 C153.7122,16.6393 153.5792,16.9203 153.4812,17.2133 C153.3572,17.5833 153.2502,17.9593 153.1612,18.3373 C153.0722,18.7153 153.0172,19.1003 152.9452,19.4813 C152.9062,19.6863 152.8442,19.8883 152.8252,20.0953 C152.8152,20.2013 152.8992,20.3143 152.8972,20.4243 C152.8952,20.6053 152.8932,20.7663 153.0802,20.8703 C153.1282,20.8963 153.1442,20.9763 153.1772,21.0303 C153.2152,21.0913 153.2562,21.1493 153.2952,21.2103 C153.3402,21.2823 153.3862,21.3553 153.4272,21.4303 C153.4952,21.5553 153.5492,21.6883 153.6282,21.8063 C153.6552,21.8483 153.7372,21.8773 153.7912,21.8743 C154.0462,21.8573 154.3092,21.8573 154.5552,21.7953 C154.8292,21.7283 155.1292,21.7423 155.3742,21.5633 C155.4212,21.5283 155.4982,21.5023 155.5532,21.5133 C155.8422,21.5683 155.9822,21.3343 156.1422,21.1853 C156.2252,21.1073 156.3002,21.0783 156.3932,21.0463 C156.5362,20.9963 156.6792,20.9473 156.8172,20.8863 C156.9112,20.8443 156.9932,20.7763 157.0852,20.7303 C157.2262,20.6583 157.3712,20.5953 157.5142,20.5273 C157.5902,20.4913 157.6672,20.4523 157.7382,20.4173 C157.7212,20.3583 157.7082,20.3133 157.7052,20.3013 C157.8642,20.2013 158.0002,20.1173 158.1112,20.0473 C158.2032,20.1043 158.2712,20.1463 158.3392,20.1873 C158.3702,20.2063 158.4282,20.2273 158.4272,20.2433 C158.4242,20.2793 158.3972,20.3183 158.3702,20.3453 C158.3462,20.3683 158.3082,20.3753 158.2772,20.3893 C158.2922,20.4093 158.3072,20.4283 158.3232,20.4473 C158.5742,20.4173 158.8142,20.3813 159.0042,20.1653 C159.1432,20.0063 159.3232,19.8833 159.4852,19.7463 C159.5192,19.7173 159.5902,19.6913 159.5892,19.6663 C159.5802,19.4123 159.8012,19.4003 159.9472,19.3073 C160.0012,19.2733 160.0402,19.2143 160.0812,19.1643 C160.1132,19.1243 160.1372,19.0783 160.1652,19.0353 C160.1982,19.0713 160.2312,19.1073 160.3022,19.1853 C160.3372,19.0653 160.3612,18.9753 160.3882,18.8783 C160.2742,18.8543 160.2472,18.7793 160.3122,18.7043 C160.3792,18.6293 160.4692,18.5703 160.5592,18.5213 C160.7302,18.4273 160.9082,18.3453 161.0832,18.2583 C161.0772,18.2413 161.0712,18.2233 161.0652,18.2063 C161.0312,18.1973 160.9972,18.1893 160.9232,18.1693 C161.0452,18.0063 161.1542,17.8603 161.2632,17.7143 C161.2282,17.7013 161.1852,17.6853 161.1132,17.6573 C161.1832,17.6033 161.2342,17.5683 161.2792,17.5283 C161.3072,17.5033 161.3512,17.4623 161.3442,17.4393 C161.3092,17.3063 161.4062,17.2623 161.4892,17.2143 C161.6292,17.1353 161.7742,17.0643 161.9172,16.9903 C161.9132,16.9823 161.9082,16.9743 161.9042,16.9663" id="Fill-7" fill="#231F20"></path>
                <path d="M162.9646,5.704 C163.0016,5.904 162.9316,5.989 162.7516,5.994 C162.6316,5.997 162.5126,6.036 162.3926,6.056 C162.3626,6.061 162.3306,6.055 162.2896,6.027 C162.5256,5.934 162.6886,5.707 162.9646,5.704 M152.9236,9.825 C153.0396,9.841 153.1576,9.884 153.2726,9.875 C153.5656,9.851 153.8316,9.935 154.0876,10.054 C154.5036,10.247 154.9106,10.457 155.3236,10.656 C155.3666,10.677 155.4546,10.694 155.4656,10.677 C155.5456,10.55 155.6276,10.613 155.7186,10.654 C155.8656,10.718 156.0156,10.778 156.1676,10.83 C156.2176,10.848 156.2816,10.856 156.3296,10.839 C156.6376,10.727 156.9436,10.609 157.2476,10.491 C157.3606,10.448 157.4656,10.379 157.5816,10.355 C157.9486,10.279 158.2766,10.06 158.6606,10.057 C158.9706,10.054 159.1426,9.796 159.3196,9.629 C159.5196,9.443 159.7546,9.494 159.9526,9.38 C159.9356,9.417 159.9166,9.453 159.8866,9.514 C159.9666,9.485 160.0396,9.48 160.0806,9.441 C160.2696,9.262 160.4436,9.067 160.6336,8.892 C160.7016,8.829 160.8026,8.802 160.8876,8.76 C160.8976,8.773 160.9056,8.787 160.9146,8.8 C160.8896,8.875 160.8636,8.949 160.8396,9.023 C160.8526,9.033 160.8656,9.043 160.8796,9.053 C161.0436,8.926 161.2086,8.8 161.3726,8.673 C161.3656,8.366 161.7116,8.326 161.8106,8.098 C161.8156,8.085 161.8516,8.084 161.8726,8.081 C162.0946,8.052 162.2886,7.984 162.3836,7.753 C162.3976,7.721 162.4436,7.696 162.4806,7.68 C162.5426,7.651 162.6136,7.64 162.6736,7.607 C162.8986,7.484 163.1076,7.315 163.3456,7.238 C163.6536,7.14 164.0056,6.711 163.9456,6.389 C163.9266,6.28 163.9606,6.262 164.0416,6.231 C164.1246,6.2 164.1986,6.146 164.2766,6.102 C164.2676,6.088 164.2596,6.073 164.2506,6.058 C164.0946,6.121 163.9356,6.178 163.7806,6.248 C163.5626,6.348 163.3496,6.461 163.1306,6.558 C163.0336,6.601 162.9426,6.581 162.9146,6.46 C162.8896,6.347 163.0496,6.048 163.1566,5.983 C163.3256,6.169 163.4506,5.976 163.5846,5.931 C163.7916,5.86 163.8126,5.813 163.7806,5.629 C163.6606,5.603 163.5826,5.91 163.4366,5.67 C163.3696,5.703 163.2986,5.73 163.2366,5.77 C163.1176,5.847 163.0276,5.836 162.9676,5.704 C162.9686,5.704 162.9696,5.703 162.9696,5.703 C162.9876,5.292 162.9876,5.292 163.2866,5.182 C163.0206,5.119 162.7986,5.345 162.5426,5.3 C162.4586,5.507 162.4566,5.509 162.3066,5.489 C162.3196,5.422 162.3346,5.356 162.3496,5.285 C162.2976,5.276 162.2516,5.267 162.1826,5.255 C162.2266,5.201 162.2536,5.167 162.2836,5.131 C162.1276,5.102 161.9666,5.225 161.9536,5.364 C161.9476,5.415 161.9056,5.462 161.8776,5.517 C161.8196,5.412 161.7876,5.344 161.7466,5.28 C161.6936,5.195 161.7136,5.13 161.8046,5.105 C161.9116,5.076 162.0266,5.073 162.1316,5.042 C162.1826,5.028 162.2436,4.982 162.2586,4.936 C162.2796,4.874 162.2726,4.796 162.2546,4.731 C162.2416,4.684 162.1876,4.612 162.1606,4.616 C162.1016,4.624 162.0396,4.666 161.9926,4.709 C161.9666,4.733 161.9666,4.786 161.9546,4.826 L161.9286,4.776 C161.8516,4.778 161.7686,4.762 161.6976,4.784 C161.4116,4.875 161.1296,4.98 160.8446,5.077 C160.6026,5.16 160.3636,5.274 160.1136,5.312 C159.8796,5.348 159.6516,5.342 159.4216,5.454 C159.0506,5.635 158.6406,5.734 158.2626,5.903 C157.7266,6.141 157.2056,6.415 156.6756,6.668 C155.8626,7.057 155.0496,7.443 154.2336,7.826 C153.7766,8.039 153.3156,8.242 152.8566,8.453 C152.8156,8.472 152.7776,8.51 152.7506,8.548 C152.6446,8.693 152.5446,8.844 152.4386,8.99 C152.3826,9.064 152.3186,9.132 152.2276,9.24 C152.5056,9.274 152.4606,9.459 152.4546,9.616 C152.5376,9.623 152.5996,9.628 152.6696,9.634 C152.6616,9.692 152.6536,9.741 152.6476,9.79 C152.7456,9.802 152.8346,9.811 152.9236,9.825" id="Fill-9" fill="#231F20"></path>
                <path d="M159.5164,20.5067 C159.6184,20.4747 159.7034,20.4477 159.7884,20.4207 L159.7974,20.3707 C159.7014,20.3567 159.6044,20.3427 159.4964,20.3277 C159.5044,20.4017 159.5104,20.4497 159.5164,20.5067" id="Fill-11" fill="#231F20"></path>
                <path d="M139.2937,11.7675 C139.2837,12.0375 139.2637,12.3065 139.2557,12.5765 C139.2537,12.6145 139.2937,12.6535 139.3127,12.6885 C139.3897,12.6385 139.4547,12.5975 139.5617,12.5285 C139.5657,12.7295 139.5687,12.8745 139.5717,13.0185 L139.6217,13.0305 C139.6487,12.9675 139.6847,12.9075 139.7037,12.8415 C139.7507,12.6865 139.7857,12.5285 139.8357,12.3745 C139.8487,12.3365 139.9017,12.3105 139.9377,12.2795 C139.9597,12.3165 140.0037,12.3545 140.0007,12.3895 C139.9907,12.5385 139.9677,12.6855 139.9457,12.8335 C139.9267,12.9695 139.9027,13.1045 139.8817,13.2405 C139.9867,13.1575 140.0557,13.0665 140.1207,12.9725 C140.2237,12.8245 140.2547,12.9305 140.2927,13.0375 C140.3777,12.9195 140.4477,12.9495 140.5047,13.0555 C140.6847,12.9355 140.6207,12.7515 140.6377,12.6015 C140.6507,12.4775 140.6707,12.4135 140.8067,12.3935 C140.9977,12.3665 141.0737,12.3975 141.1417,12.5715 C141.1597,12.6185 141.1797,12.6635 141.2117,12.7415 C141.3627,12.5255 141.5187,12.3435 141.6227,12.1365 C141.6747,12.0345 141.6927,11.9355 141.8197,11.9075 C141.8387,11.9035 141.8577,11.8625 141.8607,11.8375 C141.8647,11.7895 141.8567,11.7405 141.8557,11.6915 C141.9367,11.6875 142.0187,11.6875 142.0987,11.6785 C142.1627,11.6715 142.2397,11.6715 142.2847,11.6355 C142.3917,11.5495 142.4877,11.4495 142.5777,11.3465 C142.6567,11.2575 142.7227,11.1575 142.8127,11.0375 C142.6777,11.0025 142.5857,10.9785 142.4407,10.9415 C142.5047,10.8675 142.6057,10.8035 142.6017,10.7475 C142.5807,10.4735 142.7917,10.5545 142.9267,10.5075 C142.9517,10.4355 142.9577,10.3335 143.0127,10.2835 C143.0917,10.2105 143.2057,10.1765 143.3457,10.1045 C143.1447,10.0455 143.1937,9.9565 143.2657,9.8985 C143.3577,9.8225 143.4647,9.7505 143.5777,9.7155 C143.7637,9.6565 143.9567,9.6115 144.1497,9.5895 C144.5557,9.5445 144.9697,9.4625 145.3447,9.7205 C145.3607,9.7315 145.3897,9.7275 145.4117,9.7275 C145.8147,9.7275 146.2107,9.7655 146.6097,9.8275 C146.8837,9.8705 147.1777,9.8045 147.4587,9.7625 C147.5597,9.7475 147.6457,9.6495 147.7467,9.6135 C147.8817,9.5635 148.0257,9.5365 148.1757,9.4965 C148.0937,9.3605 147.9867,9.2575 147.8377,9.2885 C147.5637,9.3455 147.5067,9.3265 147.4047,9.0545 C147.6057,8.9325 147.8147,8.9215 148.1387,8.9795 C148.2417,8.9975 148.3577,8.9645 148.4637,8.9355 C148.6247,8.8925 148.7817,8.8325 148.9397,8.7775 C148.9637,8.7685 148.9817,8.7465 149.0037,8.7315 C148.9307,8.5585 148.8157,8.4635 148.6437,8.4045 C148.5027,8.3565 148.3097,8.3845 148.2327,8.1955 C148.2307,8.1895 148.1577,8.2175 148.1177,8.2195 C148.0337,8.2225 147.9487,8.2285 147.8677,8.2165 C147.8047,8.2075 147.7447,8.1755 147.6857,8.1485 C147.6317,8.1235 147.5657,8.1035 147.5347,8.0605 C147.5187,8.0375 147.5527,7.9435 147.5847,7.9295 C147.6287,7.9095 147.6927,7.9355 147.7557,7.9425 C147.7817,7.9045 147.8047,7.8325 147.8537,7.8045 C148.1277,7.6475 148.1297,7.6515 148.0007,7.4305 C148.0607,7.3375 148.1147,7.2515 148.1877,7.1375 C148.0957,7.1005 148.0227,7.0535 147.9427,7.0415 C147.8217,7.0245 147.7857,6.9685 147.8107,6.8545 C147.8307,6.7555 147.8437,6.6545 147.8557,6.5805 C147.7707,6.5225 147.6777,6.4895 147.6377,6.4245 C147.4877,6.1835 147.2377,6.0935 147.0077,5.9725 C146.8557,5.8925 146.6897,5.8355 146.5397,5.7485 C146.1517,5.5215 145.7627,5.2955 145.3877,5.0475 C145.1107,4.8645 144.8277,4.6785 144.6837,4.3545 C144.6647,4.3135 144.6337,4.2725 144.5977,4.2475 C144.5017,4.1815 144.5127,4.1145 144.5667,4.0255 C144.6007,3.9725 144.6117,3.9025 144.6217,3.8385 C144.6307,3.7765 144.6057,3.7045 144.6297,3.6505 C144.7507,3.3725 144.8317,3.0875 144.8717,2.7845 C144.8977,2.5975 144.9707,2.4065 145.0627,2.2395 C145.1557,2.0685 145.1667,1.8365 145.0747,1.6605 C144.9727,1.4655 144.8707,1.2575 144.8337,1.0435 C144.8037,0.8695 144.7817,0.7035 144.7207,0.5325 C144.6377,0.3025 144.5047,0.1595 144.2747,0.0965 C144.2197,0.0805 144.1577,0.0715 144.1127,0.0405 C144.0037,-0.0335 143.9287,0.0035 143.8347,0.0775 C143.7027,0.1805 143.5537,0.2615 143.4097,0.3495 C143.3937,0.3595 143.3607,0.3605 143.3427,0.3515 C143.2007,0.2835 143.1157,0.3715 143.0237,0.4555 C142.9697,0.5065 142.9097,0.5565 142.8447,0.5895 C142.5147,0.7545 142.2727,0.9775 142.2877,1.3845 C142.2877,1.3945 142.2837,1.4085 142.2777,1.4165 C142.1907,1.5305 142.1007,1.6415 142.0187,1.7585 C141.9637,1.8365 141.9267,1.9265 141.8707,2.0035 C141.8177,2.0765 141.7547,2.1415 141.6917,2.2065 C141.6597,2.2415 141.5917,2.2695 141.5917,2.3015 C141.5877,2.5225 141.4407,2.5115 141.3127,2.5025 C141.2587,2.6245 141.2377,2.7525 141.1627,2.8225 C140.9607,3.0085 140.8627,3.2385 140.8057,3.4965 C140.7887,3.5665 140.7477,3.6315 140.7217,3.7005 C140.6477,3.8855 140.4937,4.0845 140.5207,4.2555 C140.5667,4.5565 140.3157,4.7495 140.3337,5.0195 C140.3347,5.0285 140.3217,5.0385 140.3147,5.0465 C140.1497,5.2005 140.1087,5.3845 140.1347,5.6065 C140.1497,5.7445 140.1237,5.8985 140.0727,6.0285 C139.9637,6.3095 139.7857,6.5595 139.7197,6.8605 C139.6677,7.0985 139.5527,7.3345 139.5577,7.5695 C139.5637,7.8505 139.4447,8.0385 139.2907,8.2035 C139.2947,8.3565 139.3447,8.5135 139.2907,8.6165 C139.1217,8.9445 139.3247,9.3095 139.1567,9.6295 C139.1487,9.6455 139.1777,9.6795 139.1847,9.7065 C139.2137,9.8205 139.2707,9.9365 139.2627,10.0475 C139.2477,10.2765 139.2237,10.5115 139.1557,10.7295 C139.0657,11.0185 139.2237,11.2535 139.2677,11.5135 C139.2817,11.5975 139.2967,11.6835 139.2937,11.7675" id="Fill-13" fill="#231F20"></path>
                <path d="M151.1736,12.0702 C151.1866,12.0392 151.2026,12.0092 151.2136,11.9772 C151.2366,11.9042 151.2966,11.7902 151.2716,11.7652 C151.1886,11.6832 151.0676,11.5722 150.9716,11.5822 C150.6066,11.6212 150.2456,11.7072 149.8826,11.7662 C149.7656,11.7852 149.6426,11.7742 149.4936,11.7772 C149.5466,11.6972 149.5766,11.6512 149.6096,11.6032 C149.2866,11.6242 148.9876,11.7792 148.6516,11.7482 C148.6796,11.6712 148.7186,11.6212 148.7656,11.5792 C148.8176,11.5332 148.8766,11.4942 148.9326,11.4532 C148.9216,11.4322 148.9096,11.4122 148.8996,11.3922 C148.5206,11.5012 148.1366,11.5952 147.7646,11.7222 C147.4606,11.8262 147.1706,11.9702 146.8746,12.0942 C146.7656,12.1402 146.6546,12.2192 146.5456,12.0892 C146.5336,12.0752 146.4906,12.0792 146.4656,12.0872 C146.1336,12.1832 145.8026,12.2782 145.4726,12.3802 C145.2706,12.4422 145.0706,12.5162 144.8686,12.5802 C144.7106,12.6302 144.6616,12.8022 144.4856,12.8642 C144.1346,12.9872 143.7296,13.0242 143.4696,13.3472 C143.4596,13.3592 143.4386,13.3622 143.4216,13.3672 C143.2856,13.4032 143.1496,13.4362 143.0136,13.4732 C142.9766,13.4832 142.9376,13.4962 142.9036,13.5172 C142.7496,13.6162 142.6086,13.7462 142.4416,13.8132 C142.2636,13.8852 142.0726,13.9092 141.8976,14.0102 C141.5486,14.2112 141.1626,14.3502 140.8226,14.5632 C140.5846,14.7122 140.3966,14.9412 140.1846,15.1322 C140.0906,15.2162 139.9946,15.2992 139.8966,15.3772 C139.6656,15.5562 139.4106,15.7082 139.2996,16.0032 C139.2686,16.0872 139.2116,16.1632 139.1546,16.2342 C139.0986,16.3062 139.0036,16.3572 138.9666,16.4372 C138.8976,16.5862 138.8836,16.7642 138.7996,16.9032 C138.7036,17.0592 138.6846,17.1892 138.7776,17.3472 C138.8546,17.4752 138.7536,17.6772 138.6096,17.7172 C138.5776,17.7262 138.5276,17.7692 138.5316,17.7842 C138.5416,17.8202 138.5736,17.8732 138.6046,17.8792 C138.7966,17.9162 138.9916,17.9192 139.1326,18.1022 C139.1856,18.1722 139.3116,18.2022 139.4086,18.2172 C139.5246,18.2342 139.6456,18.2172 139.7626,18.2102 C139.8366,18.2052 139.9086,18.1882 139.9826,18.1782 C140.0316,18.1712 140.0856,18.1762 140.1326,18.1602 C140.2036,18.1352 140.2916,18.1142 140.3346,18.0612 C140.4556,17.9112 140.5946,17.8362 140.7926,17.8302 C140.9176,17.8272 141.0846,17.7932 141.1546,17.7082 C141.3046,17.5302 141.5086,17.5372 141.6886,17.5042 C141.8666,17.4702 142.0446,17.4682 142.2106,17.3722 C142.2776,17.3342 142.3736,17.3402 142.4566,17.3432 C142.6116,17.3502 142.7686,17.3902 142.9206,17.3762 C143.0206,17.3662 143.1156,17.2902 143.2076,17.2342 C143.2626,17.2002 143.2976,17.1292 143.3546,17.1052 C143.4436,17.0682 143.5496,17.0702 143.6376,17.0312 C143.6986,17.0042 143.7836,16.9382 143.7866,16.8852 C143.7936,16.7392 143.8916,16.6872 143.9916,16.6312 C144.1376,16.5512 144.2886,16.4822 144.4326,16.3982 C144.8786,16.1382 145.3186,15.8662 145.7706,15.6142 C146.0746,15.4452 146.3926,15.2982 146.7086,15.1512 C147.0516,14.9912 147.4036,14.8542 147.7436,14.6882 C148.0176,14.5542 148.2746,14.3862 148.5436,14.2442 C148.8806,14.0662 149.2256,13.9022 149.5626,13.7252 C149.6906,13.6582 149.8096,13.5742 149.9286,13.4922 C150.2056,13.3012 150.4726,13.0942 150.7576,12.9182 C151.1356,12.6852 151.5266,12.4752 151.9126,12.2572 C151.9526,12.2342 152.0026,12.2282 152.0486,12.2142 C152.0266,12.1882 152.0046,12.1622 151.9836,12.1352 C151.7246,12.0162 151.4236,12.3352 151.1736,12.0702" id="Fill-15" fill="#231F20"></path>
                <path d="M148.8387,8.1483 C148.9307,8.1723 148.9867,8.1393 148.9607,8.0323 C148.9527,8.0003 148.9407,7.9693 148.9237,7.9223 C149.0047,7.8973 149.0757,7.8743 149.1607,7.8473 C149.1327,7.7563 149.1117,7.6733 149.0807,7.5953 C149.0677,7.5603 149.0257,7.5043 149.0067,7.5073 C148.9637,7.5163 148.9267,7.5563 148.8897,7.5813 C148.9607,7.6373 149.0097,7.6763 149.0587,7.7143 C149.0417,7.7353 149.0257,7.7563 149.0077,7.7763 C148.9577,7.7483 148.9067,7.7193 148.8147,7.6663 C148.8547,7.7973 148.8837,7.8943 148.9137,7.9933 C148.7467,8.1213 148.7417,7.8343 148.5727,7.8923 C148.5867,7.9413 148.5847,8.0223 148.6237,8.0553 C148.6797,8.1053 148.7637,8.1283 148.8387,8.1483" id="Fill-17" fill="#231F20"></path>
                <path d="M133.9725,16.2025 C133.9385,16.2015 133.8865,16.1825 133.8755,16.1585 C133.8635,16.1295 133.8725,16.0645 133.8955,16.0495 C134.0235,15.9675 134.1585,15.8965 134.2895,15.8215 C134.3015,15.8405 134.3125,15.8605 134.3235,15.8805 C134.2985,15.9785 134.0605,16.2035 133.9725,16.2025 M133.8005,16.7735 C133.7805,16.7525 133.7605,16.7325 133.7405,16.7115 C133.8685,16.5845 133.9975,16.4575 134.1265,16.3305 C134.1435,16.3475 134.1595,16.3645 134.1775,16.3815 C134.0515,16.5125 133.9265,16.6425 133.8005,16.7735 M133.4315,16.7465 C133.4615,16.6175 133.4755,16.5165 133.5105,16.4245 C133.5245,16.3885 133.5835,16.3695 133.6225,16.3425 C133.6435,16.3775 133.6735,16.4105 133.6825,16.4495 C133.7235,16.6275 133.6125,16.6935 133.4315,16.7465 M133.4545,17.1775 C133.2025,17.4235 132.9515,17.6705 132.6875,17.9295 C132.6765,17.7535 133.3065,17.0695 133.5415,17.0015 C133.5065,17.0735 133.4805,17.1255 133.4545,17.1775 M132.5675,17.5165 C132.6205,17.4315 132.6695,17.3435 132.7315,17.2645 C132.7445,17.2465 132.8135,17.2505 132.8355,17.2685 C132.8565,17.2865 132.8685,17.3535 132.8525,17.3695 C132.7855,17.4415 132.7055,17.5025 132.6315,17.5685 C132.6105,17.5505 132.5885,17.5335 132.5675,17.5165 M133.1345,16.8625 C133.1235,17.0135 133.0005,17.0675 132.9015,17.1425 C132.8735,17.1185 132.8475,17.0935 132.8215,17.0695 C132.9115,16.9875 133.0015,16.9065 133.0925,16.8245 C133.1065,16.8375 133.1195,16.8495 133.1345,16.8625 M132.0215,17.5955 C131.9925,17.6225 131.9575,17.6615 131.9225,17.6645 C131.6845,17.6865 131.6475,17.8615 131.5735,18.0475 C131.4395,18.3845 131.1945,18.6545 130.9245,18.8965 C130.8235,18.9885 130.7105,19.0695 130.6145,19.1655 C130.5745,19.2045 130.5625,19.2725 130.5355,19.3265 C130.5065,19.3865 130.4905,19.4625 130.4435,19.4995 C130.3045,19.6085 130.1405,19.6875 130.0115,19.8055 C129.8895,19.9145 129.7995,20.0585 129.6965,20.1885 C129.5695,20.3455 129.4395,20.4995 129.3195,20.6615 C129.2485,20.7575 129.2015,20.8715 129.1305,20.9685 C129.0695,21.0525 128.9985,21.1395 128.9125,21.1965 C128.7675,21.2935 128.6365,21.3885 128.6365,21.5845 C128.6365,21.6185 128.6285,21.6555 128.6125,21.6845 C128.4995,21.8885 128.3785,22.0875 128.2755,22.2965 C128.2515,22.3445 128.2785,22.4235 128.2935,22.4855 C128.3105,22.5515 128.3745,22.6315 128.3545,22.6755 C128.3315,22.7235 128.2365,22.7375 128.1735,22.7695 C128.1205,22.7965 128.0675,22.8235 128.0225,22.8595 C127.9685,22.9025 127.9225,22.9565 127.8725,23.0055 C127.8515,22.9925 127.8285,22.9785 127.8075,22.9655 C127.8725,22.8015 127.9295,22.6325 128.0075,22.4745 C128.1585,22.1705 128.2945,21.8535 128.4845,21.5755 C128.8935,20.9765 129.3355,20.4015 129.7565,19.8115 C129.9215,19.5805 130.0435,19.3155 130.2245,19.0985 C130.5335,18.7315 130.7995,18.3295 131.1695,18.0115 C131.4265,17.7905 131.6365,17.5155 131.8725,17.2695 C132.0925,17.0395 132.2945,16.7825 132.5485,16.5995 C132.7885,16.4285 133.0135,16.2045 133.3295,16.1565 C133.3615,16.1515 133.3845,16.1015 133.4135,16.0765 C133.4625,16.0345 133.5145,15.9955 133.5645,15.9555 C133.5175,16.3245 133.2525,16.4335 132.9815,16.5175 C132.9705,16.5645 132.9735,16.6245 132.9455,16.6565 C132.7675,16.8535 132.5855,17.0485 132.3995,17.2385 C132.2785,17.3625 132.1495,17.4775 132.0215,17.5955 M130.4865,19.8185 C130.5175,19.6445 130.7195,19.3825 130.8345,19.3665 C130.8435,19.4855 130.6265,19.7665 130.4865,19.8185 M128.1755,20.1175 C128.2435,20.0045 128.3365,19.9045 128.4345,19.8135 C128.4535,19.7955 128.5435,19.8325 128.5845,19.8655 C128.6005,19.8785 128.5855,19.9565 128.5635,19.9895 C128.4815,20.1025 128.3905,20.2095 128.3035,20.3185 C128.2805,20.3125 128.2565,20.3075 128.2335,20.3025 C128.2115,20.2395 128.1535,20.1545 128.1755,20.1175 M128.7665,14.8345 C128.6575,14.9295 128.4855,14.9505 128.3445,15.0095 C128.2595,15.0445 128.1805,15.0925 128.0965,15.1285 C128.0745,15.1385 128.0425,15.1285 127.9645,15.1245 C128.0355,15.0435 128.0715,14.9685 128.1275,14.9435 C128.5975,14.7395 129.0715,14.5435 129.5445,14.3485 C129.5745,14.3365 129.6125,14.3455 129.6675,14.3445 C129.6365,14.5045 129.5545,14.5645 129.4165,14.5915 C129.1895,14.6375 128.9595,14.6675 128.7665,14.8345 M131.8885,13.7235 C131.8685,13.7265 131.8125,13.6705 131.8125,13.6435 C131.8155,13.5195 131.8875,13.4755 132.0095,13.4975 C132.0445,13.6215 132.0055,13.6995 131.8885,13.7235 M132.3615,13.5395 C132.2955,13.5785 132.2295,13.6185 132.1635,13.6575 C132.1405,13.6335 132.1175,13.6095 132.0935,13.5845 C132.1325,13.5325 132.1725,13.4785 132.2115,13.4265 C132.2615,13.4635 132.3115,13.5015 132.3615,13.5395 M131.9265,13.0675 C132.0665,13.0445 132.2125,13.0285 132.3425,12.9755 C132.6265,12.8625 132.6885,12.8555 133.0215,13.0225 C132.9035,13.0495 132.8195,13.0755 132.7335,13.0855 C132.5435,13.1075 132.3525,13.1195 132.1615,13.1395 C132.1295,13.1425 132.0895,13.1525 132.0705,13.1735 C131.9135,13.3415 131.7205,13.2695 131.5305,13.2545 C131.6255,13.1075 131.7765,13.0925 131.9265,13.0675 M133.2935,13.9405 C133.3095,14.1485 133.2325,14.2155 133.0475,14.2195 C133.0355,14.2045 133.0245,14.1885 133.0125,14.1735 C133.0975,14.1035 133.1815,14.0335 133.2935,13.9405 M138.8925,14.0005 C138.9075,13.8865 138.9245,13.7695 138.9155,13.6555 C138.9015,13.4615 138.8495,13.2685 138.8455,13.0755 C138.8415,12.8575 138.7335,12.7535 138.5405,12.6995 C138.3675,12.6505 138.2555,12.5335 138.1865,12.3655 C138.1125,12.1865 137.9415,12.1225 137.7745,12.0795 C137.7055,12.0615 137.6205,12.1085 137.5425,12.1255 C137.5105,12.1325 137.4775,12.1405 137.4355,12.1505 C137.4135,12.0805 137.3935,12.0165 137.3805,11.9775 C137.3025,12.0125 137.2275,12.0465 137.1525,12.0795 C137.1275,11.9885 137.1035,11.8965 137.0715,11.7775 C136.7975,11.7685 136.4735,11.7575 136.1875,11.7475 C136.1285,11.8185 136.0905,11.8635 136.0525,11.9095 C136.0215,11.8665 135.9905,11.8245 135.9465,11.7625 C135.8805,11.7895 135.8035,11.8215 135.7265,11.8535 L135.6915,11.9055 C135.7495,11.9415 135.8125,11.9735 135.8665,12.0155 C135.9025,12.0445 135.9255,12.0885 135.9545,12.1265 C135.9125,12.1525 135.8745,12.1885 135.8285,12.2025 C135.6705,12.2515 135.5115,12.3055 135.3485,12.3325 C135.1055,12.3745 134.8585,12.3995 134.6125,12.4235 C134.5755,12.4265 134.5345,12.3775 134.4925,12.3615 C134.4465,12.3445 134.3945,12.3245 134.3485,12.3295 C134.1815,12.3485 134.0165,12.3825 133.8495,12.4015 C133.6525,12.4245 133.4535,12.4365 133.2495,12.4545 C133.2465,12.4975 133.2435,12.5575 133.2375,12.6515 C133.1495,12.6255 133.0785,12.6075 133.0105,12.5835 C132.9695,12.5705 132.9275,12.5255 132.8955,12.5335 C132.6605,12.5895 132.4285,12.6505 132.1985,12.7205 C131.9985,12.7805 131.8045,12.8535 131.6195,12.9165 C131.2775,13.1965 130.8395,13.2815 130.4615,13.4895 C130.6275,13.4675 130.7795,13.4035 130.9365,13.3625 C131.0915,13.3235 131.2535,13.3075 131.4115,13.2815 C131.4185,13.2995 131.4245,13.3175 131.4305,13.3345 C131.3865,13.3895 131.3435,13.4455 131.2985,13.4995 C131.1865,13.6325 130.7815,13.7055 130.6315,13.6355 C130.5845,13.6135 130.4685,13.6295 130.4645,13.6475 C130.4255,13.8065 130.2965,13.8025 130.1795,13.8315 C130.1325,13.8425 130.0865,13.8795 130.0505,13.9155 C129.9045,14.0625 129.8755,14.0565 129.7975,13.8385 C129.7025,13.8765 129.6115,13.9205 129.5155,13.9525 C129.3255,14.0165 129.1325,14.0745 128.9415,14.1365 C128.9275,14.1405 128.9095,14.1565 128.9065,14.1695 C128.8635,14.3325 128.7555,14.3695 128.6015,14.3475 C128.5585,14.3405 128.5075,14.3815 128.4615,14.4015 C128.3825,14.4365 128.3055,14.4735 128.2275,14.5095 C128.0605,14.5845 127.8575,14.6215 127.7345,14.7425 C127.5575,14.9145 127.3375,14.9415 127.1435,14.9415 C126.9745,14.9415 126.8125,14.9415 126.6605,15.0015 C126.5875,15.0305 126.5355,15.1135 126.4775,15.1745 C126.4245,15.2295 126.3835,15.3275 126.3255,15.3375 C126.1785,15.3635 126.0265,15.4475 125.8725,15.3425 C125.8465,15.3245 125.7925,15.3305 125.7565,15.3425 C125.2235,15.5125 124.6925,15.6845 124.1605,15.8575 C124.1395,15.8645 124.1185,15.8795 124.1035,15.8955 C123.9115,16.0985 123.6535,16.1575 123.4045,16.2505 C123.2025,16.3265 123.0025,16.4555 122.8495,16.6085 C122.5215,16.9345 122.2225,17.2895 121.9135,17.6345 C121.6405,17.9405 121.3655,18.2455 121.0985,18.5575 C120.9345,18.7505 120.9465,18.7915 121.1605,18.9245 C121.2045,18.9515 121.2515,18.9735 121.2995,18.9925 C121.4065,19.0345 121.4155,19.1005 121.3435,19.1785 C121.2925,19.2335 121.2295,19.2765 121.1755,19.3285 C121.0965,19.4075 121.0215,19.4905 120.9305,19.5855 C120.9975,19.6065 121.0255,19.6175 121.0525,19.6235 C121.2555,19.6705 121.2495,19.6675 121.1815,19.8595 C121.1535,19.9405 121.1565,20.0335 121.1395,20.1565 C121.3925,20.1375 121.6115,20.1335 121.8255,20.1015 C122.0445,20.0695 122.2615,20.0105 122.4795,19.9615 C122.5925,19.9365 122.7125,19.8965 122.7155,20.0355 C122.9925,19.9915 123.2655,19.9355 123.5415,19.9065 C123.8435,19.8745 124.1485,19.8695 124.4515,19.8485 C124.4875,19.8455 124.5215,19.8115 124.5575,19.7965 C124.6045,19.7765 124.6525,19.7515 124.7025,19.7435 C124.9965,19.6975 125.2905,19.6495 125.5865,19.6135 C126.0305,19.5585 126.3685,19.2875 126.7365,19.0775 C126.9705,18.9425 127.1255,18.6685 127.4435,18.6775 C127.4755,18.6785 127.5095,18.6345 127.5405,18.6095 C127.8085,18.3915 128.0765,18.1745 128.3505,17.9505 C128.2835,17.7365 128.2835,17.7365 128.5215,17.6225 C128.7035,17.5355 128.8855,17.4465 129.0705,17.3645 C129.1055,17.3485 129.1525,17.3565 129.1945,17.3535 C129.2035,17.3675 129.2145,17.3815 129.2245,17.3955 C129.1425,17.5025 129.0695,17.6175 128.9775,17.7165 C128.8065,17.9005 128.6255,18.0765 128.4495,18.2565 C128.2235,18.4865 128.0925,18.7925 127.8285,18.9985 C127.7005,19.0985 127.6335,19.2765 127.5235,19.4055 C127.3755,19.5775 127.2445,19.7535 127.2025,19.9835 C127.1935,20.0305 127.1355,20.1035 127.1025,20.1025 C126.9365,20.0995 126.8965,20.2215 126.8365,20.3325 C126.7945,20.4115 126.7625,20.5155 126.6945,20.5565 C126.4695,20.6935 126.3945,20.8935 126.3805,21.1395 C126.3775,21.1935 126.3225,21.2445 126.2905,21.2975 C126.2505,21.2725 126.2115,21.2475 126.1585,21.2135 C126.0635,21.3895 125.9565,21.5585 125.8805,21.7405 C125.8405,21.8345 125.8565,21.9515 125.8415,22.0565 C125.8335,22.1195 125.8275,22.1885 125.7975,22.2425 C125.6975,22.4265 125.5685,22.5835 125.5775,22.8265 C125.5845,22.9715 125.6265,23.2025 125.3785,23.2715 C125.3595,23.2775 125.3445,23.3995 125.3685,23.4455 C125.4215,23.5405 125.5005,23.6215 125.5705,23.7085 L125.6665,23.7395 C125.6205,23.7545 125.5725,23.7635 125.5295,23.7855 C125.4135,23.8445 125.4105,23.9505 125.4385,24.0545 C125.4785,24.2025 125.5355,24.3445 125.5775,24.4915 C125.5885,24.5325 125.5945,24.5955 125.5725,24.6225 C125.3685,24.8745 125.4985,25.0795 125.6495,25.2965 C125.6895,25.0495 125.7285,24.8175 125.7645,24.5845 C125.7995,24.3625 125.8895,24.2845 126.0815,24.3325 C126.1015,24.2285 126.1195,24.1265 126.1395,24.0245 C126.1225,24.0355 126.1065,24.0465 126.0885,24.0575 C126.0245,24.0165 125.9085,23.9775 125.9055,23.9335 C125.9015,23.8485 125.9515,23.7525 126.0005,23.6755 C126.0175,23.6505 126.1355,23.6485 126.1515,23.6725 C126.2145,23.7715 126.2895,23.7495 126.3745,23.7235 C126.4825,23.6895 126.5045,23.7385 126.5245,23.8425 C126.5535,23.9955 126.6205,24.1425 126.6715,24.2915 C126.7765,24.2545 126.8695,24.1845 126.9445,24.2015 C127.0915,24.2355 127.1735,24.1995 127.2285,24.0665 C127.2395,24.0415 127.2605,24.0115 127.2845,24.0015 C127.4985,23.9195 127.5735,23.7375 127.6255,23.5365 C127.6465,23.4595 127.6655,23.3805 127.6985,23.3075 C127.7395,23.2145 127.7925,23.1275 127.8345,23.0495 C127.9365,23.1545 128.0165,23.2305 128.0875,23.3145 C128.1145,23.3465 128.1345,23.3995 128.1285,23.4395 C128.1165,23.5475 128.0915,23.6555 128.0645,23.7605 C128.0015,23.9945 127.9165,24.2245 127.8755,24.4625 C127.8555,24.5825 127.9105,24.7165 127.9315,24.8445 C128.0215,24.8275 128.1125,24.8105 128.2025,24.7935 C128.2085,24.7925 128.2135,24.7915 128.2195,24.7915 C128.4095,24.7855 128.4915,24.6535 128.5495,24.5025 C128.6395,24.2675 128.6605,23.9975 128.9035,23.8405 C128.9455,23.8135 128.9655,23.7455 128.9855,23.6925 C129.0275,23.5785 129.0445,23.4535 129.1015,23.3485 C129.3345,22.9185 129.5745,22.4905 129.8235,22.0695 C129.9205,21.9035 130.0575,21.7615 130.1655,21.6005 C130.3705,21.2965 130.5585,20.9795 130.7725,20.6805 C130.9675,20.4085 131.1805,20.1485 131.3965,19.8925 C131.6375,19.6075 131.8895,19.3335 132.1395,19.0565 C132.2075,18.9825 132.3235,18.9315 132.3555,18.8455 C132.4935,18.4815 132.7655,18.2265 133.0315,17.9645 C133.0375,17.9585 133.0375,17.9445 133.0405,17.9315 C132.9935,17.9285 132.9455,17.9255 132.8485,17.9185 C133.1165,17.7405 133.3455,17.5865 133.5765,17.4325 C133.5525,17.4195 133.5305,17.4075 133.5065,17.3945 C133.4925,17.3215 133.4765,17.2485 133.4605,17.1755 C133.5275,17.1465 133.6045,17.1295 133.6565,17.0835 C133.7795,16.9725 133.8785,16.8335 134.0065,16.7295 C134.2415,16.5375 134.4835,16.3565 134.7305,16.1825 C134.9525,16.0255 135.1135,15.7685 135.4215,15.7435 C135.4535,15.7405 135.4825,15.6935 135.5125,15.6655 C135.7495,15.4445 136.0355,15.3075 136.3445,15.2305 C136.6565,15.1525 136.9765,15.1115 137.2935,15.0555 C137.3035,15.0545 137.3155,15.0605 137.3325,15.0645 C137.3425,15.1045 137.3535,15.1465 137.3635,15.1865 C137.6305,15.1585 137.8885,15.1365 138.1455,15.1015 C138.2895,15.0825 138.4185,14.9095 138.3625,14.8085 C138.2695,14.6415 138.3475,14.5745 138.4915,14.5055 C138.7025,14.4045 138.8585,14.2465 138.8925,14.0005" id="Fill-19" fill="#231F20"></path>
                <path d="M122.5877,9.642 C122.6327,9.676 122.6987,9.701 122.7197,9.746 C122.7887,9.901 122.8167,10.063 122.7137,10.22 C122.7017,10.238 122.6847,10.252 122.6667,10.264 C122.6587,10.269 122.6447,10.264 122.6087,10.262 C122.5627,10.116 122.5017,9.978 122.4807,9.835 C122.4727,9.777 122.5497,9.707 122.5877,9.642 M124.1897,9.642 C124.2337,9.676 124.3007,9.701 124.3207,9.746 C124.3917,9.901 124.4177,10.063 124.3157,10.22 C124.3047,10.238 124.2857,10.252 124.2687,10.264 C124.2607,10.269 124.2457,10.264 124.2107,10.262 C124.1637,10.116 124.1037,9.978 124.0827,9.835 C124.0737,9.777 124.1507,9.707 124.1897,9.642 M122.2547,8.91 C122.3947,9.038 122.4127,9.165 122.3927,9.331 C122.3657,9.531 122.4017,9.74 122.4267,9.944 C122.4617,10.229 122.4957,10.516 122.5567,10.796 C122.6197,11.086 122.4907,11.431 122.7927,11.659 C122.8277,11.685 122.8367,11.753 122.8467,11.804 C122.8677,11.923 122.8747,12.045 122.9007,12.163 C122.9407,12.337 122.9307,12.493 122.8617,12.667 C122.8027,12.817 122.7767,13.015 122.9177,13.158 C123.0137,13.256 123.1307,13.331 123.2357,13.419 C123.3347,13.501 123.4247,13.6 123.5747,13.515 C123.5967,13.502 123.6677,13.53 123.6797,13.556 C123.7527,13.715 123.8777,13.777 124.0447,13.788 C124.0787,13.79 124.1087,13.834 124.1427,13.855 C124.1647,13.869 124.1947,13.891 124.2137,13.885 C124.3577,13.837 124.4847,13.836 124.6427,13.887 C124.8537,13.954 125.0767,13.877 125.2837,13.778 C125.3657,13.739 125.4887,13.711 125.5627,13.745 C125.7317,13.822 125.8747,13.771 126.0187,13.707 C126.1547,13.647 126.2767,13.555 126.4147,13.499 C126.7097,13.379 127.0157,13.288 127.3047,13.158 C127.4857,13.077 127.6497,12.949 127.8167,12.836 C127.9167,12.768 128.0807,12.746 128.0357,12.558 C128.0327,12.543 128.0687,12.511 128.0937,12.498 C128.3567,12.358 128.6147,12.205 128.8877,12.085 C129.2477,11.925 129.6487,11.882 130.0067,11.694 C130.2767,11.552 130.5887,11.488 130.8837,11.392 C131.1687,11.299 131.4567,11.211 131.7417,11.118 C131.9387,11.052 132.1297,10.967 132.3297,10.913 C132.6007,10.842 132.8777,10.795 133.1507,10.733 C133.3457,10.688 133.4667,10.551 133.5577,10.385 C133.7147,10.099 133.8667,9.81 133.5697,9.517 C133.5637,9.509 133.5567,9.494 133.5597,9.485 C133.6067,9.313 133.4737,9.291 133.3807,9.267 C133.2637,8.828 133.4507,8.357 133.1447,7.971 C133.1357,7.959 133.1457,7.935 133.1397,7.92 C133.1127,7.857 133.1007,7.758 133.0547,7.74 C132.8137,7.643 132.5687,7.539 132.3157,7.491 C132.1207,7.454 131.9117,7.5 131.7087,7.5 C131.5457,7.5 131.3817,7.486 131.2157,7.477 C131.2207,7.504 131.2287,7.551 131.2437,7.644 C131.1347,7.61 131.0547,7.582 130.9717,7.559 C130.9307,7.548 130.8827,7.529 130.8457,7.54 C130.6217,7.608 130.3647,7.573 130.1807,7.762 C130.1607,7.783 130.1147,7.78 130.0807,7.782 C129.6447,7.808 129.2527,7.982 128.8557,8.141 C128.5387,8.266 128.2227,8.391 127.8997,8.497 C127.7537,8.545 127.5897,8.536 127.4387,8.57 C127.1257,8.642 126.8197,8.683 126.5657,8.43 C126.5077,8.372 126.4427,8.281 126.4467,8.209 C126.4627,7.944 126.5067,7.681 126.5377,7.417 C126.5697,7.151 126.6207,6.886 126.5177,6.62 C126.4927,6.557 126.5187,6.475 126.5147,6.401 C126.5087,6.284 126.4967,6.167 126.4867,6.05 C126.4807,5.971 126.4767,5.892 126.4677,5.813 C126.4527,5.685 126.4417,5.558 126.4167,5.433 C126.3957,5.322 126.3337,5.215 126.3317,5.106 C126.3257,4.88 126.3497,4.654 126.3577,4.427 C126.3717,4.034 126.3037,3.657 126.1587,3.289 C126.0577,3.03 125.9627,2.773 125.9637,2.475 C125.9657,2.252 125.8577,2.02 125.7597,1.809 C125.6507,1.572 125.5037,1.35 125.3597,1.13 C125.3107,1.054 125.2307,0.975 125.1477,0.947 C124.9107,0.868 124.6697,0.794 124.4247,0.756 C124.2837,0.735 124.1057,0.746 123.9927,0.818 C123.8497,0.912 123.7437,1.073 123.6427,1.22 C123.5337,1.375 123.5037,1.585 123.3007,1.676 C123.2667,1.691 123.2577,1.766 123.2367,1.814 C123.1807,1.95 123.1247,2.087 123.0677,2.224 C123.0287,2.318 122.9827,2.409 122.9487,2.506 C122.8937,2.665 122.8587,2.832 122.7937,2.988 C122.7317,3.14 122.6397,3.279 122.5667,3.427 C122.5507,3.459 122.5447,3.508 122.5567,3.541 C122.6667,3.867 122.5587,4.191 122.5357,4.511 C122.5057,4.939 122.3937,5.362 122.3477,5.79 C122.3097,6.144 122.3167,6.502 122.3037,6.859 C122.2957,7.06 122.2827,7.263 122.2797,7.465 C122.2747,7.821 122.2737,8.177 122.2717,8.534 C122.2707,8.612 122.2497,8.694 122.3797,8.706 C122.5017,8.718 122.4917,8.812 122.4637,8.905 C122.4007,8.907 122.3417,8.908 122.2547,8.91" id="Fill-21" fill="#231F20"></path>
                <g id="Group-25" transform="translate(132.000000, 17.627100)">
                    <mask id="mask-2" fill="white">
                        <use xlink:href="#path-1"></use>
                    </mask>
                    <g id="Clip-24"></g>
                    <path d="M2.4705,9.3337 C2.4445,9.2977 2.4015,9.2637 2.3985,9.2257 C2.3955,9.1947 2.4415,9.1607 2.4655,9.1287 C2.4995,9.1547 2.5335,9.1817 2.5915,9.2267 C2.5355,9.2757 2.5025,9.3047 2.4705,9.3337 M2.5055,7.3817 C2.5225,7.3877 2.5385,7.3937 2.5555,7.3987 C2.5565,7.4557 2.5695,7.5147 2.5555,7.5667 C2.5405,7.6167 2.4975,7.6587 2.4685,7.7047 C2.4535,7.6487 2.4225,7.5917 2.4295,7.5397 C2.4365,7.4847 2.4795,7.4347 2.5055,7.3817 M1.7735,9.9377 C1.7455,9.8847 1.7065,9.8347 1.6975,9.7807 C1.6915,9.7517 1.7365,9.7137 1.7575,9.6797 C1.7925,9.7207 1.8275,9.7607 1.8745,9.8157 C1.8295,9.8697 1.8015,9.9037 1.7735,9.9377 M1.4145,9.9137 C1.4065,9.9247 1.3405,9.9117 1.3245,9.8917 C1.3055,9.8647 1.2915,9.7977 1.3055,9.7867 C1.4435,9.6737 1.3465,9.5917 1.2915,9.4867 C1.2615,9.4287 1.2925,9.3367 1.2965,9.2607 C1.3615,9.2677 1.4385,9.2557 1.4865,9.2877 C1.5205,9.3097 1.5145,9.3907 1.5285,9.4457 C1.5445,9.5117 1.5645,9.5777 1.5895,9.6697 C1.5395,9.7417 1.4825,9.8317 1.4145,9.9137 M0.8685,9.3337 C0.8425,9.2977 0.7995,9.2637 0.7965,9.2257 C0.7935,9.1947 0.8395,9.1607 0.8645,9.1287 C0.8985,9.1547 0.9325,9.1817 0.9905,9.2267 C0.9345,9.2757 0.9015,9.3047 0.8685,9.3337 M0.9045,7.3817 C0.9205,7.3877 0.9375,7.3937 0.9535,7.3987 C0.9545,7.4557 0.9675,7.5147 0.9525,7.5667 C0.9395,7.6167 0.8965,7.6587 0.8665,7.7047 C0.8525,7.6487 0.8215,7.5917 0.8275,7.5397 C0.8345,7.4847 0.8765,7.4347 0.9045,7.3817 M4.5995,1.8517 C4.5115,1.8777 4.4395,1.8907 4.4345,1.8777 C4.3635,1.6867 4.2905,1.4947 4.2405,1.2977 C4.1825,1.0727 4.2435,0.8267 4.1075,0.6137 C4.0155,0.4717 3.9425,0.3167 3.8565,0.1707 C3.8145,0.0997 3.6555,0.1037 3.5935,0.1737 C3.5605,0.2127 3.5315,0.2567 3.4965,0.2957 C3.4025,0.4047 3.2805,0.4987 3.2135,0.6227 C3.0515,0.9227 2.9885,1.2697 2.7415,1.5347 C2.5255,1.7657 2.3465,2.0327 2.1485,2.2797 C2.0695,2.3777 1.9785,2.4667 1.8945,2.5617 C1.8045,2.6637 1.7265,2.7807 1.6245,2.8687 C1.1305,3.2967 0.8755,3.8167 0.9705,4.4827 C0.9745,4.5137 0.9675,4.5617 0.9475,4.5777 C0.8015,4.6917 0.8155,4.8297 0.8585,4.9867 C0.8995,5.1407 0.8465,5.1947 0.6915,5.2097 C0.6585,5.2137 0.6015,5.2597 0.6015,5.2867 C0.6015,5.4717 0.4715,5.6567 0.6025,5.8437 C0.6255,5.8777 0.6255,5.9327 0.6255,5.9787 C0.6265,6.1387 0.6255,6.2987 0.6205,6.4587 C0.6185,6.5147 0.6035,6.5707 0.5955,6.6257 C0.5725,6.7987 0.3775,6.9387 0.5675,7.1517 C0.7365,7.3417 0.6565,7.4707 0.3955,7.4907 C0.2965,7.4987 0.2475,7.5377 0.2715,7.6277 C0.3205,7.8137 0.3865,7.9947 0.4375,8.1787 C0.4615,8.2687 0.5155,8.4027 0.4765,8.4457 C0.3445,8.5937 0.4355,8.7067 0.5005,8.8407 C0.3205,8.8597 0.3125,8.9937 0.3425,9.1097 C0.3545,9.1557 0.4715,9.1747 0.5595,9.2147 C0.6425,9.3807 0.4735,9.4897 0.3935,9.6247 C0.4485,9.6617 0.4905,9.6897 0.5305,9.7167 C0.4815,9.9507 0.6575,10.4287 0.7755,10.4477 C0.9035,10.2397 0.6515,9.9787 0.8795,9.7607 C0.9925,10.0007 1.0955,10.2187 1.1995,10.4377 C1.2155,10.4327 1.2335,10.4287 1.2505,10.4237 C1.2505,10.2207 1.3825,10.2227 1.5155,10.2507 C1.4845,10.1717 1.4565,10.1037 1.4285,10.0357 C1.4875,10.0127 1.5455,9.9907 1.5785,9.9777 C1.6455,10.1087 1.6955,10.2087 1.7495,10.3167 C1.9405,10.1657 1.9785,10.1787 2.0215,10.3767 C2.0675,10.5907 2.1125,10.8047 2.1595,11.0307 C2.2535,10.9927 2.3105,10.9687 2.3975,10.9337 C2.3505,10.7977 2.3355,10.6377 2.2505,10.5377 C2.1275,10.3927 2.0755,10.2507 2.1295,10.0757 C2.1875,9.8897 2.2595,9.7087 2.3435,9.4747 C2.7515,10.2957 2.7145,11.1887 3.0535,12.0007 C3.0465,11.2777 2.7645,10.6047 2.8245,9.8927 C2.8835,9.9477 2.9245,10.0097 2.9425,10.0777 C3.0165,10.3747 3.0825,10.6727 3.1535,10.9717 C3.1655,10.9697 3.1785,10.9667 3.1915,10.9647 C3.1865,10.8987 3.1855,10.8327 3.1755,10.7677 C3.0985,10.2467 2.9255,9.7387 2.9605,9.2017 C2.9795,8.9137 2.9685,8.6247 2.9895,8.3367 C3.0075,8.0787 3.0455,7.8217 3.0835,7.5647 C3.1005,7.4477 3.1285,7.3287 3.1725,7.2187 C3.2165,7.1077 3.3075,7.0137 3.3405,6.9017 C3.3955,6.7147 3.4205,6.5187 3.4575,6.3267 C3.4945,6.1297 3.5135,5.9277 3.5735,5.7387 C3.6125,5.6147 3.6885,5.4797 3.7875,5.4017 C3.9245,5.2947 3.9855,5.1677 4.0475,5.0147 C4.1735,4.7037 4.3345,4.4067 4.6635,4.2517 C4.7775,4.1987 4.8045,4.0547 4.7335,4.0087 C4.5845,3.9137 4.6635,3.8327 4.6965,3.7357 C4.7175,3.6707 4.7245,3.6007 4.7475,3.5367 C4.8305,3.3057 4.6655,3.0357 4.8625,2.8227 C4.8755,2.8077 4.8665,2.7647 4.8585,2.7377 C4.7735,2.4417 4.6865,2.1467 4.5995,1.8517" id="Fill-23" fill="#231F20" mask="url(#mask-2)"></path>
                </g>
                <path d="M5.1717,20.9223 L4.0767,20.9223 L2.6737,22.6483 C2.6377,22.6943 2.6007,22.7423 2.5637,22.7923 L2.5637,20.9223 L1.7007,20.9223 L1.7007,25.6553 L2.5637,25.6553 L2.5637,23.8703 L2.8257,23.5663 L4.2277,25.6553 L5.2557,25.6553 L3.4307,22.9633 L5.1717,20.9223 Z" id="Fill-26" fill="#231F20"></path>
                <path d="M6.6907,25.1488 C6.1237,25.1488 5.7217,24.6208 5.7217,23.9218 C5.7217,23.3158 6.0187,22.6828 6.7037,22.6828 C7.3897,22.6828 7.6607,23.3688 7.6607,23.9088 C7.6607,24.6278 7.2447,25.1488 6.6907,25.1488 M6.7167,22.2478 C5.8337,22.2478 5.1347,22.8748 5.1347,23.9418 C5.1347,24.9508 5.8007,25.5838 6.6647,25.5838 C7.4367,25.5838 8.2527,25.0688 8.2527,23.8898 C8.2527,22.9138 7.6337,22.2478 6.7167,22.2478" id="Fill-28" fill="#231F20"></path>
                <path d="M9.4798,22.9467 L9.4538,22.9467 L9.4338,22.3207 L8.9258,22.3207 C8.9458,22.6167 8.9518,22.9397 8.9518,23.3157 L8.9518,25.5107 L9.5258,25.5107 L9.5258,23.8097 C9.5258,23.7117 9.5388,23.6187 9.5518,23.5397 C9.6308,23.1047 9.9218,22.7947 10.3308,22.7947 C10.4088,22.7947 10.4688,22.8007 10.5278,22.8147 L10.5278,22.2677 C10.4758,22.2547 10.4288,22.2477 10.3628,22.2477 C9.9738,22.2477 9.6248,22.5177 9.4798,22.9467" id="Fill-30" fill="#231F20"></path>
                <path d="M11.3392,23.6058 C11.3852,23.2038 11.6422,22.6628 12.2292,22.6628 C12.8822,22.6628 13.0402,23.2368 13.0332,23.6058 L11.3392,23.6058 Z M12.2752,22.2478 C11.3452,22.2478 10.7782,23.0058 10.7782,23.9678 C10.7782,24.9308 11.3652,25.5778 12.3482,25.5778 C12.8562,25.5778 13.2052,25.4718 13.4092,25.3788 L13.3102,24.9638 C13.0932,25.0568 12.8422,25.1288 12.4272,25.1288 C11.8472,25.1288 11.3452,24.8058 11.3332,24.0208 L13.5742,24.0208 C13.5812,23.9618 13.5942,23.8698 13.5942,23.7508 C13.5942,23.1638 13.3172,22.2478 12.2752,22.2478 Z" id="Fill-32" fill="#231F20"></path>
                <path d="M15.9608,24.4364 C15.9608,24.4964 15.9478,24.5614 15.9278,24.6214 C15.8358,24.8924 15.5718,25.1554 15.1568,25.1554 C14.8598,25.1554 14.6088,24.9774 14.6088,24.6014 C14.6088,23.9814 15.3278,23.8694 15.9608,23.8834 L15.9608,24.4364 Z M16.5208,23.5524 C16.5208,22.9134 16.2838,22.2484 15.3078,22.2484 C14.9058,22.2484 14.5238,22.3594 14.2598,22.5314 L14.3918,22.9134 C14.6158,22.7684 14.9258,22.6764 15.2218,22.6764 C15.8748,22.6764 15.9478,23.1504 15.9478,23.4154 L15.9478,23.4804 C14.7148,23.4744 14.0288,23.8954 14.0288,24.6674 C14.0288,25.1284 14.3588,25.5834 15.0048,25.5834 C15.4598,25.5834 15.8028,25.3594 15.9808,25.1094 L16.0008,25.1094 L16.0458,25.5114 L16.5738,25.5114 C16.5338,25.2934 16.5208,25.0234 16.5208,24.7464 L16.5208,23.5524 Z" id="Fill-34" fill="#231F20"></path>
                <path d="M21.8885,21.6215 C22.2015,21.6215 22.4975,21.6815 22.7215,21.7915 L22.8755,21.8665 L23.0965,21.1205 L22.9905,21.0645 C22.8945,21.0145 22.5295,20.8505 21.8685,20.8505 C20.4165,20.8505 19.4035,21.8695 19.4035,23.3295 C19.4035,24.7825 20.3225,25.7225 21.7435,25.7225 C22.3225,25.7225 22.7635,25.6055 22.9815,25.4965 L23.0865,25.4435 L22.8935,24.7045 L22.7355,24.7805 C22.5195,24.8855 22.1845,24.9505 21.8625,24.9505 C20.8835,24.9505 20.2985,24.3375 20.2985,23.3085 C20.2985,22.2515 20.8935,21.6215 21.8885,21.6215" id="Fill-36" fill="#231F20"></path>
                <path d="M23.8401,23.6058 C23.8861,23.2038 24.1431,22.6628 24.7301,22.6628 C25.3821,22.6628 25.5411,23.2368 25.5341,23.6058 L23.8401,23.6058 Z M24.7761,22.2478 C23.8461,22.2478 23.2791,23.0058 23.2791,23.9678 C23.2791,24.9308 23.8661,25.5778 24.8491,25.5778 C25.3571,25.5778 25.7061,25.4718 25.9101,25.3788 L25.8111,24.9638 C25.5941,25.0568 25.3431,25.1288 24.9281,25.1288 C24.3471,25.1288 23.8461,24.8058 23.8331,24.0208 L26.0751,24.0208 C26.0811,23.9618 26.0951,23.8698 26.0951,23.7508 C26.0951,23.1638 25.8181,22.2478 24.7761,22.2478 Z" id="Fill-38" fill="#231F20"></path>
                <path d="M28.3694,22.2479 C27.8424,22.2479 27.4734,22.5439 27.3144,22.8479 L27.3014,22.8479 L27.2684,22.3199 L26.7544,22.3199 C26.7744,22.5839 26.7804,22.8539 26.7804,23.1839 L26.7804,25.5109 L27.3604,25.5109 L27.3604,23.5929 C27.3604,23.4939 27.3734,23.3949 27.4004,23.3229 C27.4994,22.9989 27.7964,22.7289 28.1784,22.7289 C28.7254,22.7289 28.9164,23.1579 28.9164,23.6719 L28.9164,25.5109 L29.4964,25.5109 L29.4964,23.6059 C29.4964,22.5109 28.8114,22.2479 28.3694,22.2479" id="Fill-40" fill="#231F20"></path>
                <path d="M31.0794,21.4037 L30.5124,21.5547 L30.5124,22.3207 L30.0174,22.3207 L30.0174,22.7617 L30.5124,22.7617 L30.5124,24.5027 C30.5124,24.8787 30.5714,25.1617 30.7364,25.3327 C30.8744,25.4917 31.0924,25.5777 31.3634,25.5777 C31.5864,25.5777 31.7654,25.5437 31.8774,25.4977 L31.8504,25.0627 C31.7784,25.0827 31.6664,25.1027 31.5144,25.1027 C31.1914,25.1027 31.0794,24.8787 31.0794,24.4827 L31.0794,22.7617 L31.9104,22.7617 L31.9104,22.3207 L31.0794,22.3207 L31.0794,21.4037 Z" id="Fill-42" fill="#231F20"></path>
                <path d="M32.8196,23.6058 C32.8656,23.2038 33.1236,22.6628 33.7096,22.6628 C34.3626,22.6628 34.5206,23.2368 34.5146,23.6058 L32.8196,23.6058 Z M33.7566,22.2478 C32.8266,22.2478 32.2596,23.0058 32.2596,23.9678 C32.2596,24.9308 32.8456,25.5778 33.8286,25.5778 C34.3366,25.5778 34.6856,25.4718 34.8906,25.3788 L34.7916,24.9638 C34.5736,25.0568 34.3226,25.1288 33.9076,25.1288 C33.3276,25.1288 32.8266,24.8058 32.8136,24.0208 L35.0546,24.0208 C35.0616,23.9618 35.0746,23.8698 35.0746,23.7508 C35.0746,23.1638 34.7976,22.2478 33.7566,22.2478 Z" id="Fill-44" fill="#231F20"></path>
                <path d="M36.2874,22.9467 L36.2614,22.9467 L36.2414,22.3207 L35.7334,22.3207 C35.7534,22.6167 35.7604,22.9397 35.7604,23.3157 L35.7604,25.5107 L36.3334,25.5107 L36.3334,23.8097 C36.3334,23.7117 36.3474,23.6187 36.3604,23.5397 C36.4394,23.1047 36.7294,22.7947 37.1384,22.7947 C37.2174,22.7947 37.2764,22.8007 37.3364,22.8147 L37.3364,22.2677 C37.2834,22.2547 37.2374,22.2477 37.1714,22.2477 C36.7824,22.2477 36.4324,22.5177 36.2874,22.9467" id="Fill-46" fill="#231F20"></path>
                <path d="M39.8812,22.1488 C39.8812,21.6608 40.0062,21.2258 40.5012,21.2258 C40.6662,21.2258 40.7842,21.2588 40.8702,21.2978 L40.9492,20.8498 C40.8372,20.8038 40.6592,20.7578 40.4552,20.7578 C40.1842,20.7578 39.8942,20.8428 39.6762,21.0548 C39.4062,21.3118 39.3072,21.7198 39.3072,22.1688 L39.3072,22.3198 L38.8592,22.3198 L38.8592,22.7618 L39.3072,22.7618 L39.3072,25.5108 L39.8812,25.5108 L39.8812,22.7618 L40.6522,22.7618 L40.6522,22.3198 L39.8812,22.3198 L39.8812,22.1488 Z" id="Fill-48" fill="#231F20"></path>
                <path d="M42.3797,25.1488 C41.8127,25.1488 41.4107,24.6208 41.4107,23.9218 C41.4107,23.3158 41.7077,22.6828 42.3937,22.6828 C43.0787,22.6828 43.3487,23.3688 43.3487,23.9088 C43.3487,24.6278 42.9337,25.1488 42.3797,25.1488 M42.4057,22.2478 C41.5227,22.2478 40.8237,22.8748 40.8237,23.9418 C40.8237,24.9508 41.4897,25.5838 42.3537,25.5838 C43.1247,25.5838 43.9427,25.0688 43.9427,23.8898 C43.9427,22.9138 43.3227,22.2478 42.4057,22.2478" id="Fill-50" fill="#231F20"></path>
                <path d="M45.1683,22.9467 L45.1423,22.9467 L45.1223,22.3207 L44.6143,22.3207 C44.6343,22.6167 44.6413,22.9397 44.6413,23.3157 L44.6413,25.5107 L45.2143,25.5107 L45.2143,23.8097 C45.2143,23.7117 45.2283,23.6187 45.2403,23.5397 C45.3203,23.1047 45.6103,22.7947 46.0183,22.7947 C46.0983,22.7947 46.1573,22.8007 46.2163,22.8147 L46.2163,22.2677 C46.1643,22.2547 46.1183,22.2477 46.0523,22.2477 C45.6623,22.2477 45.3133,22.5177 45.1683,22.9467" id="Fill-52" fill="#231F20"></path>
                <path d="M65.5828,21.0609 C65.3718,21.0609 65.2198,21.2189 65.2198,21.4239 C65.2198,21.6219 65.3658,21.7799 65.5688,21.7799 C65.7998,21.7799 65.9448,21.6219 65.9388,21.4239 C65.9388,21.2189 65.7998,21.0609 65.5828,21.0609" id="Fill-54" fill="#231F20"></path>
                <path d="M76.0125,21.0609 C75.8015,21.0609 75.6505,21.2189 75.6505,21.4239 C75.6505,21.6219 75.7955,21.7799 75.9985,21.7799 C76.2305,21.7799 76.3745,21.6219 76.3685,21.4239 C76.3685,21.2189 76.2305,21.0609 76.0125,21.0609" id="Fill-56" fill="#231F20"></path>
                <mask id="mask-4" fill="white">
                    <use xlink:href="#path-3"></use>
                </mask>
                <g id="Clip-59"></g>
                <polygon id="Fill-58" fill="#231F20" mask="url(#mask-4)" points="49.164 25.6561 50.027 25.6561 50.027 20.9231 49.164 20.9231"></polygon>
                <path d="M52.4861,22.2479 C51.9591,22.2479 51.5901,22.5439 51.4311,22.8479 L51.4181,22.8479 L51.3851,22.3199 L50.8711,22.3199 C50.8901,22.5839 50.8981,22.8539 50.8981,23.1839 L50.8981,25.5109 L51.4771,25.5109 L51.4771,23.5929 C51.4771,23.4939 51.4911,23.3949 51.5171,23.3229 C51.6161,22.9989 51.9131,22.7289 52.2951,22.7289 C52.8421,22.7289 53.0331,23.1579 53.0331,23.6719 L53.0331,25.5109 L53.6131,25.5109 L53.6131,23.6059 C53.6131,22.5109 52.9281,22.2479 52.4861,22.2479" id="Fill-60" fill="#231F20" mask="url(#mask-4)"></path>
                <path d="M55.8358,24.1132 C55.7308,24.4042 55.6378,24.6672 55.5658,24.9312 L55.5458,24.9312 C55.4798,24.6672 55.3938,24.4042 55.2888,24.1132 L54.6618,22.3202 L54.0428,22.3202 L55.2548,25.5112 L55.8098,25.5112 L57.0618,22.3202 L56.4558,22.3202 L55.8358,24.1132 Z" id="Fill-61" fill="#231F20" mask="url(#mask-4)"></path>
                <path d="M57.8401,23.6058 C57.8861,23.2038 58.1431,22.6628 58.7301,22.6628 C59.3821,22.6628 59.5411,23.2368 59.5341,23.6058 L57.8401,23.6058 Z M58.7771,22.2478 C57.8461,22.2478 57.2791,23.0058 57.2791,23.9678 C57.2791,24.9308 57.8661,25.5778 58.8491,25.5778 C59.3561,25.5778 59.7061,25.4718 59.9101,25.3788 L59.8111,24.9638 C59.5931,25.0568 59.3431,25.1288 58.9281,25.1288 C58.3471,25.1288 57.8461,24.8058 57.8331,24.0208 L60.0751,24.0208 C60.0811,23.9618 60.0951,23.8698 60.0951,23.7508 C60.0951,23.1638 59.8181,22.2478 58.7771,22.2478 Z" id="Fill-62" fill="#231F20" mask="url(#mask-4)"></path>
                <path d="M61.8089,23.6586 C61.3939,23.5006 61.2029,23.3816 61.2029,23.1176 C61.2029,22.8806 61.3939,22.6826 61.7369,22.6826 C62.0339,22.6826 62.2649,22.7886 62.3899,22.8666 L62.5349,22.4456 C62.3569,22.3406 62.0729,22.2476 61.7499,22.2476 C61.0639,22.2476 60.6489,22.6696 60.6489,23.1836 C60.6489,23.5666 60.9189,23.8836 61.4929,24.0866 C61.9209,24.2456 62.0859,24.3966 62.0859,24.6736 C62.0859,24.9376 61.8889,25.1486 61.4669,25.1486 C61.1759,25.1486 60.8729,25.0296 60.7019,24.9176 L60.5569,25.3596 C60.7809,25.4916 61.1039,25.5776 61.4539,25.5776 C62.2119,25.5776 62.6469,25.1816 62.6469,24.6206 C62.6469,24.1466 62.3629,23.8696 61.8089,23.6586" id="Fill-63" fill="#231F20" mask="url(#mask-4)"></path>
                <path d="M64.0569,21.4037 L63.4899,21.5547 L63.4899,22.3207 L62.9949,22.3207 L62.9949,22.7617 L63.4899,22.7617 L63.4899,24.5027 C63.4899,24.8787 63.5499,25.1617 63.7149,25.3327 C63.8529,25.4917 64.0699,25.5777 64.3399,25.5777 C64.5649,25.5777 64.7429,25.5437 64.8549,25.4977 L64.8279,25.0627 C64.7559,25.0827 64.6439,25.1027 64.4929,25.1027 C64.1689,25.1027 64.0569,24.8787 64.0569,24.4827 L64.0569,22.7617 L64.8879,22.7617 L64.8879,22.3207 L64.0569,22.3207 L64.0569,21.4037 Z" id="Fill-64" fill="#231F20" mask="url(#mask-4)"></path>
                <polygon id="Fill-65" fill="#231F20" mask="url(#mask-4)" points="65.508 25.5111 66.088 25.5111 66.088 22.3201 65.508 22.3201"></polygon>
                <path d="M69.1668,24.1532 C69.1668,24.2522 69.1538,24.3642 69.1208,24.4632 C68.9958,24.8322 68.6718,25.0562 68.3158,25.0562 C67.6898,25.0562 67.3738,24.5352 67.3738,23.9092 C67.3738,23.1712 67.7698,22.7022 68.3228,22.7022 C68.7448,22.7022 69.0278,22.9792 69.1338,23.3152 C69.1608,23.3952 69.1668,23.4802 69.1668,23.5792 L69.1668,24.1532 Z M69.2328,22.8012 L69.2188,22.8012 C69.0818,22.5372 68.7778,22.2482 68.2238,22.2482 C67.4918,22.2482 66.7868,22.8612 66.7868,23.9422 C66.7868,24.8252 67.3538,25.4982 68.1448,25.4982 C68.6398,25.4982 68.9818,25.2602 69.1608,24.9642 L69.1728,24.9642 L69.1728,25.3202 C69.1728,26.1242 68.7378,26.4342 68.1448,26.4342 C67.7498,26.4342 67.4198,26.3152 67.2088,26.1842 L67.0628,26.6262 C67.3208,26.7972 67.7428,26.8892 68.1248,26.8892 C68.5268,26.8892 68.9758,26.7972 69.2858,26.5072 C69.5948,26.2302 69.7408,25.7812 69.7408,25.0492 L69.7408,23.1962 C69.7408,22.8082 69.7528,22.5512 69.7668,22.3202 L69.2588,22.3202 L69.2328,22.8012 Z" id="Fill-66" fill="#231F20" mask="url(#mask-4)"></path>
                <path d="M72.3514,24.4364 C72.3514,24.4964 72.3384,24.5614 72.3184,24.6214 C72.2264,24.8924 71.9624,25.1554 71.5464,25.1554 C71.2494,25.1554 70.9994,24.9774 70.9994,24.6014 C70.9994,23.9814 71.7184,23.8694 72.3514,23.8834 L72.3514,24.4364 Z M72.9124,23.5524 C72.9124,22.9134 72.6744,22.2484 71.6984,22.2484 C71.2964,22.2484 70.9144,22.3594 70.6504,22.5314 L70.7824,22.9134 C71.0064,22.7684 71.3164,22.6764 71.6134,22.6764 C72.2654,22.6764 72.3384,23.1504 72.3384,23.4154 L72.3384,23.4804 C71.1054,23.4744 70.4194,23.8954 70.4194,24.6674 C70.4194,25.1284 70.7484,25.5834 71.3954,25.5834 C71.8504,25.5834 72.1934,25.3594 72.3714,25.1094 L72.3914,25.1094 L72.4374,25.5114 L72.9644,25.5114 C72.9254,25.2934 72.9124,25.0234 72.9124,24.7464 L72.9124,23.5524 Z" id="Fill-67" fill="#231F20" mask="url(#mask-4)"></path>
                <path d="M74.4871,21.4037 L73.9211,21.5547 L73.9211,22.3207 L73.4251,22.3207 L73.4251,22.7617 L73.9211,22.7617 L73.9211,24.5027 C73.9211,24.8787 73.9801,25.1617 74.1451,25.3327 C74.2831,25.4917 74.5011,25.5777 74.7711,25.5777 C74.9951,25.5777 75.1741,25.5437 75.2851,25.4977 L75.2581,25.0627 C75.1861,25.0827 75.0741,25.1027 74.9231,25.1027 C74.5991,25.1027 74.4871,24.8787 74.4871,24.4827 L74.4871,22.7617 L75.3181,22.7617 L75.3181,22.3207 L74.4871,22.3207 L74.4871,21.4037 Z" id="Fill-68" fill="#231F20" mask="url(#mask-4)"></path>
                <polygon id="Fill-69" fill="#231F20" mask="url(#mask-4)" points="75.938 25.5111 76.517 25.5111 76.517 22.3201 75.938 22.3201"></polygon>
                <path d="M78.8455,24.1132 C78.7405,24.4042 78.6485,24.6672 78.5745,24.9312 L78.5555,24.9312 C78.4905,24.6672 78.4045,24.4042 78.2985,24.1132 L77.6715,22.3202 L77.0525,22.3202 L78.2655,25.5112 L78.8195,25.5112 L80.0725,22.3202 L79.4655,22.3202 L78.8455,24.1132 Z" id="Fill-70" fill="#231F20" mask="url(#mask-4)"></path>
                <path d="M80.8494,23.6058 C80.8954,23.2038 81.1534,22.6628 81.7404,22.6628 C82.3924,22.6628 82.5504,23.2368 82.5434,23.6058 L80.8494,23.6058 Z M81.7864,22.2478 C80.8564,22.2478 80.2884,23.0058 80.2884,23.9678 C80.2884,24.9308 80.8754,25.5778 81.8584,25.5778 C82.3664,25.5778 82.7144,25.4718 82.9194,25.3788 L82.8214,24.9638 C82.6034,25.0568 82.3524,25.1288 81.9374,25.1288 C81.3574,25.1288 80.8564,24.8058 80.8424,24.0208 L83.0844,24.0208 C83.0904,23.9618 83.1044,23.8698 83.1044,23.7508 C83.1044,23.1638 82.8274,22.2478 81.7864,22.2478 Z" id="Fill-71" fill="#231F20" mask="url(#mask-4)"></path>
                <path d="M106.7332,21.0609 C106.5222,21.0609 106.3702,21.2189 106.3702,21.4239 C106.3702,21.6219 106.5152,21.7799 106.7192,21.7799 C106.9512,21.7799 107.0952,21.6219 107.0882,21.4239 C107.0882,21.2189 106.9512,21.0609 106.7332,21.0609" id="Fill-72" fill="#231F20" mask="url(#mask-4)"></path>
                <path d="M87.1922,23.9945 C87.1922,24.8775 86.8742,24.9505 86.5192,24.9505 C86.3082,24.9505 86.1492,24.8985 86.0892,24.8755 L85.9272,24.8125 L85.7892,25.5685 L85.8982,25.6125 C86.0652,25.6815 86.3392,25.7285 86.5652,25.7285 C87.5532,25.7285 88.0552,25.1605 88.0552,24.0405 L88.0552,20.9225 L87.1922,20.9225 L87.1922,23.9945 Z" id="Fill-73" fill="#231F20" mask="url(#mask-4)"></path>
                <path d="M90.1385,25.1488 C89.5725,25.1488 89.1695,24.6208 89.1695,23.9218 C89.1695,23.3158 89.4655,22.6828 90.1525,22.6828 C90.8375,22.6828 91.1075,23.3688 91.1075,23.9088 C91.1075,24.6278 90.6925,25.1488 90.1385,25.1488 M90.1645,22.2478 C89.2825,22.2478 88.5825,22.8748 88.5825,23.9418 C88.5825,24.9508 89.2485,25.5838 90.1125,25.5838 C90.8835,25.5838 91.7005,25.0688 91.7005,23.8898 C91.7005,22.9138 91.0815,22.2478 90.1645,22.2478" id="Fill-74" fill="#231F20" mask="url(#mask-4)"></path>
                <path d="M95.0701,22.3202 L94.4901,22.3202 L94.4901,24.2782 C94.4901,24.3832 94.4701,24.4892 94.4371,24.5752 C94.3321,24.8322 94.0611,25.1032 93.6731,25.1032 C93.1451,25.1032 92.9611,24.6942 92.9611,24.0872 L92.9611,22.3202 L92.3811,22.3202 L92.3811,24.1862 C92.3811,25.3062 92.9801,25.5842 93.4811,25.5842 C94.0491,25.5842 94.3841,25.2472 94.5371,24.9902 L94.5491,24.9902 L94.5831,25.5112 L95.0971,25.5112 C95.0771,25.2602 95.0701,24.9702 95.0701,24.6412 L95.0701,22.3202 Z" id="Fill-75" fill="#231F20" mask="url(#mask-4)"></path>
                <path d="M96.5272,22.9467 L96.5012,22.9467 L96.4812,22.3207 L95.9732,22.3207 C95.9932,22.6167 96.0002,22.9397 96.0002,23.3157 L96.0002,25.5107 L96.5732,25.5107 L96.5732,23.8097 C96.5732,23.7117 96.5872,23.6187 96.5992,23.5397 C96.6782,23.1047 96.9682,22.7947 97.3782,22.7947 C97.4572,22.7947 97.5162,22.8007 97.5762,22.8147 L97.5762,22.2677 C97.5222,22.2547 97.4762,22.2477 97.4112,22.2477 C97.0212,22.2477 96.6722,22.5177 96.5272,22.9467" id="Fill-76" fill="#231F20" mask="url(#mask-4)"></path>
                <path d="M99.7381,22.2479 C99.2111,22.2479 98.8421,22.5439 98.6831,22.8479 L98.6711,22.8479 L98.6361,22.3199 L98.1231,22.3199 C98.1421,22.5839 98.1491,22.8539 98.1491,23.1839 L98.1491,25.5109 L98.7291,25.5109 L98.7291,23.5929 C98.7291,23.4939 98.7431,23.3949 98.7691,23.3229 C98.8681,22.9989 99.1651,22.7289 99.5471,22.7289 C100.0931,22.7289 100.2861,23.1579 100.2861,23.6719 L100.2861,25.5109 L100.8651,25.5109 L100.8651,23.6059 C100.8651,22.5109 100.1791,22.2479 99.7381,22.2479" id="Fill-77" fill="#231F20" mask="url(#mask-4)"></path>
                <path d="M103.4559,24.4364 C103.4559,24.4964 103.4429,24.5614 103.4239,24.6214 C103.3309,24.8924 103.0669,25.1554 102.6519,25.1554 C102.3549,25.1554 102.1049,24.9774 102.1049,24.6014 C102.1049,23.9814 102.8229,23.8694 103.4559,23.8834 L103.4559,24.4364 Z M104.0169,23.5524 C104.0169,22.9134 103.7789,22.2484 102.8039,22.2484 C102.4009,22.2484 102.0189,22.3594 101.7559,22.5314 L101.8879,22.9134 C102.1109,22.7684 102.4219,22.6764 102.7189,22.6764 C103.3709,22.6764 103.4429,23.1504 103.4429,23.4154 L103.4429,23.4804 C102.2099,23.4744 101.5239,23.8954 101.5239,24.6674 C101.5239,25.1284 101.8539,25.5834 102.4999,25.5834 C102.9559,25.5834 103.2979,25.3594 103.4769,25.1094 L103.4959,25.1094 L103.5419,25.5114 L104.0689,25.5114 C104.0299,25.2934 104.0169,25.0234 104.0169,24.7464 L104.0169,23.5524 Z" id="Fill-78" fill="#231F20" mask="url(#mask-4)"></path>
                <polygon id="Fill-79" fill="#231F20" mask="url(#mask-4)" points="104.921 25.5111 105.5 25.5111 105.5 20.8301 104.921 20.8301"></polygon>
                <polygon id="Fill-80" fill="#231F20" mask="url(#mask-4)" points="106.443 25.5111 107.023 25.5111 107.023 22.3201 106.443 22.3201"></polygon>
                <path d="M108.9813,23.6586 C108.5663,23.5006 108.3763,23.3816 108.3763,23.1176 C108.3763,22.8806 108.5663,22.6826 108.9093,22.6826 C109.2063,22.6826 109.4373,22.7886 109.5623,22.8666 L109.7073,22.4456 C109.5293,22.3406 109.2463,22.2476 108.9223,22.2476 C108.2373,22.2476 107.8213,22.6696 107.8213,23.1836 C107.8213,23.5666 108.0913,23.8836 108.6663,24.0866 C109.0933,24.2456 109.2583,24.3966 109.2583,24.6736 C109.2583,24.9376 109.0613,25.1486 108.6393,25.1486 C108.3483,25.1486 108.0453,25.0296 107.8743,24.9176 L107.7293,25.3596 C107.9543,25.4916 108.2763,25.5776 108.6263,25.5776 C109.3843,25.5776 109.8193,25.1816 109.8193,24.6206 C109.8193,24.1466 109.5363,23.8696 108.9813,23.6586" id="Fill-81" fill="#231F20" mask="url(#mask-4)"></path>
                <path d="M114.0379,22.2479 C113.7349,22.2479 113.5239,22.3269 113.3329,22.4719 C113.2009,22.5709 113.0759,22.7089 112.9759,22.8869 L112.9639,22.8869 C112.8249,22.5109 112.4949,22.2479 112.0599,22.2479 C111.5329,22.2479 111.2359,22.5309 111.0589,22.8339 L111.0379,22.8339 L111.0119,22.3199 L110.5039,22.3199 C110.5239,22.5839 110.5309,22.8539 110.5309,23.1839 L110.5309,25.5109 L111.0979,25.5109 L111.0979,23.5859 C111.0979,23.4869 111.1109,23.3879 111.1439,23.3029 C111.2359,23.0119 111.4999,22.7229 111.8619,22.7229 C112.3049,22.7229 112.5279,23.0919 112.5279,23.5989 L112.5279,25.5109 L113.0959,25.5109 L113.0959,23.5399 C113.0959,23.4339 113.1149,23.3289 113.1419,23.2499 C113.2399,22.9659 113.4979,22.7229 113.8269,22.7229 C114.2959,22.7229 114.5189,23.0919 114.5189,23.7049 L114.5189,25.5109 L115.0869,25.5109 L115.0869,23.6319 C115.0869,22.5249 114.4599,22.2479 114.0379,22.2479" id="Fill-82" fill="#231F20" mask="url(#mask-4)"></path>
                <path d="M11.5467,12.3764 L9.6147,12.3764 L9.6147,16.4594 L8.1357,16.4594 L8.1357,6.9374 L9.6147,6.9374 L9.6147,11.1164 L11.5467,11.1164 L11.5467,12.3764 Z M10.0297,19.2524 L2.1787,19.2524 L2.1787,15.7314 L3.6857,15.7314 L3.6857,17.9924 L10.0297,17.9924 L10.0297,19.2524 Z M3.5547,10.6524 C2.6937,10.6524 1.9817,11.2654 1.9817,12.0444 C1.9817,12.8234 2.6937,13.4364 3.5547,13.4364 C4.4167,13.4364 5.1297,12.8234 5.1297,12.0444 C5.1297,11.2654 4.4167,10.6524 3.5547,10.6524 Z M2.9317,7.9754 L4.1787,7.9754 L4.1787,6.5004 L2.9317,6.5004 L2.9317,7.9754 Z M3.5547,14.5964 C1.9037,14.5964 0.6427,13.4854 0.6427,12.0444 C0.6427,10.6034 1.9037,9.4924 3.5547,9.4924 C5.2067,9.4924 6.4677,10.6034 6.4677,12.0444 C6.4677,13.4854 5.2067,14.5964 3.5547,14.5964 Z M-0.0003,9.1934 L7.1247,9.1934 L7.1247,7.9744 L-0.0003,7.9744 L-0.0003,9.1934 Z" id="Fill-83" fill="#231F20" mask="url(#mask-4)"></path>
                <path d="M13.3323,14.8563 L16.6203,14.8563 L16.6203,12.9523 L11.9113,12.9523 L11.9113,11.7193 L19.2923,11.7193 C19.5523,10.6773 19.7033,9.4583 19.7163,8.6223 L13.3323,8.6223 L13.3323,7.3623 L21.2513,7.3623 C21.2513,9.0203 21.0863,10.4993 20.7993,11.7193 L23.1013,11.7193 L23.1013,12.9523 L18.1133,12.9523 L18.1133,14.8563 L21.2923,14.8563 L21.2923,19.2523 L19.8123,19.2523 L19.8123,16.1173 L13.3323,16.1173 L13.3323,14.8563 Z" id="Fill-84" fill="#231F20" mask="url(#mask-4)"></path>
                <path d="M35.0848,11.0067 L33.1538,11.0067 L33.1538,14.1717 L31.6738,14.1717 L31.6738,6.9377 L33.1538,6.9377 L33.1538,9.7457 L35.0848,9.7457 L35.0848,11.0067 Z M26.9988,18.0067 L31.6878,18.0067 L31.6878,15.7117 L26.9988,15.7117 L26.9988,18.0067 Z M25.5188,19.2527 L33.1538,19.2527 L33.1538,14.4647 L25.5188,14.4647 L25.5188,19.2527 Z M23.7958,7.5127 L29.6868,7.5127 L29.6868,8.7737 L25.2748,8.7737 L25.2748,9.9237 L29.4818,9.9237 L29.4818,11.1567 L25.2748,11.1567 L25.2748,12.3767 C26.0428,12.3767 27.0018,12.3497 27.9878,12.2947 C28.9608,12.2257 29.9338,12.1157 30.7968,11.9517 L30.9478,13.1717 C29.9338,13.3497 28.7958,13.4727 27.5358,13.5687 C26.2898,13.6507 25.0428,13.6777 23.7958,13.6507 L23.7958,7.5127 Z" id="Fill-85" fill="#231F20" mask="url(#mask-4)"></path>
                <path d="M44.6815,6.9374 L44.6815,10.8144 L46.7085,10.8144 L46.7085,12.0754 L44.6815,12.0754 L44.6815,18.9254 L43.2015,18.9254 L43.2015,6.9374 L44.6815,6.9374 Z M41.2975,15.8704 C40.0365,15.0344 38.9275,13.8014 38.4335,12.5824 C37.9265,13.8974 36.8305,15.2124 35.5015,16.0484 L34.5425,14.9664 C35.3645,14.4734 36.1455,13.7604 36.7075,12.8424 C37.2685,11.9244 37.6395,10.8554 37.6395,9.5954 L37.6535,7.5944 L39.1735,7.5944 L39.1735,9.5544 C39.1735,10.7464 39.5165,11.8014 40.0775,12.6784 C40.6255,13.5554 41.3935,14.2534 42.2285,14.7474 L41.2975,15.8704 Z" id="Fill-86" fill="#231F20" mask="url(#mask-4)"></path>
                <path d="M57.263,6.9374 L57.263,18.9254 L55.784,18.9254 L55.784,11.9114 L53.084,11.9114 L53.084,10.6234 L55.784,10.6234 L55.784,6.9374 L57.263,6.9374 Z M53.784,9.0334 L51.317,9.0334 L51.317,9.8554 C51.317,11.0754 51.591,12.1034 52.125,12.9244 C52.674,13.7474 53.359,14.3904 54.18,14.8704 L53.248,15.9934 C52.043,15.1714 50.974,14.0484 50.536,12.8424 C50.043,14.1574 49.043,15.3354 47.783,16.1584 L46.85,15.1164 C47.673,14.6094 48.385,13.9524 48.919,13.0894 C49.426,12.2264 49.755,11.1854 49.755,9.8834 L49.755,9.0334 L47.234,9.0334 L47.234,7.7724 L53.784,7.7724 L53.784,9.0334 Z" id="Fill-87" fill="#231F20" mask="url(#mask-4)"></path>
                <path d="M66.9163,6.9374 L68.3953,6.9374 L68.3953,13.3634 L66.9163,13.3634 L66.9163,10.4034 L63.2033,10.4034 L63.2033,9.1434 L66.9163,9.1434 L66.9163,6.9374 Z M61.1483,19.2524 L61.1483,15.8554 L66.9163,15.8554 L66.9163,14.9104 L61.1483,14.9104 L61.1483,13.6904 L68.3953,13.6904 L68.3953,17.0334 L62.6143,17.0334 L62.6143,18.0204 L68.6973,18.0204 L68.6973,19.2524 L61.1483,19.2524 Z M65.6963,12.3494 C63.9563,12.7194 61.5313,12.8554 58.9423,12.8014 L58.9423,7.3894 L60.4213,7.3894 L60.4213,11.4994 C61.2713,11.5134 62.1483,11.4864 63.0663,11.4174 C63.9843,11.3354 64.8063,11.2264 65.5193,11.0754 L65.6963,12.3494 Z" id="Fill-88" fill="#231F20" mask="url(#mask-4)"></path>
                <path d="M78.54,18.9251 L80.02,18.9251 L80.02,6.9371 L78.54,6.9371 L78.54,18.9251 Z M71.827,14.4321 C72.772,14.4461 73.841,14.3901 74.841,14.2811 C75.828,14.1711 76.773,14.0341 77.526,13.8701 L77.704,15.1311 C75.786,15.5141 73.197,15.7471 70.347,15.7061 L70.347,11.0071 L74.265,11.0071 L74.265,8.8961 L70.347,8.8961 L70.347,7.6361 L75.704,7.6361 L75.704,12.2671 L71.827,12.2671 L71.827,14.4321 Z" id="Fill-89" fill="#231F20" mask="url(#mask-4)"></path>
                <path d="M84.136,18.0061 L88.849,18.0061 L88.849,16.3481 L84.136,16.3481 L84.136,18.0061 Z M82.657,19.2531 L90.315,19.2531 L90.315,15.1021 L82.657,15.1021 L82.657,19.2531 Z M82.574,12.1441 L81.889,11.0071 C82.958,10.8011 83.862,10.4581 84.616,9.9921 C85.314,9.5541 85.671,9.0741 85.725,8.5541 L82.478,8.5541 L82.478,7.2661 L90.562,7.2661 L90.562,8.5541 L87.356,8.5541 C87.411,9.0741 87.781,9.5541 88.466,9.9791 C89.206,10.4451 90.124,10.7871 91.206,11.0071 L90.52,12.1441 C88.698,11.7741 87.329,11.0201 86.548,10.1021 C85.781,11.0201 84.328,11.7741 82.574,12.1441 Z M80.738,14.1441 L92.247,14.1441 L92.247,12.9111 L80.738,12.9111 L80.738,14.1441 Z" id="Fill-90" fill="#231F20" mask="url(#mask-4)"></path>
                <path d="M102.205,15.9791 L103.63,15.9791 L103.63,6.9781 L102.205,6.9781 L102.205,15.9791 Z M101.149,15.7731 L99.725,15.7731 L99.725,11.1561 L98.054,11.1561 L98.054,9.8821 L99.725,9.8821 L99.725,7.1831 L101.149,7.1831 L101.149,15.7731 Z M103.739,19.2531 L95.861,19.2531 L95.861,15.1841 L97.369,15.1841 L97.369,18.0071 L103.739,18.0071 L103.739,19.2531 Z M98.163,14.2111 C97.218,13.5541 96.519,12.8831 95.971,11.8421 C95.382,12.9241 94.67,13.7461 93.628,14.4581 L92.6,13.4711 C93.313,13.0201 93.93,12.4031 94.423,11.7041 C94.916,11.0061 95.218,10.1701 95.218,9.0331 L95.218,7.6351 L96.711,7.6351 L96.711,8.9781 C96.711,10.0331 96.999,10.8821 97.478,11.5531 C97.958,12.2111 98.56,12.7591 99.177,13.1571 L98.163,14.2111 Z" id="Fill-91" fill="#231F20" mask="url(#mask-4)"></path>
                <path d="M115.0867,6.9774 L115.0867,18.9664 L113.6077,18.9664 L113.6077,12.1154 L110.9627,12.1154 L110.9627,10.8544 L113.6077,10.8544 L113.6077,6.9774 L115.0867,6.9774 Z M105.2497,7.8134 L110.8667,7.8134 L110.8667,9.0734 L106.7297,9.0734 L106.7297,11.0334 L110.3327,11.0334 L110.3327,12.2934 L106.7297,12.2934 L106.7297,14.4854 C108.4277,14.4994 110.4417,14.3074 112.1547,13.9784 L112.3327,15.2254 C110.1417,15.6644 107.7157,15.7874 105.2497,15.7464 L105.2497,7.8134 Z" id="Fill-92" fill="#231F20" mask="url(#mask-4)"></path>
            </g>
        </g>
    </g>
</svg>