<?xml version="1.0" encoding="utf-8"?>
<!-- Generator: Adobe Illustrator 16.0.0, SVG Export Plug-In . SVG Version: 6.00 Build 0)  -->
<!DOCTYPE svg PUBLIC "-//W3C//DTD SVG 1.1//EN" "http://www.w3.org/Graphics/SVG/1.1/DTD/svg11.dtd">
<svg version="1.1" id="Layer_1" xmlns="http://www.w3.org/2000/svg" xmlns:xlink="http://www.w3.org/1999/xlink" x="0px" y="0px"
	 width="94.742px" height="30px" viewBox="-3.771 -8 94.742 30" enable-background="new -3.771 -8 94.742 30" xml:space="preserve">
<path d="M15.411,13.936V4.775h-2.138v9.183c0,1.456,0.039,3.897-1.108,5.047c-0.487,0.497-1.171,0.735-2.1,0.735
	c-0.894,0-1.56-0.238-2.05-0.729c-1.196-1.205-1.157-3.736-1.157-5.249v-0.436V8.459c0-1.794,0.045-4.794-1.74-6.59
	c-0.898-0.911-2.109-1.37-3.604-1.37c-1.505,0-2.721,0.459-3.619,1.366c-1.771,1.782-1.726,4.78-1.726,6.573v9.163h2.138V8.419
	c0-1.46-0.039-3.898,1.107-5.051c0.49-0.493,1.174-0.732,2.1-0.732c0.919,0,1.599,0.24,2.089,0.732
	C4.759,4.537,4.72,6.976,4.72,8.437v4.891v0.417c0,1.842-0.044,4.932,1.775,6.772c0.897,0.904,2.099,1.361,3.57,1.361
	c1.506,0,2.722-0.459,3.62-1.365C15.457,18.726,15.411,15.729,15.411,13.936z"/>
<polygon fill="#60D9EF" points="18.972,-4.764 18.313,-6.798 15.411,-5.855 15.411,-8.052 13.272,-8.052 13.272,-5.869 
	10.42,-6.798 9.762,-4.764 12.638,-3.831 10.861,-1.384 12.592,-0.126 14.366,-2.574 16.145,-0.126 17.873,-1.384 16.094,-3.831 "/>
<g>
	<path d="M21.797,4.976c-1.767,0-3.207-1.441-3.207-3.207s1.439-3.207,3.207-3.207s3.208,1.441,3.208,3.207
		S23.566,4.976,21.797,4.976z M21.797,0.7c-0.587,0-1.069,0.48-1.069,1.069c0,0.586,0.481,1.069,1.069,1.069
		c0.588,0,1.069-0.483,1.069-1.069C22.866,1.18,22.387,0.7,21.797,0.7z"/>
</g>
<g>
	<path d="M36.244-0.642c-1.595,0.298-3.063,0.374-4.486,0.374h-0.835v-4.364h1.4v3.198c1.198-0.023,2.428-0.119,3.734-0.342
		L36.244-0.642z M38.877,3.605v1.103h-6.728V1.969h5.069V1.422h-5.085V0.319h6.497v2.686h-5.073v0.601H38.877z M37.215-2.537H34.83
		V-3.66h2.385v-1.38h1.416v4.987h-1.416V-2.537z"/>
	<path d="M43.283-2.066c0,1.488,0.505,2.996,1.895,3.735L44.43,2.716c-0.879-0.459-1.443-1.24-1.799-2.171
		c-0.329,1.024-0.913,1.892-1.795,2.396l-0.795-1.061c1.401-0.814,1.905-2.43,1.905-3.95v-0.159h-1.57v-1.144h1.57v-1.34h1.337v1.34
		h1.561v1.144h-1.561V-2.066z M48.752-5.042v9.854h-1.336V-0.11h-0.802v4.484h-1.315v-9.257h1.315v3.618h0.802v-3.781h1.336V-5.042
		L48.752-5.042z"/>
	<path d="M55.216,0.524v0.843H57.9v3.34h-6.806v-3.34h2.708V0.524h-3.746v-1.123h8.902v1.123H55.216z M50.946-2.987
		c0-1.186,1.388-1.896,3.562-1.896s3.574,0.709,3.574,1.896c0,1.177-1.4,1.883-3.574,1.883S50.946-1.81,50.946-2.987z M52.401-2.987
		c0,0.547,0.77,0.825,2.106,0.825c1.349,0,2.119-0.278,2.119-0.825c0-0.555-0.771-0.823-2.119-0.823
		C53.171-3.81,52.401-3.542,52.401-2.987z M56.511,2.47h-4.034v1.135h4.034V2.47z"/>
</g>
<g>
	<g>
		<path d="M36.538,13.867v4.996h-1.334v-4.996c0-0.725-0.127-1.258-0.382-1.599c-0.255-0.337-0.651-0.513-1.194-0.513
			c-0.622,0-1.1,0.224-1.433,0.666c-0.334,0.437-0.495,1.069-0.495,1.893v4.558h-1.324v-8.067H31.7c0,0,0.555,0.401,0.955,0.163
			c0.401-0.236,0.881-0.358,1.433-0.358c0.82,0,1.432,0.271,1.835,0.812C36.334,11.953,36.538,12.772,36.538,13.867z"/>
		<path d="M36.699,19.024h-1.655v-5.157c0-0.687-0.117-1.195-0.348-1.503c-0.225-0.301-0.578-0.446-1.068-0.446
			c-0.57,0-0.994,0.193-1.298,0.597c-0.312,0.407-0.469,1.013-0.469,1.793v4.717h-1.647V10.64h1.539l0.044,0.03
			c0.002,0.003,0.295,0.21,0.574,0.21c0.082,0,0.148-0.017,0.213-0.048c0.427-0.252,0.936-0.387,1.511-0.387
			c0.87,0,1.533,0.301,1.967,0.878c0.427,0.567,0.646,1.418,0.646,2.544v5.157H36.699z M35.366,18.705h1.013v-4.838
			c0-1.053-0.195-1.844-0.577-2.353c-0.378-0.498-0.948-0.747-1.714-0.747c-0.516,0-0.97,0.112-1.351,0.328
			c-0.112,0.06-0.232,0.097-0.375,0.097c-0.309,0-0.602-0.167-0.714-0.233h-1.114V18.7h1.004v-4.398
			c0-0.862,0.173-1.516,0.532-1.994c0.368-0.48,0.893-0.723,1.558-0.723c0.591,0,1.035,0.192,1.323,0.581
			c0.28,0.368,0.415,0.927,0.415,1.694V18.705L35.366,18.705z"/>
	</g>
	<g>
		<path d="M39.252,15.812v-4.997h1.324v4.997c0,0.726,0.13,1.258,0.384,1.598c0.255,0.338,0.655,0.51,1.194,0.51
			c0.627,0,1.103-0.224,1.434-0.662c0.33-0.44,0.495-1.07,0.495-1.891v-4.562h1.335v8.053h-1.335c0,0-0.555-0.396-0.962-0.144
			c-0.403,0.235-0.875,0.358-1.418,0.358c-0.826,0-1.439-0.268-1.845-0.811C39.457,17.723,39.252,16.905,39.252,15.812z"/>
		<path d="M41.703,19.235c-0.876,0-1.541-0.297-1.976-0.878c-0.416-0.564-0.634-1.419-0.634-2.538v-5.165h1.646v5.158
			c0,0.688,0.116,1.192,0.351,1.502c0.222,0.296,0.581,0.447,1.064,0.447c0.58,0,1.007-0.197,1.299-0.594
			c0.312-0.408,0.47-1.015,0.47-1.794v-4.72h1.656v8.37h-1.548l-0.043-0.031c-0.004,0-0.293-0.2-0.572-0.2
			c-0.083,0-0.154,0.021-0.223,0.052C42.781,19.104,42.274,19.235,41.703,19.235z M39.415,10.977v4.836
			c0,1.051,0.192,1.845,0.577,2.354c0.373,0.501,0.935,0.748,1.716,0.748c0.52,0,0.956-0.113,1.336-0.333
			c0.117-0.063,0.242-0.1,0.388-0.1c0.308,0,0.596,0.157,0.706,0.224h1.124v-7.729h-1.015v4.397c0,0.854-0.18,1.522-0.536,1.987
			c-0.354,0.479-0.876,0.721-1.557,0.721c-0.589,0-1.031-0.194-1.318-0.575c-0.28-0.372-0.414-0.928-0.414-1.694v-4.836H39.415z"/>
	</g>
	<g>
		<path d="M67.379,7.664v1.104h-1.507c-0.477,0-0.807,0.099-0.99,0.295c-0.184,0.198-0.274,0.538-0.274,1.028v0.71h2.771v1.031
			h-2.771v7.031h-1.324v-7.031h-2.155v-1.031h2.155V10.24c0-0.885,0.2-1.536,0.604-1.949c0.407-0.422,1.042-0.627,1.901-0.627
			H67.379z"/>
		<path d="M64.766,19.024H63.12v-7.032h-2.15V10.64h2.15v-0.402c0-0.926,0.223-1.618,0.656-2.062
			c0.435-0.448,1.114-0.674,2.012-0.674h1.748v1.419h-1.664c-0.426,0-0.719,0.08-0.878,0.243c-0.146,0.158-0.225,0.479-0.225,0.923
			v0.557h2.771v1.354H64.77L64.766,19.024L64.766,19.024z M63.442,18.705h1.002v-7.032h2.771v-0.71h-2.771v-0.872
			c0-0.548,0.104-0.918,0.321-1.141c0.217-0.221,0.589-0.345,1.106-0.345h1.344V7.832h-1.428c-0.813,0-1.415,0.192-1.787,0.578
			c-0.372,0.382-0.559,1-0.559,1.835v0.723h-2.153v0.709h2.153V18.705z"/>
	</g>
	<g>
		<path d="M70.007,15.812v-4.997h1.326v4.997c0,0.726,0.126,1.258,0.386,1.598c0.254,0.338,0.654,0.51,1.189,0.51
			c0.626,0,1.11-0.224,1.432-0.662c0.333-0.44,0.497-1.07,0.497-1.891v-4.562h1.334v8.053h-1.334c0,0-0.556-0.396-0.961-0.144
			c-0.401,0.235-0.88,0.358-1.419,0.358c-0.826,0-1.441-0.268-1.838-0.811C70.21,17.723,70.007,16.905,70.007,15.812z"/>
		<path d="M72.457,19.235c-0.878,0-1.54-0.297-1.972-0.878c-0.422-0.564-0.639-1.419-0.639-2.538v-5.165h1.649v5.158
			c0,0.688,0.116,1.196,0.351,1.502c0.222,0.296,0.579,0.447,1.062,0.447c0.578,0,1.007-0.197,1.298-0.594
			c0.313-0.408,0.469-1.015,0.469-1.794v-4.72h1.653v8.37h-1.55l-0.04-0.031c-0.002,0-0.29-0.2-0.569-0.2
			c-0.084,0-0.155,0.021-0.224,0.052C73.534,19.104,73.029,19.235,72.457,19.235z M70.168,10.977v4.836
			c0,1.051,0.193,1.845,0.575,2.354c0.374,0.501,0.933,0.748,1.714,0.748c0.514,0,0.964-0.113,1.34-0.333
			c0.113-0.063,0.238-0.1,0.381-0.1c0.312,0,0.601,0.157,0.709,0.224h1.124v-7.729h-1.014v4.397c0,0.851-0.177,1.521-0.529,1.987
			c-0.357,0.479-0.884,0.721-1.56,0.721c-0.582,0-1.026-0.194-1.315-0.575c-0.279-0.367-0.414-0.923-0.414-1.694v-4.836H70.168z"/>
	</g>
	<g>
		<path d="M87.957,15.94c0,0.598,0.108,1.046,0.322,1.345c0.221,0.314,0.544,0.459,0.972,0.459H90.8v1.119h-1.679
			c-0.789,0-1.402-0.251-1.833-0.76c-0.437-0.504-0.655-1.225-0.655-2.163V8.619h-2.126V7.581h2.794l0.66,0.668v7.691H87.957z"/>
		<path d="M90.958,19.024h-1.837c-0.84,0-1.499-0.276-1.959-0.821c-0.459-0.534-0.691-1.293-0.691-2.263V8.773h-2.119V7.41h3.016
			l0.754,0.758v7.764c0,0.56,0.103,0.981,0.3,1.253c0.187,0.263,0.462,0.388,0.843,0.388h1.708v1.45h-0.014V19.024z M84.666,8.459
			h2.125v7.481c0,0.89,0.21,1.582,0.611,2.06c0.403,0.48,0.967,0.705,1.719,0.705h1.516v-0.802h-1.382
			c-0.484,0-0.848-0.176-1.102-0.522c-0.235-0.321-0.359-0.811-0.359-1.44V8.312l-0.566-0.567h-2.562V8.459L84.666,8.459z"/>
	</g>
	<g>
		<path d="M81.659,15.94c0,0.598,0.112,1.046,0.326,1.345c0.222,0.314,0.543,0.459,0.971,0.459h1.547v1.119h-1.679
			c-0.787,0-1.4-0.251-1.835-0.76c-0.432-0.504-0.649-1.225-0.649-2.163V8.619h-2.127V7.581h2.791l0.664,0.668v7.695h-0.009V15.94
			L81.659,15.94z"/>
		<path d="M84.666,19.024h-1.833c-0.844,0-1.497-0.276-1.958-0.821c-0.464-0.534-0.689-1.296-0.689-2.263V8.773h-2.127V7.41h3.019
			l0.758,0.758v7.764c0,0.56,0.097,0.981,0.295,1.253c0.188,0.263,0.463,0.388,0.842,0.388h1.707v1.45h-0.013V19.024z M78.374,8.459
			h2.124v7.481c0,0.89,0.207,1.581,0.61,2.06c0.401,0.48,0.969,0.705,1.716,0.705h1.521v-0.802h-1.387
			c-0.482,0-0.852-0.176-1.101-0.522C81.622,17.06,81.5,16.57,81.5,15.94V8.312l-0.563-0.567h-2.562V8.459z"/>
	</g>
	<g>
		<path d="M57.337,15.94c0,0.598,0.106,1.046,0.319,1.345c0.224,0.314,0.544,0.459,0.972,0.459h1.549v1.119h-1.675
			c-0.788,0-1.403-0.251-1.837-0.76c-0.437-0.504-0.651-1.225-0.651-2.163V8.619h-2.126V7.581h2.794l0.655,0.668V15.94L57.337,15.94
			z"/>
		<path d="M60.34,19.024h-1.833c-0.84,0-1.496-0.276-1.959-0.821c-0.465-0.534-0.689-1.293-0.689-2.263V8.773h-2.126V7.41h3.021
			l0.756,0.758v7.764c0,0.564,0.1,0.986,0.293,1.253c0.189,0.263,0.465,0.388,0.847,0.388h1.702v1.45H60.34V19.024z M54.046,8.459
			h2.126v7.481c0,0.89,0.209,1.582,0.614,2.06c0.4,0.48,0.962,0.705,1.716,0.705h1.516v-0.802h-1.385
			c-0.485,0-0.854-0.176-1.104-0.522c-0.236-0.324-0.354-0.797-0.354-1.44V8.312L56.61,7.744h-2.564V8.459z"/>
	</g>
	<g>
		<path d="M51.047,15.94c0,0.598,0.104,1.046,0.324,1.345c0.218,0.314,0.537,0.459,0.972,0.459h1.545v1.119h-1.679
			c-0.789,0-1.402-0.251-1.836-0.76c-0.436-0.504-0.651-1.225-0.651-2.163V8.619H47.6V7.581h2.789l0.663,0.668L51.047,15.94
			L51.047,15.94z"/>
		<path d="M54.046,19.024h-1.837c-0.838,0-1.494-0.276-1.958-0.821c-0.459-0.534-0.688-1.296-0.688-2.263V8.773h-2.126V7.41h3.019
			l0.755,0.758v7.764c0,0.568,0.098,0.986,0.291,1.253c0.189,0.263,0.467,0.388,0.847,0.388h1.707v1.45h-0.009V19.024z
			 M47.758,8.459h2.124v7.481c0,0.89,0.207,1.581,0.611,2.06c0.404,0.48,0.964,0.705,1.716,0.705h1.518v-0.802h-1.384
			c-0.484,0-0.848-0.176-1.103-0.522c-0.237-0.319-0.354-0.797-0.354-1.44V8.312l-0.563-0.567h-2.564V8.459z"/>
	</g>
</g>
</svg>
