<?xml version="1.0" encoding="utf-8"?>
<!-- Generator: Adobe Illustrator 16.0.0, SVG Export Plug-In . SVG Version: 6.00 Build 0)  -->
<!DOCTYPE svg PUBLIC "-//W3C//DTD SVG 1.1//EN" "http://www.w3.org/Graphics/SVG/1.1/DTD/svg11.dtd">
<svg version="1.1" id="Layer_1" xmlns="http://www.w3.org/2000/svg" xmlns:xlink="http://www.w3.org/1999/xlink" x="0px" y="0px"
	 width="67.104px" height="21.25px" viewBox="0 0 67.104 21.25" enable-background="new 0 0 67.104 21.25" xml:space="preserve">
<path d="M28.24,20.333v-6.956h-1.624v6.976c0,1.104,0.029,2.958-0.843,3.831c-0.372,0.376-0.89,0.56-1.595,0.56
	c-0.68,0-1.185-0.184-1.556-0.554c-0.909-0.916-0.879-2.838-0.879-3.986v-0.329v-3.697c0-1.362,0.034-3.642-1.321-5.005
	c-0.682-0.692-1.602-1.042-2.737-1.042c-1.144,0-2.066,0.349-2.75,1.039c-1.345,1.353-1.31,3.629-1.31,4.991v6.96h1.625v-6.975
	c0-1.108-0.028-2.96,0.841-3.834c0.373-0.375,0.892-0.558,1.595-0.558c0.699,0,1.214,0.183,1.587,0.558
	c0.875,0.888,0.849,2.74,0.849,3.849v3.715v0.318c0,1.397-0.034,3.743,1.348,5.142c0.68,0.686,1.595,1.033,2.71,1.033
	c1.144,0,2.067-0.348,2.75-1.036C28.276,23.973,28.24,21.696,28.24,20.333z"/>
<polygon fill="#60D9EF" points="30.945,6.13 30.444,4.587 28.24,5.302 28.24,3.634 26.616,3.634 26.616,5.292 24.45,4.587 
	23.95,6.13 26.135,6.84 24.786,8.7 26.099,9.654 27.447,7.795 28.797,9.654 30.11,8.7 28.757,6.84 "/>
<g>
	<path d="M33.09,13.529c-1.342,0-2.436-1.095-2.436-2.437c0-1.341,1.093-2.435,2.436-2.435c1.344,0,2.436,1.093,2.436,2.435
		C35.526,12.435,34.434,13.529,33.09,13.529z M33.09,10.282c-0.446,0-0.812,0.365-0.812,0.812c0,0.445,0.366,0.812,0.812,0.812
		c0.447,0,0.812-0.366,0.812-0.812C33.902,10.647,33.539,10.282,33.09,10.282z"/>
</g>
<g>
	<path d="M44.061,9.262c-1.21,0.228-2.325,0.284-3.406,0.284h-0.633V6.232h1.062v2.429c0.909-0.018,1.845-0.09,2.835-0.259
		L44.061,9.262z M46.062,12.489v0.837h-5.108v-2.081h3.85v-0.414h-3.862V9.994h4.935v2.039h-3.854v0.459L46.062,12.489
		L46.062,12.489z M44.799,7.824h-1.812V6.971h1.812V5.922h1.076V9.71h-1.077L44.799,7.824L44.799,7.824z"/>
	<path d="M49.407,8.181c0,1.129,0.384,2.276,1.438,2.836l-0.567,0.795c-0.669-0.348-1.097-0.94-1.366-1.648
		c-0.251,0.778-0.693,1.438-1.364,1.819l-0.604-0.806c1.064-0.62,1.447-1.844,1.447-3V8.056h-1.192V7.188h1.192V6.17h1.016v1.018
		h1.186v0.868h-1.186L49.407,8.181L49.407,8.181z M53.562,5.92v7.482h-1.015V9.667H51.94v3.405h-1v-7.03h1V8.79h0.607V5.917h1.017
		V5.92H53.562z"/>
	<path d="M58.471,10.147v0.641h2.037v2.536h-5.169v-2.536h2.057v-0.641h-2.844V9.294h6.759v0.853H58.471z M55.229,7.48
		c0-0.9,1.055-1.44,2.705-1.44s2.715,0.539,2.715,1.44c0,0.894-1.063,1.43-2.715,1.43S55.229,8.375,55.229,7.48z M56.332,7.48
		c0,0.416,0.584,0.625,1.6,0.625c1.023,0,1.609-0.209,1.609-0.625c0-0.421-0.586-0.625-1.609-0.625
		C56.916,6.856,56.332,7.06,56.332,7.48z M59.452,11.625h-3.063v0.861h3.063V11.625z"/>
</g>
<g>
	<g>
		<path d="M44.284,20.281v3.794h-1.012v-3.794c0-0.551-0.098-0.955-0.292-1.215c-0.193-0.256-0.496-0.39-0.906-0.39
			c-0.474,0-0.835,0.172-1.089,0.507c-0.253,0.33-0.376,0.813-0.376,1.438v3.462h-1.004v-6.125h1.004c0,0,0.422,0.305,0.726,0.123
			c0.305-0.18,0.669-0.271,1.09-0.271c0.622,0,1.086,0.205,1.395,0.615C44.13,18.828,44.284,19.45,44.284,20.281z"/>
		<path d="M44.407,24.199h-1.257v-3.918c0-0.521-0.089-0.908-0.264-1.143c-0.171-0.228-0.439-0.337-0.81-0.337
			c-0.434,0-0.755,0.145-0.987,0.452c-0.236,0.31-0.354,0.771-0.354,1.362v3.58h-1.251V17.83h1.167l0.035,0.022
			c0,0.004,0.225,0.159,0.437,0.159c0.062,0,0.111-0.012,0.161-0.036c0.324-0.19,0.711-0.293,1.147-0.293
			c0.66,0,1.164,0.229,1.494,0.669c0.325,0.429,0.491,1.074,0.491,1.931v3.917H44.407L44.407,24.199z M43.397,23.955h0.77v-3.674
			c0-0.802-0.147-1.4-0.438-1.787c-0.287-0.377-0.721-0.567-1.301-0.567c-0.391,0-0.736,0.085-1.026,0.25
			c-0.084,0.046-0.175,0.074-0.283,0.074c-0.235,0-0.458-0.127-0.543-0.178h-0.846v5.88h0.762V20.61
			c0-0.653,0.131-1.148,0.403-1.512c0.279-0.366,0.678-0.551,1.185-0.551c0.448,0,0.786,0.146,1.004,0.441
			c0.212,0.278,0.314,0.703,0.314,1.284V23.955L43.397,23.955z"/>
	</g>
	<g>
		<path d="M46.346,21.758v-3.794h1.006v3.794c0,0.551,0.1,0.954,0.293,1.215c0.192,0.258,0.498,0.387,0.905,0.387
			c0.478,0,0.84-0.172,1.091-0.502c0.25-0.334,0.375-0.813,0.375-1.437v-3.464h1.014v6.113h-1.014c0,0-0.424-0.301-0.729-0.109
			c-0.307,0.179-0.664,0.273-1.077,0.273c-0.626,0-1.092-0.203-1.4-0.616C46.501,23.209,46.346,22.588,46.346,21.758z"/>
		<path d="M48.207,24.358c-0.666,0-1.17-0.227-1.501-0.666c-0.315-0.431-0.479-1.078-0.479-1.928V17.84h1.25v3.918
			c0,0.521,0.088,0.905,0.267,1.14c0.17,0.226,0.44,0.34,0.807,0.34c0.441,0,0.768-0.147,0.987-0.45
			c0.236-0.312,0.357-0.771,0.357-1.363V17.84h1.256v6.358h-1.174l-0.033-0.026c-0.004,0-0.225-0.149-0.436-0.149
			c-0.062,0-0.115,0.014-0.169,0.037C49.027,24.259,48.643,24.358,48.207,24.358z M46.47,18.086v3.672
			c0,0.8,0.146,1.402,0.438,1.789c0.283,0.378,0.711,0.568,1.303,0.568c0.396,0,0.727-0.086,1.017-0.255
			c0.09-0.046,0.184-0.075,0.295-0.075c0.232,0,0.453,0.12,0.536,0.172h0.853v-5.869H50.14v3.338c0,0.648-0.138,1.155-0.408,1.512
			c-0.269,0.363-0.664,0.545-1.183,0.545c-0.446,0-0.78-0.145-1.001-0.436c-0.212-0.282-0.313-0.705-0.313-1.286v-3.673H46.47
			V18.086z"/>
	</g>
	<g>
		<path d="M67.707,15.571v0.84h-1.146c-0.362,0-0.612,0.072-0.753,0.223c-0.138,0.149-0.208,0.41-0.208,0.78v0.539h2.105v0.781
			h-2.105v5.341h-1.005v-5.341h-1.637v-0.781h1.637v-0.425c0-0.675,0.152-1.169,0.46-1.48c0.309-0.32,0.791-0.475,1.442-0.475h1.209
			V15.571z"/>
		<path d="M65.725,24.199h-1.251v-5.342h-1.632v-1.026h1.632v-0.305c0-0.703,0.169-1.229,0.497-1.568
			c0.331-0.338,0.848-0.511,1.527-0.511h1.327v1.078H66.56c-0.323,0-0.546,0.06-0.665,0.183c-0.11,0.122-0.173,0.365-0.173,0.701
			v0.424h2.105v1.027h-2.105v5.339H65.725z M64.718,23.955h0.761v-5.339h2.104v-0.539h-2.104v-0.663
			c0-0.417,0.078-0.697,0.246-0.867c0.164-0.168,0.445-0.262,0.837-0.262h1.022v-0.587H66.5c-0.616,0-1.074,0.146-1.358,0.438
			c-0.281,0.29-0.423,0.759-0.423,1.394v0.549h-1.636v0.538h1.636L64.718,23.955L64.718,23.955z"/>
	</g>
	<g>
		<path d="M69.703,21.758v-3.794h1.007v3.794c0,0.551,0.096,0.954,0.293,1.215c0.193,0.258,0.496,0.387,0.903,0.387
			c0.476,0,0.843-0.172,1.086-0.502c0.255-0.334,0.379-0.813,0.379-1.437v-3.464h1.013v6.113h-1.013c0,0-0.425-0.301-0.73-0.109
			c-0.306,0.179-0.668,0.273-1.077,0.273c-0.627,0-1.093-0.203-1.395-0.616C69.857,23.209,69.703,22.588,69.703,21.758z"/>
		<path d="M71.564,24.358c-0.669,0-1.17-0.227-1.497-0.666c-0.321-0.431-0.484-1.078-0.484-1.928V17.84h1.252v3.918
			c0,0.521,0.088,0.908,0.267,1.14c0.17,0.226,0.438,0.34,0.808,0.34c0.439,0,0.766-0.147,0.984-0.45
			c0.238-0.312,0.356-0.771,0.356-1.363V17.84h1.255v6.358h-1.177l-0.029-0.026c-0.001,0-0.22-0.149-0.432-0.149
			c-0.064,0-0.119,0.014-0.172,0.037C72.383,24.259,72,24.358,71.564,24.358z M69.826,18.086v3.672c0,0.8,0.146,1.402,0.437,1.789
			c0.283,0.378,0.709,0.568,1.301,0.568c0.391,0,0.731-0.086,1.019-0.255c0.087-0.046,0.183-0.075,0.29-0.075
			c0.236,0,0.457,0.12,0.537,0.172h0.855v-5.869h-0.771v3.338c0,0.646-0.136,1.155-0.403,1.512c-0.27,0.363-0.67,0.545-1.184,0.545
			c-0.441,0-0.778-0.145-1-0.436c-0.211-0.278-0.312-0.703-0.312-1.286v-3.673h-0.769V18.086z"/>
	</g>
	<g>
		<path d="M83.337,21.855c0,0.454,0.081,0.794,0.243,1.022c0.169,0.238,0.414,0.348,0.737,0.348h1.176v0.851h-1.274
			c-0.6,0-1.064-0.191-1.391-0.575c-0.334-0.383-0.499-0.932-0.499-1.644v-5.562h-1.615v-0.787h2.122l0.502,0.507v5.842h-0.001
			V21.855z"/>
		<path d="M85.615,24.199h-1.395c-0.639,0-1.14-0.211-1.488-0.625c-0.35-0.405-0.526-0.983-0.526-1.719v-5.444h-1.61v-1.034h2.293
			l0.572,0.574v5.897c0,0.425,0.077,0.745,0.228,0.951c0.142,0.199,0.353,0.293,0.641,0.293h1.296v1.104h-0.01V24.199L85.615,24.199
			z M80.837,16.174h1.614v5.681c0,0.677,0.158,1.202,0.465,1.565c0.306,0.365,0.732,0.534,1.306,0.534h1.15v-0.609h-1.049
			c-0.369,0-0.645-0.134-0.838-0.396c-0.178-0.244-0.271-0.615-0.271-1.093v-5.794l-0.431-0.432h-1.945L80.837,16.174L80.837,16.174
			z"/>
	</g>
	<g>
		<path d="M78.553,21.855c0,0.454,0.085,0.794,0.246,1.022c0.172,0.238,0.414,0.348,0.737,0.348h1.175v0.851h-1.275
			c-0.598,0-1.062-0.191-1.394-0.575c-0.327-0.383-0.492-0.932-0.492-1.644v-5.562h-1.613v-0.787h2.118l0.504,0.507v5.845h-0.006
			V21.855L78.553,21.855z"/>
		<path d="M80.837,24.199h-1.392c-0.643,0-1.14-0.211-1.487-0.625c-0.353-0.405-0.524-0.983-0.524-1.719v-5.444h-1.615v-1.034h2.293
			l0.575,0.574v5.897c0,0.425,0.074,0.745,0.227,0.951c0.142,0.199,0.352,0.293,0.639,0.293h1.297v1.104h-0.012V24.199
			L80.837,24.199z M76.057,16.174h1.614v5.681c0,0.677,0.157,1.202,0.464,1.565c0.305,0.365,0.736,0.534,1.302,0.534h1.157v-0.609
			H79.54c-0.367,0-0.648-0.134-0.836-0.396c-0.178-0.244-0.271-0.615-0.271-1.095v-5.792l-0.429-0.432h-1.944L76.057,16.174
			L76.057,16.174z"/>
	</g>
	<g>
		<path d="M60.08,21.855c0,0.454,0.081,0.794,0.244,1.022c0.17,0.238,0.412,0.348,0.734,0.348h1.179v0.851h-1.272
			c-0.599,0-1.064-0.191-1.396-0.575c-0.331-0.383-0.494-0.932-0.494-1.644v-5.562h-1.616v-0.787h2.123l0.497,0.507L60.08,21.855
			L60.08,21.855z"/>
		<path d="M62.361,24.199h-1.39c-0.639,0-1.137-0.211-1.488-0.625c-0.354-0.405-0.523-0.983-0.523-1.719v-5.444h-1.615v-1.034h2.296
			l0.574,0.574v5.897c0,0.428,0.074,0.747,0.222,0.951c0.146,0.199,0.354,0.293,0.646,0.293h1.292v1.104h-0.013V24.199z
			 M57.582,16.174h1.613v5.681c0,0.677,0.16,1.202,0.469,1.565c0.304,0.365,0.729,0.534,1.304,0.534h1.15v-0.609h-1.052
			c-0.369,0-0.648-0.134-0.838-0.396c-0.181-0.246-0.271-0.605-0.271-1.093v-5.794l-0.429-0.432h-1.946V16.174L57.582,16.174z"/>
	</g>
	<g>
		<path d="M55.304,21.855c0,0.454,0.077,0.794,0.246,1.022c0.167,0.238,0.408,0.348,0.737,0.348h1.173v0.851h-1.273
			c-0.601,0-1.064-0.191-1.396-0.575c-0.328-0.383-0.494-0.932-0.494-1.644v-5.562h-1.611v-0.787h2.118l0.504,0.507L55.304,21.855
			L55.304,21.855z"/>
		<path d="M57.582,24.199h-1.395c-0.638,0-1.136-0.211-1.487-0.625c-0.351-0.405-0.523-0.983-0.523-1.719v-5.444h-1.614v-1.034
			h2.291l0.576,0.574v5.897c0,0.431,0.073,0.747,0.221,0.951c0.145,0.199,0.354,0.293,0.644,0.293h1.296v1.104h-0.008V24.199
			L57.582,24.199z M52.806,16.174h1.614v5.681c0,0.677,0.157,1.202,0.465,1.565c0.307,0.365,0.732,0.534,1.303,0.534h1.15v-0.609
			h-1.05c-0.366,0-0.644-0.134-0.837-0.396c-0.179-0.242-0.27-0.605-0.27-1.093v-5.794l-0.428-0.432h-1.947L52.806,16.174
			L52.806,16.174z"/>
	</g>
</g>
</svg>
