<?xml version="1.0" encoding="utf-8"?>
<!-- Generator: Adobe Illustrator 16.0.0, SVG Export Plug-In . SVG Version: 6.00 Build 0)  -->
<!DOCTYPE svg PUBLIC "-//W3C//DTD SVG 1.1//EN" "http://www.w3.org/Graphics/SVG/1.1/DTD/svg11.dtd">
<svg version="1.1" id="Layer_1" xmlns="http://www.w3.org/2000/svg" xmlns:xlink="http://www.w3.org/1999/xlink" x="0px" y="0px"
	 width="67.104px" height="21.25px" viewBox="0 0 67.104 21.25" enable-background="new 0 0 67.104 21.25" xml:space="preserve">
<path d="M30.617,19.74v-6.183h-1.443v6.201c0,0.98,0.025,2.628-0.75,3.404c-0.331,0.335-0.791,0.498-1.418,0.498
	c-0.604,0-1.053-0.163-1.382-0.493c-0.809-0.813-0.781-2.522-0.781-3.542v-0.293v-3.286c0-1.21,0.029-3.236-1.175-4.448
	c-0.606-0.615-1.424-0.927-2.433-0.927c-1.017,0-1.836,0.311-2.444,0.924c-1.195,1.203-1.164,3.226-1.164,4.437v6.187h1.444V16.02
	c0-0.985-0.025-2.632,0.748-3.408c0.332-0.333,0.792-0.496,1.417-0.496c0.622,0,1.079,0.163,1.411,0.496
	c0.778,0.789,0.755,2.435,0.755,3.421v3.302v0.282c0,1.242-0.03,3.328,1.198,4.571c0.604,0.609,1.417,0.918,2.409,0.918
	c1.018,0,1.838-0.309,2.444-0.921C30.648,22.976,30.617,20.951,30.617,19.74z"/>
<polygon fill="#60D9EF" points="33.021,7.116 32.575,5.744 30.617,6.379 30.617,4.897 29.174,4.897 29.174,6.371 27.248,5.744 
	26.803,7.116 28.745,7.747 27.547,9.4 28.713,10.248 29.911,8.596 31.112,10.248 32.279,9.4 31.076,7.747 "/>
<g>
	<path d="M34.928,13.693c-1.193,0-2.166-0.975-2.166-2.167c0-1.192,0.972-2.164,2.166-2.164c1.194,0,2.164,0.971,2.164,2.164
		C37.092,12.721,36.122,13.693,34.928,13.693z M34.928,10.807c-0.397,0-0.723,0.324-0.723,0.722c0,0.396,0.325,0.722,0.723,0.722
		s0.721-0.325,0.721-0.722C35.649,11.131,35.326,10.807,34.928,10.807z"/>
</g>
<g>
	<path d="M44.679,9.9c-1.075,0.203-2.066,0.252-3.027,0.252h-0.562V7.207h0.944v2.159c0.808-0.016,1.64-0.08,2.52-0.23L44.679,9.9z
		 M46.458,12.769v0.744h-4.54v-1.851h3.422v-0.367h-3.434v-0.744h4.388v1.812h-3.427v0.408L46.458,12.769L46.458,12.769z
		 M45.335,8.622h-1.611V7.864h1.611V6.931h0.957v3.367h-0.958L45.335,8.622L45.335,8.622z"/>
	<path d="M49.432,8.939c0,1.003,0.341,2.023,1.277,2.521l-0.504,0.707c-0.595-0.31-0.975-0.836-1.214-1.465
		c-0.223,0.691-0.616,1.278-1.213,1.617l-0.537-0.717c0.946-0.551,1.287-1.639,1.287-2.667V8.828h-1.06V8.056h1.06V7.151h0.903
		v0.905h1.054v0.772h-1.054V8.939L49.432,8.939z M53.124,6.929v6.651h-0.901v-3.32h-0.54v3.027h-0.89v-6.25h0.89V9.48h0.54V6.926
		h0.903v0.003H53.124z"/>
	<path d="M57.488,10.687v0.569h1.812v2.255h-4.595v-2.255h1.828v-0.569h-2.528V9.928h6.008v0.758H57.488z M54.606,8.316
		c0-0.8,0.938-1.28,2.405-1.28s2.413,0.479,2.413,1.28c0,0.794-0.944,1.271-2.413,1.271C55.543,9.587,54.606,9.111,54.606,8.316z
		 M55.587,8.316c0,0.37,0.519,0.556,1.422,0.556c0.909,0,1.431-0.186,1.431-0.556c0-0.374-0.521-0.556-1.431-0.556
		C56.106,7.761,55.587,7.942,55.587,8.316z M58.361,12h-2.724v0.766h2.724V12z"/>
</g>
<g>
	<g>
		<path d="M44.878,19.694v3.372h-0.9v-3.372c0-0.489-0.087-0.849-0.26-1.08c-0.171-0.227-0.44-0.347-0.805-0.347
			c-0.422,0-0.742,0.152-0.969,0.451c-0.225,0.294-0.334,0.723-0.334,1.278v3.077h-0.893V17.63h0.893c0,0,0.376,0.271,0.646,0.109
			c0.271-0.161,0.595-0.241,0.969-0.241c0.554,0,0.966,0.183,1.24,0.546C44.74,18.403,44.878,18.956,44.878,19.694z"/>
		<path d="M44.988,23.177h-1.118v-3.482c0-0.463-0.079-0.807-0.234-1.016c-0.152-0.203-0.391-0.3-0.72-0.3
			c-0.387,0-0.672,0.128-0.878,0.401c-0.21,0.275-0.314,0.686-0.314,1.211v3.183h-1.112v-5.658h1.037l0.031,0.02
			c0,0.003,0.201,0.142,0.389,0.142c0.055,0,0.099-0.011,0.144-0.032c0.287-0.169,0.632-0.261,1.02-0.261
			c0.587,0,1.034,0.204,1.328,0.596c0.289,0.381,0.437,0.954,0.437,1.716v3.481H44.988L44.988,23.177z M44.089,22.96h0.685v-3.266
			c0-0.713-0.131-1.244-0.39-1.588c-0.255-0.336-0.641-0.505-1.156-0.505c-0.348,0-0.654,0.075-0.912,0.223
			c-0.075,0.04-0.155,0.065-0.251,0.065c-0.209,0-0.407-0.112-0.482-0.158h-0.753v5.227h0.678v-2.972
			c0-0.58,0.116-1.021,0.358-1.344c0.248-0.325,0.603-0.489,1.054-0.489c0.397,0,0.698,0.13,0.892,0.392
			c0.188,0.247,0.279,0.625,0.279,1.141L44.089,22.96L44.089,22.96z"/>
	</g>
	<g>
		<path d="M46.71,21.007v-3.372h0.895v3.372c0,0.49,0.089,0.849,0.26,1.08c0.172,0.229,0.443,0.344,0.805,0.344
			c0.425,0,0.747-0.153,0.97-0.446c0.223-0.297,0.334-0.722,0.334-1.276v-3.079h0.9v5.434h-0.9c0,0-0.377-0.268-0.647-0.098
			c-0.273,0.16-0.591,0.243-0.958,0.243c-0.557,0-0.971-0.181-1.245-0.548C46.849,22.297,46.71,21.745,46.71,21.007z"/>
		<path d="M48.365,23.317c-0.592,0-1.039-0.201-1.334-0.592c-0.28-0.383-0.426-0.957-0.426-1.713v-3.488h1.111v3.482
			c0,0.464,0.078,0.805,0.237,1.014c0.151,0.201,0.391,0.303,0.717,0.303c0.393,0,0.683-0.132,0.878-0.4
			c0.209-0.277,0.316-0.685,0.316-1.212v-3.187h1.116v5.651h-1.043l-0.029-0.023c-0.004,0-0.2-0.132-0.388-0.132
			c-0.056,0-0.103,0.013-0.149,0.033C49.093,23.23,48.752,23.317,48.365,23.317z M46.821,17.743v3.264
			c0,0.712,0.13,1.247,0.39,1.591c0.251,0.336,0.632,0.505,1.158,0.505c0.352,0,0.646-0.076,0.903-0.228
			c0.08-0.04,0.164-0.066,0.263-0.066c0.206,0,0.402,0.107,0.477,0.153h0.759v-5.217h-0.688v2.967c0,0.576-0.122,1.027-0.362,1.344
			c-0.239,0.323-0.59,0.484-1.051,0.484c-0.397,0-0.694-0.129-0.891-0.388c-0.188-0.249-0.278-0.626-0.278-1.143v-3.265h-0.68
			V17.743z"/>
	</g>
	<g>
		<path d="M65.698,15.507v0.748h-1.019c-0.321,0-0.544,0.062-0.669,0.197c-0.123,0.133-0.186,0.365-0.186,0.693v0.479h1.872v0.694
			h-1.872v4.747h-0.893v-4.747h-1.455v-0.694h1.455v-0.378c0-0.6,0.135-1.039,0.408-1.315c0.275-0.284,0.703-0.422,1.282-0.422
			h1.075V15.507L65.698,15.507z"/>
		<path d="M63.936,23.177h-1.112v-4.748h-1.45v-0.912h1.45v-0.271c0-0.624,0.15-1.092,0.442-1.394
			c0.294-0.3,0.753-0.454,1.357-0.454h1.18v0.959h-1.125c-0.287,0-0.485,0.053-0.591,0.162c-0.098,0.108-0.154,0.324-0.154,0.623
			v0.377h1.872v0.912h-1.872v4.746H63.936z M63.041,22.96h0.676v-4.745h1.871v-0.479h-1.871v-0.59c0-0.37,0.069-0.619,0.219-0.771
			c0.146-0.149,0.396-0.232,0.744-0.232h0.908v-0.521h-0.963c-0.548,0-0.955,0.129-1.208,0.389c-0.25,0.258-0.375,0.675-0.375,1.239
			v0.488h-1.454v0.479h1.454L63.041,22.96L63.041,22.96z"/>
	</g>
	<g>
		<path d="M67.472,21.007v-3.372h0.896v3.372c0,0.49,0.085,0.849,0.26,1.08c0.172,0.229,0.441,0.344,0.804,0.344
			c0.423,0,0.749-0.153,0.965-0.446c0.227-0.297,0.337-0.722,0.337-1.276v-3.079h0.9v5.434h-0.9c0,0-0.379-0.268-0.649-0.098
			c-0.271,0.16-0.594,0.243-0.957,0.243c-0.558,0-0.972-0.181-1.24-0.548C67.609,22.297,67.472,21.745,67.472,21.007z"/>
		<path d="M69.126,23.317c-0.595,0-1.04-0.201-1.331-0.592c-0.285-0.383-0.43-0.957-0.43-1.713v-3.488h1.113v3.482
			c0,0.464,0.078,0.808,0.236,1.014c0.151,0.201,0.39,0.303,0.719,0.303c0.39,0,0.681-0.132,0.874-0.4
			c0.212-0.277,0.317-0.685,0.317-1.212v-3.187h1.115v5.651h-1.046l-0.026-0.023c-0.001,0-0.195-0.132-0.384-0.132
			c-0.057,0-0.105,0.013-0.153,0.033C69.854,23.23,69.514,23.317,69.126,23.317z M67.581,17.743v3.264
			c0,0.712,0.13,1.247,0.389,1.591c0.251,0.336,0.63,0.505,1.156,0.505c0.348,0,0.649-0.076,0.906-0.228
			c0.077-0.04,0.162-0.066,0.258-0.066c0.209,0,0.406,0.107,0.477,0.153h0.76v-5.217h-0.685v2.967c0,0.574-0.122,1.027-0.358,1.344
			c-0.24,0.323-0.596,0.484-1.052,0.484c-0.393,0-0.692-0.129-0.89-0.388c-0.188-0.246-0.277-0.624-0.277-1.143v-3.265h-0.684
			V17.743z"/>
	</g>
	<g>
		<path d="M79.591,21.094c0,0.403,0.072,0.705,0.216,0.908c0.15,0.212,0.368,0.309,0.654,0.309h1.047v0.757h-1.133
			c-0.533,0-0.946-0.17-1.236-0.511c-0.297-0.341-0.443-0.829-0.443-1.461v-4.944h-1.437v-0.7h1.887l0.446,0.452v5.192h-0.001
			V21.094z"/>
		<path d="M81.616,23.177h-1.241c-0.567,0-1.013-0.188-1.322-0.556c-0.311-0.359-0.467-0.874-0.467-1.527v-4.839h-1.432v-0.92h2.038
			l0.509,0.511v5.241c0,0.379,0.068,0.662,0.202,0.846c0.127,0.177,0.314,0.26,0.57,0.26h1.151v0.981h-0.008L81.616,23.177
			L81.616,23.177z M77.368,16.044h1.436v5.05c0,0.602,0.14,1.067,0.413,1.391c0.271,0.324,0.65,0.475,1.16,0.475H81.4v-0.541h-0.932
			c-0.328,0-0.574-0.119-0.746-0.352c-0.158-0.218-0.24-0.547-0.24-0.973v-5.149l-0.383-0.385h-1.729L77.368,16.044L77.368,16.044z"
			/>
	</g>
	<g>
		<path d="M75.338,21.094c0,0.403,0.076,0.705,0.219,0.908c0.153,0.212,0.368,0.309,0.655,0.309h1.045v0.757h-1.134
			c-0.531,0-0.943-0.17-1.239-0.511c-0.29-0.341-0.438-0.829-0.438-1.461v-4.944h-1.434v-0.7h1.883l0.448,0.452v5.194h-0.006V21.094
			L75.338,21.094z"/>
		<path d="M77.368,23.177h-1.237c-0.571,0-1.013-0.188-1.321-0.556c-0.314-0.359-0.466-0.874-0.466-1.527v-4.839h-1.437v-0.92h2.039
			l0.511,0.511v5.241c0,0.379,0.066,0.662,0.202,0.846c0.126,0.177,0.312,0.26,0.568,0.26h1.152v0.981h-0.011L77.368,23.177
			L77.368,23.177z M73.119,16.044h1.436v5.05c0,0.602,0.14,1.067,0.412,1.391c0.271,0.324,0.654,0.475,1.157,0.475h1.028v-0.541
			h-0.937c-0.326,0-0.576-0.119-0.743-0.352c-0.159-0.218-0.241-0.547-0.241-0.975v-5.147l-0.381-0.385h-1.729L73.119,16.044
			L73.119,16.044z"/>
	</g>
	<g>
		<path d="M58.918,21.094c0,0.403,0.072,0.705,0.218,0.908c0.15,0.212,0.365,0.309,0.651,0.309h1.048v0.757h-1.13
			c-0.532,0-0.946-0.17-1.241-0.511s-0.438-0.829-0.438-1.461v-4.944h-1.437v-0.7h1.887l0.441,0.452L58.918,21.094L58.918,21.094z"
			/>
		<path d="M60.946,23.177H59.71c-0.567,0-1.011-0.188-1.323-0.556c-0.313-0.359-0.464-0.874-0.464-1.527v-4.839h-1.436v-0.92h2.04
			l0.511,0.511v5.241c0,0.38,0.066,0.664,0.197,0.846c0.13,0.177,0.314,0.26,0.574,0.26h1.148v0.981h-0.012L60.946,23.177
			L60.946,23.177z M56.698,16.044h1.433v5.05c0,0.602,0.143,1.067,0.418,1.391c0.27,0.324,0.647,0.475,1.158,0.475h1.022v-0.541
			h-0.936c-0.328,0-0.575-0.119-0.744-0.352c-0.161-0.219-0.241-0.538-0.241-0.973v-5.149l-0.382-0.385h-1.729V16.044L56.698,16.044
			z"/>
	</g>
	<g>
		<path d="M54.673,21.094c0,0.403,0.068,0.705,0.219,0.908c0.148,0.212,0.362,0.309,0.655,0.309h1.042v0.757h-1.132
			c-0.533,0-0.945-0.17-1.24-0.511c-0.291-0.341-0.439-0.829-0.439-1.461v-4.944h-1.432v-0.7h1.883l0.447,0.452L54.673,21.094
			L54.673,21.094z"/>
		<path d="M56.698,23.177h-1.241c-0.566,0-1.009-0.188-1.32-0.556c-0.312-0.359-0.466-0.874-0.466-1.527v-4.839h-1.435v-0.92h2.036
			l0.513,0.511v5.241c0,0.384,0.064,0.664,0.195,0.846c0.13,0.177,0.315,0.26,0.573,0.26h1.152v0.981h-0.008V23.177L56.698,23.177z
			 M52.452,16.044h1.435v5.05c0,0.602,0.141,1.067,0.414,1.391c0.272,0.324,0.65,0.475,1.157,0.475h1.022v-0.541h-0.933
			c-0.325,0-0.573-0.119-0.744-0.352c-0.159-0.216-0.24-0.538-0.24-0.973v-5.149l-0.38-0.385h-1.731V16.044L52.452,16.044z"/>
	</g>
</g>
</svg>
