<?xml version="1.0" standalone="no"?>
<!DOCTYPE svg PUBLIC "-//W3C//DTD SVG 20010904//EN"
 "http://www.w3.org/TR/2001/REC-SVG-20010904/DTD/svg10.dtd">
<svg version="1.0" xmlns="http://www.w3.org/2000/svg"
 width="256.000000pt" height="256.000000pt" viewBox="0 0 256.000000 256.000000"
 preserveAspectRatio="xMidYMid meet">
<metadata>
Created by potrace 1.11, written by Peter Selinger 2001-2013
</metadata>
<g transform="translate(0.000000,256.000000) scale(0.100000,-0.100000)"
fill="#000000" stroke="none">
<path d="M2247 2544 c-2 -2 -126 -12 -237 -19 -30 -2 -86 -6 -125 -9 -38 -3
-106 -8 -150 -12 -44 -3 -91 -7 -105 -9 -14 -2 -72 -7 -130 -10 -58 -4 -121
-8 -140 -10 -40 -4 -183 -15 -250 -20 -25 -2 -81 -6 -125 -9 -82 -7 -145 -12
-270 -21 -38 -3 -95 -8 -125 -10 -30 -2 -93 -7 -140 -10 -47 -4 -101 -8 -120
-10 -19 -2 -78 -6 -130 -10 -52 -3 -104 -7 -115 -10 -11 -2 -24 -4 -30 -4 -6
-1 -10 -50 -11 -124 -1 -119 -10 -549 -19 -917 -3 -102 -7 -301 -10 -442 l-6
-258 28 -1 c15 -1 37 -3 48 -4 11 -1 56 -6 100 -9 44 -4 114 -11 155 -16 41
-5 109 -12 150 -15 41 -3 89 -7 105 -9 17 -2 64 -7 105 -11 41 -3 82 -8 90
-10 8 -2 54 -6 101 -10 47 -3 95 -8 105 -9 22 -3 30 -31 39 -133 3 -43 8 -87
10 -98 2 -11 7 -52 10 -91 3 -39 8 -81 10 -94 2 -12 5 -41 6 -66 2 -24 7 -44
11 -44 5 0 35 24 66 54 31 30 71 67 88 83 112 102 269 248 329 305 68 65 76
70 270 149 110 45 218 90 240 100 22 10 108 45 190 79 83 34 164 67 180 75 17
7 49 21 72 30 l42 17 -5 46 c-3 26 -7 59 -10 73 -2 15 -6 47 -9 70 -3 24 -8
61 -11 81 -2 21 -6 50 -8 65 -2 15 -7 46 -10 68 -9 68 -35 268 -41 315 -3 25
-10 75 -15 113 -6 37 -12 89 -15 115 -3 26 -9 76 -15 112 -5 36 -12 86 -15
111 -3 25 -8 57 -10 70 -2 13 -6 44 -9 69 -8 62 -24 186 -32 240 -4 25 -8 54
-9 65 -1 11 -3 23 -4 27 -1 6 -88 7 -94 2z"/>
</g>
</svg>
