<svg xmlns="http://www.w3.org/2000/svg" viewBox="0 0 290.32 129.67"><defs><style>.cls-1{fill:#fff;}.cls-2{fill:none;}.cls-3{fill:#0e8be4;}</style></defs><title>Asset 3</title><g id="Layer_2" data-name="Layer 2"><g id="레이어_1" data-name="레이어 1"><path class="cls-1" d="M14,116.38l19-1.72,0,12.17L.09,129.67,0,52.61l14-1.12ZM39.58,48.87l12.61-1,0,27.27,4.33-.54,0-27.28,12.7-1L69.31,124l-12.7,1,0-39.52-4.33.55.05,39.52-12.61,1Z"/><polygon class="cls-1" points="143.98 77.37 144 66.97 136.06 67.7 136.1 40.23 123.74 41.19 123.59 117.77 135.96 116.81 136.04 78.11 143.98 77.37"/><polygon class="cls-1" points="114.12 58.39 114.14 47.75 100.98 48.97 100.99 43.82 90.09 44.84 90.07 49.98 76.68 51.22 76.66 61.86 97.69 59.82 97.66 67.12 74.83 122.22 88.53 121.05 97.92 97.95 106.91 119.34 119.99 118.22 105.27 82.55 114.12 58.39"/><polygon class="cls-1" points="163.81 74.66 176.98 73.7 180.52 48.52 180.5 37.45 144.58 40.27 144.6 52.34 167.44 50.47 163.81 74.66"/><path class="cls-1" d="M290.32,55.59l0-11.07-8.5.67,0-16.2L270,29.92,270.1,78l-49.18,3.87,0,19.85-61.17,4.81v-4.07l51.42-4-.1-63.89-11.67.92,0,7.81-12.09.95,0,9.85,12.08-.95v6.51l-12.08,1v9.85l12.09-1v8.14L148,81.68l0,8.95,51.51-4v4.23l-51.51,4,0,21.65,89.89-7.07h0l44-3.45-.08-49.73ZM232.7,99.92v-9L270.11,88l0,9Z"/><path class="cls-1" d="M242.67,15.52a.71.71,0,0,0,.66-.71l0-2.7a.62.62,0,0,0-.66-.64.72.72,0,0,0-.66.71v2.7A.62.62,0,0,0,242.67,15.52Z"/><path class="cls-1" d="M249.25,15.83a.65.65,0,0,0,.46-.22l2-2.14a.68.68,0,0,0,0-1,.65.65,0,0,0-.93.05l-2,2.13a.7.7,0,0,0,0,1A.6.6,0,0,0,249.25,15.83Z"/><path class="cls-1" d="M235.62,16.39a.6.6,0,0,0,.47.17.7.7,0,0,0,.47-1.18l-2-1.91a.65.65,0,0,0-.93,0,.69.69,0,0,0,0,1Z"/><path class="cls-1" d="M253.83,21a.52.52,0,0,0,.29-.09l2.64-1.49a.72.72,0,0,0,.3-.93.63.63,0,0,0-.88-.25l-2.64,1.5a.72.72,0,0,0-.3.92A.61.61,0,0,0,253.83,21Z"/><path class="cls-1" d="M228.54,21l2.63,1.21a.58.58,0,0,0,.29,0,.7.7,0,0,0,.59-.4.66.66,0,0,0-.29-.89l-2.63-1.21a.69.69,0,0,0-.88.35A.66.66,0,0,0,228.54,21Z"/><path class="cls-2" d="M242.81,21.74a9.13,9.13,0,0,0-8.45,8.9.77.77,0,0,0,.84.77.91.91,0,0,0,.85-.89,7.31,7.31,0,0,1,6.77-7.12.91.91,0,0,0,.84-.89A.77.77,0,0,0,242.81,21.74Z"/><path class="cls-2" d="M242.86,69.28a8.1,8.1,0,1,0-8.09-8.1A8.1,8.1,0,0,0,242.86,69.28Z"/><path class="cls-2" d="M242.86,69.28a8.1,8.1,0,1,0-8.09-8.1A8.1,8.1,0,0,0,242.86,69.28Z"/><path class="cls-2" d="M242.81,21.74a9.13,9.13,0,0,0-8.45,8.9.77.77,0,0,0,.84.77.91.91,0,0,0,.85-.89,7.31,7.31,0,0,1,6.77-7.12.91.91,0,0,0,.84-.89A.77.77,0,0,0,242.81,21.74Z"/><path class="cls-1" d="M266,38.6l-11.3,1,0-10.35a10.83,10.83,0,0,0-11.87-10.79A12.79,12.79,0,0,0,231,30.88V41.56l-11,.92v10l5.58-.47a14.27,14.27,0,0,0-2.19,7.59v5.21c0,8.73,8.9,15.38,19.83,14.77s20.35-8.29,20.34-17V57a12.44,12.44,0,0,0-3-7.94L266,48.6ZM242.86,69.28a8.1,8.1,0,1,1,8.1-8.1A8.1,8.1,0,0,1,242.86,69.28Zm-.05-47.54a.77.77,0,0,1,.85.77.91.91,0,0,1-.84.89,7.31,7.31,0,0,0-6.77,7.12.91.91,0,0,1-.85.89.77.77,0,0,1-.84-.77A9.13,9.13,0,0,1,242.81,21.74Z"/><polygon class="cls-1" points="0 10.3 0 47.09 9.09 39.5 91 28.93 91 0 0 10.3"/><path class="cls-3" d="M27.37,25.05l-4.2.52v7.12l-2.93.37V25.94l-4.2.52v7.12l-2.9.37V26.83L9,27.35V25l18.42-2.3Zm-2.06-4.39L11.16,22.43V14.55l2.92-.37v5.54l11.23-1.4Z"/><path class="cls-3" d="M46.11,24.91V27.3L27.65,29.61V27.22Zm-1.88-3.29c-3.55-.27-6.16-1.93-7.47-4.38a12.1,12.1,0,0,1-7.44,6.24l-1.24-2.3c4.58-1.37,7.13-4.95,7.12-7.9V11.81l3.12-.39v1.47c0,3,2.54,5.89,7.14,6.12Z"/><path class="cls-3" d="M50.08,22.3A55.77,55.77,0,0,0,58,20.78l.27,2.31a62.11,62.11,0,0,1-9.35,1.72L47.16,25l0-14.22,9.59-1.2V12l-6.67.83v3.35l6.38-.8v2.3l-6.38.8Zm15.21-5.23-3,.37V27.8l-2.92.36,0-20.58,2.92-.36,0,7.79,3-.37Z"/><path class="cls-3" d="M74.84,18.78c.79-.17,1.59-.31,2.34-.52l.18,2.12a75.22,75.22,0,0,1-12.24,2.36l-.31-2.37,2.28-.29,0-9.19-1.75.21V8.74L76.57,7.33V9.7l-1.75.22Zm-4.92.88,2.1-.33V10.27l-2.1.26ZM84,14.71l-3,.37,0,10.38-2.93.37,0-20.56L81,4.9v7.75l3-.37Z"/></g></g></svg>