
<svg width="139px" height="45px" viewBox="0 0 139 45" version="1.1" xmlns="http://www.w3.org/2000/svg" xmlns:xlink="http://www.w3.org/1999/xlink">
    <!-- Generator: Sketch 49 (51002) - http://www.bohemiancoding.com/sketch -->
    <desc>Created with Sketch.</desc>
    <defs>
        <polygon id="path-1" points="0.000382130584 0.0872832447 32.920932 0.0872832447 32.920932 38.030892 0.000382130584 38.030892"></polygon>
    </defs>
    <g id="Symbols" stroke="none" stroke-width="1" fill="none" fill-rule="evenodd">
        <g id="header-pc" transform="translate(-240.000000, -26.000000)">
            <g id="Page-1" transform="translate(240.000000, 26.000000)">
                <g id="Group-16">
                    <path d="M111.21968,33.2345861 L129.026965,32.2556428 L129.022188,27.9975914 L111.214425,28.9765348 L111.21968,33.2345861 Z M117.582154,13.7792025 C117.580243,12.0152265 115.912721,10.6489315 113.850649,10.7620851 C111.788099,10.8757083 110.084274,12.426993 110.086663,14.1914386 L110.08714,14.8431285 C110.089529,16.6470135 111.796697,17.9724605 113.858769,17.8593069 C115.921319,17.7456837 117.58502,16.2347774 117.583109,14.4313619 L117.582154,13.7792025 Z M105.617168,24.6034517 L129.016456,23.3174441 L128.989707,0.645398322 L134.581711,0.338334083 L134.590786,7.97221399 L138.636116,7.75013236 L138.642326,12.9674073 L134.596518,13.1899585 L134.624223,36.6287259 L105.632931,38.2217977 L105.617168,24.6034517 Z M116.617752,2.66807836 L123.875367,2.26945827 L123.880621,6.83457385 L118.962601,7.10501575 C121.18469,8.24875962 122.694106,10.1986645 122.696972,12.4626764 L122.699838,14.8792813 C122.704614,18.6767363 118.504522,22.0150035 113.704962,22.2793417 C108.866711,22.5450884 104.936975,19.653332 104.932199,15.855877 L104.929333,13.5928042 C104.926467,11.0602285 106.47123,9.0187678 108.571515,7.67641817 L103.733264,7.94216489 L103.727532,3.37657979 L111.065395,2.97326453 L111.062051,0.327065671 L116.614408,0.0218795008 L116.617752,2.66807836 Z" id="Fill-3" fill="#FFFFFF"></path>
                    <g id="Group-7" transform="translate(0.000000, 6.103723)">
                        <mask id="mask-2" fill="white">
                            <use xlink:href="#path-1"></use>
                        </mask>
                        <g id="Clip-6"></g>
                        <path d="M18.7988186,0.861047565 L24.3115299,0.557739464 L24.3263375,13.2943321 L27.3408701,13.1285926 L27.3255849,0.391999898 L32.8784199,0.0872832447 L32.920932,36.377675 L27.3680969,36.6823917 L27.3466021,18.2308358 L24.3325471,18.3961059 L24.3540419,36.8481312 L18.8418082,37.1509698 L18.7988186,0.861047565 Z M6.18373265,32.4759872 L15.6624818,31.9552927 L15.6682137,37.1716286 L0.0424164948,38.0313145 L0.000382130584,2.04798701 L6.14743024,1.71040415 L6.18373265,32.4759872 Z" id="Fill-5" fill="#FFFFFF" mask="url(#mask-2)"></path>
                    </g>
                    <path d="M100.985363,32.3005756 L76.5151533,33.6452728 L76.5170639,35.56372 L113.696937,33.5203812 L113.702191,37.7784326 L70.9298371,40.1293051 L70.9183732,29.9248186 L95.4282289,28.5777738 L95.4258405,26.5827953 L70.9155072,27.9298401 L70.9107306,23.7107587 L95.4210639,22.3637139 L95.4167649,18.527289 L89.6656997,18.843274 L89.6599677,14.2016271 L95.411033,13.8856421 L95.4072117,10.8168778 L89.6566241,11.1328628 L89.6508921,6.49121594 L95.4019574,6.17476135 L95.3976584,2.49186856 L100.950016,2.18668239 L100.985363,32.3005756 Z M69.3010055,4.15677649 L86.3951395,3.21727261 L86.4013491,8.43454757 L84.709466,20.2663806 L78.9192323,20.5847133 L80.6502838,8.75053263 L69.3072151,9.37405145 L69.3010055,4.15677649 Z" id="Fill-8" fill="#FFFFFF"></path>
                    <path d="M111.21968,33.2345861 L129.026965,32.2556428 L129.022188,27.9975914 L111.214425,28.9765348 L111.21968,33.2345861 Z M117.582154,13.7792025 C117.580243,12.0152265 115.912721,10.6489315 113.850649,10.7620851 C111.788099,10.8757083 110.084274,12.426993 110.086663,14.1914386 L110.08714,14.8431285 C110.089529,16.6470135 111.796697,17.9724605 113.858769,17.8593069 C115.921319,17.7456837 117.58502,16.2347774 117.583109,14.4313619 L117.582154,13.7792025 Z M105.617168,24.6034517 L129.016456,23.3174441 L128.989707,0.645398322 L134.581711,0.338334083 L134.590786,7.97221399 L138.636116,7.75013236 L138.642326,12.9674073 L134.596518,13.1899585 L134.624223,36.6287259 L105.632931,38.2217977 L105.617168,24.6034517 Z M116.617752,2.66807836 L123.875367,2.26945827 L123.880621,6.83457385 L118.962601,7.10501575 C121.18469,8.24875962 122.694106,10.1986645 122.696972,12.4626764 L122.699838,14.8792813 C122.704614,18.6767363 118.504522,22.0150035 113.704962,22.2793417 C108.866711,22.5450884 104.936975,19.653332 104.932199,15.855877 L104.929333,13.5928042 C104.926467,11.0602285 106.47123,9.0187678 108.571515,7.67641817 L103.733264,7.94216489 L103.727532,3.37657979 L111.065395,2.97326453 L111.062051,0.327065671 L116.614408,0.0218795008 L116.617752,2.66807836 Z" id="Fill-10" fill="#FFFFFF"></path>
                    <polygon id="Fill-12" fill="#FFFFFF" points="69.5323378 21.5007883 69.5261282 16.4370454 65.4807983 16.6595966 65.4659907 4.26809902 60.1916333 4.55826064 60.2341454 40.8486524 65.5089804 40.5589603 65.4865302 21.7233394"></polygon>
                    <polygon id="Fill-14" fill="#FFFFFF" points="54.2900564 11.7500432 54.2838467 6.57126862 47.581754 6.93983961 47.5779326 3.94760659 42.0255753 4.25279276 42.0293966 7.24502578 35.2074103 7.62017001 35.2131423 12.798475 46.4344069 12.181999 46.4344069 15.7338965 34.8911973 42.1644274 41.3558914 41.8090029 46.1024309 30.7298059 50.7161801 41.2948815 56.8632282 40.9568292 49.3061182 23.3414834"></polygon>
                </g>
            </g>
        </g>
    </g>
</svg>